#N canvas 406 28 1043 671 10;
#N canvas 321 141 953 576 get-input-from-arduino 0;
#X obj 363 118 cnv 15 100 22 empty empty empty 20 12 0 14 -253938 -66577
0;
#X obj 535 222 cnv 15 85 22 empty empty empty 20 12 0 14 -253938 -66577
0;
#X obj 152 96 cnv 15 60 22 empty empty empty 20 12 0 14 -253938 -66577
0;
#N canvas 146 163 525 433 serin 0;
#X obj 180 61 cnv 15 15 15 empty \$0-number-canvas 1 4 8 0 14 -233017
-1 0;
#X obj 200 225 s \$0-number-canvas;
#X obj 60 61 hradio 15 1 1 8 empty empty empty 0 -6 0 8 -225271 -1
-1 1;
#X obj 60 13 inlet;
#X msg 200 202 label \$1;
#X obj 200 180 makefilename %d;
#X obj 59 108 int;
#X msg 59 206 open \$1;
#X obj 59 377 outlet;
#X msg 201 306 set \$1 \$2;
#X obj 59 266 trigger bang anything;
#X obj 201 286 list;
#X obj 383 383 outlet;
#X obj 384 22 netreceive 34567;
#X obj 477 43 tgl 15 0 empty empty empty 0 -6 0 10 -262144 -1 -1 0
1;
#X obj 384 41 bng 15 250 50 0 empty empty empty 0 -6 0 10 -262144 -1
-1;
#X obj 187 24 delay 15000;
#X text 345 379 close;
#X text 209 4 for open/close automation in Makefile;
#X obj 184 95 bang;
#X obj 184 137 send ARDUINO_TEST_RESET;
#X msg 184 116 set 0;
#X connect 2 0 6 0;
#X connect 2 0 19 0;
#X connect 3 0 2 0;
#X connect 4 0 1 0;
#X connect 5 0 4 0;
#X connect 6 0 5 0;
#X connect 6 0 7 0;
#X connect 7 0 10 0;
#X connect 9 0 8 0;
#X connect 10 0 8 0;
#X connect 10 1 11 0;
#X connect 11 0 9 0;
#X connect 13 0 15 0;
#X connect 13 1 14 0;
#X connect 15 0 16 0;
#X connect 15 0 12 0;
#X connect 16 0 2 0;
#X connect 19 0 21 0;
#X connect 21 0 20 0;
#X coords 0 -1 1 1 136 17 1 60 60;
#X restore 158 75 pd serin;
#X text 155 57 serial port #;
#X msg 218 98 close;
#X obj 597 181 hsl 150 17 0 1 0 0 empty ARDUINO_TEST_RESET analog_output_(0-1)
20 9 1 10 -225271 -1 -1 0 0;
#X floatatom 152 496 5 0 0 3 a0 - -;
#X floatatom 198 496 5 0 0 3 a1 - -;
#X floatatom 244 496 5 0 0 3 a2 - -;
#X floatatom 290 496 5 0 0 3 a3 - -;
#X floatatom 336 496 5 0 0 3 a4 - -;
#X floatatom 382 496 5 0 0 3 a5 - -;
#X obj 543 143 hradio 15 1 0 14 empty empty empty 0 -6 0 8 -176124
-1 -1 0;
#X text 651 129 7;
#X text 545 129 0;
#X text 692 129 10;
#X text 738 129 13;
#X text 603 129 4;
#X text 574 129 2;
#X text 619 129 5;
#X text 634 129 6;
#X text 589 129 3;
#X text 665 129 8;
#X text 682 129 9;
#X text 708 129 11;
#X text 723 129 12;
#X text 560 129 1;
#X msg 251 138 info;
#X msg 251 158 version;
#N canvas 763 71 475 478 sending 0;
#X obj 69 228 cnv 15 100 22 empty empty empty 20 12 0 14 -253938 -66577
0;
#X obj 78 434 outlet;
#X msg 78 231 digital 9 0;
#X obj 127 148 tgl 15 0 empty ARDUINO_TEST_RESET 7 4 -6 1 12 -233017
-1 -1 0 1;
#X obj 144 148 tgl 15 0 empty ARDUINO_TEST_RESET 8 4 -6 1 12 -233017
-1 -1 0 1;
#X obj 161 148 tgl 15 0 empty ARDUINO_TEST_RESET 9 4 -6 1 12 -233017
-1 -1 0 1;
#X obj 178 148 tgl 15 0 empty ARDUINO_TEST_RESET 10 0 -6 1 12 -233017
-1 -1 0 1;
#X obj 195 148 tgl 15 0 empty ARDUINO_TEST_RESET 11 0 -6 1 12 -233017
-1 -1 0 1;
#X obj 212 148 tgl 15 0 empty ARDUINO_TEST_RESET 12 0 -6 1 12 -233017
-1 -1 0 1;
#X obj 229 148 tgl 15 0 empty ARDUINO_TEST_RESET 13 0 -6 1 12 -233017
-1 -1 0 1;
#X obj 42 148 tgl 15 0 empty ARDUINO_TEST_RESET 2 4 -6 1 12 -233017
-1 -1 0 1;
#X obj 59 148 tgl 15 0 empty ARDUINO_TEST_RESET 3 4 -6 1 12 -233017
-1 -1 0 1;
#X obj 76 148 tgl 15 0 empty ARDUINO_TEST_RESET 4 4 -6 1 12 -233017
-1 -1 0 1;
#X obj 93 148 tgl 15 0 empty ARDUINO_TEST_RESET 5 4 -6 1 12 -233017
-1 -1 0 1;
#X obj 110 148 tgl 15 0 empty ARDUINO_TEST_RESET 6 4 -6 1 12 -233017
-1 -1 0 1;
#X obj 418 123 tgl 25 0 empty ARDUINO_TEST_RESET ALL 2 12 0 12 -262144
-1 -1 0 1;
#X obj 388 72 tgl 15 0 empty empty empty 0 -6 0 8 -262144 -1 -1 0 16383
;
#X obj 388 92 metro 100;
#X obj 301 9 inlet;
#X obj 301 43 trigger 0 float;
#X obj 301 64 select 0;
#X msg 301 84 0;
#X msg 405 389 port 1 0;
#X msg 263 389 port 0 0;
#X msg 189 389 port 0 255;
#X msg 331 389 port 1 255;
#X text 95 291 or send 8-bit ports in one message:;
#X msg 159 338 port 1 \$1;
#X msg 91 338 port 0 \$1;
#X msg 230 338 port 2 \$1;
#X obj 362 297 tgl 25 0 empty ARDUINO_TEST_RESET ALL 2 12 0 12 -262144
-1 -1 0 1;
#X obj 362 246 tgl 15 0 empty empty empty 0 -6 0 8 -262144 -1 -1 0
16383;
#X obj 362 266 metro 100;
#X floatatom 362 329 5 0 0 0 - - -;
#X obj 246 148 tgl 15 0 empty ARDUINO_TEST_RESET 14 0 -6 1 12 -233017
-1 -1 0 1;
#X obj 263 148 tgl 15 0 empty ARDUINO_TEST_RESET 15 0 -6 1 12 -233017
-1 -1 0 1;
#X obj 280 148 tgl 15 0 empty ARDUINO_TEST_RESET 16 0 -6 1 12 -233017
-1 -1 0 1;
#X obj 297 148 tgl 15 0 empty ARDUINO_TEST_RESET 17 0 -6 1 12 -233017
-1 -1 0 1;
#X obj 314 148 tgl 15 0 empty ARDUINO_TEST_RESET 18 0 -6 1 12 -233017
-1 -1 0 1;
#X obj 331 148 tgl 15 0 empty ARDUINO_TEST_RESET 19 0 -6 1 12 -233017
-1 -1 0 1;
#X obj 348 148 tgl 15 0 empty ARDUINO_TEST_RESET 20 0 -6 1 12 -233017
-1 -1 0 1;
#X obj 365 148 tgl 15 0 empty ARDUINO_TEST_RESET 21 0 -6 1 12 -233017
-1 -1 0 1;
#N canvas 314 233 1035 340 generate 0;
#X obj 12 24 inlet;
#X obj 52 24 inlet;
#X obj 91 24 inlet;
#X obj 131 24 inlet;
#X obj 171 24 inlet;
#X obj 211 24 inlet;
#X obj 250 24 inlet;
#X obj 290 24 inlet;
#X obj 331 23 inlet;
#X obj 371 23 inlet;
#X obj 410 23 inlet;
#X obj 450 23 inlet;
#X obj 490 23 inlet;
#X msg 12 66 digital 0 \$1;
#X msg 52 88 digital 1 \$1;
#X msg 91 110 digital 2 \$1;
#X msg 131 130 digital 3 \$1;
#X msg 171 62 digital 4 \$1;
#X msg 211 84 digital 5 \$1;
#X msg 250 106 digital 6 \$1;
#X msg 290 126 digital 7 \$1;
#X msg 331 58 digital 8 \$1;
#X msg 371 80 digital 9 \$1;
#X msg 410 102 digital 10 \$1;
#X msg 450 122 digital 11 \$1;
#X msg 490 50 digital 12 \$1;
#X obj 529 23 inlet;
#X msg 529 70 digital 13 \$1;
#X obj 513 302 outlet;
#X obj 513 263 trigger bang anything;
#X obj 513 214 list prepend set;
#X obj 513 238 list trim;
#X obj 570 23 inlet;
#X obj 610 23 inlet;
#X obj 650 23 inlet;
#X obj 689 23 inlet;
#X msg 570 102 digital 14 \$1;
#X msg 610 122 digital 15 \$1;
#X msg 650 50 digital 16 \$1;
#X msg 689 70 digital 17 \$1;
#X obj 730 23 inlet;
#X obj 770 23 inlet;
#X obj 810 23 inlet;
#X obj 849 23 inlet;
#X msg 730 102 digital 18 \$1;
#X msg 770 122 digital 19 \$1;
#X msg 810 50 digital 20 \$1;
#X msg 849 70 digital 21 \$1;
#X obj 890 23 inlet;
#X obj 930 23 inlet;
#X msg 890 102 digital 22 \$1;
#X msg 930 122 digital 23 \$1;
#X connect 0 0 13 0;
#X connect 1 0 14 0;
#X connect 2 0 15 0;
#X connect 3 0 16 0;
#X connect 4 0 17 0;
#X connect 5 0 18 0;
#X connect 6 0 19 0;
#X connect 7 0 20 0;
#X connect 8 0 21 0;
#X connect 9 0 22 0;
#X connect 10 0 23 0;
#X connect 11 0 24 0;
#X connect 12 0 25 0;
#X connect 13 0 30 0;
#X connect 14 0 30 0;
#X connect 15 0 30 0;
#X connect 16 0 30 0;
#X connect 17 0 30 0;
#X connect 18 0 30 0;
#X connect 19 0 30 0;
#X connect 20 0 30 0;
#X connect 21 0 30 0;
#X connect 22 0 30 0;
#X connect 23 0 30 0;
#X connect 24 0 30 0;
#X connect 25 0 30 0;
#X connect 26 0 27 0;
#X connect 27 0 30 0;
#X connect 29 0 28 0;
#X connect 29 1 28 0;
#X connect 30 0 31 0;
#X connect 31 0 29 0;
#X connect 32 0 36 0;
#X connect 33 0 37 0;
#X connect 34 0 38 0;
#X connect 35 0 39 0;
#X connect 36 0 30 0;
#X connect 37 0 30 0;
#X connect 38 0 30 0;
#X connect 39 0 30 0;
#X connect 40 0 44 0;
#X connect 41 0 45 0;
#X connect 42 0 46 0;
#X connect 43 0 47 0;
#X connect 44 0 30 0;
#X connect 45 0 30 0;
#X connect 46 0 30 0;
#X connect 47 0 30 0;
#X connect 48 0 50 0;
#X connect 49 0 51 0;
#X connect 50 0 30 0;
#X connect 51 0 30 0;
#X restore 78 201 pd generate digital out messages ------------------
;
#X obj 382 148 tgl 15 0 empty ARDUINO_TEST_RESET 22 0 -6 1 12 -233017
-1 -1 0 1;
#X obj 399 148 tgl 15 0 empty ARDUINO_TEST_RESET 23 0 -6 1 12 -233017
-1 -1 0 1;
#X obj 8 148 tgl 15 0 empty ARDUINO_TEST_RESET 0 4 -6 1 12 -233017
-1 -1 0 1;
#X obj 25 148 tgl 15 0 empty ARDUINO_TEST_RESET 1 4 -6 1 12 -233017
-1 -1 0 1;
#X connect 2 0 1 0;
#X connect 3 0 42 7;
#X connect 4 0 42 8;
#X connect 5 0 42 9;
#X connect 6 0 42 10;
#X connect 7 0 42 11;
#X connect 8 0 42 12;
#X connect 9 0 42 13;
#X connect 10 0 42 2;
#X connect 11 0 42 3;
#X connect 12 0 42 4;
#X connect 13 0 42 5;
#X connect 14 0 42 6;
#X connect 15 0 9 0;
#X connect 15 0 8 0;
#X connect 15 0 7 0;
#X connect 15 0 6 0;
#X connect 15 0 5 0;
#X connect 15 0 4 0;
#X connect 15 0 3 0;
#X connect 15 0 14 0;
#X connect 15 0 13 0;
#X connect 15 0 12 0;
#X connect 15 0 11 0;
#X connect 15 0 10 0;
#X connect 15 0 39 0;
#X connect 15 0 40 0;
#X connect 15 0 41 0;
#X connect 15 0 38 0;
#X connect 15 0 37 0;
#X connect 15 0 36 0;
#X connect 15 0 35 0;
#X connect 15 0 34 0;
#X connect 15 0 44 0;
#X connect 15 0 43 0;
#X connect 15 0 46 0;
#X connect 15 0 45 0;
#X connect 16 0 17 0;
#X connect 17 0 15 0;
#X connect 18 0 19 0;
#X connect 19 0 20 0;
#X connect 19 1 16 0;
#X connect 20 0 21 0;
#X connect 21 0 15 0;
#X connect 22 0 1 0;
#X connect 23 0 1 0;
#X connect 24 0 1 0;
#X connect 25 0 1 0;
#X connect 27 0 1 0;
#X connect 28 0 1 0;
#X connect 29 0 1 0;
#X connect 30 0 33 0;
#X connect 30 0 29 0;
#X connect 30 0 27 0;
#X connect 30 0 28 0;
#X connect 31 0 32 0;
#X connect 32 0 30 0;
#X connect 34 0 42 14;
#X connect 35 0 42 15;
#X connect 36 0 42 16;
#X connect 37 0 42 17;
#X connect 38 0 42 18;
#X connect 39 0 42 19;
#X connect 40 0 42 20;
#X connect 41 0 42 21;
#X connect 42 0 2 0;
#X connect 43 0 42 22;
#X connect 44 0 42 23;
#X connect 45 0 42 0;
#X connect 46 0 42 1;
#X restore 541 274 pd sending digital outs;
#X obj 541 255 tgl 15 0 empty ARDUINO_TEST_RESET empty 0 -6 0 8 -225271
-1 -1 0 16383;
#X floatatom 428 496 5 0 0 3 a6 - -;
#X floatatom 474 496 5 0 0 3 a7 - -;
#X obj 251 439 route 0 1 2 3 4 5 6 7;
#X obj 527 503 route 0 1 2 3 4 5 6 7 8 9 10 11 12 13;
#X obj 558 525 tgl 15 0 empty ARDUINO_TEST_RESET 2 4 23 1 12 -232448
-1 -1 0 1;
#X obj 575 525 tgl 15 0 empty ARDUINO_TEST_RESET 3 4 23 1 12 -232448
-1 -1 0 1;
#X obj 592 525 tgl 15 0 empty ARDUINO_TEST_RESET 4 4 23 1 12 -232448
-1 -1 0 1;
#X obj 609 525 tgl 15 0 empty ARDUINO_TEST_RESET 5 4 23 1 12 -232448
-1 -1 0 1;
#X obj 626 525 tgl 15 0 empty ARDUINO_TEST_RESET 6 4 23 1 12 -232448
-1 -1 0 1;
#X obj 643 525 tgl 15 0 empty ARDUINO_TEST_RESET 7 4 23 1 12 -232448
-1 -1 0 1;
#X obj 660 525 tgl 15 0 empty ARDUINO_TEST_RESET 8 4 23 1 12 -232448
-1 -1 0 1;
#X obj 677 525 tgl 15 0 empty ARDUINO_TEST_RESET 9 4 23 1 12 -232448
-1 -1 0 1;
#X obj 694 525 tgl 15 0 empty ARDUINO_TEST_RESET 10 0 23 1 12 -232448
-1 -1 0 1;
#X obj 711 525 tgl 15 0 empty ARDUINO_TEST_RESET 11 0 23 1 12 -232448
-1 -1 0 1;
#X obj 728 525 tgl 15 0 empty ARDUINO_TEST_RESET 12 0 23 1 12 -232448
-1 -1 0 1;
#X obj 745 525 tgl 15 0 empty ARDUINO_TEST_RESET 13 0 23 1 12 -232448
-1 -1 0 1;
#N canvas 3 48 451 224 ver 0;
#X obj 23 7 inlet;
#X obj 250 100 cnv 15 145 17 empty \$0-version_cnv Firmata-2.1 4 10
0 12 -203904 -1 0;
#X obj 23 157 send \$0-version_cnv;
#X msg 23 132 label \$1;
#X obj 48 103 symbol;
#X obj 38 77 loadbang;
#X msg 96 78 bang;
#X obj 309 163 outlet;
#X obj 23 52 zexy/makesymbol Firmata-%s.%s;
#X obj 23 29 route version bang;
#X obj 383 161 outlet;
#X connect 0 0 9 0;
#X connect 3 0 2 0;
#X connect 4 0 3 0;
#X connect 5 0 4 0;
#X connect 6 0 4 0;
#X connect 8 0 3 0;
#X connect 9 0 8 0;
#X connect 9 1 7 0;
#X connect 9 1 6 0;
#X connect 9 2 7 0;
#X connect 9 2 10 0;
#X coords 0 -1 1 1 145 17 1 250 100;
#X restore 527 387 pd ver;
#X obj 251 342 arduino 1;
#N canvas 649 518 411 212 firmware 0;
#X obj 123 2 inlet;
#X obj 250 100 cnv 15 145 17 empty \$0-firmware_cnv FirmataAllInputs_ExceptOnePWMOut-0.1
4 10 0 12 -232576 -66577 0;
#X msg 123 156 label \$1;
#X obj 148 127 symbol;
#X obj 138 101 loadbang;
#X msg 196 102 bang;
#X obj 123 181 send \$0-firmware_cnv;
#X obj 123 24 route firmware;
#X obj 18 181 print Firmware;
#X obj 123 49 list;
#X obj 123 80 zexy/makesymbol %s-%s.%s;
#X obj 18 151 list trim;
#X obj 204 45 route bang;
#X connect 0 0 7 0;
#X connect 2 0 6 0;
#X connect 3 0 2 0;
#X connect 4 0 3 0;
#X connect 5 0 3 0;
#X connect 7 0 9 0;
#X connect 7 1 12 0;
#X connect 9 0 10 0;
#X connect 10 0 2 0;
#X connect 10 0 11 0;
#X connect 11 0 8 0;
#X connect 12 0 5 0;
#X coords 0 -1 1 1 145 17 1 250 100;
#X restore 527 407 pd firmware;
#X msg 251 198 devices;
#X msg 251 178 firmware;
#N canvas 0 22 450 300 STRING 0;
#X obj 48 13 inlet;
#X obj 51 93 moocow/string2any 32 -1;
#X obj 51 154 print STRING;
#X connect 0 0 1 0;
#X connect 1 0 2 0;
#X restore 526 459 pd STRING;
#X text 527 553 released under the GNU GPL v2 or later;
#N canvas 626 98 404 287 device 0;
#X obj 35 60 inlet;
#X obj 35 118 route open port ports;
#X obj 35 169 tgl 15 0 empty empty open -3 20 0 10 -262144 -1 -1 0
1;
#X floatatom 76 170 5 0 0 3 port - -;
#X obj 117 170 print comport_ports;
#X obj 252 170 outlet;
#X obj 235 74 receive ARDUINO_TEST_RESET;
#X obj 235 97 bang;
#X connect 0 0 1 0;
#X connect 1 0 2 0;
#X connect 1 1 3 0;
#X connect 1 2 4 0;
#X connect 1 3 5 0;
#X connect 6 0 7 0;
#X connect 7 0 5 0;
#X restore 527 365 pd device info;
#N canvas 0 22 450 300 sysex 0;
#X obj 139 19 inlet;
#X obj 127 109 moocow/string2any 32 -1;
#X obj 127 170 print STRING;
#X obj 97 55 list split 1;
#X obj 40 109 print COMMAND;
#X obj 210 54 print sysex;
#X connect 0 0 3 0;
#X connect 0 0 5 0;
#X connect 1 0 2 0;
#X connect 3 0 4 0;
#X connect 3 1 1 0;
#X restore 591 459 pd sysex;
#X text 619 365 <- open to see info;
#N canvas 455 300 456 413 pinMode 0;
#X obj 94 267 outlet;
#X obj 122 100 vradio 10 1 0 6 THIS_HIDES_THE_OUTLET ARDUINO_TEST_RESET
2 2 -8 0 10 -261682 -1 -1 0;
#X obj 132 100 vradio 10 1 0 6 THIS_HIDES_THE_OUTLET ARDUINO_TEST_RESET
3 2 -8 0 10 -261682 -1 -1 0;
#X obj 142 100 vradio 10 1 0 6 THIS_HIDES_THE_OUTLET ARDUINO_TEST_RESET
4 2 -8 0 10 -261682 -1 -1 0;
#X obj 152 100 vradio 10 1 0 6 THIS_HIDES_THE_OUTLET ARDUINO_TEST_RESET
5 2 -8 0 10 -261682 -1 -1 0;
#X obj 162 100 vradio 10 1 0 6 THIS_HIDES_THE_OUTLET ARDUINO_TEST_RESET
6 2 -8 0 10 -261682 -1 -1 0;
#X obj 172 100 vradio 10 1 0 6 THIS_HIDES_THE_OUTLET ARDUINO_TEST_RESET
7 2 -8 0 10 -261682 -1 -1 0;
#X obj 182 100 vradio 10 1 0 6 THIS_HIDES_THE_OUTLET ARDUINO_TEST_RESET
8 2 -8 0 10 -261682 -1 -1 0;
#X obj 192 100 vradio 10 1 0 6 THIS_HIDES_THE_OUTLET ARDUINO_TEST_RESET
9 2 -8 0 10 -261682 -1 -1 0;
#X obj 202 100 vradio 10 1 0 6 THIS_HIDES_THE_OUTLET ARDUINO_TEST_RESET
10 0 -8 0 8 -261682 -1 -1 0;
#X obj 212 100 vradio 10 1 0 6 THIS_HIDES_THE_OUTLET ARDUINO_TEST_RESET
11 0 -8 0 8 -261682 -1 -1 0;
#X obj 222 100 vradio 10 1 0 6 THIS_HIDES_THE_OUTLET ARDUINO_TEST_RESET
12 0 -8 0 8 -261682 -1 -1 0;
#X obj 232 100 vradio 10 1 0 6 THIS_HIDES_THE_OUTLET ARDUINO_TEST_RESET
13 0 -8 0 8 -261682 -1 -1 0;
#X obj 242 100 vradio 10 1 0 6 THIS_HIDES_THE_OUTLET ARDUINO_TEST_RESET
14 0 -8 0 8 -261682 -1 -1 0;
#X obj 252 100 vradio 10 1 0 6 THIS_HIDES_THE_OUTLET ARDUINO_TEST_RESET
15 0 -8 0 8 -261682 -1 -1 0;
#X obj 262 100 vradio 10 1 0 6 THIS_HIDES_THE_OUTLET ARDUINO_TEST_RESET
16 0 -8 0 8 -261682 -1 -1 0;
#X obj 272 100 vradio 10 1 0 6 THIS_HIDES_THE_OUTLET ARDUINO_TEST_RESET
17 0 -8 0 8 -261682 -1 -1 0;
#X obj 282 100 vradio 10 1 0 6 THIS_HIDES_THE_OUTLET ARDUINO_TEST_RESET
18 0 -8 0 8 -261682 -1 -1 0;
#X obj 292 100 vradio 10 1 0 6 THIS_HIDES_THE_OUTLET ARDUINO_TEST_RESET
19 0 -8 0 8 -261682 -1 -1 0;
#X obj 302 100 vradio 10 1 0 6 THIS_HIDES_THE_OUTLET ARDUINO_TEST_RESET
20 0 -8 0 8 -261682 -1 -1 0;
#X obj 312 100 vradio 10 1 0 6 THIS_HIDES_THE_OUTLET ARDUINO_TEST_RESET
21 0 -8 0 8 -261682 -1 -1 0;
#N canvas 72 484 1069 446 send-to-arduino---------------------- 0;
#X obj 49 14 inlet;
#X obj 89 14 inlet;
#X obj 128 14 inlet;
#X obj 168 14 inlet;
#X obj 208 14 inlet;
#X obj 248 14 inlet;
#X obj 287 14 inlet;
#X obj 327 14 inlet;
#X obj 368 13 inlet;
#X obj 408 13 inlet;
#X obj 447 13 inlet;
#X obj 487 13 inlet;
#X obj 527 13 inlet;
#X msg 49 56 pinMode 0 \$1;
#X msg 89 78 pinMode 1 \$1;
#X msg 128 100 pinMode 2 \$1;
#X msg 168 120 pinMode 3 \$1;
#X msg 208 52 pinMode 4 \$1;
#X msg 248 74 pinMode 5 \$1;
#X msg 287 96 pinMode 6 \$1;
#X msg 327 116 pinMode 7 \$1;
#X msg 368 48 pinMode 8 \$1;
#X msg 408 70 pinMode 9 \$1;
#X msg 447 92 pinMode 10 \$1;
#X msg 487 112 pinMode 11 \$1;
#X msg 527 40 pinMode 12 \$1;
#X obj 566 13 inlet;
#X msg 566 60 pinMode 13 \$1;
#X obj 607 13 inlet;
#X obj 647 13 inlet;
#X obj 687 13 inlet;
#X obj 726 13 inlet;
#X obj 767 13 inlet;
#X obj 807 13 inlet;
#X obj 847 13 inlet;
#X obj 886 13 inlet;
#X msg 607 92 pinMode 14 \$1;
#X msg 647 112 pinMode 15 \$1;
#X msg 687 40 pinMode 16 \$1;
#X msg 726 60 pinMode 17 \$1;
#X msg 767 92 pinMode 18 \$1;
#X msg 807 112 pinMode 19 \$1;
#X msg 847 40 pinMode 20 \$1;
#X msg 886 60 pinMode 21 \$1;
#X obj 927 13 inlet;
#X obj 967 13 inlet;
#X msg 927 92 pinMode 22 \$1;
#X msg 967 112 pinMode 23 \$1;
#X obj 521 427 outlet;
#X obj 481 403 trigger bang anything;
#X obj 481 358 list prepend set;
#X obj 481 380 list trim;
#X obj 481 199 list;
#X obj 481 221 unpack symbol float float;
#X obj 481 331 pack symbol float symbol;
#X obj 622 311 symbol;
#X msg 659 284 analog;
#X msg 707 284 pwm;
#X msg 737 284 servo;
#X obj 739 364 list trim;
#X obj 739 341 list prepend WARNING Unsupported pin mode:;
#X obj 739 386 print [arduino];
#X msg 568 284 input;
#X msg 609 284 output;
#X obj 628 240 - 1;
#X obj 628 259 select 0 1 2 3 4 -1;
#X text 757 258 (-1 == NONE);
#X connect 0 0 13 0;
#X connect 1 0 14 0;
#X connect 2 0 15 0;
#X connect 3 0 16 0;
#X connect 4 0 17 0;
#X connect 5 0 18 0;
#X connect 6 0 19 0;
#X connect 7 0 20 0;
#X connect 8 0 21 0;
#X connect 9 0 22 0;
#X connect 10 0 23 0;
#X connect 11 0 24 0;
#X connect 12 0 25 0;
#X connect 13 0 52 0;
#X connect 14 0 52 0;
#X connect 15 0 52 0;
#X connect 16 0 52 0;
#X connect 17 0 52 0;
#X connect 18 0 52 0;
#X connect 19 0 52 0;
#X connect 20 0 52 0;
#X connect 21 0 52 0;
#X connect 22 0 52 0;
#X connect 23 0 52 0;
#X connect 24 0 52 0;
#X connect 25 0 52 0;
#X connect 26 0 27 0;
#X connect 27 0 52 0;
#X connect 28 0 36 0;
#X connect 29 0 37 0;
#X connect 30 0 38 0;
#X connect 31 0 39 0;
#X connect 32 0 40 0;
#X connect 33 0 41 0;
#X connect 34 0 42 0;
#X connect 35 0 43 0;
#X connect 36 0 52 0;
#X connect 37 0 52 0;
#X connect 38 0 52 0;
#X connect 39 0 52 0;
#X connect 40 0 52 0;
#X connect 41 0 52 0;
#X connect 42 0 52 0;
#X connect 43 0 52 0;
#X connect 44 0 46 0;
#X connect 45 0 47 0;
#X connect 46 0 52 0;
#X connect 47 0 52 0;
#X connect 49 0 48 0;
#X connect 49 1 48 0;
#X connect 50 0 51 0;
#X connect 51 0 49 0;
#X connect 52 0 53 0;
#X connect 53 0 54 0;
#X connect 53 1 54 1;
#X connect 53 2 64 0;
#X connect 54 0 50 0;
#X connect 55 0 54 2;
#X connect 56 0 55 0;
#X connect 57 0 55 0;
#X connect 58 0 55 0;
#X connect 59 0 61 0;
#X connect 60 0 59 0;
#X connect 62 0 55 0;
#X connect 63 0 55 0;
#X connect 64 0 65 0;
#X connect 65 0 62 0;
#X connect 65 1 63 0;
#X connect 65 2 56 0;
#X connect 65 3 57 0;
#X connect 65 4 58 0;
#X connect 65 6 60 0;
#X restore 94 189 pd send-to-arduino----------------------;
#X obj 322 100 vradio 10 1 0 6 THIS_HIDES_THE_OUTLET ARDUINO_TEST_RESET
22 0 -8 0 8 -261682 -1 -1 0;
#X obj 332 100 vradio 10 1 0 6 THIS_HIDES_THE_OUTLET ARDUINO_TEST_RESET
23 0 -8 0 8 -261682 -1 -1 0;
#X obj 100 100 cnv 10 10 60 empty empty Rx 0 23 0 8 -191407 -86277
0;
#X obj 111 100 cnv 10 10 60 empty empty Tx 0 23 0 8 -191407 -13381
0;
#X obj 67 -60 inlet;
#X obj 81 -40 inlet;
#X obj 99 -20 inlet;
#X obj 115 -2 inlet;
#X obj 129 18 inlet;
#X obj 147 38 inlet;
#X obj 132 -63 inlet;
#X obj 146 -43 inlet;
#X obj 164 -23 inlet;
#X obj 180 -5 inlet;
#X obj 194 15 inlet;
#X obj 212 35 inlet;
#X obj 202 -61 inlet;
#X obj 216 -41 inlet;
#X obj 234 -21 inlet;
#X obj 250 -3 inlet;
#X obj 264 17 inlet;
#X obj 282 37 inlet;
#X obj 268 -56 inlet;
#X obj 282 -36 inlet;
#X obj 300 -16 inlet;
#X obj 316 2 inlet;
#X connect 1 0 21 2;
#X connect 2 0 21 3;
#X connect 3 0 21 4;
#X connect 4 0 21 5;
#X connect 5 0 21 6;
#X connect 6 0 21 7;
#X connect 7 0 21 8;
#X connect 8 0 21 9;
#X connect 9 0 21 10;
#X connect 10 0 21 11;
#X connect 11 0 21 12;
#X connect 12 0 21 13;
#X connect 13 0 21 14;
#X connect 14 0 21 15;
#X connect 15 0 21 16;
#X connect 16 0 21 17;
#X connect 17 0 21 18;
#X connect 18 0 21 19;
#X connect 19 0 21 20;
#X connect 20 0 21 21;
#X connect 21 0 0 0;
#X connect 22 0 21 22;
#X connect 23 0 21 23;
#X connect 26 0 1 0;
#X connect 27 0 2 0;
#X connect 28 0 3 0;
#X connect 29 0 4 0;
#X connect 30 0 5 0;
#X connect 31 0 6 0;
#X connect 32 0 7 0;
#X connect 33 0 8 0;
#X connect 34 0 9 0;
#X connect 35 0 10 0;
#X connect 36 0 11 0;
#X connect 37 0 12 0;
#X connect 38 0 13 0;
#X connect 39 0 14 0;
#X connect 40 0 15 0;
#X connect 41 0 16 0;
#X connect 42 0 17 0;
#X connect 43 0 18 0;
#X connect 44 0 19 0;
#X connect 45 0 20 0;
#X connect 46 0 22 0;
#X connect 47 0 23 0;
#X coords 0 -1 1 1 242 60 2 100 100;
#X restore 369 56 pd pinMode;
#X text 616 101 servo;
#X text 616 91 pwm;
#X text 616 63 input;
#X text 616 72 output;
#X text 616 82 analog;
#N canvas 72 104 423 503 analog 0;
#X obj 38 10 inlet;
#X obj 131 10 inlet;
#X obj 38 259 pack float float;
#X obj 192 113 route float symbol;
#X obj 188 259 pack float symbol;
#X text 78 11 pin#;
#X text 179 10 PWM value or "off";
#X obj 39 217 cyclone/gate 2;
#X msg 191 153 1;
#X msg 252 153 2;
#X obj 131 34 list;
#X obj 131 113 float;
#X obj 131 67 trigger bang anything;
#X obj 37 427 outlet;
#X obj 37 356 trigger bang anything;
#X obj 179 376 list;
#X msg 179 396 set \$1 \$2 \$3;
#X msg 37 308 analog \$1 \$2;
#X connect 0 0 11 0;
#X connect 1 0 10 0;
#X connect 2 0 17 0;
#X connect 3 0 8 0;
#X connect 3 0 2 1;
#X connect 3 1 9 0;
#X connect 3 1 4 1;
#X connect 4 0 17 0;
#X connect 7 0 2 0;
#X connect 7 1 4 0;
#X connect 8 0 7 0;
#X connect 9 0 7 0;
#X connect 10 0 12 0;
#X connect 11 0 7 1;
#X connect 12 0 11 0;
#X connect 12 1 3 0;
#X connect 14 0 13 0;
#X connect 14 1 15 0;
#X connect 15 0 16 0;
#X connect 16 0 13 0;
#X connect 17 0 14 0;
#X restore 543 202 pd analog;
#X obj 524 525 tgl 15 0 empty ARDUINO_TEST_RESET 0 4 23 1 12 -232448
-1 -1 0 1;
#X obj 541 525 tgl 15 0 empty ARDUINO_TEST_RESET 1 4 23 1 12 -232448
-1 -1 0 1;
#X text 315 176 <-- get firmware name and version;
#X text 315 137 <-- get connection info;
#X text 311 341 <-- argument sets port #;
#X text 219 37 configure mode for each pin:;
#X text 315 196 <-- list available serial devices;
#X text 559 254 <-- pulse all outputs;
#X text 333 527 digital inputs show up here -->;
#X text 139 439 analog inputs:;
#X text 616 52 NONE;
#X obj 251 374 route analog digital string sysex;
#X msg 158 98 open 1;
#X text 548 161 switch pin to 'pwm' or 'servo' first;
#X msg 543 224 analog 9 1;
#X msg 369 120 pinMode 9 output;
#X msg -71 282 analogIns 6 1;
#N canvas 590 274 610 460 serin 0;
#X obj 59 337 outlet;
#X obj 59 266 trigger bang anything;
#X obj 201 286 list;
#X obj 60 61 tgl 15 0 junk_to_hide_inlet ARDUINO_TEST_RESET 0 5 9 1
12 -262130 -1 -1 1 1;
#X obj 75 61 tgl 15 0 junk_to_hide_inlet ARDUINO_TEST_RESET 1 5 9 1
12 -262130 -1 -1 1 1;
#X obj 90 61 tgl 15 0 junk_to_hide_inlet ARDUINO_TEST_RESET 2 5 9 1
12 -262130 -1 -1 1 1;
#X obj 105 61 tgl 15 0 junk_to_hide_inlet ARDUINO_TEST_RESET 3 5 9
1 12 -262130 -1 -1 1 1;
#X obj 120 61 tgl 15 0 junk_to_hide_inlet ARDUINO_TEST_RESET 4 5 9
1 12 -262130 -1 -1 0 1;
#X obj 135 61 tgl 15 0 junk_to_hide_inlet ARDUINO_TEST_RESET 5 5 9
1 12 -262130 -1 -1 0 1;
#X obj 150 61 tgl 15 0 junk_to_hide_inlet ARDUINO_TEST_RESET 6 5 9
1 12 -262130 -1 -1 1 1;
#X obj 165 61 tgl 15 0 junk_to_hide_inlet ARDUINO_TEST_RESET 7 5 9
1 12 -262130 -1 -1 1 1;
#X msg 59 210 analogIns \$1 \$2;
#X msg 35 106 0 \$1;
#X msg 70 106 1 \$1;
#X msg 105 106 2 \$1;
#X msg 140 106 3 \$1;
#X msg 175 106 4 \$1;
#X msg 210 106 5 \$1;
#X msg 245 106 6 \$1;
#X msg 280 106 7 \$1;
#X msg 202 307 set \$1 \$2 \$3;
#X obj -25 25 inlet;
#X obj 16 25 inlet;
#X obj 56 25 inlet;
#X obj 97 25 inlet;
#X obj 137 25 inlet;
#X obj 178 25 inlet;
#X obj 218 25 inlet;
#X obj 259 25 inlet;
#X connect 1 0 0 0;
#X connect 1 1 2 0;
#X connect 2 0 20 0;
#X connect 3 0 12 0;
#X connect 4 0 13 0;
#X connect 5 0 14 0;
#X connect 6 0 15 0;
#X connect 7 0 16 0;
#X connect 8 0 17 0;
#X connect 9 0 18 0;
#X connect 10 0 19 0;
#X connect 11 0 1 0;
#X connect 12 0 11 0;
#X connect 13 0 11 0;
#X connect 14 0 11 0;
#X connect 15 0 11 0;
#X connect 16 0 11 0;
#X connect 17 0 11 0;
#X connect 18 0 11 0;
#X connect 19 0 11 0;
#X connect 20 0 0 0;
#X connect 21 0 3 0;
#X connect 22 0 4 0;
#X connect 23 0 5 0;
#X connect 24 0 6 0;
#X connect 25 0 7 0;
#X connect 26 0 8 0;
#X connect 27 0 9 0;
#X connect 28 0 10 0;
#X coords 0 -1 1 1 120 16 1 60 60;
#X restore -71 260 pd serin;
#N canvas 0 22 450 300 old 0;
#X msg 95 138 digitalIns 0 0;
#X text 94 101 which digital ports to enable:;
#N canvas 162 133 610 460 seri 0;
#X obj 59 337 outlet;
#X obj 59 266 trigger bang anything;
#X obj 201 286 list;
#X obj 60 61 tgl 15 0 junk_to_hide_inlet ARDUINO_TEST_RESET 0 5 9 1
12 -260736 -1 -1 0 1;
#X obj 75 61 tgl 15 0 junk_to_hide_inlet ARDUINO_TEST_RESET 1 5 9 1
12 -260736 -1 -1 0 1;
#X obj 90 61 tgl 15 0 junk_to_hide_inlet ARDUINO_TEST_RESET 2 5 9 1
12 -260736 -1 -1 0 1;
#X msg 35 106 0 \$1;
#X msg 70 106 1 \$1;
#X msg 105 106 2 \$1;
#X msg 202 307 set \$1 \$2 \$3;
#X msg 59 210 digitalIns \$1 \$2;
#X connect 1 0 0 0;
#X connect 1 1 2 0;
#X connect 2 0 9 0;
#X connect 3 0 6 0;
#X connect 4 0 7 0;
#X connect 5 0 8 0;
#X connect 6 0 10 0;
#X connect 7 0 10 0;
#X connect 8 0 10 0;
#X connect 9 0 0 0;
#X connect 10 0 1 0;
#X coords 0 -1 1 1 45 16 1 60 60;
#X restore 95 118 pd seri;
#X obj 42 179 outlet;
#X connect 0 0 3 0;
#X connect 2 0 0 0;
#X restore 608 297 pd old digital controls;
#X text 157 10 Use with StandardFirmata 2.1 firmware or newer !!!;
#X obj -55 194 loadbang;
#X obj -55 216 delay 4000;
#X obj 87 535 outlet;
#N canvas 981 48 499 396 slow 0;
#X obj 6 7 inlet;
#X obj 6 28 mapping/resample 100;
#X obj 6 50 outlet;
#X obj 54 50 inlet;
#X obj 54 71 mapping/resample 100;
#X obj 54 93 outlet;
#X obj 103 93 inlet;
#X obj 103 114 mapping/resample 100;
#X obj 103 136 outlet;
#X obj 151 136 inlet;
#X obj 151 157 mapping/resample 100;
#X obj 151 179 outlet;
#X obj 200 179 inlet;
#X obj 200 200 mapping/resample 100;
#X obj 200 222 outlet;
#X obj 247 222 inlet;
#X obj 247 243 mapping/resample 100;
#X obj 247 265 outlet;
#X obj 295 265 inlet;
#X obj 295 286 mapping/resample 100;
#X obj 295 308 outlet;
#X obj 345 308 inlet;
#X obj 345 329 mapping/resample 100;
#X obj 345 351 outlet;
#X obj 60 290 receive ARDUINO_TEST_RESET;
#X connect 0 0 1 0;
#X connect 1 0 2 0;
#X connect 3 0 4 0;
#X connect 4 0 5 0;
#X connect 6 0 7 0;
#X connect 7 0 8 0;
#X connect 9 0 10 0;
#X connect 10 0 11 0;
#X connect 12 0 13 0;
#X connect 13 0 14 0;
#X connect 15 0 16 0;
#X connect 16 0 17 0;
#X connect 18 0 19 0;
#X connect 19 0 20 0;
#X connect 21 0 22 0;
#X connect 22 0 23 0;
#X connect 24 0 22 0;
#X connect 24 0 19 0;
#X connect 24 0 16 0;
#X connect 24 0 13 0;
#X connect 24 0 10 0;
#X connect 24 0 7 0;
#X connect 24 0 4 0;
#X connect 24 0 1 0;
#X restore 175 470 pd slow down events to avoid loading GUI too much
;
#X text 13 211 WAIT FOUR SECONDS;
#X text 12 221 BEFORE SENDING DATA TO ARDUINO;
#X text -18 245 which analogIns to enable;
#X obj 695 409 tgl 15 0 empty empty empty 17 7 0 10 -262144 -1 -1 -1
-1;
#N canvas 0 0 450 300 if-no-arduino-found 0;
#X obj 159 92 inlet;
#X obj 132 114 float;
#X obj 132 26 loadbang;
#X obj 132 50 delay 10000;
#X obj 132 154 == 0;
#X obj 116 262 dac~;
#X obj 70 188 osc~ 440;
#X obj 117 216 *~;
#X text 203 127 Output test sine;
#X text 202 139 if can't find connected Arduino;
#X obj 117 238 *~ 0.07;
#X connect 0 0 1 1;
#X connect 1 0 4 0;
#X connect 2 0 3 0;
#X connect 3 0 1 0;
#X connect 4 0 7 1;
#X connect 6 0 7 0;
#X connect 7 0 10 0;
#X connect 10 0 5 0;
#X connect 10 0 5 1;
#X restore 695 429 pd if-no-arduino-found;
#X obj 153 533 outlet;
#X obj 220 531 outlet;
#X obj 276 533 outlet;
#X obj 445 542 outlet;
#X obj 788 27 loadbang;
#X obj 788 49 delay 5000;
#X text 315 156 <-- get protocol version;
#X obj 754 163 inlet;
#X text 132 554 (C) Copyright 2006 Free Software Foundation;
#X obj 394 551 outlet;
#X text 765 11 enable pwm out;
#X msg 788 72 pinMode 9 output;
#X msg 754 216 digital 9 \$1;
#X connect 3 0 77 0;
#X connect 3 1 5 0;
#X connect 5 0 49 0;
#X connect 6 0 64 1;
#X connect 7 0 87 0;
#X connect 8 0 94 0;
#X connect 9 0 95 0;
#X connect 10 0 96 0;
#X connect 13 0 64 0;
#X connect 28 0 49 0;
#X connect 29 0 49 0;
#X connect 30 0 49 0;
#X connect 31 0 30 0;
#X connect 32 0 103 0;
#X connect 33 0 97 0;
#X connect 34 0 88 0;
#X connect 34 1 88 1;
#X connect 34 2 88 2;
#X connect 34 3 88 3;
#X connect 34 4 88 4;
#X connect 34 5 88 5;
#X connect 34 6 88 6;
#X connect 34 7 88 7;
#X connect 35 0 65 0;
#X connect 35 1 66 0;
#X connect 35 2 36 0;
#X connect 35 3 37 0;
#X connect 35 4 38 0;
#X connect 35 5 39 0;
#X connect 35 6 40 0;
#X connect 35 7 41 0;
#X connect 35 8 42 0;
#X connect 35 9 43 0;
#X connect 35 10 44 0;
#X connect 35 11 45 0;
#X connect 35 12 46 0;
#X connect 35 13 47 0;
#X connect 48 0 50 0;
#X connect 48 1 92 0;
#X connect 49 0 76 0;
#X connect 49 1 55 0;
#X connect 51 0 49 0;
#X connect 52 0 49 0;
#X connect 55 0 48 0;
#X connect 58 0 80 0;
#X connect 64 0 79 0;
#X connect 76 0 34 0;
#X connect 76 1 35 0;
#X connect 76 2 53 0;
#X connect 76 3 56 0;
#X connect 77 0 49 0;
#X connect 79 0 49 0;
#X connect 80 0 49 0;
#X connect 81 0 49 0;
#X connect 82 0 81 0;
#X connect 83 0 49 0;
#X connect 85 0 86 0;
#X connect 86 0 82 2;
#X connect 86 0 82 0;
#X connect 86 0 82 3;
#X connect 86 0 82 1;
#X connect 86 0 82 7;
#X connect 86 0 82 6;
#X connect 88 0 7 0;
#X connect 88 1 8 0;
#X connect 88 2 9 0;
#X connect 88 3 10 0;
#X connect 88 4 11 0;
#X connect 88 5 12 0;
#X connect 88 6 32 0;
#X connect 88 7 33 0;
#X connect 92 0 93 0;
#X connect 98 0 99 0;
#X connect 99 0 105 0;
#X connect 101 0 106 0;
#X connect 105 0 49 0;
#X connect 106 0 49 0;
#X restore 425 110 pd get-input-from-arduino;
#X text -168 268 dsp ON/OFF;
#X floatatom -184 313 5 0 0 0 - - -;
#X text -147 314 % cpu;
#X obj -184 291 dsp;
#X obj -184 268 tgl 15 0 empty empty empty 8 -8 0 10 -262144 -1 -1
1 1;
#X obj -184 222 loadbang;
#X text -186 206 8 seconds after patch opens.;
#X obj -184 245 delay 8000;
#X text 422 125 A0;
#X text 451 125 A1;
#X text 479 125 A2;
#X text 500 125 A3;
#X text 407 303 Demo patch by Edgar Berdahl \, 2011;
#X floatatom 304 135 5 0 0 0 - - -;
#X text 343 135 A0;
#X floatatom 496 199 5 0 0 0 - - -;
#X text 535 199 A3;
#X floatatom 304 186 5 0 0 0 - - -;
#X text -129 62 Audio input;
#X text 59 257 Volume gain;
#X text 46 319 Audio output;
#X obj 304 160 * 10;
#X text 343 182 Tremolo frequency;
#X text 343 191 in cycles/sec;
#X text 407 285 Simple stompbox tremolo effect;
#X obj -19 318 dac~ 1 2;
#X obj -193 61 adc~ 1 2;
#X obj -18 258 mull~ 0 20;
#X obj 215 25 tgl 15 0 empty empty empty 17 7 0 10 -262144 -1 -1 0
1;
#X text 162 21 Looping;
#X obj -20 8 bng 30 250 50 0 empty empty empty 17 7 0 10 -262144 -1
-1;
#X text 14 19 Play!;
#X obj -20 46 play-wav-file jumpingjackflash.wav;
#N canvas 812 216 450 365 handle-flip-switch 0;
#X obj 8 6 inlet;
#X floatatom 8 307 5 0 0 0 - - -;
#X obj 8 81 change;
#X obj 68 175 sel 0;
#X text 50 307 Current mode of pedal;
#X obj 8 286 tgl 15 0 empty empty empty 17 7 0 10 -262144 -1 -1 1 1
;
#X obj 8 333 outlet;
#X text 51 7 Handle the input from the button;
#X obj 8 223 debounce 100;
#X obj 8 51 > 0.5;
#X obj 68 149 spigot;
#X obj 209 125 invert;
#X obj 107 88 tgl 15 0 empty empty empty 17 7 0 10 -262144 -1 -1 0
1;
#X obj 170 151 spigot;
#X obj 170 177 bng 15 250 50 0 empty empty empty 17 7 0 10 -262144
-1 -1;
#X obj 107 36 loadbang;
#X text 126 86 ON for momentary switch \, otherwise OFF;
#X text 101 221 Debounce the switch;
#X msg 107 62 0;
#X text 287 96 for flip switch;
#X connect 0 0 9 0;
#X connect 1 0 6 0;
#X connect 2 0 10 0;
#X connect 2 0 13 0;
#X connect 3 0 8 0;
#X connect 5 0 1 0;
#X connect 8 0 5 0;
#X connect 9 0 2 0;
#X connect 10 0 3 0;
#X connect 11 0 13 1;
#X connect 12 0 10 1;
#X connect 12 0 11 0;
#X connect 13 0 14 0;
#X connect 14 0 8 0;
#X connect 15 0 18 0;
#X connect 18 0 12 0;
#X restore 627 160 pd handle-flip-switch;
#N canvas 812 216 450 365 handle-momentary-switch 0;
#X obj 8 6 inlet;
#X floatatom 8 307 5 0 0 0 - - -;
#X obj 8 81 change;
#X obj 68 175 sel 0;
#X text 50 307 Current mode of pedal;
#X obj 8 286 tgl 15 0 empty empty empty 17 7 0 10 -262144 -1 -1 0 1
;
#X obj 8 333 outlet;
#X text 51 7 Handle the input from the button;
#X obj 8 223 debounce 100;
#X obj 8 51 > 0.5;
#X obj 68 149 spigot;
#X obj 209 125 invert;
#X obj 107 88 tgl 15 0 empty empty empty 17 7 0 10 -262144 -1 -1 1
1;
#X obj 170 151 spigot;
#X obj 170 177 bng 15 250 50 0 empty empty empty 17 7 0 10 -262144
-1 -1;
#X obj 107 36 loadbang;
#X text 126 86 ON for momentary switch \, otherwise OFF;
#X text 101 221 Debounce the switch;
#X msg 107 62 1;
#X text 287 97 for flip switch;
#X connect 0 0 9 0;
#X connect 1 0 6 0;
#X connect 2 0 10 0;
#X connect 2 0 13 0;
#X connect 3 0 8 0;
#X connect 5 0 1 0;
#X connect 8 0 5 0;
#X connect 9 0 2 0;
#X connect 10 0 3 0;
#X connect 11 0 13 1;
#X connect 12 0 10 1;
#X connect 12 0 11 0;
#X connect 13 0 14 0;
#X connect 14 0 8 0;
#X connect 15 0 18 0;
#X connect 18 0 12 0;
#X restore 586 239 pd handle-momentary-switch;
#X obj 627 183 tgl 15 0 empty empty empty 17 7 0 10 -262144 -1 -1 1
1;
#X text 645 180 Mode;
#X obj 586 264 tgl 15 0 empty empty empty 17 7 0 10 -262144 -1 -1 0
1;
#X text 604 261 Mode;
#X text 547 126 A6;
#X text 567 126 A7;
#X text 407 315 Updated by Edgar Berdahl \, 2012 and 2013;
#X obj 425 81 tgl 15 0 empty empty empty 17 7 0 10 -262144 -1 -1 0
1;
#X text 441 81 Turn LED on or off;
#X msg -56 443 \; pd dsp 0;
#X text -121 478 ON;
#X text -39 478 OFF;
#X msg -140 443 \; pd dsp 1;
#X obj -30 855 dac~;
#X text -144 490 Read a file and play in a loop;
#X obj 106 438 dsp;
#X floatatom 106 470 5 0 0 0 - - -;
#X text 147 476 % cpu;
#X obj 339 560 hsl 128 15 300 2000 0 1 empty empty frequency 2 8 0
10 -260097 -1 -1 1670 1;
#X obj 417 648 hsl 128 15 2 11 0 1 empty empty Q-factor 2 8 0 10 -257985
-1 -1 8222 1;
#X obj 361 680 t b f;
#X msg -140 512 0;
#X msg -99 512 1;
#X obj -69 575 readsf~;
#X msg -68 512 open guitar1.wav;
#X obj -132 549 t b b;
#X msg 212 789 interp \$1;
#X obj 212 757 loadbang;
#X obj 146 544 hsl 128 15 60 140 0 1 empty empty gain 2 8 0 10 -4032
-1 -1 12700 1;
#X obj 47 670 dbtorms;
#X obj 13 637 mull~;
#X obj 762 386 hsl 128 15 0 10 0 1 empty empty Pedal 2 8 0 10 -4034
-1 -1 5053 1;
#X text -144 364 Cry-baby WAH MODEL;
#X text -144 401 by Jonathan Abel / Esteban Maestre (filter patches/externals
by .mmb);
#X obj 961 379 loadbang;
#X msg 961 405 9.4702;
#X obj 1043 379 loadbang;
#X msg 1043 405 107.185;
#X obj 1126 379 loadbang;
#X msg 1126 405 -50.9107;
#X text 835 515 comment;
#X obj 858 503 loadbang;
#X obj 947 501 loadbang;
#X obj 1031 500 loadbang;
#X obj 366 507 expr if ($f1 > 3 \, $f2 \, 400) \;;
#X text 1091 461 Center frequency;
#X obj 583 620 expr if ($f1 > 3 \, $f2 \, 10) \;;
#X text 1000 593 Q-factor;
#X msg 858 529 0.1827;
#X msg 946 527 -3.4326;
#X msg 1031 526 18.5713;
#X floatatom 671 697 5 0 0 0 - - -;
#X floatatom 371 599 5 0 0 0 - - -;
#X floatatom 832 633 5 0 0 0 - - -;
#X floatatom 887 468 5 0 0 0 - - -;
#X obj 887 435 expr $f2*$f1*$f1 + $f3*$f1 + $f4;
#X obj 813 566 expr $f2*$f1*$f1 + $f3*$f1 + $f4;
#X obj 322 716 filtercoeff.mmb bandpass;
#X floatatom 84 931 5 0 0 0 - - -;
#X floatatom 28 899 5 0 0 0 - - -;
#X obj 28 860 snapshot~;
#X obj 41 832 metro 20;
#X msg 65 804 bang;
#X floatatom 80 703 5 0 0 0 - - -;
#X text -143 382 Stompbox design workshop \, CCRMA (Stanford University)
;
#X floatatom 751 428 5 0 0 0 - - -;
#X floatatom 155 594 5 0 0 0 - - -;
#X obj 240 388 scale 0 1 60 140;
#X obj -48 724 biquad~;
#X obj 342 816 prepend set;
#X msg 420 851 1.98499 -0.990523 0.00473832 0 -0.00473832;
#X obj 483 766 loadbang;
#X obj 482 787 tgl 15 0 empty empty empty 17 7 0 10 -262144 -1 -1 1
1;
#X obj 485 817 metro 1000;
#X obj 418 886 print;
#X connect 0 0 14 0;
#X connect 0 3 16 0;
#X connect 0 4 35 0;
#X connect 0 5 34 0;
#X connect 4 0 2 0;
#X connect 5 0 4 0;
#X connect 6 0 8 0;
#X connect 8 0 5 0;
#X connect 14 0 22 0;
#X connect 16 0 28 1;
#X connect 16 0 103 0;
#X connect 18 0 67 0;
#X connect 22 0 18 0;
#X connect 27 0 66 0;
#X connect 27 1 66 0;
#X connect 28 0 26 0;
#X connect 28 0 26 1;
#X connect 29 0 33 1;
#X connect 31 0 33 0;
#X connect 33 0 66 0;
#X connect 34 0 36 0;
#X connect 35 0 38 0;
#X connect 43 0 0 0;
#X connect 51 0 52 0;
#X connect 54 0 88 0;
#X connect 54 0 93 0;
#X connect 55 0 56 0;
#X connect 55 0 87 0;
#X connect 56 0 93 0;
#X connect 56 1 93 1;
#X connect 57 0 59 0;
#X connect 58 0 59 0;
#X connect 59 0 66 0;
#X connect 59 1 61 0;
#X connect 60 0 59 0;
#X connect 61 0 58 0;
#X connect 61 1 60 0;
#X connect 63 0 62 0;
#X connect 64 0 65 0;
#X connect 64 0 102 0;
#X connect 65 0 66 1;
#X connect 65 0 99 0;
#X connect 66 0 104 0;
#X connect 67 0 80 0;
#X connect 67 0 82 0;
#X connect 67 0 91 0;
#X connect 67 0 92 0;
#X connect 67 0 101 0;
#X connect 70 0 71 0;
#X connect 71 0 91 1;
#X connect 72 0 73 0;
#X connect 73 0 91 2;
#X connect 74 0 75 0;
#X connect 75 0 91 3;
#X connect 77 0 84 0;
#X connect 78 0 85 0;
#X connect 79 0 86 0;
#X connect 80 0 54 0;
#X connect 82 0 55 0;
#X connect 84 0 92 1;
#X connect 85 0 92 2;
#X connect 86 0 92 3;
#X connect 91 0 80 1;
#X connect 91 0 90 0;
#X connect 92 0 89 0;
#X connect 92 0 82 1;
#X connect 93 0 94 0;
#X connect 93 0 104 0;
#X connect 93 0 105 0;
#X connect 96 0 95 0;
#X connect 97 0 96 0;
#X connect 98 0 97 0;
#X connect 103 0 64 0;
#X connect 104 0 49 0;
#X connect 104 0 49 1;
#X connect 104 0 96 0;
#X connect 105 0 106 0;
#X connect 106 0 110 0;
#X connect 107 0 108 0;
#X connect 108 0 109 0;
#X connect 109 0 106 0;
