#N canvas 540 92 450 300 10;
#X obj 138 132 hsl 128 15 60 140 0 1 empty empty gain 2 8 0 10 -4032
-1 -1 5300 1;
#X obj 129 30 loadbang;
#X obj 135 58 tgl 15 0 empty empty empty 17 7 0 10 -262144 -1 -1 1
1;
#X obj 137 86 metro 1000;
#X floatatom 132 180 5 0 0 0 - - -;
#X obj 130 221 print;
#X connect 0 0 4 0;
#X connect 1 0 2 0;
#X connect 2 0 3 0;
#X connect 3 0 0 0;
#X connect 4 0 5 0;
