#N canvas 0 0 450 300 10;
#X obj 10 360 inlet;
#X obj 130 360 r \$0-read;
#X obj 130 390 faust-control \$0;
#X obj 130 420 s \$0-write;
#X obj 10 420 r \$0-in;
#X obj 10 450 cubic_distortion~;
#X obj 10 480 s \$0-out;
#X obj 70 510 outlet~;
#X obj 130 510 outlet~;
#X obj 10 510 outlet;
#X connect 0 0 2 0;
#X connect 1 0 2 0;
#X connect 2 0 3 0;
#X connect 5 0 6 0;
#X connect 0 0 9 0;
#X connect 4 0 5 0;
#X connect 5 1 7 0;
#X connect 5 2 8 0;
#X obj 10 30 hsl 128 15 -120 10 0 0 \$0-cubic-distortion/SINE-WAVE-OSCILLATOR-oscrs/Amplitude \$0-cubic-distortion/SINE-WAVE-OSCILLATOR-oscrs/Amplitude Amplitude -2 -6 0 10 -262144 -1 -1 0 1;
#X obj 160 30 nbx 5 14 -120 10 0 0 \$0-cubic-distortion/SINE-WAVE-OSCILLATOR-oscrs/Amplitude \$0-cubic-distortion/SINE-WAVE-OSCILLATOR-oscrs/Amplitude empty 0 -6 0 10 -262144 -1 -1 256;
#X obj 235 30 hsl 128 15 1 88 0 0 \$0-cubic-distortion/SINE-WAVE-OSCILLATOR-oscrs/Frequency \$0-cubic-distortion/SINE-WAVE-OSCILLATOR-oscrs/Frequency Frequency -2 -6 0 10 -262144 -1 -1 0 1;
#X obj 385 30 nbx 5 14 1 88 0 0 \$0-cubic-distortion/SINE-WAVE-OSCILLATOR-oscrs/Frequency \$0-cubic-distortion/SINE-WAVE-OSCILLATOR-oscrs/Frequency empty 0 -6 0 10 -262144 -1 -1 256;
#X obj 460 30 hsl 128 15 0 1 0 0 \$0-cubic-distortion/SINE-WAVE-OSCILLATOR-oscrs/Portamento \$0-cubic-distortion/SINE-WAVE-OSCILLATOR-oscrs/Portamento Portamento -2 -6 0 10 -262144 -1 -1 0 1;
#X obj 610 30 nbx 5 14 0 1 0 0 \$0-cubic-distortion/SINE-WAVE-OSCILLATOR-oscrs/Portamento \$0-cubic-distortion/SINE-WAVE-OSCILLATOR-oscrs/Portamento empty 0 -6 0 10 -262144 -1 -1 256;
#X obj 10 60 tgl 15 0 \$0-cubic-distortion/CUBIC-NONLINEARITY-cubicnl/Bypass \$0-cubic-distortion/CUBIC-NONLINEARITY-cubicnl/Bypass Bypass 0 -6 0 10 -262144 -1 -1 0 1;
#X obj 60 60 hsl 128 15 0 1 0 0 \$0-cubic-distortion/CUBIC-NONLINEARITY-cubicnl/Drive \$0-cubic-distortion/CUBIC-NONLINEARITY-cubicnl/Drive Drive -2 -6 0 10 -262144 -1 -1 0 1;
#X obj 210 60 nbx 5 14 0 1 0 0 \$0-cubic-distortion/CUBIC-NONLINEARITY-cubicnl/Drive \$0-cubic-distortion/CUBIC-NONLINEARITY-cubicnl/Drive empty 0 -6 0 10 -262144 -1 -1 256;
#X obj 285 60 hsl 128 15 0 1 0 0 \$0-cubic-distortion/CUBIC-NONLINEARITY-cubicnl/Offset \$0-cubic-distortion/CUBIC-NONLINEARITY-cubicnl/Offset Offset -2 -6 0 10 -262144 -1 -1 0 1;
#X obj 435 60 nbx 5 14 0 1 0 0 \$0-cubic-distortion/CUBIC-NONLINEARITY-cubicnl/Offset \$0-cubic-distortion/CUBIC-NONLINEARITY-cubicnl/Offset empty 0 -6 0 10 -262144 -1 -1 256;
#X obj 10 90 vsl 15 128 -50 10 0 0 \$0-cubic-distortion/CONSTANT-Q-SPECTRUM-ANALYZER-6E \$0-cubic-distortion/CONSTANT-Q-SPECTRUM-ANALYZER-6E empty 0 -8 0 10 -233017 -1 -1 0 1;
#X obj 10 230 nbx 5 14 -50 10 0 0 \$0-cubic-distortion/CONSTANT-Q-SPECTRUM-ANALYZER-6E \$0-cubic-distortion/CONSTANT-Q-SPECTRUM-ANALYZER-6E empty 0 -6 0 10 -233017 -1 -1 256;
#X obj 85 90 vsl 15 128 -50 10 0 0 \$0-cubic-distortion/CONSTANT-Q-SPECTRUM-ANALYZER-6E \$0-cubic-distortion/CONSTANT-Q-SPECTRUM-ANALYZER-6E empty 0 -8 0 10 -233017 -1 -1 0 1;
#X obj 85 230 nbx 5 14 -50 10 0 0 \$0-cubic-distortion/CONSTANT-Q-SPECTRUM-ANALYZER-6E \$0-cubic-distortion/CONSTANT-Q-SPECTRUM-ANALYZER-6E empty 0 -6 0 10 -233017 -1 -1 256;
#X obj 160 90 vsl 15 128 -50 10 0 0 \$0-cubic-distortion/CONSTANT-Q-SPECTRUM-ANALYZER-6E \$0-cubic-distortion/CONSTANT-Q-SPECTRUM-ANALYZER-6E empty 0 -8 0 10 -233017 -1 -1 0 1;
#X obj 160 230 nbx 5 14 -50 10 0 0 \$0-cubic-distortion/CONSTANT-Q-SPECTRUM-ANALYZER-6E \$0-cubic-distortion/CONSTANT-Q-SPECTRUM-ANALYZER-6E empty 0 -6 0 10 -233017 -1 -1 256;
#X obj 235 90 vsl 15 128 -50 10 0 0 \$0-cubic-distortion/CONSTANT-Q-SPECTRUM-ANALYZER-6E \$0-cubic-distortion/CONSTANT-Q-SPECTRUM-ANALYZER-6E empty 0 -8 0 10 -233017 -1 -1 0 1;
#X obj 235 230 nbx 5 14 -50 10 0 0 \$0-cubic-distortion/CONSTANT-Q-SPECTRUM-ANALYZER-6E \$0-cubic-distortion/CONSTANT-Q-SPECTRUM-ANALYZER-6E empty 0 -6 0 10 -233017 -1 -1 256;
#X obj 310 90 vsl 15 128 -50 10 0 0 \$0-cubic-distortion/CONSTANT-Q-SPECTRUM-ANALYZER-6E \$0-cubic-distortion/CONSTANT-Q-SPECTRUM-ANALYZER-6E empty 0 -8 0 10 -233017 -1 -1 0 1;
#X obj 310 230 nbx 5 14 -50 10 0 0 \$0-cubic-distortion/CONSTANT-Q-SPECTRUM-ANALYZER-6E \$0-cubic-distortion/CONSTANT-Q-SPECTRUM-ANALYZER-6E empty 0 -6 0 10 -233017 -1 -1 256;
#X obj 385 90 vsl 15 128 -50 10 0 0 \$0-cubic-distortion/CONSTANT-Q-SPECTRUM-ANALYZER-6E \$0-cubic-distortion/CONSTANT-Q-SPECTRUM-ANALYZER-6E empty 0 -8 0 10 -233017 -1 -1 0 1;
#X obj 385 230 nbx 5 14 -50 10 0 0 \$0-cubic-distortion/CONSTANT-Q-SPECTRUM-ANALYZER-6E \$0-cubic-distortion/CONSTANT-Q-SPECTRUM-ANALYZER-6E empty 0 -6 0 10 -233017 -1 -1 256;
#X obj 460 90 vsl 15 128 -50 10 0 0 \$0-cubic-distortion/CONSTANT-Q-SPECTRUM-ANALYZER-6E \$0-cubic-distortion/CONSTANT-Q-SPECTRUM-ANALYZER-6E empty 0 -8 0 10 -233017 -1 -1 0 1;
#X obj 460 230 nbx 5 14 -50 10 0 0 \$0-cubic-distortion/CONSTANT-Q-SPECTRUM-ANALYZER-6E \$0-cubic-distortion/CONSTANT-Q-SPECTRUM-ANALYZER-6E empty 0 -6 0 10 -233017 -1 -1 256;
#X obj 535 90 vsl 15 128 -50 10 0 0 \$0-cubic-distortion/CONSTANT-Q-SPECTRUM-ANALYZER-6E \$0-cubic-distortion/CONSTANT-Q-SPECTRUM-ANALYZER-6E empty 0 -8 0 10 -233017 -1 -1 0 1;
#X obj 535 230 nbx 5 14 -50 10 0 0 \$0-cubic-distortion/CONSTANT-Q-SPECTRUM-ANALYZER-6E \$0-cubic-distortion/CONSTANT-Q-SPECTRUM-ANALYZER-6E empty 0 -6 0 10 -233017 -1 -1 256;
#X obj 610 90 vsl 15 128 -50 10 0 0 \$0-cubic-distortion/CONSTANT-Q-SPECTRUM-ANALYZER-6E \$0-cubic-distortion/CONSTANT-Q-SPECTRUM-ANALYZER-6E empty 0 -8 0 10 -233017 -1 -1 0 1;
#X obj 610 230 nbx 5 14 -50 10 0 0 \$0-cubic-distortion/CONSTANT-Q-SPECTRUM-ANALYZER-6E \$0-cubic-distortion/CONSTANT-Q-SPECTRUM-ANALYZER-6E empty 0 -6 0 10 -233017 -1 -1 256;
#X obj 685 90 vsl 15 128 -50 10 0 0 \$0-cubic-distortion/CONSTANT-Q-SPECTRUM-ANALYZER-6E \$0-cubic-distortion/CONSTANT-Q-SPECTRUM-ANALYZER-6E empty 0 -8 0 10 -233017 -1 -1 0 1;
#X obj 685 230 nbx 5 14 -50 10 0 0 \$0-cubic-distortion/CONSTANT-Q-SPECTRUM-ANALYZER-6E \$0-cubic-distortion/CONSTANT-Q-SPECTRUM-ANALYZER-6E empty 0 -6 0 10 -233017 -1 -1 256;
#X obj 760 90 vsl 15 128 -50 10 0 0 \$0-cubic-distortion/CONSTANT-Q-SPECTRUM-ANALYZER-6E \$0-cubic-distortion/CONSTANT-Q-SPECTRUM-ANALYZER-6E empty 0 -8 0 10 -233017 -1 -1 0 1;
#X obj 760 230 nbx 5 14 -50 10 0 0 \$0-cubic-distortion/CONSTANT-Q-SPECTRUM-ANALYZER-6E \$0-cubic-distortion/CONSTANT-Q-SPECTRUM-ANALYZER-6E empty 0 -6 0 10 -233017 -1 -1 256;
#X obj 835 90 vsl 15 128 -50 10 0 0 \$0-cubic-distortion/CONSTANT-Q-SPECTRUM-ANALYZER-6E \$0-cubic-distortion/CONSTANT-Q-SPECTRUM-ANALYZER-6E empty 0 -8 0 10 -233017 -1 -1 0 1;
#X obj 835 230 nbx 5 14 -50 10 0 0 \$0-cubic-distortion/CONSTANT-Q-SPECTRUM-ANALYZER-6E \$0-cubic-distortion/CONSTANT-Q-SPECTRUM-ANALYZER-6E empty 0 -6 0 10 -233017 -1 -1 256;
#X obj 910 90 vsl 15 128 -50 10 0 0 \$0-cubic-distortion/CONSTANT-Q-SPECTRUM-ANALYZER-6E \$0-cubic-distortion/CONSTANT-Q-SPECTRUM-ANALYZER-6E empty 0 -8 0 10 -233017 -1 -1 0 1;
#X obj 910 230 nbx 5 14 -50 10 0 0 \$0-cubic-distortion/CONSTANT-Q-SPECTRUM-ANALYZER-6E \$0-cubic-distortion/CONSTANT-Q-SPECTRUM-ANALYZER-6E empty 0 -6 0 10 -233017 -1 -1 256;
#X obj 985 90 vsl 15 128 -50 10 0 0 \$0-cubic-distortion/CONSTANT-Q-SPECTRUM-ANALYZER-6E \$0-cubic-distortion/CONSTANT-Q-SPECTRUM-ANALYZER-6E empty 0 -8 0 10 -233017 -1 -1 0 1;
#X obj 985 230 nbx 5 14 -50 10 0 0 \$0-cubic-distortion/CONSTANT-Q-SPECTRUM-ANALYZER-6E \$0-cubic-distortion/CONSTANT-Q-SPECTRUM-ANALYZER-6E empty 0 -6 0 10 -233017 -1 -1 256;
#X obj 1060 90 vsl 15 128 -50 10 0 0 \$0-cubic-distortion/CONSTANT-Q-SPECTRUM-ANALYZER-6E \$0-cubic-distortion/CONSTANT-Q-SPECTRUM-ANALYZER-6E empty 0 -8 0 10 -233017 -1 -1 0 1;
#X obj 1060 230 nbx 5 14 -50 10 0 0 \$0-cubic-distortion/CONSTANT-Q-SPECTRUM-ANALYZER-6E \$0-cubic-distortion/CONSTANT-Q-SPECTRUM-ANALYZER-6E empty 0 -6 0 10 -233017 -1 -1 256;
#X obj 10 270 hsl 128 15 0 1 0 0 \$0-cubic-distortion/SPECTRUM-ANALYZER-CONTROLS/Level-Averaging-Time \$0-cubic-distortion/SPECTRUM-ANALYZER-CONTROLS/Level-Averaging-Time Level-Averaging-Time -2 -6 0 10 -262144 -1 -1 0 1;
#X obj 160 270 nbx 5 14 0 1 0 0 \$0-cubic-distortion/SPECTRUM-ANALYZER-CONTROLS/Level-Averaging-Time \$0-cubic-distortion/SPECTRUM-ANALYZER-CONTROLS/Level-Averaging-Time empty 0 -6 0 10 -262144 -1 -1 256;
#X obj 235 270 hsl 128 15 0 100 0 0 \$0-cubic-distortion/SPECTRUM-ANALYZER-CONTROLS/Level-dB-Offset \$0-cubic-distortion/SPECTRUM-ANALYZER-CONTROLS/Level-dB-Offset Level-dB-Offset -2 -6 0 10 -262144 -1 -1 0 1;
#X obj 385 270 nbx 5 14 0 100 0 0 \$0-cubic-distortion/SPECTRUM-ANALYZER-CONTROLS/Level-dB-Offset \$0-cubic-distortion/SPECTRUM-ANALYZER-CONTROLS/Level-dB-Offset empty 0 -6 0 10 -262144 -1 -1 256;
#X obj 1097 3 bng 15 250 50 1 \$0-init \$0-ignore empty 0 -6 0 10 -262144 -1 -1;
#X obj 1117 3 tgl 15 1 \$0-active \$0-active empty 0 -6 0 10 -262144 -1 -1 1 1;
#X obj 1165 10 r \$0-init;
#X obj 1741 10 s \$0-in;
#X obj 2029 10 s \$0-read;
#X obj 2317 10 r \$0-write;
#X msg 1165 30 1;
#X obj 1165 50 s \$0-active;
#X connect 61 0 62 0;
#X obj 1741 30 r \$0-active;
#X msg 1741 50 active \$1;
#X connect 63 0 64 0;
#X connect 64 0 58 0;
#X obj 2317 30 route active;
#X obj 2317 50 s \$0-active;
#X connect 60 0 65 0;
#X connect 65 0 66 0;
#X msg 1165 70 -20;
#X obj 1165 90 s \$0-cubic-distortion/SINE-WAVE-OSCILLATOR-oscrs/Amplitude;
#X connect 57 0 67 0;
#X connect 67 0 68 0;
#X obj 1741 70 r \$0-cubic-distortion/SINE-WAVE-OSCILLATOR-oscrs/Amplitude;
#X msg 1741 90 /cubic-distortion/SINE-WAVE-OSCILLATOR-oscrs/Amplitude \$1;
#X connect 69 0 70 0;
#X connect 70 0 58 0;
#X obj 2317 70 route /cubic-distortion/SINE-WAVE-OSCILLATOR-oscrs/Amplitude;
#X obj 2317 90 s \$0-cubic-distortion/SINE-WAVE-OSCILLATOR-oscrs/Amplitude;
#X connect 65 1 71 0;
#X connect 71 0 72 0;
#X msg 1165 110 49;
#X obj 1165 130 s \$0-cubic-distortion/SINE-WAVE-OSCILLATOR-oscrs/Frequency;
#X connect 57 0 73 0;
#X connect 73 0 74 0;
#X obj 1741 110 r \$0-cubic-distortion/SINE-WAVE-OSCILLATOR-oscrs/Frequency;
#X msg 1741 130 /cubic-distortion/SINE-WAVE-OSCILLATOR-oscrs/Frequency \$1;
#X connect 75 0 76 0;
#X connect 76 0 58 0;
#X obj 2317 110 route /cubic-distortion/SINE-WAVE-OSCILLATOR-oscrs/Frequency;
#X obj 2317 130 s \$0-cubic-distortion/SINE-WAVE-OSCILLATOR-oscrs/Frequency;
#X connect 71 1 77 0;
#X connect 77 0 78 0;
#X msg 1165 150 0.1;
#X obj 1165 170 s \$0-cubic-distortion/SINE-WAVE-OSCILLATOR-oscrs/Portamento;
#X connect 57 0 79 0;
#X connect 79 0 80 0;
#X obj 1741 150 r \$0-cubic-distortion/SINE-WAVE-OSCILLATOR-oscrs/Portamento;
#X msg 1741 170 /cubic-distortion/SINE-WAVE-OSCILLATOR-oscrs/Portamento \$1;
#X connect 81 0 82 0;
#X connect 82 0 58 0;
#X obj 2317 150 route /cubic-distortion/SINE-WAVE-OSCILLATOR-oscrs/Portamento;
#X obj 2317 170 s \$0-cubic-distortion/SINE-WAVE-OSCILLATOR-oscrs/Portamento;
#X connect 77 1 83 0;
#X connect 83 0 84 0;
#X msg 1165 190 0;
#X obj 1165 210 s \$0-cubic-distortion/CUBIC-NONLINEARITY-cubicnl/Bypass;
#X connect 57 0 85 0;
#X connect 85 0 86 0;
#X obj 1741 190 r \$0-cubic-distortion/CUBIC-NONLINEARITY-cubicnl/Bypass;
#X msg 1741 210 /cubic-distortion/CUBIC-NONLINEARITY-cubicnl/Bypass \$1;
#X connect 87 0 88 0;
#X connect 88 0 58 0;
#X obj 2317 190 route /cubic-distortion/CUBIC-NONLINEARITY-cubicnl/Bypass;
#X obj 2317 210 s \$0-cubic-distortion/CUBIC-NONLINEARITY-cubicnl/Bypass;
#X connect 83 1 89 0;
#X connect 89 0 90 0;
#X msg 1165 230 0;
#X obj 1165 250 s \$0-cubic-distortion/CUBIC-NONLINEARITY-cubicnl/Drive;
#X connect 57 0 91 0;
#X connect 91 0 92 0;
#X obj 1741 230 r \$0-cubic-distortion/CUBIC-NONLINEARITY-cubicnl/Drive;
#X msg 1741 250 /cubic-distortion/CUBIC-NONLINEARITY-cubicnl/Drive \$1;
#X connect 93 0 94 0;
#X connect 94 0 58 0;
#X obj 2317 230 route /cubic-distortion/CUBIC-NONLINEARITY-cubicnl/Drive;
#X obj 2317 250 s \$0-cubic-distortion/CUBIC-NONLINEARITY-cubicnl/Drive;
#X connect 89 1 95 0;
#X connect 95 0 96 0;
#X msg 1165 270 0;
#X obj 1165 290 s \$0-cubic-distortion/CUBIC-NONLINEARITY-cubicnl/Offset;
#X connect 57 0 97 0;
#X connect 97 0 98 0;
#X obj 1741 270 r \$0-cubic-distortion/CUBIC-NONLINEARITY-cubicnl/Offset;
#X msg 1741 290 /cubic-distortion/CUBIC-NONLINEARITY-cubicnl/Offset \$1;
#X connect 99 0 100 0;
#X connect 100 0 58 0;
#X obj 2317 270 route /cubic-distortion/CUBIC-NONLINEARITY-cubicnl/Offset;
#X obj 2317 290 s \$0-cubic-distortion/CUBIC-NONLINEARITY-cubicnl/Offset;
#X connect 95 1 101 0;
#X connect 101 0 102 0;
#X msg 1165 310 0;
#X obj 1165 330 s \$0-cubic-distortion/CONSTANT-Q-SPECTRUM-ANALYZER-6E;
#X connect 57 0 103 0;
#X connect 103 0 104 0;
#X obj 1741 310 faust-timer \$0;
#X msg 1741 330 /cubic-distortion/CONSTANT-Q-SPECTRUM-ANALYZER-6E;
#X connect 105 0 106 0;
#X connect 106 0 59 0;
#X obj 2317 310 route /cubic-distortion/CONSTANT-Q-SPECTRUM-ANALYZER-6E;
#X obj 2317 330 s \$0-cubic-distortion/CONSTANT-Q-SPECTRUM-ANALYZER-6E;
#X connect 101 1 107 0;
#X connect 107 0 108 0;
#X msg 1165 350 0;
#X obj 1165 370 s \$0-cubic-distortion/CONSTANT-Q-SPECTRUM-ANALYZER-6E;
#X connect 57 0 109 0;
#X connect 109 0 110 0;
#X obj 1741 350 faust-timer \$0;
#X msg 1741 370 /cubic-distortion/CONSTANT-Q-SPECTRUM-ANALYZER-6E;
#X connect 111 0 112 0;
#X connect 112 0 59 0;
#X obj 2317 350 route /cubic-distortion/CONSTANT-Q-SPECTRUM-ANALYZER-6E;
#X obj 2317 370 s \$0-cubic-distortion/CONSTANT-Q-SPECTRUM-ANALYZER-6E;
#X connect 107 1 113 0;
#X connect 113 0 114 0;
#X msg 1165 390 0;
#X obj 1165 410 s \$0-cubic-distortion/CONSTANT-Q-SPECTRUM-ANALYZER-6E;
#X connect 57 0 115 0;
#X connect 115 0 116 0;
#X obj 1741 390 faust-timer \$0;
#X msg 1741 410 /cubic-distortion/CONSTANT-Q-SPECTRUM-ANALYZER-6E;
#X connect 117 0 118 0;
#X connect 118 0 59 0;
#X obj 2317 390 route /cubic-distortion/CONSTANT-Q-SPECTRUM-ANALYZER-6E;
#X obj 2317 410 s \$0-cubic-distortion/CONSTANT-Q-SPECTRUM-ANALYZER-6E;
#X connect 113 1 119 0;
#X connect 119 0 120 0;
#X msg 1165 430 0;
#X obj 1165 450 s \$0-cubic-distortion/CONSTANT-Q-SPECTRUM-ANALYZER-6E;
#X connect 57 0 121 0;
#X connect 121 0 122 0;
#X obj 1741 430 faust-timer \$0;
#X msg 1741 450 /cubic-distortion/CONSTANT-Q-SPECTRUM-ANALYZER-6E;
#X connect 123 0 124 0;
#X connect 124 0 59 0;
#X obj 2317 430 route /cubic-distortion/CONSTANT-Q-SPECTRUM-ANALYZER-6E;
#X obj 2317 450 s \$0-cubic-distortion/CONSTANT-Q-SPECTRUM-ANALYZER-6E;
#X connect 119 1 125 0;
#X connect 125 0 126 0;
#X msg 1165 470 0;
#X obj 1165 490 s \$0-cubic-distortion/CONSTANT-Q-SPECTRUM-ANALYZER-6E;
#X connect 57 0 127 0;
#X connect 127 0 128 0;
#X obj 1741 470 faust-timer \$0;
#X msg 1741 490 /cubic-distortion/CONSTANT-Q-SPECTRUM-ANALYZER-6E;
#X connect 129 0 130 0;
#X connect 130 0 59 0;
#X obj 2317 470 route /cubic-distortion/CONSTANT-Q-SPECTRUM-ANALYZER-6E;
#X obj 2317 490 s \$0-cubic-distortion/CONSTANT-Q-SPECTRUM-ANALYZER-6E;
#X connect 125 1 131 0;
#X connect 131 0 132 0;
#X msg 1165 510 0;
#X obj 1165 530 s \$0-cubic-distortion/CONSTANT-Q-SPECTRUM-ANALYZER-6E;
#X connect 57 0 133 0;
#X connect 133 0 134 0;
#X obj 1741 510 faust-timer \$0;
#X msg 1741 530 /cubic-distortion/CONSTANT-Q-SPECTRUM-ANALYZER-6E;
#X connect 135 0 136 0;
#X connect 136 0 59 0;
#X obj 2317 510 route /cubic-distortion/CONSTANT-Q-SPECTRUM-ANALYZER-6E;
#X obj 2317 530 s \$0-cubic-distortion/CONSTANT-Q-SPECTRUM-ANALYZER-6E;
#X connect 131 1 137 0;
#X connect 137 0 138 0;
#X msg 1165 550 0;
#X obj 1165 570 s \$0-cubic-distortion/CONSTANT-Q-SPECTRUM-ANALYZER-6E;
#X connect 57 0 139 0;
#X connect 139 0 140 0;
#X obj 1741 550 faust-timer \$0;
#X msg 1741 570 /cubic-distortion/CONSTANT-Q-SPECTRUM-ANALYZER-6E;
#X connect 141 0 142 0;
#X connect 142 0 59 0;
#X obj 2317 550 route /cubic-distortion/CONSTANT-Q-SPECTRUM-ANALYZER-6E;
#X obj 2317 570 s \$0-cubic-distortion/CONSTANT-Q-SPECTRUM-ANALYZER-6E;
#X connect 137 1 143 0;
#X connect 143 0 144 0;
#X msg 1165 590 0;
#X obj 1165 610 s \$0-cubic-distortion/CONSTANT-Q-SPECTRUM-ANALYZER-6E;
#X connect 57 0 145 0;
#X connect 145 0 146 0;
#X obj 1741 590 faust-timer \$0;
#X msg 1741 610 /cubic-distortion/CONSTANT-Q-SPECTRUM-ANALYZER-6E;
#X connect 147 0 148 0;
#X connect 148 0 59 0;
#X obj 2317 590 route /cubic-distortion/CONSTANT-Q-SPECTRUM-ANALYZER-6E;
#X obj 2317 610 s \$0-cubic-distortion/CONSTANT-Q-SPECTRUM-ANALYZER-6E;
#X connect 143 1 149 0;
#X connect 149 0 150 0;
#X msg 1165 630 0;
#X obj 1165 650 s \$0-cubic-distortion/CONSTANT-Q-SPECTRUM-ANALYZER-6E;
#X connect 57 0 151 0;
#X connect 151 0 152 0;
#X obj 1741 630 faust-timer \$0;
#X msg 1741 650 /cubic-distortion/CONSTANT-Q-SPECTRUM-ANALYZER-6E;
#X connect 153 0 154 0;
#X connect 154 0 59 0;
#X obj 2317 630 route /cubic-distortion/CONSTANT-Q-SPECTRUM-ANALYZER-6E;
#X obj 2317 650 s \$0-cubic-distortion/CONSTANT-Q-SPECTRUM-ANALYZER-6E;
#X connect 149 1 155 0;
#X connect 155 0 156 0;
#X msg 1165 670 0;
#X obj 1165 690 s \$0-cubic-distortion/CONSTANT-Q-SPECTRUM-ANALYZER-6E;
#X connect 57 0 157 0;
#X connect 157 0 158 0;
#X obj 1741 670 faust-timer \$0;
#X msg 1741 690 /cubic-distortion/CONSTANT-Q-SPECTRUM-ANALYZER-6E;
#X connect 159 0 160 0;
#X connect 160 0 59 0;
#X obj 2317 670 route /cubic-distortion/CONSTANT-Q-SPECTRUM-ANALYZER-6E;
#X obj 2317 690 s \$0-cubic-distortion/CONSTANT-Q-SPECTRUM-ANALYZER-6E;
#X connect 155 1 161 0;
#X connect 161 0 162 0;
#X msg 1165 710 0;
#X obj 1165 730 s \$0-cubic-distortion/CONSTANT-Q-SPECTRUM-ANALYZER-6E;
#X connect 57 0 163 0;
#X connect 163 0 164 0;
#X obj 1741 710 faust-timer \$0;
#X msg 1741 730 /cubic-distortion/CONSTANT-Q-SPECTRUM-ANALYZER-6E;
#X connect 165 0 166 0;
#X connect 166 0 59 0;
#X obj 2317 710 route /cubic-distortion/CONSTANT-Q-SPECTRUM-ANALYZER-6E;
#X obj 2317 730 s \$0-cubic-distortion/CONSTANT-Q-SPECTRUM-ANALYZER-6E;
#X connect 161 1 167 0;
#X connect 167 0 168 0;
#X msg 1165 750 0;
#X obj 1165 770 s \$0-cubic-distortion/CONSTANT-Q-SPECTRUM-ANALYZER-6E;
#X connect 57 0 169 0;
#X connect 169 0 170 0;
#X obj 1741 750 faust-timer \$0;
#X msg 1741 770 /cubic-distortion/CONSTANT-Q-SPECTRUM-ANALYZER-6E;
#X connect 171 0 172 0;
#X connect 172 0 59 0;
#X obj 2317 750 route /cubic-distortion/CONSTANT-Q-SPECTRUM-ANALYZER-6E;
#X obj 2317 770 s \$0-cubic-distortion/CONSTANT-Q-SPECTRUM-ANALYZER-6E;
#X connect 167 1 173 0;
#X connect 173 0 174 0;
#X msg 1165 790 0;
#X obj 1165 810 s \$0-cubic-distortion/CONSTANT-Q-SPECTRUM-ANALYZER-6E;
#X connect 57 0 175 0;
#X connect 175 0 176 0;
#X obj 1741 790 faust-timer \$0;
#X msg 1741 810 /cubic-distortion/CONSTANT-Q-SPECTRUM-ANALYZER-6E;
#X connect 177 0 178 0;
#X connect 178 0 59 0;
#X obj 2317 790 route /cubic-distortion/CONSTANT-Q-SPECTRUM-ANALYZER-6E;
#X obj 2317 810 s \$0-cubic-distortion/CONSTANT-Q-SPECTRUM-ANALYZER-6E;
#X connect 173 1 179 0;
#X connect 179 0 180 0;
#X msg 1165 830 0;
#X obj 1165 850 s \$0-cubic-distortion/CONSTANT-Q-SPECTRUM-ANALYZER-6E;
#X connect 57 0 181 0;
#X connect 181 0 182 0;
#X obj 1741 830 faust-timer \$0;
#X msg 1741 850 /cubic-distortion/CONSTANT-Q-SPECTRUM-ANALYZER-6E;
#X connect 183 0 184 0;
#X connect 184 0 59 0;
#X obj 2317 830 route /cubic-distortion/CONSTANT-Q-SPECTRUM-ANALYZER-6E;
#X obj 2317 850 s \$0-cubic-distortion/CONSTANT-Q-SPECTRUM-ANALYZER-6E;
#X connect 179 1 185 0;
#X connect 185 0 186 0;
#X msg 1165 870 0;
#X obj 1165 890 s \$0-cubic-distortion/CONSTANT-Q-SPECTRUM-ANALYZER-6E;
#X connect 57 0 187 0;
#X connect 187 0 188 0;
#X obj 1741 870 faust-timer \$0;
#X msg 1741 890 /cubic-distortion/CONSTANT-Q-SPECTRUM-ANALYZER-6E;
#X connect 189 0 190 0;
#X connect 190 0 59 0;
#X obj 2317 870 route /cubic-distortion/CONSTANT-Q-SPECTRUM-ANALYZER-6E;
#X obj 2317 890 s \$0-cubic-distortion/CONSTANT-Q-SPECTRUM-ANALYZER-6E;
#X connect 185 1 191 0;
#X connect 191 0 192 0;
#X msg 1165 910 0.1;
#X obj 1165 930 s \$0-cubic-distortion/SPECTRUM-ANALYZER-CONTROLS/Level-Averaging-Time;
#X connect 57 0 193 0;
#X connect 193 0 194 0;
#X obj 1741 910 r \$0-cubic-distortion/SPECTRUM-ANALYZER-CONTROLS/Level-Averaging-Time;
#X msg 1741 930 /cubic-distortion/SPECTRUM-ANALYZER-CONTROLS/Level-Averaging-Time \$1;
#X connect 195 0 196 0;
#X connect 196 0 58 0;
#X obj 2317 910 route /cubic-distortion/SPECTRUM-ANALYZER-CONTROLS/Level-Averaging-Time;
#X obj 2317 930 s \$0-cubic-distortion/SPECTRUM-ANALYZER-CONTROLS/Level-Averaging-Time;
#X connect 191 1 197 0;
#X connect 197 0 198 0;
#X msg 1165 950 50;
#X obj 1165 970 s \$0-cubic-distortion/SPECTRUM-ANALYZER-CONTROLS/Level-dB-Offset;
#X connect 57 0 199 0;
#X connect 199 0 200 0;
#X obj 1741 950 r \$0-cubic-distortion/SPECTRUM-ANALYZER-CONTROLS/Level-dB-Offset;
#X msg 1741 970 /cubic-distortion/SPECTRUM-ANALYZER-CONTROLS/Level-dB-Offset \$1;
#X connect 201 0 202 0;
#X connect 202 0 58 0;
#X obj 2317 950 route /cubic-distortion/SPECTRUM-ANALYZER-CONTROLS/Level-dB-Offset;
#X obj 2317 970 s \$0-cubic-distortion/SPECTRUM-ANALYZER-CONTROLS/Level-dB-Offset;
#X connect 197 1 203 0;
#X connect 203 0 204 0;
#X coords 0 -1 1 1 1135 290 1 0 0;
#X text 0 310 Generated Sun Aug  4 09:11:58 2013 by faust2pd v2.5. See http://faust.grame.fr and http://pure-lang.googlecode.com.;
