#N canvas 0 0 450 300 10;
#X obj 70 270 inlet~;
#X obj 130 270 inlet~;
#X obj 190 270 inlet~;
#X obj 250 270 inlet~;
#X obj 310 270 inlet~;
#X obj 370 270 inlet~;
#X obj 430 270 inlet~;
#X obj 490 270 inlet~;
#X obj 10 270 inlet;
#X obj 550 270 r \$0-read;
#X obj 550 300 faust-control \$0;
#X obj 550 330 s \$0-write;
#X obj 10 330 r \$0-in;
#X obj 10 360 dbmeter~;
#X obj 10 390 s \$0-out;
#X obj 70 420 outlet~;
#X obj 130 420 outlet~;
#X obj 190 420 outlet~;
#X obj 250 420 outlet~;
#X obj 310 420 outlet~;
#X obj 370 420 outlet~;
#X obj 430 420 outlet~;
#X obj 490 420 outlet~;
#X obj 10 420 outlet;
#X connect 8 0 10 0;
#X connect 9 0 10 0;
#X connect 10 0 11 0;
#X connect 13 0 14 0;
#X connect 8 0 23 0;
#X connect 12 0 13 0;
#X connect 0 0 13 1;
#X connect 1 0 13 2;
#X connect 2 0 13 3;
#X connect 3 0 13 4;
#X connect 4 0 13 5;
#X connect 5 0 13 6;
#X connect 6 0 13 7;
#X connect 7 0 13 8;
#X connect 13 1 15 0;
#X connect 13 2 16 0;
#X connect 13 3 17 0;
#X connect 13 4 18 0;
#X connect 13 5 19 0;
#X connect 13 6 20 0;
#X connect 13 7 21 0;
#X connect 13 8 22 0;
#X obj 10 30 vsl 15 128 -70 10 0 0 \$0-8-channels-dB-meter/0 \$0-8-channels-dB-meter/0 empty 0 -8 0 10 -233017 -1 -1 0 1;
#X obj 10 170 nbx 5 14 -70 10 0 0 \$0-8-channels-dB-meter/0 \$0-8-channels-dB-meter/0 empty 0 -6 0 10 -233017 -1 -1 256;
#X obj 85 30 vsl 15 128 -70 10 0 0 \$0-8-channels-dB-meter/1 \$0-8-channels-dB-meter/1 empty 0 -8 0 10 -233017 -1 -1 0 1;
#X obj 85 170 nbx 5 14 -70 10 0 0 \$0-8-channels-dB-meter/1 \$0-8-channels-dB-meter/1 empty 0 -6 0 10 -233017 -1 -1 256;
#X obj 160 30 vsl 15 128 -70 10 0 0 \$0-8-channels-dB-meter/2 \$0-8-channels-dB-meter/2 empty 0 -8 0 10 -233017 -1 -1 0 1;
#X obj 160 170 nbx 5 14 -70 10 0 0 \$0-8-channels-dB-meter/2 \$0-8-channels-dB-meter/2 empty 0 -6 0 10 -233017 -1 -1 256;
#X obj 235 30 vsl 15 128 -70 10 0 0 \$0-8-channels-dB-meter/3 \$0-8-channels-dB-meter/3 empty 0 -8 0 10 -233017 -1 -1 0 1;
#X obj 235 170 nbx 5 14 -70 10 0 0 \$0-8-channels-dB-meter/3 \$0-8-channels-dB-meter/3 empty 0 -6 0 10 -233017 -1 -1 256;
#X obj 310 30 vsl 15 128 -70 10 0 0 \$0-8-channels-dB-meter/4 \$0-8-channels-dB-meter/4 empty 0 -8 0 10 -233017 -1 -1 0 1;
#X obj 310 170 nbx 5 14 -70 10 0 0 \$0-8-channels-dB-meter/4 \$0-8-channels-dB-meter/4 empty 0 -6 0 10 -233017 -1 -1 256;
#X obj 385 30 vsl 15 128 -70 10 0 0 \$0-8-channels-dB-meter/5 \$0-8-channels-dB-meter/5 empty 0 -8 0 10 -233017 -1 -1 0 1;
#X obj 385 170 nbx 5 14 -70 10 0 0 \$0-8-channels-dB-meter/5 \$0-8-channels-dB-meter/5 empty 0 -6 0 10 -233017 -1 -1 256;
#X obj 460 30 vsl 15 128 -70 10 0 0 \$0-8-channels-dB-meter/6 \$0-8-channels-dB-meter/6 empty 0 -8 0 10 -233017 -1 -1 0 1;
#X obj 460 170 nbx 5 14 -70 10 0 0 \$0-8-channels-dB-meter/6 \$0-8-channels-dB-meter/6 empty 0 -6 0 10 -233017 -1 -1 256;
#X obj 535 30 vsl 15 128 -70 10 0 0 \$0-8-channels-dB-meter/7 \$0-8-channels-dB-meter/7 empty 0 -8 0 10 -233017 -1 -1 0 1;
#X obj 535 170 nbx 5 14 -70 10 0 0 \$0-8-channels-dB-meter/7 \$0-8-channels-dB-meter/7 empty 0 -6 0 10 -233017 -1 -1 256;
#X obj 572 3 bng 15 250 50 1 \$0-init \$0-ignore empty 0 -6 0 10 -262144 -1 -1;
#X obj 592 3 tgl 15 1 \$0-active \$0-active empty 0 -6 0 10 -262144 -1 -1 1 1;
#X obj 640 10 r \$0-init;
#X obj 872 10 s \$0-in;
#X obj 988 10 s \$0-read;
#X obj 1104 10 r \$0-write;
#X msg 640 30 1;
#X obj 640 50 s \$0-active;
#X connect 46 0 47 0;
#X obj 872 30 r \$0-active;
#X msg 872 50 active \$1;
#X connect 48 0 49 0;
#X connect 49 0 43 0;
#X obj 1104 30 route active;
#X obj 1104 50 s \$0-active;
#X connect 45 0 50 0;
#X connect 50 0 51 0;
#X msg 640 70 0;
#X obj 640 90 s \$0-8-channels-dB-meter/0;
#X connect 42 0 52 0;
#X connect 52 0 53 0;
#X obj 872 70 faust-timer \$0;
#X msg 872 90 /8-channels-dB-meter/0;
#X connect 54 0 55 0;
#X connect 55 0 44 0;
#X obj 1104 70 route /8-channels-dB-meter/0;
#X obj 1104 90 s \$0-8-channels-dB-meter/0;
#X connect 50 1 56 0;
#X connect 56 0 57 0;
#X msg 640 110 0;
#X obj 640 130 s \$0-8-channels-dB-meter/1;
#X connect 42 0 58 0;
#X connect 58 0 59 0;
#X obj 872 110 faust-timer \$0;
#X msg 872 130 /8-channels-dB-meter/1;
#X connect 60 0 61 0;
#X connect 61 0 44 0;
#X obj 1104 110 route /8-channels-dB-meter/1;
#X obj 1104 130 s \$0-8-channels-dB-meter/1;
#X connect 56 1 62 0;
#X connect 62 0 63 0;
#X msg 640 150 0;
#X obj 640 170 s \$0-8-channels-dB-meter/2;
#X connect 42 0 64 0;
#X connect 64 0 65 0;
#X obj 872 150 faust-timer \$0;
#X msg 872 170 /8-channels-dB-meter/2;
#X connect 66 0 67 0;
#X connect 67 0 44 0;
#X obj 1104 150 route /8-channels-dB-meter/2;
#X obj 1104 170 s \$0-8-channels-dB-meter/2;
#X connect 62 1 68 0;
#X connect 68 0 69 0;
#X msg 640 190 0;
#X obj 640 210 s \$0-8-channels-dB-meter/3;
#X connect 42 0 70 0;
#X connect 70 0 71 0;
#X obj 872 190 faust-timer \$0;
#X msg 872 210 /8-channels-dB-meter/3;
#X connect 72 0 73 0;
#X connect 73 0 44 0;
#X obj 1104 190 route /8-channels-dB-meter/3;
#X obj 1104 210 s \$0-8-channels-dB-meter/3;
#X connect 68 1 74 0;
#X connect 74 0 75 0;
#X msg 640 230 0;
#X obj 640 250 s \$0-8-channels-dB-meter/4;
#X connect 42 0 76 0;
#X connect 76 0 77 0;
#X obj 872 230 faust-timer \$0;
#X msg 872 250 /8-channels-dB-meter/4;
#X connect 78 0 79 0;
#X connect 79 0 44 0;
#X obj 1104 230 route /8-channels-dB-meter/4;
#X obj 1104 250 s \$0-8-channels-dB-meter/4;
#X connect 74 1 80 0;
#X connect 80 0 81 0;
#X msg 640 270 0;
#X obj 640 290 s \$0-8-channels-dB-meter/5;
#X connect 42 0 82 0;
#X connect 82 0 83 0;
#X obj 872 270 faust-timer \$0;
#X msg 872 290 /8-channels-dB-meter/5;
#X connect 84 0 85 0;
#X connect 85 0 44 0;
#X obj 1104 270 route /8-channels-dB-meter/5;
#X obj 1104 290 s \$0-8-channels-dB-meter/5;
#X connect 80 1 86 0;
#X connect 86 0 87 0;
#X msg 640 310 0;
#X obj 640 330 s \$0-8-channels-dB-meter/6;
#X connect 42 0 88 0;
#X connect 88 0 89 0;
#X obj 872 310 faust-timer \$0;
#X msg 872 330 /8-channels-dB-meter/6;
#X connect 90 0 91 0;
#X connect 91 0 44 0;
#X obj 1104 310 route /8-channels-dB-meter/6;
#X obj 1104 330 s \$0-8-channels-dB-meter/6;
#X connect 86 1 92 0;
#X connect 92 0 93 0;
#X msg 640 350 0;
#X obj 640 370 s \$0-8-channels-dB-meter/7;
#X connect 42 0 94 0;
#X connect 94 0 95 0;
#X obj 872 350 faust-timer \$0;
#X msg 872 370 /8-channels-dB-meter/7;
#X connect 96 0 97 0;
#X connect 97 0 44 0;
#X obj 1104 350 route /8-channels-dB-meter/7;
#X obj 1104 370 s \$0-8-channels-dB-meter/7;
#X connect 92 1 98 0;
#X connect 98 0 99 0;
#X coords 0 -1 1 1 610 200 1 0 0;
#X text 0 220 Generated Sun Aug  4 09:11:49 2013 by faust2pd v2.5. See http://faust.grame.fr and http://pure-lang.googlecode.com.;
