#N canvas 0 0 450 300 10;
#X obj 10 150 inlet;
#X obj 130 150 r \$0-read;
#X obj 130 180 faust-control \$0;
#X obj 130 210 s \$0-write;
#X obj 10 210 r \$0-in;
#X obj 10 240 envelop~;
#X obj 10 270 s \$0-out;
#X obj 70 300 outlet~;
#X obj 10 300 outlet;
#X connect 0 0 2 0;
#X connect 1 0 2 0;
#X connect 2 0 3 0;
#X connect 5 0 6 0;
#X connect 0 0 8 0;
#X connect 4 0 5 0;
#X connect 5 1 7 0;
#X obj 10 30 nbx 5 14 1 1000 0 0 \$0-envelop/attack \$0-envelop/attack attack 0 -6 0 10 -262144 -1 -1 256;
#X obj 85 30 nbx 5 14 1 100 0 0 \$0-envelop/decay \$0-envelop/decay decay 0 -6 0 10 -262144 -1 -1 256;
#X obj 160 30 nbx 5 14 1 100 0 0 \$0-envelop/sustain \$0-envelop/sustain sustain 0 -6 0 10 -262144 -1 -1 256;
#X obj 235 30 nbx 5 14 1 100 0 0 \$0-envelop/release \$0-envelop/release release 0 -6 0 10 -262144 -1 -1 256;
#X obj 10 60 bng 15 250 50 0 \$0-envelop/play \$0-envelop/play play 0 -6 0 10 -262144 -1 -1;
#X obj 272 3 bng 15 250 50 1 \$0-init \$0-ignore empty 0 -6 0 10 -262144 -1 -1;
#X obj 292 3 tgl 15 1 \$0-active \$0-active empty 0 -6 0 10 -262144 -1 -1 1 1;
#X obj 450 10 r \$0-init;
#X obj 634 10 s \$0-in;
#X obj 726 10 s \$0-read;
#X obj 818 10 r \$0-write;
#X msg 450 30 1;
#X obj 450 50 s \$0-active;
#X connect 20 0 21 0;
#X obj 634 30 r \$0-active;
#X msg 634 50 active \$1;
#X connect 22 0 23 0;
#X connect 23 0 17 0;
#X obj 818 30 route active;
#X obj 818 50 s \$0-active;
#X connect 19 0 24 0;
#X connect 24 0 25 0;
#X msg 450 70 20;
#X obj 450 90 s \$0-envelop/attack;
#X connect 16 0 26 0;
#X connect 26 0 27 0;
#X obj 634 70 r \$0-envelop/attack;
#X msg 634 90 /envelop/attack \$1;
#X connect 28 0 29 0;
#X connect 29 0 17 0;
#X obj 818 70 route /envelop/attack;
#X obj 818 90 s \$0-envelop/attack;
#X connect 24 1 30 0;
#X connect 30 0 31 0;
#X msg 450 110 2;
#X obj 450 130 s \$0-envelop/decay;
#X connect 16 0 32 0;
#X connect 32 0 33 0;
#X obj 634 110 r \$0-envelop/decay;
#X msg 634 130 /envelop/decay \$1;
#X connect 34 0 35 0;
#X connect 35 0 17 0;
#X obj 818 110 route /envelop/decay;
#X obj 818 130 s \$0-envelop/decay;
#X connect 30 1 36 0;
#X connect 36 0 37 0;
#X msg 450 150 10;
#X obj 450 170 s \$0-envelop/sustain;
#X connect 16 0 38 0;
#X connect 38 0 39 0;
#X obj 634 150 r \$0-envelop/sustain;
#X msg 634 170 /envelop/sustain \$1;
#X connect 40 0 41 0;
#X connect 41 0 17 0;
#X obj 818 150 route /envelop/sustain;
#X obj 818 170 s \$0-envelop/sustain;
#X connect 36 1 42 0;
#X connect 42 0 43 0;
#X msg 450 190 10;
#X obj 450 210 s \$0-envelop/release;
#X connect 16 0 44 0;
#X connect 44 0 45 0;
#X obj 634 190 r \$0-envelop/release;
#X msg 634 210 /envelop/release \$1;
#X connect 46 0 47 0;
#X connect 47 0 17 0;
#X obj 818 190 route /envelop/release;
#X obj 818 210 s \$0-envelop/release;
#X connect 42 1 48 0;
#X connect 48 0 49 0;
#X msg 450 230 0;
#X obj 450 250 faust-s \$0-envelop/play;
#X connect 16 0 50 0;
#X connect 50 0 51 0;
#X obj 634 230 r \$0-envelop/play;
#X obj 634 250 faust-r /envelop/play;
#X connect 52 0 53 0;
#X connect 53 0 17 0;
#X obj 818 230 route /envelop/play;
#X obj 818 250 faust-s \$0-envelop/play;
#X connect 48 1 54 0;
#X connect 54 0 55 0;
#X coords 0 -1 1 1 310 80 1 0 0;
#X text 0 100 Generated Sun Aug  4 09:11:58 2013 by faust2pd v2.5. See http://faust.grame.fr and http://pure-lang.googlecode.com.;
