#N canvas 0 0 450 300 10;
#X obj 70 630 inlet~;
#X obj 10 630 inlet;
#X obj 130 630 r \$0-read;
#X obj 130 660 faust-control \$0;
#X obj 130 690 s \$0-write;
#X obj 10 690 r \$0-in;
#X obj 10 720 gate_compressor~;
#X obj 10 750 s \$0-out;
#X obj 70 780 outlet~;
#X obj 130 780 outlet~;
#X obj 10 780 outlet;
#X connect 1 0 3 0;
#X connect 2 0 3 0;
#X connect 3 0 4 0;
#X connect 6 0 7 0;
#X connect 1 0 10 0;
#X connect 5 0 6 0;
#X connect 0 0 6 1;
#X connect 6 1 8 0;
#X connect 6 2 9 0;
#X obj 10 30 vsl 15 128 -120 10 0 0 \$0-gate-compressor/SAWTOOTH-OSCILLATOR/Amplitude \$0-gate-compressor/SAWTOOTH-OSCILLATOR/Amplitude Amplitude 0 -8 0 10 -262144 -1 -1 0 1;
#X obj 10 170 nbx 5 14 -120 10 0 0 \$0-gate-compressor/SAWTOOTH-OSCILLATOR/Amplitude \$0-gate-compressor/SAWTOOTH-OSCILLATOR/Amplitude empty 0 -6 0 10 -262144 -1 -1 256;
#X obj 85 30 vsl 15 128 1 88 0 0 \$0-gate-compressor/SAWTOOTH-OSCILLATOR/Frequency \$0-gate-compressor/SAWTOOTH-OSCILLATOR/Frequency Frequency 0 -8 0 10 -262144 -1 -1 0 1;
#X obj 85 170 nbx 5 14 1 88 0 0 \$0-gate-compressor/SAWTOOTH-OSCILLATOR/Frequency \$0-gate-compressor/SAWTOOTH-OSCILLATOR/Frequency empty 0 -6 0 10 -262144 -1 -1 256;
#X obj 160 30 vsl 15 128 -10 10 0 0 \$0-gate-compressor/SAWTOOTH-OSCILLATOR/Detuning-1 \$0-gate-compressor/SAWTOOTH-OSCILLATOR/Detuning-1 Detuning-1 0 -8 0 10 -262144 -1 -1 0 1;
#X obj 160 170 nbx 5 14 -10 10 0 0 \$0-gate-compressor/SAWTOOTH-OSCILLATOR/Detuning-1 \$0-gate-compressor/SAWTOOTH-OSCILLATOR/Detuning-1 empty 0 -6 0 10 -262144 -1 -1 256;
#X obj 235 30 vsl 15 128 -10 10 0 0 \$0-gate-compressor/SAWTOOTH-OSCILLATOR/Detuning-2 \$0-gate-compressor/SAWTOOTH-OSCILLATOR/Detuning-2 Detuning-2 0 -8 0 10 -262144 -1 -1 0 1;
#X obj 235 170 nbx 5 14 -10 10 0 0 \$0-gate-compressor/SAWTOOTH-OSCILLATOR/Detuning-2 \$0-gate-compressor/SAWTOOTH-OSCILLATOR/Detuning-2 empty 0 -6 0 10 -262144 -1 -1 256;
#X obj 310 30 vsl 15 128 0.01 1 0 0 \$0-gate-compressor/SAWTOOTH-OSCILLATOR/Portamento \$0-gate-compressor/SAWTOOTH-OSCILLATOR/Portamento Portamento 0 -8 0 10 -262144 -1 -1 0 1;
#X obj 310 170 nbx 5 14 0.01 1 0 0 \$0-gate-compressor/SAWTOOTH-OSCILLATOR/Portamento \$0-gate-compressor/SAWTOOTH-OSCILLATOR/Portamento empty 0 -6 0 10 -262144 -1 -1 256;
#X obj 385 30 tgl 15 0 \$0-gate-compressor/SAWTOOTH-OSCILLATOR/Alternate-Signals/Pink-Noise-Instead-uses-only-Amplitude-control-on-the-left \$0-gate-compressor/SAWTOOTH-OSCILLATOR/Alternate-Signals/Pink-Noise-Instead-uses-only-Amplitude-control-on-the-left Pink-Noise-Instead-uses-only-Amplitude-control-on-the-left 0 -6 0 10 -262144 -1 -1 0 1;
#X obj 385 60 tgl 15 0 \$0-gate-compressor/SAWTOOTH-OSCILLATOR/Alternate-Signals/External-Input-Instead-overrides-Sawtooth-Noise-selection-above \$0-gate-compressor/SAWTOOTH-OSCILLATOR/Alternate-Signals/External-Input-Instead-overrides-Sawtooth-Noise-selection-above External-Input-Instead-overrides-Sawtooth-Noise-selection-above 0 -6 0 10 -262144 -1 -1 0 1;
#X obj 10 210 tgl 15 0 \$0-gate-compressor/GATE/Bypass \$0-gate-compressor/GATE/Bypass Bypass 0 -6 0 10 -262144 -1 -1 0 1;
#X obj 60 210 hsl 128 15 -50 10 0 0 \$0-gate-compressor/GATE/Gate-Gain \$0-gate-compressor/GATE/Gate-Gain Gate-Gain -2 -6 0 10 -233017 -1 -1 0 1;
#X obj 210 210 nbx 5 14 -50 10 0 0 \$0-gate-compressor/GATE/Gate-Gain \$0-gate-compressor/GATE/Gate-Gain empty 0 -6 0 10 -233017 -1 -1 256;
#X obj 10 240 hsl 128 15 -120 0 0 0 \$0-gate-compressor/GATE/Threshold \$0-gate-compressor/GATE/Threshold Threshold -2 -6 0 10 -262144 -1 -1 0 1;
#X obj 160 240 nbx 5 14 -120 0 0 0 \$0-gate-compressor/GATE/Threshold \$0-gate-compressor/GATE/Threshold empty 0 -6 0 10 -262144 -1 -1 256;
#X obj 235 240 hsl 128 15 10 10000 0 0 \$0-gate-compressor/GATE/Attack \$0-gate-compressor/GATE/Attack Attack -2 -6 0 10 -262144 -1 -1 0 1;
#X obj 385 240 nbx 5 14 10 10000 0 0 \$0-gate-compressor/GATE/Attack \$0-gate-compressor/GATE/Attack empty 0 -6 0 10 -262144 -1 -1 256;
#X obj 460 240 hsl 128 15 0 1000 0 0 \$0-gate-compressor/GATE/Hold \$0-gate-compressor/GATE/Hold Hold -2 -6 0 10 -262144 -1 -1 0 1;
#X obj 610 240 nbx 5 14 0 1000 0 0 \$0-gate-compressor/GATE/Hold \$0-gate-compressor/GATE/Hold empty 0 -6 0 10 -262144 -1 -1 256;
#X obj 685 240 hsl 128 15 0 1000 0 0 \$0-gate-compressor/GATE/Release \$0-gate-compressor/GATE/Release Release -2 -6 0 10 -262144 -1 -1 0 1;
#X obj 835 240 nbx 5 14 0 1000 0 0 \$0-gate-compressor/GATE/Release \$0-gate-compressor/GATE/Release empty 0 -6 0 10 -262144 -1 -1 256;
#X obj 10 270 tgl 15 0 \$0-gate-compressor/COMPRESSOR/Bypass \$0-gate-compressor/COMPRESSOR/Bypass Bypass 0 -6 0 10 -262144 -1 -1 0 1;
#X obj 60 270 hsl 128 15 -50 10 0 0 \$0-gate-compressor/COMPRESSOR/Compressor-Gain \$0-gate-compressor/COMPRESSOR/Compressor-Gain Compressor-Gain -2 -6 0 10 -233017 -1 -1 0 1;
#X obj 210 270 nbx 5 14 -50 10 0 0 \$0-gate-compressor/COMPRESSOR/Compressor-Gain \$0-gate-compressor/COMPRESSOR/Compressor-Gain empty 0 -6 0 10 -233017 -1 -1 256;
#X obj 10 300 hsl 128 15 1 20 0 0 \$0-gate-compressor/COMPRESSOR/Compression-Control/Ratio \$0-gate-compressor/COMPRESSOR/Compression-Control/Ratio Ratio -2 -6 0 10 -262144 -1 -1 0 1;
#X obj 160 300 nbx 5 14 1 20 0 0 \$0-gate-compressor/COMPRESSOR/Compression-Control/Ratio \$0-gate-compressor/COMPRESSOR/Compression-Control/Ratio empty 0 -6 0 10 -262144 -1 -1 256;
#X obj 235 300 hsl 128 15 -100 10 0 0 \$0-gate-compressor/COMPRESSOR/Compression-Control/Threshold \$0-gate-compressor/COMPRESSOR/Compression-Control/Threshold Threshold -2 -6 0 10 -262144 -1 -1 0 1;
#X obj 385 300 nbx 5 14 -100 10 0 0 \$0-gate-compressor/COMPRESSOR/Compression-Control/Threshold \$0-gate-compressor/COMPRESSOR/Compression-Control/Threshold empty 0 -6 0 10 -262144 -1 -1 256;
#X obj 460 300 hsl 128 15 0 500 0 0 \$0-gate-compressor/COMPRESSOR/Compression-Response/Attack \$0-gate-compressor/COMPRESSOR/Compression-Response/Attack Attack -2 -6 0 10 -262144 -1 -1 0 1;
#X obj 610 300 nbx 5 14 0 500 0 0 \$0-gate-compressor/COMPRESSOR/Compression-Response/Attack \$0-gate-compressor/COMPRESSOR/Compression-Response/Attack empty 0 -6 0 10 -262144 -1 -1 256;
#X obj 685 300 hsl 128 15 0 1000 0 0 \$0-gate-compressor/COMPRESSOR/Compression-Response/Release \$0-gate-compressor/COMPRESSOR/Compression-Response/Release Release -2 -6 0 10 -262144 -1 -1 0 1;
#X obj 835 300 nbx 5 14 0 1000 0 0 \$0-gate-compressor/COMPRESSOR/Compression-Response/Release \$0-gate-compressor/COMPRESSOR/Compression-Response/Release empty 0 -6 0 10 -262144 -1 -1 256;
#X obj 10 330 hsl 128 15 -96 96 0 0 \$0-gate-compressor/COMPRESSOR/Makeup-Gain \$0-gate-compressor/COMPRESSOR/Makeup-Gain Makeup-Gain -2 -6 0 10 -262144 -1 -1 0 1;
#X obj 160 330 nbx 5 14 -96 96 0 0 \$0-gate-compressor/COMPRESSOR/Makeup-Gain \$0-gate-compressor/COMPRESSOR/Makeup-Gain empty 0 -6 0 10 -262144 -1 -1 256;
#X obj 10 360 vsl 15 128 -50 10 0 0 \$0-gate-compressor/CONSTANT-Q-SPECTRUM-ANALYZER-6E \$0-gate-compressor/CONSTANT-Q-SPECTRUM-ANALYZER-6E empty 0 -8 0 10 -233017 -1 -1 0 1;
#X obj 10 500 nbx 5 14 -50 10 0 0 \$0-gate-compressor/CONSTANT-Q-SPECTRUM-ANALYZER-6E \$0-gate-compressor/CONSTANT-Q-SPECTRUM-ANALYZER-6E empty 0 -6 0 10 -233017 -1 -1 256;
#X obj 85 360 vsl 15 128 -50 10 0 0 \$0-gate-compressor/CONSTANT-Q-SPECTRUM-ANALYZER-6E \$0-gate-compressor/CONSTANT-Q-SPECTRUM-ANALYZER-6E empty 0 -8 0 10 -233017 -1 -1 0 1;
#X obj 85 500 nbx 5 14 -50 10 0 0 \$0-gate-compressor/CONSTANT-Q-SPECTRUM-ANALYZER-6E \$0-gate-compressor/CONSTANT-Q-SPECTRUM-ANALYZER-6E empty 0 -6 0 10 -233017 -1 -1 256;
#X obj 160 360 vsl 15 128 -50 10 0 0 \$0-gate-compressor/CONSTANT-Q-SPECTRUM-ANALYZER-6E \$0-gate-compressor/CONSTANT-Q-SPECTRUM-ANALYZER-6E empty 0 -8 0 10 -233017 -1 -1 0 1;
#X obj 160 500 nbx 5 14 -50 10 0 0 \$0-gate-compressor/CONSTANT-Q-SPECTRUM-ANALYZER-6E \$0-gate-compressor/CONSTANT-Q-SPECTRUM-ANALYZER-6E empty 0 -6 0 10 -233017 -1 -1 256;
#X obj 235 360 vsl 15 128 -50 10 0 0 \$0-gate-compressor/CONSTANT-Q-SPECTRUM-ANALYZER-6E \$0-gate-compressor/CONSTANT-Q-SPECTRUM-ANALYZER-6E empty 0 -8 0 10 -233017 -1 -1 0 1;
#X obj 235 500 nbx 5 14 -50 10 0 0 \$0-gate-compressor/CONSTANT-Q-SPECTRUM-ANALYZER-6E \$0-gate-compressor/CONSTANT-Q-SPECTRUM-ANALYZER-6E empty 0 -6 0 10 -233017 -1 -1 256;
#X obj 310 360 vsl 15 128 -50 10 0 0 \$0-gate-compressor/CONSTANT-Q-SPECTRUM-ANALYZER-6E \$0-gate-compressor/CONSTANT-Q-SPECTRUM-ANALYZER-6E empty 0 -8 0 10 -233017 -1 -1 0 1;
#X obj 310 500 nbx 5 14 -50 10 0 0 \$0-gate-compressor/CONSTANT-Q-SPECTRUM-ANALYZER-6E \$0-gate-compressor/CONSTANT-Q-SPECTRUM-ANALYZER-6E empty 0 -6 0 10 -233017 -1 -1 256;
#X obj 385 360 vsl 15 128 -50 10 0 0 \$0-gate-compressor/CONSTANT-Q-SPECTRUM-ANALYZER-6E \$0-gate-compressor/CONSTANT-Q-SPECTRUM-ANALYZER-6E empty 0 -8 0 10 -233017 -1 -1 0 1;
#X obj 385 500 nbx 5 14 -50 10 0 0 \$0-gate-compressor/CONSTANT-Q-SPECTRUM-ANALYZER-6E \$0-gate-compressor/CONSTANT-Q-SPECTRUM-ANALYZER-6E empty 0 -6 0 10 -233017 -1 -1 256;
#X obj 460 360 vsl 15 128 -50 10 0 0 \$0-gate-compressor/CONSTANT-Q-SPECTRUM-ANALYZER-6E \$0-gate-compressor/CONSTANT-Q-SPECTRUM-ANALYZER-6E empty 0 -8 0 10 -233017 -1 -1 0 1;
#X obj 460 500 nbx 5 14 -50 10 0 0 \$0-gate-compressor/CONSTANT-Q-SPECTRUM-ANALYZER-6E \$0-gate-compressor/CONSTANT-Q-SPECTRUM-ANALYZER-6E empty 0 -6 0 10 -233017 -1 -1 256;
#X obj 535 360 vsl 15 128 -50 10 0 0 \$0-gate-compressor/CONSTANT-Q-SPECTRUM-ANALYZER-6E \$0-gate-compressor/CONSTANT-Q-SPECTRUM-ANALYZER-6E empty 0 -8 0 10 -233017 -1 -1 0 1;
#X obj 535 500 nbx 5 14 -50 10 0 0 \$0-gate-compressor/CONSTANT-Q-SPECTRUM-ANALYZER-6E \$0-gate-compressor/CONSTANT-Q-SPECTRUM-ANALYZER-6E empty 0 -6 0 10 -233017 -1 -1 256;
#X obj 610 360 vsl 15 128 -50 10 0 0 \$0-gate-compressor/CONSTANT-Q-SPECTRUM-ANALYZER-6E \$0-gate-compressor/CONSTANT-Q-SPECTRUM-ANALYZER-6E empty 0 -8 0 10 -233017 -1 -1 0 1;
#X obj 610 500 nbx 5 14 -50 10 0 0 \$0-gate-compressor/CONSTANT-Q-SPECTRUM-ANALYZER-6E \$0-gate-compressor/CONSTANT-Q-SPECTRUM-ANALYZER-6E empty 0 -6 0 10 -233017 -1 -1 256;
#X obj 685 360 vsl 15 128 -50 10 0 0 \$0-gate-compressor/CONSTANT-Q-SPECTRUM-ANALYZER-6E \$0-gate-compressor/CONSTANT-Q-SPECTRUM-ANALYZER-6E empty 0 -8 0 10 -233017 -1 -1 0 1;
#X obj 685 500 nbx 5 14 -50 10 0 0 \$0-gate-compressor/CONSTANT-Q-SPECTRUM-ANALYZER-6E \$0-gate-compressor/CONSTANT-Q-SPECTRUM-ANALYZER-6E empty 0 -6 0 10 -233017 -1 -1 256;
#X obj 760 360 vsl 15 128 -50 10 0 0 \$0-gate-compressor/CONSTANT-Q-SPECTRUM-ANALYZER-6E \$0-gate-compressor/CONSTANT-Q-SPECTRUM-ANALYZER-6E empty 0 -8 0 10 -233017 -1 -1 0 1;
#X obj 760 500 nbx 5 14 -50 10 0 0 \$0-gate-compressor/CONSTANT-Q-SPECTRUM-ANALYZER-6E \$0-gate-compressor/CONSTANT-Q-SPECTRUM-ANALYZER-6E empty 0 -6 0 10 -233017 -1 -1 256;
#X obj 835 360 vsl 15 128 -50 10 0 0 \$0-gate-compressor/CONSTANT-Q-SPECTRUM-ANALYZER-6E \$0-gate-compressor/CONSTANT-Q-SPECTRUM-ANALYZER-6E empty 0 -8 0 10 -233017 -1 -1 0 1;
#X obj 835 500 nbx 5 14 -50 10 0 0 \$0-gate-compressor/CONSTANT-Q-SPECTRUM-ANALYZER-6E \$0-gate-compressor/CONSTANT-Q-SPECTRUM-ANALYZER-6E empty 0 -6 0 10 -233017 -1 -1 256;
#X obj 910 360 vsl 15 128 -50 10 0 0 \$0-gate-compressor/CONSTANT-Q-SPECTRUM-ANALYZER-6E \$0-gate-compressor/CONSTANT-Q-SPECTRUM-ANALYZER-6E empty 0 -8 0 10 -233017 -1 -1 0 1;
#X obj 910 500 nbx 5 14 -50 10 0 0 \$0-gate-compressor/CONSTANT-Q-SPECTRUM-ANALYZER-6E \$0-gate-compressor/CONSTANT-Q-SPECTRUM-ANALYZER-6E empty 0 -6 0 10 -233017 -1 -1 256;
#X obj 985 360 vsl 15 128 -50 10 0 0 \$0-gate-compressor/CONSTANT-Q-SPECTRUM-ANALYZER-6E \$0-gate-compressor/CONSTANT-Q-SPECTRUM-ANALYZER-6E empty 0 -8 0 10 -233017 -1 -1 0 1;
#X obj 985 500 nbx 5 14 -50 10 0 0 \$0-gate-compressor/CONSTANT-Q-SPECTRUM-ANALYZER-6E \$0-gate-compressor/CONSTANT-Q-SPECTRUM-ANALYZER-6E empty 0 -6 0 10 -233017 -1 -1 256;
#X obj 1060 360 vsl 15 128 -50 10 0 0 \$0-gate-compressor/CONSTANT-Q-SPECTRUM-ANALYZER-6E \$0-gate-compressor/CONSTANT-Q-SPECTRUM-ANALYZER-6E empty 0 -8 0 10 -233017 -1 -1 0 1;
#X obj 1060 500 nbx 5 14 -50 10 0 0 \$0-gate-compressor/CONSTANT-Q-SPECTRUM-ANALYZER-6E \$0-gate-compressor/CONSTANT-Q-SPECTRUM-ANALYZER-6E empty 0 -6 0 10 -233017 -1 -1 256;
#X obj 10 540 hsl 128 15 0 1 0 0 \$0-gate-compressor/SPECTRUM-ANALYZER-CONTROLS/Level-Averaging-Time \$0-gate-compressor/SPECTRUM-ANALYZER-CONTROLS/Level-Averaging-Time Level-Averaging-Time -2 -6 0 10 -262144 -1 -1 0 1;
#X obj 160 540 nbx 5 14 0 1 0 0 \$0-gate-compressor/SPECTRUM-ANALYZER-CONTROLS/Level-Averaging-Time \$0-gate-compressor/SPECTRUM-ANALYZER-CONTROLS/Level-Averaging-Time empty 0 -6 0 10 -262144 -1 -1 256;
#X obj 235 540 hsl 128 15 0 100 0 0 \$0-gate-compressor/SPECTRUM-ANALYZER-CONTROLS/Level-dB-Offset \$0-gate-compressor/SPECTRUM-ANALYZER-CONTROLS/Level-dB-Offset Level-dB-Offset -2 -6 0 10 -262144 -1 -1 0 1;
#X obj 385 540 nbx 5 14 0 100 0 0 \$0-gate-compressor/SPECTRUM-ANALYZER-CONTROLS/Level-dB-Offset \$0-gate-compressor/SPECTRUM-ANALYZER-CONTROLS/Level-dB-Offset empty 0 -6 0 10 -262144 -1 -1 256;
#X obj 1097 3 bng 15 250 50 1 \$0-init \$0-ignore empty 0 -6 0 10 -262144 -1 -1;
#X obj 1117 3 tgl 15 1 \$0-active \$0-active empty 0 -6 0 10 -262144 -1 -1 1 1;
#X obj 1165 10 r \$0-init;
#X obj 2165 10 s \$0-in;
#X obj 2665 10 s \$0-read;
#X obj 3165 10 r \$0-write;
#X msg 1165 30 1;
#X obj 1165 50 s \$0-active;
#X connect 87 0 88 0;
#X obj 2165 30 r \$0-active;
#X msg 2165 50 active \$1;
#X connect 89 0 90 0;
#X connect 90 0 84 0;
#X obj 3165 30 route active;
#X obj 3165 50 s \$0-active;
#X connect 86 0 91 0;
#X connect 91 0 92 0;
#X msg 1165 70 -20;
#X obj 1165 90 s \$0-gate-compressor/SAWTOOTH-OSCILLATOR/Amplitude;
#X connect 83 0 93 0;
#X connect 93 0 94 0;
#X obj 2165 70 r \$0-gate-compressor/SAWTOOTH-OSCILLATOR/Amplitude;
#X msg 2165 90 /gate-compressor/SAWTOOTH-OSCILLATOR/Amplitude \$1;
#X connect 95 0 96 0;
#X connect 96 0 84 0;
#X obj 3165 70 route /gate-compressor/SAWTOOTH-OSCILLATOR/Amplitude;
#X obj 3165 90 s \$0-gate-compressor/SAWTOOTH-OSCILLATOR/Amplitude;
#X connect 91 1 97 0;
#X connect 97 0 98 0;
#X msg 1165 110 49;
#X obj 1165 130 s \$0-gate-compressor/SAWTOOTH-OSCILLATOR/Frequency;
#X connect 83 0 99 0;
#X connect 99 0 100 0;
#X obj 2165 110 r \$0-gate-compressor/SAWTOOTH-OSCILLATOR/Frequency;
#X msg 2165 130 /gate-compressor/SAWTOOTH-OSCILLATOR/Frequency \$1;
#X connect 101 0 102 0;
#X connect 102 0 84 0;
#X obj 3165 110 route /gate-compressor/SAWTOOTH-OSCILLATOR/Frequency;
#X obj 3165 130 s \$0-gate-compressor/SAWTOOTH-OSCILLATOR/Frequency;
#X connect 97 1 103 0;
#X connect 103 0 104 0;
#X msg 1165 150 -0.1;
#X obj 1165 170 s \$0-gate-compressor/SAWTOOTH-OSCILLATOR/Detuning-1;
#X connect 83 0 105 0;
#X connect 105 0 106 0;
#X obj 2165 150 r \$0-gate-compressor/SAWTOOTH-OSCILLATOR/Detuning-1;
#X msg 2165 170 /gate-compressor/SAWTOOTH-OSCILLATOR/Detuning-1 \$1;
#X connect 107 0 108 0;
#X connect 108 0 84 0;
#X obj 3165 150 route /gate-compressor/SAWTOOTH-OSCILLATOR/Detuning-1;
#X obj 3165 170 s \$0-gate-compressor/SAWTOOTH-OSCILLATOR/Detuning-1;
#X connect 103 1 109 0;
#X connect 109 0 110 0;
#X msg 1165 190 0.1;
#X obj 1165 210 s \$0-gate-compressor/SAWTOOTH-OSCILLATOR/Detuning-2;
#X connect 83 0 111 0;
#X connect 111 0 112 0;
#X obj 2165 190 r \$0-gate-compressor/SAWTOOTH-OSCILLATOR/Detuning-2;
#X msg 2165 210 /gate-compressor/SAWTOOTH-OSCILLATOR/Detuning-2 \$1;
#X connect 113 0 114 0;
#X connect 114 0 84 0;
#X obj 3165 190 route /gate-compressor/SAWTOOTH-OSCILLATOR/Detuning-2;
#X obj 3165 210 s \$0-gate-compressor/SAWTOOTH-OSCILLATOR/Detuning-2;
#X connect 109 1 115 0;
#X connect 115 0 116 0;
#X msg 1165 230 0.1;
#X obj 1165 250 s \$0-gate-compressor/SAWTOOTH-OSCILLATOR/Portamento;
#X connect 83 0 117 0;
#X connect 117 0 118 0;
#X obj 2165 230 r \$0-gate-compressor/SAWTOOTH-OSCILLATOR/Portamento;
#X msg 2165 250 /gate-compressor/SAWTOOTH-OSCILLATOR/Portamento \$1;
#X connect 119 0 120 0;
#X connect 120 0 84 0;
#X obj 3165 230 route /gate-compressor/SAWTOOTH-OSCILLATOR/Portamento;
#X obj 3165 250 s \$0-gate-compressor/SAWTOOTH-OSCILLATOR/Portamento;
#X connect 115 1 121 0;
#X connect 121 0 122 0;
#X msg 1165 270 0;
#X obj 1165 290 s \$0-gate-compressor/SAWTOOTH-OSCILLATOR/Alternate-Signals/Pink-Noise-Instead-uses-only-Amplitude-control-on-the-left;
#X connect 83 0 123 0;
#X connect 123 0 124 0;
#X obj 2165 270 r \$0-gate-compressor/SAWTOOTH-OSCILLATOR/Alternate-Signals/Pink-Noise-Instead-uses-only-Amplitude-control-on-the-left;
#X msg 2165 290 /gate-compressor/SAWTOOTH-OSCILLATOR/Alternate-Signals/Pink-Noise-Instead-uses-only-Amplitude-control-on-the-left \$1;
#X connect 125 0 126 0;
#X connect 126 0 84 0;
#X obj 3165 270 route /gate-compressor/SAWTOOTH-OSCILLATOR/Alternate-Signals/Pink-Noise-Instead-uses-only-Amplitude-control-on-the-left;
#X obj 3165 290 s \$0-gate-compressor/SAWTOOTH-OSCILLATOR/Alternate-Signals/Pink-Noise-Instead-uses-only-Amplitude-control-on-the-left;
#X connect 121 1 127 0;
#X connect 127 0 128 0;
#X msg 1165 310 0;
#X obj 1165 330 s \$0-gate-compressor/SAWTOOTH-OSCILLATOR/Alternate-Signals/External-Input-Instead-overrides-Sawtooth-Noise-selection-above;
#X connect 83 0 129 0;
#X connect 129 0 130 0;
#X obj 2165 310 r \$0-gate-compressor/SAWTOOTH-OSCILLATOR/Alternate-Signals/External-Input-Instead-overrides-Sawtooth-Noise-selection-above;
#X msg 2165 330 /gate-compressor/SAWTOOTH-OSCILLATOR/Alternate-Signals/External-Input-Instead-overrides-Sawtooth-Noise-selection-above \$1;
#X connect 131 0 132 0;
#X connect 132 0 84 0;
#X obj 3165 310 route /gate-compressor/SAWTOOTH-OSCILLATOR/Alternate-Signals/External-Input-Instead-overrides-Sawtooth-Noise-selection-above;
#X obj 3165 330 s \$0-gate-compressor/SAWTOOTH-OSCILLATOR/Alternate-Signals/External-Input-Instead-overrides-Sawtooth-Noise-selection-above;
#X connect 127 1 133 0;
#X connect 133 0 134 0;
#X msg 1165 350 0;
#X obj 1165 370 s \$0-gate-compressor/GATE/Bypass;
#X connect 83 0 135 0;
#X connect 135 0 136 0;
#X obj 2165 350 r \$0-gate-compressor/GATE/Bypass;
#X msg 2165 370 /gate-compressor/GATE/Bypass \$1;
#X connect 137 0 138 0;
#X connect 138 0 84 0;
#X obj 3165 350 route /gate-compressor/GATE/Bypass;
#X obj 3165 370 s \$0-gate-compressor/GATE/Bypass;
#X connect 133 1 139 0;
#X connect 139 0 140 0;
#X msg 1165 390 0;
#X obj 1165 410 s \$0-gate-compressor/GATE/Gate-Gain;
#X connect 83 0 141 0;
#X connect 141 0 142 0;
#X obj 2165 390 faust-timer \$0;
#X msg 2165 410 /gate-compressor/GATE/Gate-Gain;
#X connect 143 0 144 0;
#X connect 144 0 85 0;
#X obj 3165 390 route /gate-compressor/GATE/Gate-Gain;
#X obj 3165 410 s \$0-gate-compressor/GATE/Gate-Gain;
#X connect 139 1 145 0;
#X connect 145 0 146 0;
#X msg 1165 430 -30;
#X obj 1165 450 s \$0-gate-compressor/GATE/Threshold;
#X connect 83 0 147 0;
#X connect 147 0 148 0;
#X obj 2165 430 r \$0-gate-compressor/GATE/Threshold;
#X msg 2165 450 /gate-compressor/GATE/Threshold \$1;
#X connect 149 0 150 0;
#X connect 150 0 84 0;
#X obj 3165 430 route /gate-compressor/GATE/Threshold;
#X obj 3165 450 s \$0-gate-compressor/GATE/Threshold;
#X connect 145 1 151 0;
#X connect 151 0 152 0;
#X msg 1165 470 10;
#X obj 1165 490 s \$0-gate-compressor/GATE/Attack;
#X connect 83 0 153 0;
#X connect 153 0 154 0;
#X obj 2165 470 r \$0-gate-compressor/GATE/Attack;
#X msg 2165 490 /gate-compressor/GATE/Attack \$1;
#X connect 155 0 156 0;
#X connect 156 0 84 0;
#X obj 3165 470 route /gate-compressor/GATE/Attack;
#X obj 3165 490 s \$0-gate-compressor/GATE/Attack;
#X connect 151 1 157 0;
#X connect 157 0 158 0;
#X msg 1165 510 200;
#X obj 1165 530 s \$0-gate-compressor/GATE/Hold;
#X connect 83 0 159 0;
#X connect 159 0 160 0;
#X obj 2165 510 r \$0-gate-compressor/GATE/Hold;
#X msg 2165 530 /gate-compressor/GATE/Hold \$1;
#X connect 161 0 162 0;
#X connect 162 0 84 0;
#X obj 3165 510 route /gate-compressor/GATE/Hold;
#X obj 3165 530 s \$0-gate-compressor/GATE/Hold;
#X connect 157 1 163 0;
#X connect 163 0 164 0;
#X msg 1165 550 100;
#X obj 1165 570 s \$0-gate-compressor/GATE/Release;
#X connect 83 0 165 0;
#X connect 165 0 166 0;
#X obj 2165 550 r \$0-gate-compressor/GATE/Release;
#X msg 2165 570 /gate-compressor/GATE/Release \$1;
#X connect 167 0 168 0;
#X connect 168 0 84 0;
#X obj 3165 550 route /gate-compressor/GATE/Release;
#X obj 3165 570 s \$0-gate-compressor/GATE/Release;
#X connect 163 1 169 0;
#X connect 169 0 170 0;
#X msg 1165 590 0;
#X obj 1165 610 s \$0-gate-compressor/COMPRESSOR/Bypass;
#X connect 83 0 171 0;
#X connect 171 0 172 0;
#X obj 2165 590 r \$0-gate-compressor/COMPRESSOR/Bypass;
#X msg 2165 610 /gate-compressor/COMPRESSOR/Bypass \$1;
#X connect 173 0 174 0;
#X connect 174 0 84 0;
#X obj 3165 590 route /gate-compressor/COMPRESSOR/Bypass;
#X obj 3165 610 s \$0-gate-compressor/COMPRESSOR/Bypass;
#X connect 169 1 175 0;
#X connect 175 0 176 0;
#X msg 1165 630 0;
#X obj 1165 650 s \$0-gate-compressor/COMPRESSOR/Compressor-Gain;
#X connect 83 0 177 0;
#X connect 177 0 178 0;
#X obj 2165 630 faust-timer \$0;
#X msg 2165 650 /gate-compressor/COMPRESSOR/Compressor-Gain;
#X connect 179 0 180 0;
#X connect 180 0 85 0;
#X obj 3165 630 route /gate-compressor/COMPRESSOR/Compressor-Gain;
#X obj 3165 650 s \$0-gate-compressor/COMPRESSOR/Compressor-Gain;
#X connect 175 1 181 0;
#X connect 181 0 182 0;
#X msg 1165 670 5;
#X obj 1165 690 s \$0-gate-compressor/COMPRESSOR/Compression-Control/Ratio;
#X connect 83 0 183 0;
#X connect 183 0 184 0;
#X obj 2165 670 r \$0-gate-compressor/COMPRESSOR/Compression-Control/Ratio;
#X msg 2165 690 /gate-compressor/COMPRESSOR/Compression-Control/Ratio \$1;
#X connect 185 0 186 0;
#X connect 186 0 84 0;
#X obj 3165 670 route /gate-compressor/COMPRESSOR/Compression-Control/Ratio;
#X obj 3165 690 s \$0-gate-compressor/COMPRESSOR/Compression-Control/Ratio;
#X connect 181 1 187 0;
#X connect 187 0 188 0;
#X msg 1165 710 -30;
#X obj 1165 730 s \$0-gate-compressor/COMPRESSOR/Compression-Control/Threshold;
#X connect 83 0 189 0;
#X connect 189 0 190 0;
#X obj 2165 710 r \$0-gate-compressor/COMPRESSOR/Compression-Control/Threshold;
#X msg 2165 730 /gate-compressor/COMPRESSOR/Compression-Control/Threshold \$1;
#X connect 191 0 192 0;
#X connect 192 0 84 0;
#X obj 3165 710 route /gate-compressor/COMPRESSOR/Compression-Control/Threshold;
#X obj 3165 730 s \$0-gate-compressor/COMPRESSOR/Compression-Control/Threshold;
#X connect 187 1 193 0;
#X connect 193 0 194 0;
#X msg 1165 750 50;
#X obj 1165 770 s \$0-gate-compressor/COMPRESSOR/Compression-Response/Attack;
#X connect 83 0 195 0;
#X connect 195 0 196 0;
#X obj 2165 750 r \$0-gate-compressor/COMPRESSOR/Compression-Response/Attack;
#X msg 2165 770 /gate-compressor/COMPRESSOR/Compression-Response/Attack \$1;
#X connect 197 0 198 0;
#X connect 198 0 84 0;
#X obj 3165 750 route /gate-compressor/COMPRESSOR/Compression-Response/Attack;
#X obj 3165 770 s \$0-gate-compressor/COMPRESSOR/Compression-Response/Attack;
#X connect 193 1 199 0;
#X connect 199 0 200 0;
#X msg 1165 790 500;
#X obj 1165 810 s \$0-gate-compressor/COMPRESSOR/Compression-Response/Release;
#X connect 83 0 201 0;
#X connect 201 0 202 0;
#X obj 2165 790 r \$0-gate-compressor/COMPRESSOR/Compression-Response/Release;
#X msg 2165 810 /gate-compressor/COMPRESSOR/Compression-Response/Release \$1;
#X connect 203 0 204 0;
#X connect 204 0 84 0;
#X obj 3165 790 route /gate-compressor/COMPRESSOR/Compression-Response/Release;
#X obj 3165 810 s \$0-gate-compressor/COMPRESSOR/Compression-Response/Release;
#X connect 199 1 205 0;
#X connect 205 0 206 0;
#X msg 1165 830 40;
#X obj 1165 850 s \$0-gate-compressor/COMPRESSOR/Makeup-Gain;
#X connect 83 0 207 0;
#X connect 207 0 208 0;
#X obj 2165 830 r \$0-gate-compressor/COMPRESSOR/Makeup-Gain;
#X msg 2165 850 /gate-compressor/COMPRESSOR/Makeup-Gain \$1;
#X connect 209 0 210 0;
#X connect 210 0 84 0;
#X obj 3165 830 route /gate-compressor/COMPRESSOR/Makeup-Gain;
#X obj 3165 850 s \$0-gate-compressor/COMPRESSOR/Makeup-Gain;
#X connect 205 1 211 0;
#X connect 211 0 212 0;
#X msg 1165 870 0;
#X obj 1165 890 s \$0-gate-compressor/CONSTANT-Q-SPECTRUM-ANALYZER-6E;
#X connect 83 0 213 0;
#X connect 213 0 214 0;
#X obj 2165 870 faust-timer \$0;
#X msg 2165 890 /gate-compressor/CONSTANT-Q-SPECTRUM-ANALYZER-6E;
#X connect 215 0 216 0;
#X connect 216 0 85 0;
#X obj 3165 870 route /gate-compressor/CONSTANT-Q-SPECTRUM-ANALYZER-6E;
#X obj 3165 890 s \$0-gate-compressor/CONSTANT-Q-SPECTRUM-ANALYZER-6E;
#X connect 211 1 217 0;
#X connect 217 0 218 0;
#X msg 1165 910 0;
#X obj 1165 930 s \$0-gate-compressor/CONSTANT-Q-SPECTRUM-ANALYZER-6E;
#X connect 83 0 219 0;
#X connect 219 0 220 0;
#X obj 2165 910 faust-timer \$0;
#X msg 2165 930 /gate-compressor/CONSTANT-Q-SPECTRUM-ANALYZER-6E;
#X connect 221 0 222 0;
#X connect 222 0 85 0;
#X obj 3165 910 route /gate-compressor/CONSTANT-Q-SPECTRUM-ANALYZER-6E;
#X obj 3165 930 s \$0-gate-compressor/CONSTANT-Q-SPECTRUM-ANALYZER-6E;
#X connect 217 1 223 0;
#X connect 223 0 224 0;
#X msg 1165 950 0;
#X obj 1165 970 s \$0-gate-compressor/CONSTANT-Q-SPECTRUM-ANALYZER-6E;
#X connect 83 0 225 0;
#X connect 225 0 226 0;
#X obj 2165 950 faust-timer \$0;
#X msg 2165 970 /gate-compressor/CONSTANT-Q-SPECTRUM-ANALYZER-6E;
#X connect 227 0 228 0;
#X connect 228 0 85 0;
#X obj 3165 950 route /gate-compressor/CONSTANT-Q-SPECTRUM-ANALYZER-6E;
#X obj 3165 970 s \$0-gate-compressor/CONSTANT-Q-SPECTRUM-ANALYZER-6E;
#X connect 223 1 229 0;
#X connect 229 0 230 0;
#X msg 1165 990 0;
#X obj 1165 1010 s \$0-gate-compressor/CONSTANT-Q-SPECTRUM-ANALYZER-6E;
#X connect 83 0 231 0;
#X connect 231 0 232 0;
#X obj 2165 990 faust-timer \$0;
#X msg 2165 1010 /gate-compressor/CONSTANT-Q-SPECTRUM-ANALYZER-6E;
#X connect 233 0 234 0;
#X connect 234 0 85 0;
#X obj 3165 990 route /gate-compressor/CONSTANT-Q-SPECTRUM-ANALYZER-6E;
#X obj 3165 1010 s \$0-gate-compressor/CONSTANT-Q-SPECTRUM-ANALYZER-6E;
#X connect 229 1 235 0;
#X connect 235 0 236 0;
#X msg 1165 1030 0;
#X obj 1165 1050 s \$0-gate-compressor/CONSTANT-Q-SPECTRUM-ANALYZER-6E;
#X connect 83 0 237 0;
#X connect 237 0 238 0;
#X obj 2165 1030 faust-timer \$0;
#X msg 2165 1050 /gate-compressor/CONSTANT-Q-SPECTRUM-ANALYZER-6E;
#X connect 239 0 240 0;
#X connect 240 0 85 0;
#X obj 3165 1030 route /gate-compressor/CONSTANT-Q-SPECTRUM-ANALYZER-6E;
#X obj 3165 1050 s \$0-gate-compressor/CONSTANT-Q-SPECTRUM-ANALYZER-6E;
#X connect 235 1 241 0;
#X connect 241 0 242 0;
#X msg 1165 1070 0;
#X obj 1165 1090 s \$0-gate-compressor/CONSTANT-Q-SPECTRUM-ANALYZER-6E;
#X connect 83 0 243 0;
#X connect 243 0 244 0;
#X obj 2165 1070 faust-timer \$0;
#X msg 2165 1090 /gate-compressor/CONSTANT-Q-SPECTRUM-ANALYZER-6E;
#X connect 245 0 246 0;
#X connect 246 0 85 0;
#X obj 3165 1070 route /gate-compressor/CONSTANT-Q-SPECTRUM-ANALYZER-6E;
#X obj 3165 1090 s \$0-gate-compressor/CONSTANT-Q-SPECTRUM-ANALYZER-6E;
#X connect 241 1 247 0;
#X connect 247 0 248 0;
#X msg 1165 1110 0;
#X obj 1165 1130 s \$0-gate-compressor/CONSTANT-Q-SPECTRUM-ANALYZER-6E;
#X connect 83 0 249 0;
#X connect 249 0 250 0;
#X obj 2165 1110 faust-timer \$0;
#X msg 2165 1130 /gate-compressor/CONSTANT-Q-SPECTRUM-ANALYZER-6E;
#X connect 251 0 252 0;
#X connect 252 0 85 0;
#X obj 3165 1110 route /gate-compressor/CONSTANT-Q-SPECTRUM-ANALYZER-6E;
#X obj 3165 1130 s \$0-gate-compressor/CONSTANT-Q-SPECTRUM-ANALYZER-6E;
#X connect 247 1 253 0;
#X connect 253 0 254 0;
#X msg 1165 1150 0;
#X obj 1165 1170 s \$0-gate-compressor/CONSTANT-Q-SPECTRUM-ANALYZER-6E;
#X connect 83 0 255 0;
#X connect 255 0 256 0;
#X obj 2165 1150 faust-timer \$0;
#X msg 2165 1170 /gate-compressor/CONSTANT-Q-SPECTRUM-ANALYZER-6E;
#X connect 257 0 258 0;
#X connect 258 0 85 0;
#X obj 3165 1150 route /gate-compressor/CONSTANT-Q-SPECTRUM-ANALYZER-6E;
#X obj 3165 1170 s \$0-gate-compressor/CONSTANT-Q-SPECTRUM-ANALYZER-6E;
#X connect 253 1 259 0;
#X connect 259 0 260 0;
#X msg 1165 1190 0;
#X obj 1165 1210 s \$0-gate-compressor/CONSTANT-Q-SPECTRUM-ANALYZER-6E;
#X connect 83 0 261 0;
#X connect 261 0 262 0;
#X obj 2165 1190 faust-timer \$0;
#X msg 2165 1210 /gate-compressor/CONSTANT-Q-SPECTRUM-ANALYZER-6E;
#X connect 263 0 264 0;
#X connect 264 0 85 0;
#X obj 3165 1190 route /gate-compressor/CONSTANT-Q-SPECTRUM-ANALYZER-6E;
#X obj 3165 1210 s \$0-gate-compressor/CONSTANT-Q-SPECTRUM-ANALYZER-6E;
#X connect 259 1 265 0;
#X connect 265 0 266 0;
#X msg 1165 1230 0;
#X obj 1165 1250 s \$0-gate-compressor/CONSTANT-Q-SPECTRUM-ANALYZER-6E;
#X connect 83 0 267 0;
#X connect 267 0 268 0;
#X obj 2165 1230 faust-timer \$0;
#X msg 2165 1250 /gate-compressor/CONSTANT-Q-SPECTRUM-ANALYZER-6E;
#X connect 269 0 270 0;
#X connect 270 0 85 0;
#X obj 3165 1230 route /gate-compressor/CONSTANT-Q-SPECTRUM-ANALYZER-6E;
#X obj 3165 1250 s \$0-gate-compressor/CONSTANT-Q-SPECTRUM-ANALYZER-6E;
#X connect 265 1 271 0;
#X connect 271 0 272 0;
#X msg 1165 1270 0;
#X obj 1165 1290 s \$0-gate-compressor/CONSTANT-Q-SPECTRUM-ANALYZER-6E;
#X connect 83 0 273 0;
#X connect 273 0 274 0;
#X obj 2165 1270 faust-timer \$0;
#X msg 2165 1290 /gate-compressor/CONSTANT-Q-SPECTRUM-ANALYZER-6E;
#X connect 275 0 276 0;
#X connect 276 0 85 0;
#X obj 3165 1270 route /gate-compressor/CONSTANT-Q-SPECTRUM-ANALYZER-6E;
#X obj 3165 1290 s \$0-gate-compressor/CONSTANT-Q-SPECTRUM-ANALYZER-6E;
#X connect 271 1 277 0;
#X connect 277 0 278 0;
#X msg 1165 1310 0;
#X obj 1165 1330 s \$0-gate-compressor/CONSTANT-Q-SPECTRUM-ANALYZER-6E;
#X connect 83 0 279 0;
#X connect 279 0 280 0;
#X obj 2165 1310 faust-timer \$0;
#X msg 2165 1330 /gate-compressor/CONSTANT-Q-SPECTRUM-ANALYZER-6E;
#X connect 281 0 282 0;
#X connect 282 0 85 0;
#X obj 3165 1310 route /gate-compressor/CONSTANT-Q-SPECTRUM-ANALYZER-6E;
#X obj 3165 1330 s \$0-gate-compressor/CONSTANT-Q-SPECTRUM-ANALYZER-6E;
#X connect 277 1 283 0;
#X connect 283 0 284 0;
#X msg 1165 1350 0;
#X obj 1165 1370 s \$0-gate-compressor/CONSTANT-Q-SPECTRUM-ANALYZER-6E;
#X connect 83 0 285 0;
#X connect 285 0 286 0;
#X obj 2165 1350 faust-timer \$0;
#X msg 2165 1370 /gate-compressor/CONSTANT-Q-SPECTRUM-ANALYZER-6E;
#X connect 287 0 288 0;
#X connect 288 0 85 0;
#X obj 3165 1350 route /gate-compressor/CONSTANT-Q-SPECTRUM-ANALYZER-6E;
#X obj 3165 1370 s \$0-gate-compressor/CONSTANT-Q-SPECTRUM-ANALYZER-6E;
#X connect 283 1 289 0;
#X connect 289 0 290 0;
#X msg 1165 1390 0;
#X obj 1165 1410 s \$0-gate-compressor/CONSTANT-Q-SPECTRUM-ANALYZER-6E;
#X connect 83 0 291 0;
#X connect 291 0 292 0;
#X obj 2165 1390 faust-timer \$0;
#X msg 2165 1410 /gate-compressor/CONSTANT-Q-SPECTRUM-ANALYZER-6E;
#X connect 293 0 294 0;
#X connect 294 0 85 0;
#X obj 3165 1390 route /gate-compressor/CONSTANT-Q-SPECTRUM-ANALYZER-6E;
#X obj 3165 1410 s \$0-gate-compressor/CONSTANT-Q-SPECTRUM-ANALYZER-6E;
#X connect 289 1 295 0;
#X connect 295 0 296 0;
#X msg 1165 1430 0;
#X obj 1165 1450 s \$0-gate-compressor/CONSTANT-Q-SPECTRUM-ANALYZER-6E;
#X connect 83 0 297 0;
#X connect 297 0 298 0;
#X obj 2165 1430 faust-timer \$0;
#X msg 2165 1450 /gate-compressor/CONSTANT-Q-SPECTRUM-ANALYZER-6E;
#X connect 299 0 300 0;
#X connect 300 0 85 0;
#X obj 3165 1430 route /gate-compressor/CONSTANT-Q-SPECTRUM-ANALYZER-6E;
#X obj 3165 1450 s \$0-gate-compressor/CONSTANT-Q-SPECTRUM-ANALYZER-6E;
#X connect 295 1 301 0;
#X connect 301 0 302 0;
#X msg 1165 1470 0.1;
#X obj 1165 1490 s \$0-gate-compressor/SPECTRUM-ANALYZER-CONTROLS/Level-Averaging-Time;
#X connect 83 0 303 0;
#X connect 303 0 304 0;
#X obj 2165 1470 r \$0-gate-compressor/SPECTRUM-ANALYZER-CONTROLS/Level-Averaging-Time;
#X msg 2165 1490 /gate-compressor/SPECTRUM-ANALYZER-CONTROLS/Level-Averaging-Time \$1;
#X connect 305 0 306 0;
#X connect 306 0 84 0;
#X obj 3165 1470 route /gate-compressor/SPECTRUM-ANALYZER-CONTROLS/Level-Averaging-Time;
#X obj 3165 1490 s \$0-gate-compressor/SPECTRUM-ANALYZER-CONTROLS/Level-Averaging-Time;
#X connect 301 1 307 0;
#X connect 307 0 308 0;
#X msg 1165 1510 50;
#X obj 1165 1530 s \$0-gate-compressor/SPECTRUM-ANALYZER-CONTROLS/Level-dB-Offset;
#X connect 83 0 309 0;
#X connect 309 0 310 0;
#X obj 2165 1510 r \$0-gate-compressor/SPECTRUM-ANALYZER-CONTROLS/Level-dB-Offset;
#X msg 2165 1530 /gate-compressor/SPECTRUM-ANALYZER-CONTROLS/Level-dB-Offset \$1;
#X connect 311 0 312 0;
#X connect 312 0 84 0;
#X obj 3165 1510 route /gate-compressor/SPECTRUM-ANALYZER-CONTROLS/Level-dB-Offset;
#X obj 3165 1530 s \$0-gate-compressor/SPECTRUM-ANALYZER-CONTROLS/Level-dB-Offset;
#X connect 307 1 313 0;
#X connect 313 0 314 0;
#X coords 0 -1 1 1 1135 560 1 0 0;
#X text 0 580 Generated Sun Aug  4 09:11:57 2013 by faust2pd v2.5. See http://faust.grame.fr and http://pure-lang.googlecode.com.;
