#N canvas 0 0 450 300 10;
#X obj 10 180 inlet;
#X obj 130 180 r \$0-read;
#X obj 130 210 faust-control \$0;
#X obj 130 240 s \$0-write;
#X obj 10 240 r \$0-in;
#X obj 10 270 harpe~;
#X obj 10 300 s \$0-out;
#X obj 70 330 outlet~;
#X obj 130 330 outlet~;
#X obj 10 330 outlet;
#X connect 0 0 2 0;
#X connect 1 0 2 0;
#X connect 2 0 3 0;
#X connect 5 0 6 0;
#X connect 0 0 9 0;
#X connect 4 0 5 0;
#X connect 5 1 7 0;
#X connect 5 2 8 0;
#X obj 10 30 hsl 128 15 0 0.01 0 0 \$0-harpe/attenuation \$0-harpe/attenuation attenuation -2 -6 0 10 -262144 -1 -1 0 1;
#X obj 160 30 nbx 5 14 0 0.01 0 0 \$0-harpe/attenuation \$0-harpe/attenuation empty 0 -6 0 10 -262144 -1 -1 256;
#X obj 10 60 hsl 128 15 0 1 0 0 \$0-harpe/hand \$0-harpe/hand hand -2 -6 0 10 -262144 -1 -1 0 1;
#X obj 160 60 nbx 5 14 0 1 0 0 \$0-harpe/hand \$0-harpe/hand empty 0 -6 0 10 -262144 -1 -1 256;
#X obj 10 90 hsl 128 15 0 1 0 0 \$0-harpe/level \$0-harpe/level level -2 -6 0 10 -262144 -1 -1 0 1;
#X obj 160 90 nbx 5 14 0 1 0 0 \$0-harpe/level \$0-harpe/level empty 0 -6 0 10 -262144 -1 -1 256;
#X obj 197 3 bng 15 250 50 1 \$0-init \$0-ignore empty 0 -6 0 10 -262144 -1 -1;
#X obj 217 3 tgl 15 1 \$0-active \$0-active empty 0 -6 0 10 -262144 -1 -1 1 1;
#X obj 450 10 r \$0-init;
#X obj 650 10 s \$0-in;
#X obj 750 10 s \$0-read;
#X obj 850 10 r \$0-write;
#X msg 450 30 1;
#X obj 450 50 s \$0-active;
#X connect 22 0 23 0;
#X obj 650 30 r \$0-active;
#X msg 650 50 active \$1;
#X connect 24 0 25 0;
#X connect 25 0 19 0;
#X obj 850 30 route active;
#X obj 850 50 s \$0-active;
#X connect 21 0 26 0;
#X connect 26 0 27 0;
#X msg 450 70 0.005;
#X obj 450 90 s \$0-harpe/attenuation;
#X connect 18 0 28 0;
#X connect 28 0 29 0;
#X obj 650 70 r \$0-harpe/attenuation;
#X msg 650 90 /harpe/attenuation \$1;
#X connect 30 0 31 0;
#X connect 31 0 19 0;
#X obj 850 70 route /harpe/attenuation;
#X obj 850 90 s \$0-harpe/attenuation;
#X connect 26 1 32 0;
#X connect 32 0 33 0;
#X msg 450 110 0;
#X obj 450 130 s \$0-harpe/hand;
#X connect 18 0 34 0;
#X connect 34 0 35 0;
#X obj 650 110 r \$0-harpe/hand;
#X msg 650 130 /harpe/hand \$1;
#X connect 36 0 37 0;
#X connect 37 0 19 0;
#X obj 850 110 route /harpe/hand;
#X obj 850 130 s \$0-harpe/hand;
#X connect 32 1 38 0;
#X connect 38 0 39 0;
#X msg 450 150 0.5;
#X obj 450 170 s \$0-harpe/level;
#X connect 18 0 40 0;
#X connect 40 0 41 0;
#X obj 650 150 r \$0-harpe/level;
#X msg 650 170 /harpe/level \$1;
#X connect 42 0 43 0;
#X connect 43 0 19 0;
#X obj 850 150 route /harpe/level;
#X obj 850 170 s \$0-harpe/level;
#X connect 38 1 44 0;
#X connect 44 0 45 0;
#X coords 0 -1 1 1 235 110 1 0 0;
#X text 0 130 Generated Sun Aug  4 09:11:56 2013 by faust2pd v2.5. See http://faust.grame.fr and http://pure-lang.googlecode.com.;
