#N canvas 0 0 450 300 10;
#X obj 70 180 inlet~;
#X obj 10 180 inlet;
#X obj 130 180 r \$0-read;
#X obj 130 210 faust-control \$0;
#X obj 130 240 s \$0-write;
#X obj 10 240 r \$0-in;
#X obj 10 270 lowShelf~;
#X obj 10 300 s \$0-out;
#X obj 70 330 outlet~;
#X obj 10 330 outlet;
#X connect 1 0 3 0;
#X connect 2 0 3 0;
#X connect 3 0 4 0;
#X connect 6 0 7 0;
#X connect 1 0 9 0;
#X connect 5 0 6 0;
#X connect 0 0 6 1;
#X connect 6 1 8 0;
#X obj 10 30 hsl 128 15 100 10000 0 0 \$0-lowShelf/Freq \$0-lowShelf/Freq Freq -2 -6 0 10 -262144 -1 -1 0 1;
#X obj 160 30 nbx 5 14 100 10000 0 0 \$0-lowShelf/Freq \$0-lowShelf/Freq empty 0 -6 0 10 -262144 -1 -1 256;
#X obj 10 60 hsl 128 15 -10 10 0 0 \$0-lowShelf/Gain \$0-lowShelf/Gain Gain -2 -6 0 10 -262144 -1 -1 0 1;
#X obj 160 60 nbx 5 14 -10 10 0 0 \$0-lowShelf/Gain \$0-lowShelf/Gain empty 0 -6 0 10 -262144 -1 -1 256;
#X obj 10 90 hsl 128 15 0.01 100 0 0 \$0-lowShelf/Q \$0-lowShelf/Q Q -2 -6 0 10 -262144 -1 -1 0 1;
#X obj 160 90 nbx 5 14 0.01 100 0 0 \$0-lowShelf/Q \$0-lowShelf/Q empty 0 -6 0 10 -262144 -1 -1 256;
#X obj 197 3 bng 15 250 50 1 \$0-init \$0-ignore empty 0 -6 0 10 -262144 -1 -1;
#X obj 217 3 tgl 15 1 \$0-active \$0-active empty 0 -6 0 10 -262144 -1 -1 1 1;
#X obj 450 10 r \$0-init;
#X obj 618 10 s \$0-in;
#X obj 702 10 s \$0-read;
#X obj 786 10 r \$0-write;
#X msg 450 30 1;
#X obj 450 50 s \$0-active;
#X connect 22 0 23 0;
#X obj 618 30 r \$0-active;
#X msg 618 50 active \$1;
#X connect 24 0 25 0;
#X connect 25 0 19 0;
#X obj 786 30 route active;
#X obj 786 50 s \$0-active;
#X connect 21 0 26 0;
#X connect 26 0 27 0;
#X msg 450 70 1000;
#X obj 450 90 s \$0-lowShelf/Freq;
#X connect 18 0 28 0;
#X connect 28 0 29 0;
#X obj 618 70 r \$0-lowShelf/Freq;
#X msg 618 90 /lowShelf/Freq \$1;
#X connect 30 0 31 0;
#X connect 31 0 19 0;
#X obj 786 70 route /lowShelf/Freq;
#X obj 786 90 s \$0-lowShelf/Freq;
#X connect 26 1 32 0;
#X connect 32 0 33 0;
#X msg 450 110 0;
#X obj 450 130 s \$0-lowShelf/Gain;
#X connect 18 0 34 0;
#X connect 34 0 35 0;
#X obj 618 110 r \$0-lowShelf/Gain;
#X msg 618 130 /lowShelf/Gain \$1;
#X connect 36 0 37 0;
#X connect 37 0 19 0;
#X obj 786 110 route /lowShelf/Gain;
#X obj 786 130 s \$0-lowShelf/Gain;
#X connect 32 1 38 0;
#X connect 38 0 39 0;
#X msg 450 150 1;
#X obj 450 170 s \$0-lowShelf/Q;
#X connect 18 0 40 0;
#X connect 40 0 41 0;
#X obj 618 150 r \$0-lowShelf/Q;
#X msg 618 170 /lowShelf/Q \$1;
#X connect 42 0 43 0;
#X connect 43 0 19 0;
#X obj 786 150 route /lowShelf/Q;
#X obj 786 170 s \$0-lowShelf/Q;
#X connect 38 1 44 0;
#X connect 44 0 45 0;
#X coords 0 -1 1 1 235 110 1 0 0;
#X text 0 130 Generated Sun Aug  4 09:11:58 2013 by faust2pd v2.5. See http://faust.grame.fr and http://pure-lang.googlecode.com.;
