#N canvas 0 0 450 300 10;
#X obj 70 330 inlet~;
#X obj 130 330 inlet~;
#X obj 190 330 inlet~;
#X obj 250 330 inlet~;
#X obj 310 330 inlet~;
#X obj 370 330 inlet~;
#X obj 430 330 inlet~;
#X obj 490 330 inlet~;
#X obj 10 330 inlet;
#X obj 550 330 r \$0-read;
#X obj 550 360 faust-control \$0;
#X obj 550 390 s \$0-write;
#X obj 10 390 r \$0-in;
#X obj 10 420 mixer~;
#X obj 10 450 s \$0-out;
#X obj 70 480 outlet~;
#X obj 130 480 outlet~;
#X obj 10 480 outlet;
#X connect 8 0 10 0;
#X connect 9 0 10 0;
#X connect 10 0 11 0;
#X connect 13 0 14 0;
#X connect 8 0 17 0;
#X connect 12 0 13 0;
#X connect 0 0 13 1;
#X connect 1 0 13 2;
#X connect 2 0 13 3;
#X connect 3 0 13 4;
#X connect 4 0 13 5;
#X connect 5 0 13 6;
#X connect 6 0 13 7;
#X connect 7 0 13 8;
#X connect 13 1 15 0;
#X connect 13 2 16 0;
#X obj 10 30 nbx 5 14 -90 90 0 0 \$0-mixer/Ch-0/pan \$0-mixer/Ch-0/pan pan 0 -6 0 10 -262144 -1 -1 256;
#X obj 10 60 vsl 15 128 -70 4 0 0 \$0-mixer/Ch-0 \$0-mixer/Ch-0 empty 0 -8 0 10 -262144 -1 -1 0 1;
#X obj 10 200 nbx 5 14 -70 4 0 0 \$0-mixer/Ch-0 \$0-mixer/Ch-0 empty 0 -6 0 10 -262144 -1 -1 256;
#X obj 85 60 vsl 15 128 -70 5 0 0 \$0-mixer/Ch-0 \$0-mixer/Ch-0 empty 0 -8 0 10 -233017 -1 -1 0 1;
#X obj 85 200 nbx 5 14 -70 5 0 0 \$0-mixer/Ch-0 \$0-mixer/Ch-0 empty 0 -6 0 10 -233017 -1 -1 256;
#X obj 10 240 tgl 15 0 \$0-mixer/Ch-0/mute \$0-mixer/Ch-0/mute mute 0 -6 0 10 -262144 -1 -1 0 1;
#X obj 160 30 nbx 5 14 -90 90 0 0 \$0-mixer/Ch-1/pan \$0-mixer/Ch-1/pan pan 0 -6 0 10 -262144 -1 -1 256;
#X obj 160 60 vsl 15 128 -70 4 0 0 \$0-mixer/Ch-1 \$0-mixer/Ch-1 empty 0 -8 0 10 -262144 -1 -1 0 1;
#X obj 160 200 nbx 5 14 -70 4 0 0 \$0-mixer/Ch-1 \$0-mixer/Ch-1 empty 0 -6 0 10 -262144 -1 -1 256;
#X obj 235 60 vsl 15 128 -70 5 0 0 \$0-mixer/Ch-1 \$0-mixer/Ch-1 empty 0 -8 0 10 -233017 -1 -1 0 1;
#X obj 235 200 nbx 5 14 -70 5 0 0 \$0-mixer/Ch-1 \$0-mixer/Ch-1 empty 0 -6 0 10 -233017 -1 -1 256;
#X obj 160 240 tgl 15 0 \$0-mixer/Ch-1/mute \$0-mixer/Ch-1/mute mute 0 -6 0 10 -262144 -1 -1 0 1;
#X obj 310 30 nbx 5 14 -90 90 0 0 \$0-mixer/Ch-2/pan \$0-mixer/Ch-2/pan pan 0 -6 0 10 -262144 -1 -1 256;
#X obj 310 60 vsl 15 128 -70 4 0 0 \$0-mixer/Ch-2 \$0-mixer/Ch-2 empty 0 -8 0 10 -262144 -1 -1 0 1;
#X obj 310 200 nbx 5 14 -70 4 0 0 \$0-mixer/Ch-2 \$0-mixer/Ch-2 empty 0 -6 0 10 -262144 -1 -1 256;
#X obj 385 60 vsl 15 128 -70 5 0 0 \$0-mixer/Ch-2 \$0-mixer/Ch-2 empty 0 -8 0 10 -233017 -1 -1 0 1;
#X obj 385 200 nbx 5 14 -70 5 0 0 \$0-mixer/Ch-2 \$0-mixer/Ch-2 empty 0 -6 0 10 -233017 -1 -1 256;
#X obj 310 240 tgl 15 0 \$0-mixer/Ch-2/mute \$0-mixer/Ch-2/mute mute 0 -6 0 10 -262144 -1 -1 0 1;
#X obj 460 30 nbx 5 14 -90 90 0 0 \$0-mixer/Ch-3/pan \$0-mixer/Ch-3/pan pan 0 -6 0 10 -262144 -1 -1 256;
#X obj 460 60 vsl 15 128 -70 4 0 0 \$0-mixer/Ch-3 \$0-mixer/Ch-3 empty 0 -8 0 10 -262144 -1 -1 0 1;
#X obj 460 200 nbx 5 14 -70 4 0 0 \$0-mixer/Ch-3 \$0-mixer/Ch-3 empty 0 -6 0 10 -262144 -1 -1 256;
#X obj 535 60 vsl 15 128 -70 5 0 0 \$0-mixer/Ch-3 \$0-mixer/Ch-3 empty 0 -8 0 10 -233017 -1 -1 0 1;
#X obj 535 200 nbx 5 14 -70 5 0 0 \$0-mixer/Ch-3 \$0-mixer/Ch-3 empty 0 -6 0 10 -233017 -1 -1 256;
#X obj 460 240 tgl 15 0 \$0-mixer/Ch-3/mute \$0-mixer/Ch-3/mute mute 0 -6 0 10 -262144 -1 -1 0 1;
#X obj 610 30 nbx 5 14 -90 90 0 0 \$0-mixer/Ch-4/pan \$0-mixer/Ch-4/pan pan 0 -6 0 10 -262144 -1 -1 256;
#X obj 610 60 vsl 15 128 -70 4 0 0 \$0-mixer/Ch-4 \$0-mixer/Ch-4 empty 0 -8 0 10 -262144 -1 -1 0 1;
#X obj 610 200 nbx 5 14 -70 4 0 0 \$0-mixer/Ch-4 \$0-mixer/Ch-4 empty 0 -6 0 10 -262144 -1 -1 256;
#X obj 685 60 vsl 15 128 -70 5 0 0 \$0-mixer/Ch-4 \$0-mixer/Ch-4 empty 0 -8 0 10 -233017 -1 -1 0 1;
#X obj 685 200 nbx 5 14 -70 5 0 0 \$0-mixer/Ch-4 \$0-mixer/Ch-4 empty 0 -6 0 10 -233017 -1 -1 256;
#X obj 610 240 tgl 15 0 \$0-mixer/Ch-4/mute \$0-mixer/Ch-4/mute mute 0 -6 0 10 -262144 -1 -1 0 1;
#X obj 760 30 nbx 5 14 -90 90 0 0 \$0-mixer/Ch-5/pan \$0-mixer/Ch-5/pan pan 0 -6 0 10 -262144 -1 -1 256;
#X obj 760 60 vsl 15 128 -70 4 0 0 \$0-mixer/Ch-5 \$0-mixer/Ch-5 empty 0 -8 0 10 -262144 -1 -1 0 1;
#X obj 760 200 nbx 5 14 -70 4 0 0 \$0-mixer/Ch-5 \$0-mixer/Ch-5 empty 0 -6 0 10 -262144 -1 -1 256;
#X obj 835 60 vsl 15 128 -70 5 0 0 \$0-mixer/Ch-5 \$0-mixer/Ch-5 empty 0 -8 0 10 -233017 -1 -1 0 1;
#X obj 835 200 nbx 5 14 -70 5 0 0 \$0-mixer/Ch-5 \$0-mixer/Ch-5 empty 0 -6 0 10 -233017 -1 -1 256;
#X obj 760 240 tgl 15 0 \$0-mixer/Ch-5/mute \$0-mixer/Ch-5/mute mute 0 -6 0 10 -262144 -1 -1 0 1;
#X obj 910 30 nbx 5 14 -90 90 0 0 \$0-mixer/Ch-6/pan \$0-mixer/Ch-6/pan pan 0 -6 0 10 -262144 -1 -1 256;
#X obj 910 60 vsl 15 128 -70 4 0 0 \$0-mixer/Ch-6 \$0-mixer/Ch-6 empty 0 -8 0 10 -262144 -1 -1 0 1;
#X obj 910 200 nbx 5 14 -70 4 0 0 \$0-mixer/Ch-6 \$0-mixer/Ch-6 empty 0 -6 0 10 -262144 -1 -1 256;
#X obj 985 60 vsl 15 128 -70 5 0 0 \$0-mixer/Ch-6 \$0-mixer/Ch-6 empty 0 -8 0 10 -233017 -1 -1 0 1;
#X obj 985 200 nbx 5 14 -70 5 0 0 \$0-mixer/Ch-6 \$0-mixer/Ch-6 empty 0 -6 0 10 -233017 -1 -1 256;
#X obj 910 240 tgl 15 0 \$0-mixer/Ch-6/mute \$0-mixer/Ch-6/mute mute 0 -6 0 10 -262144 -1 -1 0 1;
#X obj 1060 30 nbx 5 14 -90 90 0 0 \$0-mixer/Ch-7/pan \$0-mixer/Ch-7/pan pan 0 -6 0 10 -262144 -1 -1 256;
#X obj 1060 60 vsl 15 128 -70 4 0 0 \$0-mixer/Ch-7 \$0-mixer/Ch-7 empty 0 -8 0 10 -262144 -1 -1 0 1;
#X obj 1060 200 nbx 5 14 -70 4 0 0 \$0-mixer/Ch-7 \$0-mixer/Ch-7 empty 0 -6 0 10 -262144 -1 -1 256;
#X obj 1135 60 vsl 15 128 -70 5 0 0 \$0-mixer/Ch-7 \$0-mixer/Ch-7 empty 0 -8 0 10 -233017 -1 -1 0 1;
#X obj 1135 200 nbx 5 14 -70 5 0 0 \$0-mixer/Ch-7 \$0-mixer/Ch-7 empty 0 -6 0 10 -233017 -1 -1 256;
#X obj 1060 240 tgl 15 0 \$0-mixer/Ch-7/mute \$0-mixer/Ch-7/mute mute 0 -6 0 10 -262144 -1 -1 0 1;
#X obj 1210 30 vsl 15 128 -70 5 0 0 \$0-mixer/stereo-out/L \$0-mixer/stereo-out/L empty 0 -8 0 10 -233017 -1 -1 0 1;
#X obj 1210 170 nbx 5 14 -70 5 0 0 \$0-mixer/stereo-out/L \$0-mixer/stereo-out/L empty 0 -6 0 10 -233017 -1 -1 256;
#X obj 1285 30 vsl 15 128 -70 5 0 0 \$0-mixer/stereo-out/R \$0-mixer/stereo-out/R empty 0 -8 0 10 -233017 -1 -1 0 1;
#X obj 1285 170 nbx 5 14 -70 5 0 0 \$0-mixer/stereo-out/R \$0-mixer/stereo-out/R empty 0 -6 0 10 -233017 -1 -1 256;
#X obj 1360 30 vsl 15 128 -70 4 0 0 \$0-mixer/stereo-out \$0-mixer/stereo-out empty 0 -8 0 10 -262144 -1 -1 0 1;
#X obj 1360 170 nbx 5 14 -70 4 0 0 \$0-mixer/stereo-out \$0-mixer/stereo-out empty 0 -6 0 10 -262144 -1 -1 256;
#X obj 1397 3 bng 15 250 50 1 \$0-init \$0-ignore empty 0 -6 0 10 -262144 -1 -1;
#X obj 1417 3 tgl 15 1 \$0-active \$0-active empty 0 -6 0 10 -262144 -1 -1 1 1;
#X obj 1465 10 r \$0-init;
#X obj 1673 10 s \$0-in;
#X obj 1777 10 s \$0-read;
#X obj 1881 10 r \$0-write;
#X msg 1465 30 1;
#X obj 1465 50 s \$0-active;
#X connect 78 0 79 0;
#X obj 1673 30 r \$0-active;
#X msg 1673 50 active \$1;
#X connect 80 0 81 0;
#X connect 81 0 75 0;
#X obj 1881 30 route active;
#X obj 1881 50 s \$0-active;
#X connect 77 0 82 0;
#X connect 82 0 83 0;
#X msg 1465 70 0;
#X obj 1465 90 s \$0-mixer/Ch-0/pan;
#X connect 74 0 84 0;
#X connect 84 0 85 0;
#X obj 1673 70 r \$0-mixer/Ch-0/pan;
#X msg 1673 90 /mixer/Ch-0/pan \$1;
#X connect 86 0 87 0;
#X connect 87 0 75 0;
#X obj 1881 70 route /mixer/Ch-0/pan;
#X obj 1881 90 s \$0-mixer/Ch-0/pan;
#X connect 82 1 88 0;
#X connect 88 0 89 0;
#X msg 1465 110 0;
#X obj 1465 130 s \$0-mixer/Ch-0;
#X connect 74 0 90 0;
#X connect 90 0 91 0;
#X obj 1673 110 r \$0-mixer/Ch-0;
#X msg 1673 130 /mixer/Ch-0 \$1;
#X connect 92 0 93 0;
#X connect 93 0 75 0;
#X obj 1881 110 route /mixer/Ch-0;
#X obj 1881 130 s \$0-mixer/Ch-0;
#X connect 88 1 94 0;
#X connect 94 0 95 0;
#X msg 1465 150 0;
#X obj 1465 170 s \$0-mixer/Ch-0;
#X connect 74 0 96 0;
#X connect 96 0 97 0;
#X obj 1673 150 faust-timer \$0;
#X msg 1673 170 /mixer/Ch-0;
#X connect 98 0 99 0;
#X connect 99 0 76 0;
#X obj 1881 150 route /mixer/Ch-0;
#X obj 1881 170 s \$0-mixer/Ch-0;
#X connect 94 1 100 0;
#X connect 100 0 101 0;
#X msg 1465 190 0;
#X obj 1465 210 s \$0-mixer/Ch-0/mute;
#X connect 74 0 102 0;
#X connect 102 0 103 0;
#X obj 1673 190 r \$0-mixer/Ch-0/mute;
#X msg 1673 210 /mixer/Ch-0/mute \$1;
#X connect 104 0 105 0;
#X connect 105 0 75 0;
#X obj 1881 190 route /mixer/Ch-0/mute;
#X obj 1881 210 s \$0-mixer/Ch-0/mute;
#X connect 100 1 106 0;
#X connect 106 0 107 0;
#X msg 1465 230 0;
#X obj 1465 250 s \$0-mixer/Ch-1/pan;
#X connect 74 0 108 0;
#X connect 108 0 109 0;
#X obj 1673 230 r \$0-mixer/Ch-1/pan;
#X msg 1673 250 /mixer/Ch-1/pan \$1;
#X connect 110 0 111 0;
#X connect 111 0 75 0;
#X obj 1881 230 route /mixer/Ch-1/pan;
#X obj 1881 250 s \$0-mixer/Ch-1/pan;
#X connect 106 1 112 0;
#X connect 112 0 113 0;
#X msg 1465 270 0;
#X obj 1465 290 s \$0-mixer/Ch-1;
#X connect 74 0 114 0;
#X connect 114 0 115 0;
#X obj 1673 270 r \$0-mixer/Ch-1;
#X msg 1673 290 /mixer/Ch-1 \$1;
#X connect 116 0 117 0;
#X connect 117 0 75 0;
#X obj 1881 270 route /mixer/Ch-1;
#X obj 1881 290 s \$0-mixer/Ch-1;
#X connect 112 1 118 0;
#X connect 118 0 119 0;
#X msg 1465 310 0;
#X obj 1465 330 s \$0-mixer/Ch-1;
#X connect 74 0 120 0;
#X connect 120 0 121 0;
#X obj 1673 310 faust-timer \$0;
#X msg 1673 330 /mixer/Ch-1;
#X connect 122 0 123 0;
#X connect 123 0 76 0;
#X obj 1881 310 route /mixer/Ch-1;
#X obj 1881 330 s \$0-mixer/Ch-1;
#X connect 118 1 124 0;
#X connect 124 0 125 0;
#X msg 1465 350 0;
#X obj 1465 370 s \$0-mixer/Ch-1/mute;
#X connect 74 0 126 0;
#X connect 126 0 127 0;
#X obj 1673 350 r \$0-mixer/Ch-1/mute;
#X msg 1673 370 /mixer/Ch-1/mute \$1;
#X connect 128 0 129 0;
#X connect 129 0 75 0;
#X obj 1881 350 route /mixer/Ch-1/mute;
#X obj 1881 370 s \$0-mixer/Ch-1/mute;
#X connect 124 1 130 0;
#X connect 130 0 131 0;
#X msg 1465 390 0;
#X obj 1465 410 s \$0-mixer/Ch-2/pan;
#X connect 74 0 132 0;
#X connect 132 0 133 0;
#X obj 1673 390 r \$0-mixer/Ch-2/pan;
#X msg 1673 410 /mixer/Ch-2/pan \$1;
#X connect 134 0 135 0;
#X connect 135 0 75 0;
#X obj 1881 390 route /mixer/Ch-2/pan;
#X obj 1881 410 s \$0-mixer/Ch-2/pan;
#X connect 130 1 136 0;
#X connect 136 0 137 0;
#X msg 1465 430 0;
#X obj 1465 450 s \$0-mixer/Ch-2;
#X connect 74 0 138 0;
#X connect 138 0 139 0;
#X obj 1673 430 r \$0-mixer/Ch-2;
#X msg 1673 450 /mixer/Ch-2 \$1;
#X connect 140 0 141 0;
#X connect 141 0 75 0;
#X obj 1881 430 route /mixer/Ch-2;
#X obj 1881 450 s \$0-mixer/Ch-2;
#X connect 136 1 142 0;
#X connect 142 0 143 0;
#X msg 1465 470 0;
#X obj 1465 490 s \$0-mixer/Ch-2;
#X connect 74 0 144 0;
#X connect 144 0 145 0;
#X obj 1673 470 faust-timer \$0;
#X msg 1673 490 /mixer/Ch-2;
#X connect 146 0 147 0;
#X connect 147 0 76 0;
#X obj 1881 470 route /mixer/Ch-2;
#X obj 1881 490 s \$0-mixer/Ch-2;
#X connect 142 1 148 0;
#X connect 148 0 149 0;
#X msg 1465 510 0;
#X obj 1465 530 s \$0-mixer/Ch-2/mute;
#X connect 74 0 150 0;
#X connect 150 0 151 0;
#X obj 1673 510 r \$0-mixer/Ch-2/mute;
#X msg 1673 530 /mixer/Ch-2/mute \$1;
#X connect 152 0 153 0;
#X connect 153 0 75 0;
#X obj 1881 510 route /mixer/Ch-2/mute;
#X obj 1881 530 s \$0-mixer/Ch-2/mute;
#X connect 148 1 154 0;
#X connect 154 0 155 0;
#X msg 1465 550 0;
#X obj 1465 570 s \$0-mixer/Ch-3/pan;
#X connect 74 0 156 0;
#X connect 156 0 157 0;
#X obj 1673 550 r \$0-mixer/Ch-3/pan;
#X msg 1673 570 /mixer/Ch-3/pan \$1;
#X connect 158 0 159 0;
#X connect 159 0 75 0;
#X obj 1881 550 route /mixer/Ch-3/pan;
#X obj 1881 570 s \$0-mixer/Ch-3/pan;
#X connect 154 1 160 0;
#X connect 160 0 161 0;
#X msg 1465 590 0;
#X obj 1465 610 s \$0-mixer/Ch-3;
#X connect 74 0 162 0;
#X connect 162 0 163 0;
#X obj 1673 590 r \$0-mixer/Ch-3;
#X msg 1673 610 /mixer/Ch-3 \$1;
#X connect 164 0 165 0;
#X connect 165 0 75 0;
#X obj 1881 590 route /mixer/Ch-3;
#X obj 1881 610 s \$0-mixer/Ch-3;
#X connect 160 1 166 0;
#X connect 166 0 167 0;
#X msg 1465 630 0;
#X obj 1465 650 s \$0-mixer/Ch-3;
#X connect 74 0 168 0;
#X connect 168 0 169 0;
#X obj 1673 630 faust-timer \$0;
#X msg 1673 650 /mixer/Ch-3;
#X connect 170 0 171 0;
#X connect 171 0 76 0;
#X obj 1881 630 route /mixer/Ch-3;
#X obj 1881 650 s \$0-mixer/Ch-3;
#X connect 166 1 172 0;
#X connect 172 0 173 0;
#X msg 1465 670 0;
#X obj 1465 690 s \$0-mixer/Ch-3/mute;
#X connect 74 0 174 0;
#X connect 174 0 175 0;
#X obj 1673 670 r \$0-mixer/Ch-3/mute;
#X msg 1673 690 /mixer/Ch-3/mute \$1;
#X connect 176 0 177 0;
#X connect 177 0 75 0;
#X obj 1881 670 route /mixer/Ch-3/mute;
#X obj 1881 690 s \$0-mixer/Ch-3/mute;
#X connect 172 1 178 0;
#X connect 178 0 179 0;
#X msg 1465 710 0;
#X obj 1465 730 s \$0-mixer/Ch-4/pan;
#X connect 74 0 180 0;
#X connect 180 0 181 0;
#X obj 1673 710 r \$0-mixer/Ch-4/pan;
#X msg 1673 730 /mixer/Ch-4/pan \$1;
#X connect 182 0 183 0;
#X connect 183 0 75 0;
#X obj 1881 710 route /mixer/Ch-4/pan;
#X obj 1881 730 s \$0-mixer/Ch-4/pan;
#X connect 178 1 184 0;
#X connect 184 0 185 0;
#X msg 1465 750 0;
#X obj 1465 770 s \$0-mixer/Ch-4;
#X connect 74 0 186 0;
#X connect 186 0 187 0;
#X obj 1673 750 r \$0-mixer/Ch-4;
#X msg 1673 770 /mixer/Ch-4 \$1;
#X connect 188 0 189 0;
#X connect 189 0 75 0;
#X obj 1881 750 route /mixer/Ch-4;
#X obj 1881 770 s \$0-mixer/Ch-4;
#X connect 184 1 190 0;
#X connect 190 0 191 0;
#X msg 1465 790 0;
#X obj 1465 810 s \$0-mixer/Ch-4;
#X connect 74 0 192 0;
#X connect 192 0 193 0;
#X obj 1673 790 faust-timer \$0;
#X msg 1673 810 /mixer/Ch-4;
#X connect 194 0 195 0;
#X connect 195 0 76 0;
#X obj 1881 790 route /mixer/Ch-4;
#X obj 1881 810 s \$0-mixer/Ch-4;
#X connect 190 1 196 0;
#X connect 196 0 197 0;
#X msg 1465 830 0;
#X obj 1465 850 s \$0-mixer/Ch-4/mute;
#X connect 74 0 198 0;
#X connect 198 0 199 0;
#X obj 1673 830 r \$0-mixer/Ch-4/mute;
#X msg 1673 850 /mixer/Ch-4/mute \$1;
#X connect 200 0 201 0;
#X connect 201 0 75 0;
#X obj 1881 830 route /mixer/Ch-4/mute;
#X obj 1881 850 s \$0-mixer/Ch-4/mute;
#X connect 196 1 202 0;
#X connect 202 0 203 0;
#X msg 1465 870 0;
#X obj 1465 890 s \$0-mixer/Ch-5/pan;
#X connect 74 0 204 0;
#X connect 204 0 205 0;
#X obj 1673 870 r \$0-mixer/Ch-5/pan;
#X msg 1673 890 /mixer/Ch-5/pan \$1;
#X connect 206 0 207 0;
#X connect 207 0 75 0;
#X obj 1881 870 route /mixer/Ch-5/pan;
#X obj 1881 890 s \$0-mixer/Ch-5/pan;
#X connect 202 1 208 0;
#X connect 208 0 209 0;
#X msg 1465 910 0;
#X obj 1465 930 s \$0-mixer/Ch-5;
#X connect 74 0 210 0;
#X connect 210 0 211 0;
#X obj 1673 910 r \$0-mixer/Ch-5;
#X msg 1673 930 /mixer/Ch-5 \$1;
#X connect 212 0 213 0;
#X connect 213 0 75 0;
#X obj 1881 910 route /mixer/Ch-5;
#X obj 1881 930 s \$0-mixer/Ch-5;
#X connect 208 1 214 0;
#X connect 214 0 215 0;
#X msg 1465 950 0;
#X obj 1465 970 s \$0-mixer/Ch-5;
#X connect 74 0 216 0;
#X connect 216 0 217 0;
#X obj 1673 950 faust-timer \$0;
#X msg 1673 970 /mixer/Ch-5;
#X connect 218 0 219 0;
#X connect 219 0 76 0;
#X obj 1881 950 route /mixer/Ch-5;
#X obj 1881 970 s \$0-mixer/Ch-5;
#X connect 214 1 220 0;
#X connect 220 0 221 0;
#X msg 1465 990 0;
#X obj 1465 1010 s \$0-mixer/Ch-5/mute;
#X connect 74 0 222 0;
#X connect 222 0 223 0;
#X obj 1673 990 r \$0-mixer/Ch-5/mute;
#X msg 1673 1010 /mixer/Ch-5/mute \$1;
#X connect 224 0 225 0;
#X connect 225 0 75 0;
#X obj 1881 990 route /mixer/Ch-5/mute;
#X obj 1881 1010 s \$0-mixer/Ch-5/mute;
#X connect 220 1 226 0;
#X connect 226 0 227 0;
#X msg 1465 1030 0;
#X obj 1465 1050 s \$0-mixer/Ch-6/pan;
#X connect 74 0 228 0;
#X connect 228 0 229 0;
#X obj 1673 1030 r \$0-mixer/Ch-6/pan;
#X msg 1673 1050 /mixer/Ch-6/pan \$1;
#X connect 230 0 231 0;
#X connect 231 0 75 0;
#X obj 1881 1030 route /mixer/Ch-6/pan;
#X obj 1881 1050 s \$0-mixer/Ch-6/pan;
#X connect 226 1 232 0;
#X connect 232 0 233 0;
#X msg 1465 1070 0;
#X obj 1465 1090 s \$0-mixer/Ch-6;
#X connect 74 0 234 0;
#X connect 234 0 235 0;
#X obj 1673 1070 r \$0-mixer/Ch-6;
#X msg 1673 1090 /mixer/Ch-6 \$1;
#X connect 236 0 237 0;
#X connect 237 0 75 0;
#X obj 1881 1070 route /mixer/Ch-6;
#X obj 1881 1090 s \$0-mixer/Ch-6;
#X connect 232 1 238 0;
#X connect 238 0 239 0;
#X msg 1465 1110 0;
#X obj 1465 1130 s \$0-mixer/Ch-6;
#X connect 74 0 240 0;
#X connect 240 0 241 0;
#X obj 1673 1110 faust-timer \$0;
#X msg 1673 1130 /mixer/Ch-6;
#X connect 242 0 243 0;
#X connect 243 0 76 0;
#X obj 1881 1110 route /mixer/Ch-6;
#X obj 1881 1130 s \$0-mixer/Ch-6;
#X connect 238 1 244 0;
#X connect 244 0 245 0;
#X msg 1465 1150 0;
#X obj 1465 1170 s \$0-mixer/Ch-6/mute;
#X connect 74 0 246 0;
#X connect 246 0 247 0;
#X obj 1673 1150 r \$0-mixer/Ch-6/mute;
#X msg 1673 1170 /mixer/Ch-6/mute \$1;
#X connect 248 0 249 0;
#X connect 249 0 75 0;
#X obj 1881 1150 route /mixer/Ch-6/mute;
#X obj 1881 1170 s \$0-mixer/Ch-6/mute;
#X connect 244 1 250 0;
#X connect 250 0 251 0;
#X msg 1465 1190 0;
#X obj 1465 1210 s \$0-mixer/Ch-7/pan;
#X connect 74 0 252 0;
#X connect 252 0 253 0;
#X obj 1673 1190 r \$0-mixer/Ch-7/pan;
#X msg 1673 1210 /mixer/Ch-7/pan \$1;
#X connect 254 0 255 0;
#X connect 255 0 75 0;
#X obj 1881 1190 route /mixer/Ch-7/pan;
#X obj 1881 1210 s \$0-mixer/Ch-7/pan;
#X connect 250 1 256 0;
#X connect 256 0 257 0;
#X msg 1465 1230 0;
#X obj 1465 1250 s \$0-mixer/Ch-7;
#X connect 74 0 258 0;
#X connect 258 0 259 0;
#X obj 1673 1230 r \$0-mixer/Ch-7;
#X msg 1673 1250 /mixer/Ch-7 \$1;
#X connect 260 0 261 0;
#X connect 261 0 75 0;
#X obj 1881 1230 route /mixer/Ch-7;
#X obj 1881 1250 s \$0-mixer/Ch-7;
#X connect 256 1 262 0;
#X connect 262 0 263 0;
#X msg 1465 1270 0;
#X obj 1465 1290 s \$0-mixer/Ch-7;
#X connect 74 0 264 0;
#X connect 264 0 265 0;
#X obj 1673 1270 faust-timer \$0;
#X msg 1673 1290 /mixer/Ch-7;
#X connect 266 0 267 0;
#X connect 267 0 76 0;
#X obj 1881 1270 route /mixer/Ch-7;
#X obj 1881 1290 s \$0-mixer/Ch-7;
#X connect 262 1 268 0;
#X connect 268 0 269 0;
#X msg 1465 1310 0;
#X obj 1465 1330 s \$0-mixer/Ch-7/mute;
#X connect 74 0 270 0;
#X connect 270 0 271 0;
#X obj 1673 1310 r \$0-mixer/Ch-7/mute;
#X msg 1673 1330 /mixer/Ch-7/mute \$1;
#X connect 272 0 273 0;
#X connect 273 0 75 0;
#X obj 1881 1310 route /mixer/Ch-7/mute;
#X obj 1881 1330 s \$0-mixer/Ch-7/mute;
#X connect 268 1 274 0;
#X connect 274 0 275 0;
#X msg 1465 1350 0;
#X obj 1465 1370 s \$0-mixer/stereo-out/L;
#X connect 74 0 276 0;
#X connect 276 0 277 0;
#X obj 1673 1350 faust-timer \$0;
#X msg 1673 1370 /mixer/stereo-out/L;
#X connect 278 0 279 0;
#X connect 279 0 76 0;
#X obj 1881 1350 route /mixer/stereo-out/L;
#X obj 1881 1370 s \$0-mixer/stereo-out/L;
#X connect 274 1 280 0;
#X connect 280 0 281 0;
#X msg 1465 1390 0;
#X obj 1465 1410 s \$0-mixer/stereo-out/R;
#X connect 74 0 282 0;
#X connect 282 0 283 0;
#X obj 1673 1390 faust-timer \$0;
#X msg 1673 1410 /mixer/stereo-out/R;
#X connect 284 0 285 0;
#X connect 285 0 76 0;
#X obj 1881 1390 route /mixer/stereo-out/R;
#X obj 1881 1410 s \$0-mixer/stereo-out/R;
#X connect 280 1 286 0;
#X connect 286 0 287 0;
#X msg 1465 1430 0;
#X obj 1465 1450 s \$0-mixer/stereo-out;
#X connect 74 0 288 0;
#X connect 288 0 289 0;
#X obj 1673 1430 r \$0-mixer/stereo-out;
#X msg 1673 1450 /mixer/stereo-out \$1;
#X connect 290 0 291 0;
#X connect 291 0 75 0;
#X obj 1881 1430 route /mixer/stereo-out;
#X obj 1881 1450 s \$0-mixer/stereo-out;
#X connect 286 1 292 0;
#X connect 292 0 293 0;
#X coords 0 -1 1 1 1435 260 1 0 0;
#X text 0 280 Generated Sun Aug  4 09:11:56 2013 by faust2pd v2.5. See http://faust.grame.fr and http://pure-lang.googlecode.com.;
