#N canvas 0 0 450 300 10;
#X obj 70 570 inlet~;
#X obj 10 570 inlet;
#X obj 130 570 r \$0-read;
#X obj 130 600 faust-control \$0;
#X obj 130 630 s \$0-write;
#X obj 10 630 r \$0-in;
#X obj 10 660 parametric_eq~;
#X obj 10 690 s \$0-out;
#X obj 70 720 outlet~;
#X obj 130 720 outlet~;
#X obj 10 720 outlet;
#X connect 1 0 3 0;
#X connect 2 0 3 0;
#X connect 3 0 4 0;
#X connect 6 0 7 0;
#X connect 1 0 10 0;
#X connect 5 0 6 0;
#X connect 0 0 6 1;
#X connect 6 1 8 0;
#X connect 6 2 9 0;
#X obj 10 30 vsl 15 128 -120 10 0 0 \$0-parametric-eq/SAWTOOTH-OSCILLATOR/Amplitude \$0-parametric-eq/SAWTOOTH-OSCILLATOR/Amplitude Amplitude 0 -8 0 10 -262144 -1 -1 0 1;
#X obj 10 170 nbx 5 14 -120 10 0 0 \$0-parametric-eq/SAWTOOTH-OSCILLATOR/Amplitude \$0-parametric-eq/SAWTOOTH-OSCILLATOR/Amplitude empty 0 -6 0 10 -262144 -1 -1 256;
#X obj 85 30 vsl 15 128 1 88 0 0 \$0-parametric-eq/SAWTOOTH-OSCILLATOR/Frequency \$0-parametric-eq/SAWTOOTH-OSCILLATOR/Frequency Frequency 0 -8 0 10 -262144 -1 -1 0 1;
#X obj 85 170 nbx 5 14 1 88 0 0 \$0-parametric-eq/SAWTOOTH-OSCILLATOR/Frequency \$0-parametric-eq/SAWTOOTH-OSCILLATOR/Frequency empty 0 -6 0 10 -262144 -1 -1 256;
#X obj 160 30 vsl 15 128 -10 10 0 0 \$0-parametric-eq/SAWTOOTH-OSCILLATOR/Detuning-1 \$0-parametric-eq/SAWTOOTH-OSCILLATOR/Detuning-1 Detuning-1 0 -8 0 10 -262144 -1 -1 0 1;
#X obj 160 170 nbx 5 14 -10 10 0 0 \$0-parametric-eq/SAWTOOTH-OSCILLATOR/Detuning-1 \$0-parametric-eq/SAWTOOTH-OSCILLATOR/Detuning-1 empty 0 -6 0 10 -262144 -1 -1 256;
#X obj 235 30 vsl 15 128 -10 10 0 0 \$0-parametric-eq/SAWTOOTH-OSCILLATOR/Detuning-2 \$0-parametric-eq/SAWTOOTH-OSCILLATOR/Detuning-2 Detuning-2 0 -8 0 10 -262144 -1 -1 0 1;
#X obj 235 170 nbx 5 14 -10 10 0 0 \$0-parametric-eq/SAWTOOTH-OSCILLATOR/Detuning-2 \$0-parametric-eq/SAWTOOTH-OSCILLATOR/Detuning-2 empty 0 -6 0 10 -262144 -1 -1 256;
#X obj 310 30 vsl 15 128 0.01 1 0 0 \$0-parametric-eq/SAWTOOTH-OSCILLATOR/Portamento \$0-parametric-eq/SAWTOOTH-OSCILLATOR/Portamento Portamento 0 -8 0 10 -262144 -1 -1 0 1;
#X obj 310 170 nbx 5 14 0.01 1 0 0 \$0-parametric-eq/SAWTOOTH-OSCILLATOR/Portamento \$0-parametric-eq/SAWTOOTH-OSCILLATOR/Portamento empty 0 -6 0 10 -262144 -1 -1 256;
#X obj 385 30 tgl 15 0 \$0-parametric-eq/SAWTOOTH-OSCILLATOR/Alternate-Signals/Pink-Noise-Instead-uses-only-Amplitude-control-on-the-left \$0-parametric-eq/SAWTOOTH-OSCILLATOR/Alternate-Signals/Pink-Noise-Instead-uses-only-Amplitude-control-on-the-left Pink-Noise-Instead-uses-only-Amplitude-control-on-the-left 0 -6 0 10 -262144 -1 -1 0 1;
#X obj 385 60 tgl 15 0 \$0-parametric-eq/SAWTOOTH-OSCILLATOR/Alternate-Signals/External-Input-Instead-overrides-Sawtooth-Noise-selection-above \$0-parametric-eq/SAWTOOTH-OSCILLATOR/Alternate-Signals/External-Input-Instead-overrides-Sawtooth-Noise-selection-above External-Input-Instead-overrides-Sawtooth-Noise-selection-above 0 -6 0 10 -262144 -1 -1 0 1;
#X obj 10 210 hsl 128 15 -40 40 0 0 \$0-parametric-eq/PARAMETRIC-EQ-SECTIONS/Low-Shelf/Low-Boost-Cut \$0-parametric-eq/PARAMETRIC-EQ-SECTIONS/Low-Shelf/Low-Boost-Cut Low-Boost-Cut -2 -6 0 10 -262144 -1 -1 0 1;
#X obj 160 210 nbx 5 14 -40 40 0 0 \$0-parametric-eq/PARAMETRIC-EQ-SECTIONS/Low-Shelf/Low-Boost-Cut \$0-parametric-eq/PARAMETRIC-EQ-SECTIONS/Low-Shelf/Low-Boost-Cut empty 0 -6 0 10 -262144 -1 -1 256;
#X obj 10 240 hsl 128 15 1 5000 0 0 \$0-parametric-eq/PARAMETRIC-EQ-SECTIONS/Low-Shelf/Transition-Frequency \$0-parametric-eq/PARAMETRIC-EQ-SECTIONS/Low-Shelf/Transition-Frequency Transition-Frequency -2 -6 0 10 -262144 -1 -1 0 1;
#X obj 160 240 nbx 5 14 1 5000 0 0 \$0-parametric-eq/PARAMETRIC-EQ-SECTIONS/Low-Shelf/Transition-Frequency \$0-parametric-eq/PARAMETRIC-EQ-SECTIONS/Low-Shelf/Transition-Frequency empty 0 -6 0 10 -262144 -1 -1 256;
#X obj 235 210 hsl 128 15 -40 40 0 0 \$0-parametric-eq/PARAMETRIC-EQ-SECTIONS/Peaking-Equalizer/Peak-Boost-Cut \$0-parametric-eq/PARAMETRIC-EQ-SECTIONS/Peaking-Equalizer/Peak-Boost-Cut Peak-Boost-Cut -2 -6 0 10 -262144 -1 -1 0 1;
#X obj 385 210 nbx 5 14 -40 40 0 0 \$0-parametric-eq/PARAMETRIC-EQ-SECTIONS/Peaking-Equalizer/Peak-Boost-Cut \$0-parametric-eq/PARAMETRIC-EQ-SECTIONS/Peaking-Equalizer/Peak-Boost-Cut empty 0 -6 0 10 -262144 -1 -1 256;
#X obj 235 240 hsl 128 15 1 100 0 0 \$0-parametric-eq/PARAMETRIC-EQ-SECTIONS/Peaking-Equalizer/Peak-Frequency \$0-parametric-eq/PARAMETRIC-EQ-SECTIONS/Peaking-Equalizer/Peak-Frequency Peak-Frequency -2 -6 0 10 -262144 -1 -1 0 1;
#X obj 385 240 nbx 5 14 1 100 0 0 \$0-parametric-eq/PARAMETRIC-EQ-SECTIONS/Peaking-Equalizer/Peak-Frequency \$0-parametric-eq/PARAMETRIC-EQ-SECTIONS/Peaking-Equalizer/Peak-Frequency empty 0 -6 0 10 -262144 -1 -1 256;
#X obj 235 270 hsl 128 15 1 50 0 0 \$0-parametric-eq/PARAMETRIC-EQ-SECTIONS/Peaking-Equalizer/Peak-Q \$0-parametric-eq/PARAMETRIC-EQ-SECTIONS/Peaking-Equalizer/Peak-Q Peak-Q -2 -6 0 10 -262144 -1 -1 0 1;
#X obj 385 270 nbx 5 14 1 50 0 0 \$0-parametric-eq/PARAMETRIC-EQ-SECTIONS/Peaking-Equalizer/Peak-Q \$0-parametric-eq/PARAMETRIC-EQ-SECTIONS/Peaking-Equalizer/Peak-Q empty 0 -6 0 10 -262144 -1 -1 256;
#X obj 460 210 hsl 128 15 -40 40 0 0 \$0-parametric-eq/PARAMETRIC-EQ-SECTIONS/High-Shelf/High-Boost-Cut \$0-parametric-eq/PARAMETRIC-EQ-SECTIONS/High-Shelf/High-Boost-Cut High-Boost-Cut -2 -6 0 10 -262144 -1 -1 0 1;
#X obj 610 210 nbx 5 14 -40 40 0 0 \$0-parametric-eq/PARAMETRIC-EQ-SECTIONS/High-Shelf/High-Boost-Cut \$0-parametric-eq/PARAMETRIC-EQ-SECTIONS/High-Shelf/High-Boost-Cut empty 0 -6 0 10 -262144 -1 -1 256;
#X obj 460 240 hsl 128 15 20 10000 0 0 \$0-parametric-eq/PARAMETRIC-EQ-SECTIONS/High-Shelf/Transition-Frequency \$0-parametric-eq/PARAMETRIC-EQ-SECTIONS/High-Shelf/Transition-Frequency Transition-Frequency -2 -6 0 10 -262144 -1 -1 0 1;
#X obj 610 240 nbx 5 14 20 10000 0 0 \$0-parametric-eq/PARAMETRIC-EQ-SECTIONS/High-Shelf/Transition-Frequency \$0-parametric-eq/PARAMETRIC-EQ-SECTIONS/High-Shelf/Transition-Frequency empty 0 -6 0 10 -262144 -1 -1 256;
#X obj 10 300 vsl 15 128 -50 10 0 0 \$0-parametric-eq/CONSTANT-Q-SPECTRUM-ANALYZER-6E \$0-parametric-eq/CONSTANT-Q-SPECTRUM-ANALYZER-6E empty 0 -8 0 10 -233017 -1 -1 0 1;
#X obj 10 440 nbx 5 14 -50 10 0 0 \$0-parametric-eq/CONSTANT-Q-SPECTRUM-ANALYZER-6E \$0-parametric-eq/CONSTANT-Q-SPECTRUM-ANALYZER-6E empty 0 -6 0 10 -233017 -1 -1 256;
#X obj 85 300 vsl 15 128 -50 10 0 0 \$0-parametric-eq/CONSTANT-Q-SPECTRUM-ANALYZER-6E \$0-parametric-eq/CONSTANT-Q-SPECTRUM-ANALYZER-6E empty 0 -8 0 10 -233017 -1 -1 0 1;
#X obj 85 440 nbx 5 14 -50 10 0 0 \$0-parametric-eq/CONSTANT-Q-SPECTRUM-ANALYZER-6E \$0-parametric-eq/CONSTANT-Q-SPECTRUM-ANALYZER-6E empty 0 -6 0 10 -233017 -1 -1 256;
#X obj 160 300 vsl 15 128 -50 10 0 0 \$0-parametric-eq/CONSTANT-Q-SPECTRUM-ANALYZER-6E \$0-parametric-eq/CONSTANT-Q-SPECTRUM-ANALYZER-6E empty 0 -8 0 10 -233017 -1 -1 0 1;
#X obj 160 440 nbx 5 14 -50 10 0 0 \$0-parametric-eq/CONSTANT-Q-SPECTRUM-ANALYZER-6E \$0-parametric-eq/CONSTANT-Q-SPECTRUM-ANALYZER-6E empty 0 -6 0 10 -233017 -1 -1 256;
#X obj 235 300 vsl 15 128 -50 10 0 0 \$0-parametric-eq/CONSTANT-Q-SPECTRUM-ANALYZER-6E \$0-parametric-eq/CONSTANT-Q-SPECTRUM-ANALYZER-6E empty 0 -8 0 10 -233017 -1 -1 0 1;
#X obj 235 440 nbx 5 14 -50 10 0 0 \$0-parametric-eq/CONSTANT-Q-SPECTRUM-ANALYZER-6E \$0-parametric-eq/CONSTANT-Q-SPECTRUM-ANALYZER-6E empty 0 -6 0 10 -233017 -1 -1 256;
#X obj 310 300 vsl 15 128 -50 10 0 0 \$0-parametric-eq/CONSTANT-Q-SPECTRUM-ANALYZER-6E \$0-parametric-eq/CONSTANT-Q-SPECTRUM-ANALYZER-6E empty 0 -8 0 10 -233017 -1 -1 0 1;
#X obj 310 440 nbx 5 14 -50 10 0 0 \$0-parametric-eq/CONSTANT-Q-SPECTRUM-ANALYZER-6E \$0-parametric-eq/CONSTANT-Q-SPECTRUM-ANALYZER-6E empty 0 -6 0 10 -233017 -1 -1 256;
#X obj 385 300 vsl 15 128 -50 10 0 0 \$0-parametric-eq/CONSTANT-Q-SPECTRUM-ANALYZER-6E \$0-parametric-eq/CONSTANT-Q-SPECTRUM-ANALYZER-6E empty 0 -8 0 10 -233017 -1 -1 0 1;
#X obj 385 440 nbx 5 14 -50 10 0 0 \$0-parametric-eq/CONSTANT-Q-SPECTRUM-ANALYZER-6E \$0-parametric-eq/CONSTANT-Q-SPECTRUM-ANALYZER-6E empty 0 -6 0 10 -233017 -1 -1 256;
#X obj 460 300 vsl 15 128 -50 10 0 0 \$0-parametric-eq/CONSTANT-Q-SPECTRUM-ANALYZER-6E \$0-parametric-eq/CONSTANT-Q-SPECTRUM-ANALYZER-6E empty 0 -8 0 10 -233017 -1 -1 0 1;
#X obj 460 440 nbx 5 14 -50 10 0 0 \$0-parametric-eq/CONSTANT-Q-SPECTRUM-ANALYZER-6E \$0-parametric-eq/CONSTANT-Q-SPECTRUM-ANALYZER-6E empty 0 -6 0 10 -233017 -1 -1 256;
#X obj 535 300 vsl 15 128 -50 10 0 0 \$0-parametric-eq/CONSTANT-Q-SPECTRUM-ANALYZER-6E \$0-parametric-eq/CONSTANT-Q-SPECTRUM-ANALYZER-6E empty 0 -8 0 10 -233017 -1 -1 0 1;
#X obj 535 440 nbx 5 14 -50 10 0 0 \$0-parametric-eq/CONSTANT-Q-SPECTRUM-ANALYZER-6E \$0-parametric-eq/CONSTANT-Q-SPECTRUM-ANALYZER-6E empty 0 -6 0 10 -233017 -1 -1 256;
#X obj 610 300 vsl 15 128 -50 10 0 0 \$0-parametric-eq/CONSTANT-Q-SPECTRUM-ANALYZER-6E \$0-parametric-eq/CONSTANT-Q-SPECTRUM-ANALYZER-6E empty 0 -8 0 10 -233017 -1 -1 0 1;
#X obj 610 440 nbx 5 14 -50 10 0 0 \$0-parametric-eq/CONSTANT-Q-SPECTRUM-ANALYZER-6E \$0-parametric-eq/CONSTANT-Q-SPECTRUM-ANALYZER-6E empty 0 -6 0 10 -233017 -1 -1 256;
#X obj 685 300 vsl 15 128 -50 10 0 0 \$0-parametric-eq/CONSTANT-Q-SPECTRUM-ANALYZER-6E \$0-parametric-eq/CONSTANT-Q-SPECTRUM-ANALYZER-6E empty 0 -8 0 10 -233017 -1 -1 0 1;
#X obj 685 440 nbx 5 14 -50 10 0 0 \$0-parametric-eq/CONSTANT-Q-SPECTRUM-ANALYZER-6E \$0-parametric-eq/CONSTANT-Q-SPECTRUM-ANALYZER-6E empty 0 -6 0 10 -233017 -1 -1 256;
#X obj 760 300 vsl 15 128 -50 10 0 0 \$0-parametric-eq/CONSTANT-Q-SPECTRUM-ANALYZER-6E \$0-parametric-eq/CONSTANT-Q-SPECTRUM-ANALYZER-6E empty 0 -8 0 10 -233017 -1 -1 0 1;
#X obj 760 440 nbx 5 14 -50 10 0 0 \$0-parametric-eq/CONSTANT-Q-SPECTRUM-ANALYZER-6E \$0-parametric-eq/CONSTANT-Q-SPECTRUM-ANALYZER-6E empty 0 -6 0 10 -233017 -1 -1 256;
#X obj 835 300 vsl 15 128 -50 10 0 0 \$0-parametric-eq/CONSTANT-Q-SPECTRUM-ANALYZER-6E \$0-parametric-eq/CONSTANT-Q-SPECTRUM-ANALYZER-6E empty 0 -8 0 10 -233017 -1 -1 0 1;
#X obj 835 440 nbx 5 14 -50 10 0 0 \$0-parametric-eq/CONSTANT-Q-SPECTRUM-ANALYZER-6E \$0-parametric-eq/CONSTANT-Q-SPECTRUM-ANALYZER-6E empty 0 -6 0 10 -233017 -1 -1 256;
#X obj 910 300 vsl 15 128 -50 10 0 0 \$0-parametric-eq/CONSTANT-Q-SPECTRUM-ANALYZER-6E \$0-parametric-eq/CONSTANT-Q-SPECTRUM-ANALYZER-6E empty 0 -8 0 10 -233017 -1 -1 0 1;
#X obj 910 440 nbx 5 14 -50 10 0 0 \$0-parametric-eq/CONSTANT-Q-SPECTRUM-ANALYZER-6E \$0-parametric-eq/CONSTANT-Q-SPECTRUM-ANALYZER-6E empty 0 -6 0 10 -233017 -1 -1 256;
#X obj 985 300 vsl 15 128 -50 10 0 0 \$0-parametric-eq/CONSTANT-Q-SPECTRUM-ANALYZER-6E \$0-parametric-eq/CONSTANT-Q-SPECTRUM-ANALYZER-6E empty 0 -8 0 10 -233017 -1 -1 0 1;
#X obj 985 440 nbx 5 14 -50 10 0 0 \$0-parametric-eq/CONSTANT-Q-SPECTRUM-ANALYZER-6E \$0-parametric-eq/CONSTANT-Q-SPECTRUM-ANALYZER-6E empty 0 -6 0 10 -233017 -1 -1 256;
#X obj 1060 300 vsl 15 128 -50 10 0 0 \$0-parametric-eq/CONSTANT-Q-SPECTRUM-ANALYZER-6E \$0-parametric-eq/CONSTANT-Q-SPECTRUM-ANALYZER-6E empty 0 -8 0 10 -233017 -1 -1 0 1;
#X obj 1060 440 nbx 5 14 -50 10 0 0 \$0-parametric-eq/CONSTANT-Q-SPECTRUM-ANALYZER-6E \$0-parametric-eq/CONSTANT-Q-SPECTRUM-ANALYZER-6E empty 0 -6 0 10 -233017 -1 -1 256;
#X obj 1135 300 vsl 15 128 -50 10 0 0 \$0-parametric-eq/CONSTANT-Q-SPECTRUM-ANALYZER-6E \$0-parametric-eq/CONSTANT-Q-SPECTRUM-ANALYZER-6E empty 0 -8 0 10 -233017 -1 -1 0 1;
#X obj 1135 440 nbx 5 14 -50 10 0 0 \$0-parametric-eq/CONSTANT-Q-SPECTRUM-ANALYZER-6E \$0-parametric-eq/CONSTANT-Q-SPECTRUM-ANALYZER-6E empty 0 -6 0 10 -233017 -1 -1 256;
#X obj 1210 300 vsl 15 128 -50 10 0 0 \$0-parametric-eq/CONSTANT-Q-SPECTRUM-ANALYZER-6E \$0-parametric-eq/CONSTANT-Q-SPECTRUM-ANALYZER-6E empty 0 -8 0 10 -233017 -1 -1 0 1;
#X obj 1210 440 nbx 5 14 -50 10 0 0 \$0-parametric-eq/CONSTANT-Q-SPECTRUM-ANALYZER-6E \$0-parametric-eq/CONSTANT-Q-SPECTRUM-ANALYZER-6E empty 0 -6 0 10 -233017 -1 -1 256;
#X obj 1285 300 vsl 15 128 -50 10 0 0 \$0-parametric-eq/CONSTANT-Q-SPECTRUM-ANALYZER-6E \$0-parametric-eq/CONSTANT-Q-SPECTRUM-ANALYZER-6E empty 0 -8 0 10 -233017 -1 -1 0 1;
#X obj 1285 440 nbx 5 14 -50 10 0 0 \$0-parametric-eq/CONSTANT-Q-SPECTRUM-ANALYZER-6E \$0-parametric-eq/CONSTANT-Q-SPECTRUM-ANALYZER-6E empty 0 -6 0 10 -233017 -1 -1 256;
#X obj 1360 300 vsl 15 128 -50 10 0 0 \$0-parametric-eq/CONSTANT-Q-SPECTRUM-ANALYZER-6E \$0-parametric-eq/CONSTANT-Q-SPECTRUM-ANALYZER-6E empty 0 -8 0 10 -233017 -1 -1 0 1;
#X obj 1360 440 nbx 5 14 -50 10 0 0 \$0-parametric-eq/CONSTANT-Q-SPECTRUM-ANALYZER-6E \$0-parametric-eq/CONSTANT-Q-SPECTRUM-ANALYZER-6E empty 0 -6 0 10 -233017 -1 -1 256;
#X obj 1435 300 vsl 15 128 -50 10 0 0 \$0-parametric-eq/CONSTANT-Q-SPECTRUM-ANALYZER-6E \$0-parametric-eq/CONSTANT-Q-SPECTRUM-ANALYZER-6E empty 0 -8 0 10 -233017 -1 -1 0 1;
#X obj 1435 440 nbx 5 14 -50 10 0 0 \$0-parametric-eq/CONSTANT-Q-SPECTRUM-ANALYZER-6E \$0-parametric-eq/CONSTANT-Q-SPECTRUM-ANALYZER-6E empty 0 -6 0 10 -233017 -1 -1 256;
#X obj 10 480 hsl 128 15 0 1 0 0 \$0-parametric-eq/SPECTRUM-ANALYZER-CONTROLS/Level-Averaging-Time \$0-parametric-eq/SPECTRUM-ANALYZER-CONTROLS/Level-Averaging-Time Level-Averaging-Time -2 -6 0 10 -262144 -1 -1 0 1;
#X obj 160 480 nbx 5 14 0 1 0 0 \$0-parametric-eq/SPECTRUM-ANALYZER-CONTROLS/Level-Averaging-Time \$0-parametric-eq/SPECTRUM-ANALYZER-CONTROLS/Level-Averaging-Time empty 0 -6 0 10 -262144 -1 -1 256;
#X obj 235 480 hsl 128 15 0 100 0 0 \$0-parametric-eq/SPECTRUM-ANALYZER-CONTROLS/Level-dB-Offset \$0-parametric-eq/SPECTRUM-ANALYZER-CONTROLS/Level-dB-Offset Level-dB-Offset -2 -6 0 10 -262144 -1 -1 0 1;
#X obj 385 480 nbx 5 14 0 100 0 0 \$0-parametric-eq/SPECTRUM-ANALYZER-CONTROLS/Level-dB-Offset \$0-parametric-eq/SPECTRUM-ANALYZER-CONTROLS/Level-dB-Offset empty 0 -6 0 10 -262144 -1 -1 256;
#X obj 1472 3 bng 15 250 50 1 \$0-init \$0-ignore empty 0 -6 0 10 -262144 -1 -1;
#X obj 1492 3 tgl 15 1 \$0-active \$0-active empty 0 -6 0 10 -262144 -1 -1 1 1;
#X obj 1540 10 r \$0-init;
#X obj 2524 10 s \$0-in;
#X obj 3016 10 s \$0-read;
#X obj 3508 10 r \$0-write;
#X msg 1540 30 1;
#X obj 1540 50 s \$0-active;
#X connect 87 0 88 0;
#X obj 2524 30 r \$0-active;
#X msg 2524 50 active \$1;
#X connect 89 0 90 0;
#X connect 90 0 84 0;
#X obj 3508 30 route active;
#X obj 3508 50 s \$0-active;
#X connect 86 0 91 0;
#X connect 91 0 92 0;
#X msg 1540 70 -20;
#X obj 1540 90 s \$0-parametric-eq/SAWTOOTH-OSCILLATOR/Amplitude;
#X connect 83 0 93 0;
#X connect 93 0 94 0;
#X obj 2524 70 r \$0-parametric-eq/SAWTOOTH-OSCILLATOR/Amplitude;
#X msg 2524 90 /parametric-eq/SAWTOOTH-OSCILLATOR/Amplitude \$1;
#X connect 95 0 96 0;
#X connect 96 0 84 0;
#X obj 3508 70 route /parametric-eq/SAWTOOTH-OSCILLATOR/Amplitude;
#X obj 3508 90 s \$0-parametric-eq/SAWTOOTH-OSCILLATOR/Amplitude;
#X connect 91 1 97 0;
#X connect 97 0 98 0;
#X msg 1540 110 49;
#X obj 1540 130 s \$0-parametric-eq/SAWTOOTH-OSCILLATOR/Frequency;
#X connect 83 0 99 0;
#X connect 99 0 100 0;
#X obj 2524 110 r \$0-parametric-eq/SAWTOOTH-OSCILLATOR/Frequency;
#X msg 2524 130 /parametric-eq/SAWTOOTH-OSCILLATOR/Frequency \$1;
#X connect 101 0 102 0;
#X connect 102 0 84 0;
#X obj 3508 110 route /parametric-eq/SAWTOOTH-OSCILLATOR/Frequency;
#X obj 3508 130 s \$0-parametric-eq/SAWTOOTH-OSCILLATOR/Frequency;
#X connect 97 1 103 0;
#X connect 103 0 104 0;
#X msg 1540 150 -0.1;
#X obj 1540 170 s \$0-parametric-eq/SAWTOOTH-OSCILLATOR/Detuning-1;
#X connect 83 0 105 0;
#X connect 105 0 106 0;
#X obj 2524 150 r \$0-parametric-eq/SAWTOOTH-OSCILLATOR/Detuning-1;
#X msg 2524 170 /parametric-eq/SAWTOOTH-OSCILLATOR/Detuning-1 \$1;
#X connect 107 0 108 0;
#X connect 108 0 84 0;
#X obj 3508 150 route /parametric-eq/SAWTOOTH-OSCILLATOR/Detuning-1;
#X obj 3508 170 s \$0-parametric-eq/SAWTOOTH-OSCILLATOR/Detuning-1;
#X connect 103 1 109 0;
#X connect 109 0 110 0;
#X msg 1540 190 0.1;
#X obj 1540 210 s \$0-parametric-eq/SAWTOOTH-OSCILLATOR/Detuning-2;
#X connect 83 0 111 0;
#X connect 111 0 112 0;
#X obj 2524 190 r \$0-parametric-eq/SAWTOOTH-OSCILLATOR/Detuning-2;
#X msg 2524 210 /parametric-eq/SAWTOOTH-OSCILLATOR/Detuning-2 \$1;
#X connect 113 0 114 0;
#X connect 114 0 84 0;
#X obj 3508 190 route /parametric-eq/SAWTOOTH-OSCILLATOR/Detuning-2;
#X obj 3508 210 s \$0-parametric-eq/SAWTOOTH-OSCILLATOR/Detuning-2;
#X connect 109 1 115 0;
#X connect 115 0 116 0;
#X msg 1540 230 0.1;
#X obj 1540 250 s \$0-parametric-eq/SAWTOOTH-OSCILLATOR/Portamento;
#X connect 83 0 117 0;
#X connect 117 0 118 0;
#X obj 2524 230 r \$0-parametric-eq/SAWTOOTH-OSCILLATOR/Portamento;
#X msg 2524 250 /parametric-eq/SAWTOOTH-OSCILLATOR/Portamento \$1;
#X connect 119 0 120 0;
#X connect 120 0 84 0;
#X obj 3508 230 route /parametric-eq/SAWTOOTH-OSCILLATOR/Portamento;
#X obj 3508 250 s \$0-parametric-eq/SAWTOOTH-OSCILLATOR/Portamento;
#X connect 115 1 121 0;
#X connect 121 0 122 0;
#X msg 1540 270 0;
#X obj 1540 290 s \$0-parametric-eq/SAWTOOTH-OSCILLATOR/Alternate-Signals/Pink-Noise-Instead-uses-only-Amplitude-control-on-the-left;
#X connect 83 0 123 0;
#X connect 123 0 124 0;
#X obj 2524 270 r \$0-parametric-eq/SAWTOOTH-OSCILLATOR/Alternate-Signals/Pink-Noise-Instead-uses-only-Amplitude-control-on-the-left;
#X msg 2524 290 /parametric-eq/SAWTOOTH-OSCILLATOR/Alternate-Signals/Pink-Noise-Instead-uses-only-Amplitude-control-on-the-left \$1;
#X connect 125 0 126 0;
#X connect 126 0 84 0;
#X obj 3508 270 route /parametric-eq/SAWTOOTH-OSCILLATOR/Alternate-Signals/Pink-Noise-Instead-uses-only-Amplitude-control-on-the-left;
#X obj 3508 290 s \$0-parametric-eq/SAWTOOTH-OSCILLATOR/Alternate-Signals/Pink-Noise-Instead-uses-only-Amplitude-control-on-the-left;
#X connect 121 1 127 0;
#X connect 127 0 128 0;
#X msg 1540 310 0;
#X obj 1540 330 s \$0-parametric-eq/SAWTOOTH-OSCILLATOR/Alternate-Signals/External-Input-Instead-overrides-Sawtooth-Noise-selection-above;
#X connect 83 0 129 0;
#X connect 129 0 130 0;
#X obj 2524 310 r \$0-parametric-eq/SAWTOOTH-OSCILLATOR/Alternate-Signals/External-Input-Instead-overrides-Sawtooth-Noise-selection-above;
#X msg 2524 330 /parametric-eq/SAWTOOTH-OSCILLATOR/Alternate-Signals/External-Input-Instead-overrides-Sawtooth-Noise-selection-above \$1;
#X connect 131 0 132 0;
#X connect 132 0 84 0;
#X obj 3508 310 route /parametric-eq/SAWTOOTH-OSCILLATOR/Alternate-Signals/External-Input-Instead-overrides-Sawtooth-Noise-selection-above;
#X obj 3508 330 s \$0-parametric-eq/SAWTOOTH-OSCILLATOR/Alternate-Signals/External-Input-Instead-overrides-Sawtooth-Noise-selection-above;
#X connect 127 1 133 0;
#X connect 133 0 134 0;
#X msg 1540 350 0;
#X obj 1540 370 s \$0-parametric-eq/PARAMETRIC-EQ-SECTIONS/Low-Shelf/Low-Boost-Cut;
#X connect 83 0 135 0;
#X connect 135 0 136 0;
#X obj 2524 350 r \$0-parametric-eq/PARAMETRIC-EQ-SECTIONS/Low-Shelf/Low-Boost-Cut;
#X msg 2524 370 /parametric-eq/PARAMETRIC-EQ-SECTIONS/Low-Shelf/Low-Boost-Cut \$1;
#X connect 137 0 138 0;
#X connect 138 0 84 0;
#X obj 3508 350 route /parametric-eq/PARAMETRIC-EQ-SECTIONS/Low-Shelf/Low-Boost-Cut;
#X obj 3508 370 s \$0-parametric-eq/PARAMETRIC-EQ-SECTIONS/Low-Shelf/Low-Boost-Cut;
#X connect 133 1 139 0;
#X connect 139 0 140 0;
#X msg 1540 390 200;
#X obj 1540 410 s \$0-parametric-eq/PARAMETRIC-EQ-SECTIONS/Low-Shelf/Transition-Frequency;
#X connect 83 0 141 0;
#X connect 141 0 142 0;
#X obj 2524 390 r \$0-parametric-eq/PARAMETRIC-EQ-SECTIONS/Low-Shelf/Transition-Frequency;
#X msg 2524 410 /parametric-eq/PARAMETRIC-EQ-SECTIONS/Low-Shelf/Transition-Frequency \$1;
#X connect 143 0 144 0;
#X connect 144 0 84 0;
#X obj 3508 390 route /parametric-eq/PARAMETRIC-EQ-SECTIONS/Low-Shelf/Transition-Frequency;
#X obj 3508 410 s \$0-parametric-eq/PARAMETRIC-EQ-SECTIONS/Low-Shelf/Transition-Frequency;
#X connect 139 1 145 0;
#X connect 145 0 146 0;
#X msg 1540 430 0;
#X obj 1540 450 s \$0-parametric-eq/PARAMETRIC-EQ-SECTIONS/Peaking-Equalizer/Peak-Boost-Cut;
#X connect 83 0 147 0;
#X connect 147 0 148 0;
#X obj 2524 430 r \$0-parametric-eq/PARAMETRIC-EQ-SECTIONS/Peaking-Equalizer/Peak-Boost-Cut;
#X msg 2524 450 /parametric-eq/PARAMETRIC-EQ-SECTIONS/Peaking-Equalizer/Peak-Boost-Cut \$1;
#X connect 149 0 150 0;
#X connect 150 0 84 0;
#X obj 3508 430 route /parametric-eq/PARAMETRIC-EQ-SECTIONS/Peaking-Equalizer/Peak-Boost-Cut;
#X obj 3508 450 s \$0-parametric-eq/PARAMETRIC-EQ-SECTIONS/Peaking-Equalizer/Peak-Boost-Cut;
#X connect 145 1 151 0;
#X connect 151 0 152 0;
#X msg 1540 470 49;
#X obj 1540 490 s \$0-parametric-eq/PARAMETRIC-EQ-SECTIONS/Peaking-Equalizer/Peak-Frequency;
#X connect 83 0 153 0;
#X connect 153 0 154 0;
#X obj 2524 470 r \$0-parametric-eq/PARAMETRIC-EQ-SECTIONS/Peaking-Equalizer/Peak-Frequency;
#X msg 2524 490 /parametric-eq/PARAMETRIC-EQ-SECTIONS/Peaking-Equalizer/Peak-Frequency \$1;
#X connect 155 0 156 0;
#X connect 156 0 84 0;
#X obj 3508 470 route /parametric-eq/PARAMETRIC-EQ-SECTIONS/Peaking-Equalizer/Peak-Frequency;
#X obj 3508 490 s \$0-parametric-eq/PARAMETRIC-EQ-SECTIONS/Peaking-Equalizer/Peak-Frequency;
#X connect 151 1 157 0;
#X connect 157 0 158 0;
#X msg 1540 510 40;
#X obj 1540 530 s \$0-parametric-eq/PARAMETRIC-EQ-SECTIONS/Peaking-Equalizer/Peak-Q;
#X connect 83 0 159 0;
#X connect 159 0 160 0;
#X obj 2524 510 r \$0-parametric-eq/PARAMETRIC-EQ-SECTIONS/Peaking-Equalizer/Peak-Q;
#X msg 2524 530 /parametric-eq/PARAMETRIC-EQ-SECTIONS/Peaking-Equalizer/Peak-Q \$1;
#X connect 161 0 162 0;
#X connect 162 0 84 0;
#X obj 3508 510 route /parametric-eq/PARAMETRIC-EQ-SECTIONS/Peaking-Equalizer/Peak-Q;
#X obj 3508 530 s \$0-parametric-eq/PARAMETRIC-EQ-SECTIONS/Peaking-Equalizer/Peak-Q;
#X connect 157 1 163 0;
#X connect 163 0 164 0;
#X msg 1540 550 0;
#X obj 1540 570 s \$0-parametric-eq/PARAMETRIC-EQ-SECTIONS/High-Shelf/High-Boost-Cut;
#X connect 83 0 165 0;
#X connect 165 0 166 0;
#X obj 2524 550 r \$0-parametric-eq/PARAMETRIC-EQ-SECTIONS/High-Shelf/High-Boost-Cut;
#X msg 2524 570 /parametric-eq/PARAMETRIC-EQ-SECTIONS/High-Shelf/High-Boost-Cut \$1;
#X connect 167 0 168 0;
#X connect 168 0 84 0;
#X obj 3508 550 route /parametric-eq/PARAMETRIC-EQ-SECTIONS/High-Shelf/High-Boost-Cut;
#X obj 3508 570 s \$0-parametric-eq/PARAMETRIC-EQ-SECTIONS/High-Shelf/High-Boost-Cut;
#X connect 163 1 169 0;
#X connect 169 0 170 0;
#X msg 1540 590 8000;
#X obj 1540 610 s \$0-parametric-eq/PARAMETRIC-EQ-SECTIONS/High-Shelf/Transition-Frequency;
#X connect 83 0 171 0;
#X connect 171 0 172 0;
#X obj 2524 590 r \$0-parametric-eq/PARAMETRIC-EQ-SECTIONS/High-Shelf/Transition-Frequency;
#X msg 2524 610 /parametric-eq/PARAMETRIC-EQ-SECTIONS/High-Shelf/Transition-Frequency \$1;
#X connect 173 0 174 0;
#X connect 174 0 84 0;
#X obj 3508 590 route /parametric-eq/PARAMETRIC-EQ-SECTIONS/High-Shelf/Transition-Frequency;
#X obj 3508 610 s \$0-parametric-eq/PARAMETRIC-EQ-SECTIONS/High-Shelf/Transition-Frequency;
#X connect 169 1 175 0;
#X connect 175 0 176 0;
#X msg 1540 630 0;
#X obj 1540 650 s \$0-parametric-eq/CONSTANT-Q-SPECTRUM-ANALYZER-6E;
#X connect 83 0 177 0;
#X connect 177 0 178 0;
#X obj 2524 630 faust-timer \$0;
#X msg 2524 650 /parametric-eq/CONSTANT-Q-SPECTRUM-ANALYZER-6E;
#X connect 179 0 180 0;
#X connect 180 0 85 0;
#X obj 3508 630 route /parametric-eq/CONSTANT-Q-SPECTRUM-ANALYZER-6E;
#X obj 3508 650 s \$0-parametric-eq/CONSTANT-Q-SPECTRUM-ANALYZER-6E;
#X connect 175 1 181 0;
#X connect 181 0 182 0;
#X msg 1540 670 0;
#X obj 1540 690 s \$0-parametric-eq/CONSTANT-Q-SPECTRUM-ANALYZER-6E;
#X connect 83 0 183 0;
#X connect 183 0 184 0;
#X obj 2524 670 faust-timer \$0;
#X msg 2524 690 /parametric-eq/CONSTANT-Q-SPECTRUM-ANALYZER-6E;
#X connect 185 0 186 0;
#X connect 186 0 85 0;
#X obj 3508 670 route /parametric-eq/CONSTANT-Q-SPECTRUM-ANALYZER-6E;
#X obj 3508 690 s \$0-parametric-eq/CONSTANT-Q-SPECTRUM-ANALYZER-6E;
#X connect 181 1 187 0;
#X connect 187 0 188 0;
#X msg 1540 710 0;
#X obj 1540 730 s \$0-parametric-eq/CONSTANT-Q-SPECTRUM-ANALYZER-6E;
#X connect 83 0 189 0;
#X connect 189 0 190 0;
#X obj 2524 710 faust-timer \$0;
#X msg 2524 730 /parametric-eq/CONSTANT-Q-SPECTRUM-ANALYZER-6E;
#X connect 191 0 192 0;
#X connect 192 0 85 0;
#X obj 3508 710 route /parametric-eq/CONSTANT-Q-SPECTRUM-ANALYZER-6E;
#X obj 3508 730 s \$0-parametric-eq/CONSTANT-Q-SPECTRUM-ANALYZER-6E;
#X connect 187 1 193 0;
#X connect 193 0 194 0;
#X msg 1540 750 0;
#X obj 1540 770 s \$0-parametric-eq/CONSTANT-Q-SPECTRUM-ANALYZER-6E;
#X connect 83 0 195 0;
#X connect 195 0 196 0;
#X obj 2524 750 faust-timer \$0;
#X msg 2524 770 /parametric-eq/CONSTANT-Q-SPECTRUM-ANALYZER-6E;
#X connect 197 0 198 0;
#X connect 198 0 85 0;
#X obj 3508 750 route /parametric-eq/CONSTANT-Q-SPECTRUM-ANALYZER-6E;
#X obj 3508 770 s \$0-parametric-eq/CONSTANT-Q-SPECTRUM-ANALYZER-6E;
#X connect 193 1 199 0;
#X connect 199 0 200 0;
#X msg 1540 790 0;
#X obj 1540 810 s \$0-parametric-eq/CONSTANT-Q-SPECTRUM-ANALYZER-6E;
#X connect 83 0 201 0;
#X connect 201 0 202 0;
#X obj 2524 790 faust-timer \$0;
#X msg 2524 810 /parametric-eq/CONSTANT-Q-SPECTRUM-ANALYZER-6E;
#X connect 203 0 204 0;
#X connect 204 0 85 0;
#X obj 3508 790 route /parametric-eq/CONSTANT-Q-SPECTRUM-ANALYZER-6E;
#X obj 3508 810 s \$0-parametric-eq/CONSTANT-Q-SPECTRUM-ANALYZER-6E;
#X connect 199 1 205 0;
#X connect 205 0 206 0;
#X msg 1540 830 0;
#X obj 1540 850 s \$0-parametric-eq/CONSTANT-Q-SPECTRUM-ANALYZER-6E;
#X connect 83 0 207 0;
#X connect 207 0 208 0;
#X obj 2524 830 faust-timer \$0;
#X msg 2524 850 /parametric-eq/CONSTANT-Q-SPECTRUM-ANALYZER-6E;
#X connect 209 0 210 0;
#X connect 210 0 85 0;
#X obj 3508 830 route /parametric-eq/CONSTANT-Q-SPECTRUM-ANALYZER-6E;
#X obj 3508 850 s \$0-parametric-eq/CONSTANT-Q-SPECTRUM-ANALYZER-6E;
#X connect 205 1 211 0;
#X connect 211 0 212 0;
#X msg 1540 870 0;
#X obj 1540 890 s \$0-parametric-eq/CONSTANT-Q-SPECTRUM-ANALYZER-6E;
#X connect 83 0 213 0;
#X connect 213 0 214 0;
#X obj 2524 870 faust-timer \$0;
#X msg 2524 890 /parametric-eq/CONSTANT-Q-SPECTRUM-ANALYZER-6E;
#X connect 215 0 216 0;
#X connect 216 0 85 0;
#X obj 3508 870 route /parametric-eq/CONSTANT-Q-SPECTRUM-ANALYZER-6E;
#X obj 3508 890 s \$0-parametric-eq/CONSTANT-Q-SPECTRUM-ANALYZER-6E;
#X connect 211 1 217 0;
#X connect 217 0 218 0;
#X msg 1540 910 0;
#X obj 1540 930 s \$0-parametric-eq/CONSTANT-Q-SPECTRUM-ANALYZER-6E;
#X connect 83 0 219 0;
#X connect 219 0 220 0;
#X obj 2524 910 faust-timer \$0;
#X msg 2524 930 /parametric-eq/CONSTANT-Q-SPECTRUM-ANALYZER-6E;
#X connect 221 0 222 0;
#X connect 222 0 85 0;
#X obj 3508 910 route /parametric-eq/CONSTANT-Q-SPECTRUM-ANALYZER-6E;
#X obj 3508 930 s \$0-parametric-eq/CONSTANT-Q-SPECTRUM-ANALYZER-6E;
#X connect 217 1 223 0;
#X connect 223 0 224 0;
#X msg 1540 950 0;
#X obj 1540 970 s \$0-parametric-eq/CONSTANT-Q-SPECTRUM-ANALYZER-6E;
#X connect 83 0 225 0;
#X connect 225 0 226 0;
#X obj 2524 950 faust-timer \$0;
#X msg 2524 970 /parametric-eq/CONSTANT-Q-SPECTRUM-ANALYZER-6E;
#X connect 227 0 228 0;
#X connect 228 0 85 0;
#X obj 3508 950 route /parametric-eq/CONSTANT-Q-SPECTRUM-ANALYZER-6E;
#X obj 3508 970 s \$0-parametric-eq/CONSTANT-Q-SPECTRUM-ANALYZER-6E;
#X connect 223 1 229 0;
#X connect 229 0 230 0;
#X msg 1540 990 0;
#X obj 1540 1010 s \$0-parametric-eq/CONSTANT-Q-SPECTRUM-ANALYZER-6E;
#X connect 83 0 231 0;
#X connect 231 0 232 0;
#X obj 2524 990 faust-timer \$0;
#X msg 2524 1010 /parametric-eq/CONSTANT-Q-SPECTRUM-ANALYZER-6E;
#X connect 233 0 234 0;
#X connect 234 0 85 0;
#X obj 3508 990 route /parametric-eq/CONSTANT-Q-SPECTRUM-ANALYZER-6E;
#X obj 3508 1010 s \$0-parametric-eq/CONSTANT-Q-SPECTRUM-ANALYZER-6E;
#X connect 229 1 235 0;
#X connect 235 0 236 0;
#X msg 1540 1030 0;
#X obj 1540 1050 s \$0-parametric-eq/CONSTANT-Q-SPECTRUM-ANALYZER-6E;
#X connect 83 0 237 0;
#X connect 237 0 238 0;
#X obj 2524 1030 faust-timer \$0;
#X msg 2524 1050 /parametric-eq/CONSTANT-Q-SPECTRUM-ANALYZER-6E;
#X connect 239 0 240 0;
#X connect 240 0 85 0;
#X obj 3508 1030 route /parametric-eq/CONSTANT-Q-SPECTRUM-ANALYZER-6E;
#X obj 3508 1050 s \$0-parametric-eq/CONSTANT-Q-SPECTRUM-ANALYZER-6E;
#X connect 235 1 241 0;
#X connect 241 0 242 0;
#X msg 1540 1070 0;
#X obj 1540 1090 s \$0-parametric-eq/CONSTANT-Q-SPECTRUM-ANALYZER-6E;
#X connect 83 0 243 0;
#X connect 243 0 244 0;
#X obj 2524 1070 faust-timer \$0;
#X msg 2524 1090 /parametric-eq/CONSTANT-Q-SPECTRUM-ANALYZER-6E;
#X connect 245 0 246 0;
#X connect 246 0 85 0;
#X obj 3508 1070 route /parametric-eq/CONSTANT-Q-SPECTRUM-ANALYZER-6E;
#X obj 3508 1090 s \$0-parametric-eq/CONSTANT-Q-SPECTRUM-ANALYZER-6E;
#X connect 241 1 247 0;
#X connect 247 0 248 0;
#X msg 1540 1110 0;
#X obj 1540 1130 s \$0-parametric-eq/CONSTANT-Q-SPECTRUM-ANALYZER-6E;
#X connect 83 0 249 0;
#X connect 249 0 250 0;
#X obj 2524 1110 faust-timer \$0;
#X msg 2524 1130 /parametric-eq/CONSTANT-Q-SPECTRUM-ANALYZER-6E;
#X connect 251 0 252 0;
#X connect 252 0 85 0;
#X obj 3508 1110 route /parametric-eq/CONSTANT-Q-SPECTRUM-ANALYZER-6E;
#X obj 3508 1130 s \$0-parametric-eq/CONSTANT-Q-SPECTRUM-ANALYZER-6E;
#X connect 247 1 253 0;
#X connect 253 0 254 0;
#X msg 1540 1150 0;
#X obj 1540 1170 s \$0-parametric-eq/CONSTANT-Q-SPECTRUM-ANALYZER-6E;
#X connect 83 0 255 0;
#X connect 255 0 256 0;
#X obj 2524 1150 faust-timer \$0;
#X msg 2524 1170 /parametric-eq/CONSTANT-Q-SPECTRUM-ANALYZER-6E;
#X connect 257 0 258 0;
#X connect 258 0 85 0;
#X obj 3508 1150 route /parametric-eq/CONSTANT-Q-SPECTRUM-ANALYZER-6E;
#X obj 3508 1170 s \$0-parametric-eq/CONSTANT-Q-SPECTRUM-ANALYZER-6E;
#X connect 253 1 259 0;
#X connect 259 0 260 0;
#X msg 1540 1190 0;
#X obj 1540 1210 s \$0-parametric-eq/CONSTANT-Q-SPECTRUM-ANALYZER-6E;
#X connect 83 0 261 0;
#X connect 261 0 262 0;
#X obj 2524 1190 faust-timer \$0;
#X msg 2524 1210 /parametric-eq/CONSTANT-Q-SPECTRUM-ANALYZER-6E;
#X connect 263 0 264 0;
#X connect 264 0 85 0;
#X obj 3508 1190 route /parametric-eq/CONSTANT-Q-SPECTRUM-ANALYZER-6E;
#X obj 3508 1210 s \$0-parametric-eq/CONSTANT-Q-SPECTRUM-ANALYZER-6E;
#X connect 259 1 265 0;
#X connect 265 0 266 0;
#X msg 1540 1230 0;
#X obj 1540 1250 s \$0-parametric-eq/CONSTANT-Q-SPECTRUM-ANALYZER-6E;
#X connect 83 0 267 0;
#X connect 267 0 268 0;
#X obj 2524 1230 faust-timer \$0;
#X msg 2524 1250 /parametric-eq/CONSTANT-Q-SPECTRUM-ANALYZER-6E;
#X connect 269 0 270 0;
#X connect 270 0 85 0;
#X obj 3508 1230 route /parametric-eq/CONSTANT-Q-SPECTRUM-ANALYZER-6E;
#X obj 3508 1250 s \$0-parametric-eq/CONSTANT-Q-SPECTRUM-ANALYZER-6E;
#X connect 265 1 271 0;
#X connect 271 0 272 0;
#X msg 1540 1270 0;
#X obj 1540 1290 s \$0-parametric-eq/CONSTANT-Q-SPECTRUM-ANALYZER-6E;
#X connect 83 0 273 0;
#X connect 273 0 274 0;
#X obj 2524 1270 faust-timer \$0;
#X msg 2524 1290 /parametric-eq/CONSTANT-Q-SPECTRUM-ANALYZER-6E;
#X connect 275 0 276 0;
#X connect 276 0 85 0;
#X obj 3508 1270 route /parametric-eq/CONSTANT-Q-SPECTRUM-ANALYZER-6E;
#X obj 3508 1290 s \$0-parametric-eq/CONSTANT-Q-SPECTRUM-ANALYZER-6E;
#X connect 271 1 277 0;
#X connect 277 0 278 0;
#X msg 1540 1310 0;
#X obj 1540 1330 s \$0-parametric-eq/CONSTANT-Q-SPECTRUM-ANALYZER-6E;
#X connect 83 0 279 0;
#X connect 279 0 280 0;
#X obj 2524 1310 faust-timer \$0;
#X msg 2524 1330 /parametric-eq/CONSTANT-Q-SPECTRUM-ANALYZER-6E;
#X connect 281 0 282 0;
#X connect 282 0 85 0;
#X obj 3508 1310 route /parametric-eq/CONSTANT-Q-SPECTRUM-ANALYZER-6E;
#X obj 3508 1330 s \$0-parametric-eq/CONSTANT-Q-SPECTRUM-ANALYZER-6E;
#X connect 277 1 283 0;
#X connect 283 0 284 0;
#X msg 1540 1350 0;
#X obj 1540 1370 s \$0-parametric-eq/CONSTANT-Q-SPECTRUM-ANALYZER-6E;
#X connect 83 0 285 0;
#X connect 285 0 286 0;
#X obj 2524 1350 faust-timer \$0;
#X msg 2524 1370 /parametric-eq/CONSTANT-Q-SPECTRUM-ANALYZER-6E;
#X connect 287 0 288 0;
#X connect 288 0 85 0;
#X obj 3508 1350 route /parametric-eq/CONSTANT-Q-SPECTRUM-ANALYZER-6E;
#X obj 3508 1370 s \$0-parametric-eq/CONSTANT-Q-SPECTRUM-ANALYZER-6E;
#X connect 283 1 289 0;
#X connect 289 0 290 0;
#X msg 1540 1390 0;
#X obj 1540 1410 s \$0-parametric-eq/CONSTANT-Q-SPECTRUM-ANALYZER-6E;
#X connect 83 0 291 0;
#X connect 291 0 292 0;
#X obj 2524 1390 faust-timer \$0;
#X msg 2524 1410 /parametric-eq/CONSTANT-Q-SPECTRUM-ANALYZER-6E;
#X connect 293 0 294 0;
#X connect 294 0 85 0;
#X obj 3508 1390 route /parametric-eq/CONSTANT-Q-SPECTRUM-ANALYZER-6E;
#X obj 3508 1410 s \$0-parametric-eq/CONSTANT-Q-SPECTRUM-ANALYZER-6E;
#X connect 289 1 295 0;
#X connect 295 0 296 0;
#X msg 1540 1430 0.1;
#X obj 1540 1450 s \$0-parametric-eq/SPECTRUM-ANALYZER-CONTROLS/Level-Averaging-Time;
#X connect 83 0 297 0;
#X connect 297 0 298 0;
#X obj 2524 1430 r \$0-parametric-eq/SPECTRUM-ANALYZER-CONTROLS/Level-Averaging-Time;
#X msg 2524 1450 /parametric-eq/SPECTRUM-ANALYZER-CONTROLS/Level-Averaging-Time \$1;
#X connect 299 0 300 0;
#X connect 300 0 84 0;
#X obj 3508 1430 route /parametric-eq/SPECTRUM-ANALYZER-CONTROLS/Level-Averaging-Time;
#X obj 3508 1450 s \$0-parametric-eq/SPECTRUM-ANALYZER-CONTROLS/Level-Averaging-Time;
#X connect 295 1 301 0;
#X connect 301 0 302 0;
#X msg 1540 1470 50;
#X obj 1540 1490 s \$0-parametric-eq/SPECTRUM-ANALYZER-CONTROLS/Level-dB-Offset;
#X connect 83 0 303 0;
#X connect 303 0 304 0;
#X obj 2524 1470 r \$0-parametric-eq/SPECTRUM-ANALYZER-CONTROLS/Level-dB-Offset;
#X msg 2524 1490 /parametric-eq/SPECTRUM-ANALYZER-CONTROLS/Level-dB-Offset \$1;
#X connect 305 0 306 0;
#X connect 306 0 84 0;
#X obj 3508 1470 route /parametric-eq/SPECTRUM-ANALYZER-CONTROLS/Level-dB-Offset;
#X obj 3508 1490 s \$0-parametric-eq/SPECTRUM-ANALYZER-CONTROLS/Level-dB-Offset;
#X connect 301 1 307 0;
#X connect 307 0 308 0;
#X coords 0 -1 1 1 1510 500 1 0 0;
#X text 0 520 Generated Sun Aug  4 09:11:49 2013 by faust2pd v2.5. See http://faust.grame.fr and http://pure-lang.googlecode.com.;
