#N canvas 0 0 450 300 10;
#X obj 70 720 inlet~;
#X obj 10 720 inlet;
#X obj 130 720 r \$0-read;
#X obj 130 750 faust-control \$0;
#X obj 130 780 s \$0-write;
#X obj 10 780 r \$0-in;
#X obj 10 810 phaser_flanger~;
#X obj 10 840 s \$0-out;
#X obj 70 870 outlet~;
#X obj 130 870 outlet~;
#X obj 10 870 outlet;
#X connect 1 0 3 0;
#X connect 2 0 3 0;
#X connect 3 0 4 0;
#X connect 6 0 7 0;
#X connect 1 0 10 0;
#X connect 5 0 6 0;
#X connect 0 0 6 1;
#X connect 6 1 8 0;
#X connect 6 2 9 0;
#X obj 10 30 vsl 15 128 -120 10 0 0 \$0-phaser-flanger/SAWTOOTH-OSCILLATOR/Amplitude \$0-phaser-flanger/SAWTOOTH-OSCILLATOR/Amplitude Amplitude 0 -8 0 10 -262144 -1 -1 0 1;
#X obj 10 170 nbx 5 14 -120 10 0 0 \$0-phaser-flanger/SAWTOOTH-OSCILLATOR/Amplitude \$0-phaser-flanger/SAWTOOTH-OSCILLATOR/Amplitude empty 0 -6 0 10 -262144 -1 -1 256;
#X obj 85 30 vsl 15 128 1 88 0 0 \$0-phaser-flanger/SAWTOOTH-OSCILLATOR/Frequency \$0-phaser-flanger/SAWTOOTH-OSCILLATOR/Frequency Frequency 0 -8 0 10 -262144 -1 -1 0 1;
#X obj 85 170 nbx 5 14 1 88 0 0 \$0-phaser-flanger/SAWTOOTH-OSCILLATOR/Frequency \$0-phaser-flanger/SAWTOOTH-OSCILLATOR/Frequency empty 0 -6 0 10 -262144 -1 -1 256;
#X obj 160 30 vsl 15 128 -10 10 0 0 \$0-phaser-flanger/SAWTOOTH-OSCILLATOR/Detuning-1 \$0-phaser-flanger/SAWTOOTH-OSCILLATOR/Detuning-1 Detuning-1 0 -8 0 10 -262144 -1 -1 0 1;
#X obj 160 170 nbx 5 14 -10 10 0 0 \$0-phaser-flanger/SAWTOOTH-OSCILLATOR/Detuning-1 \$0-phaser-flanger/SAWTOOTH-OSCILLATOR/Detuning-1 empty 0 -6 0 10 -262144 -1 -1 256;
#X obj 235 30 vsl 15 128 -10 10 0 0 \$0-phaser-flanger/SAWTOOTH-OSCILLATOR/Detuning-2 \$0-phaser-flanger/SAWTOOTH-OSCILLATOR/Detuning-2 Detuning-2 0 -8 0 10 -262144 -1 -1 0 1;
#X obj 235 170 nbx 5 14 -10 10 0 0 \$0-phaser-flanger/SAWTOOTH-OSCILLATOR/Detuning-2 \$0-phaser-flanger/SAWTOOTH-OSCILLATOR/Detuning-2 empty 0 -6 0 10 -262144 -1 -1 256;
#X obj 310 30 vsl 15 128 0.01 1 0 0 \$0-phaser-flanger/SAWTOOTH-OSCILLATOR/Portamento \$0-phaser-flanger/SAWTOOTH-OSCILLATOR/Portamento Portamento 0 -8 0 10 -262144 -1 -1 0 1;
#X obj 310 170 nbx 5 14 0.01 1 0 0 \$0-phaser-flanger/SAWTOOTH-OSCILLATOR/Portamento \$0-phaser-flanger/SAWTOOTH-OSCILLATOR/Portamento empty 0 -6 0 10 -262144 -1 -1 256;
#X obj 385 30 tgl 15 0 \$0-phaser-flanger/SAWTOOTH-OSCILLATOR/Alternate-Signals/Pink-Noise-Instead-uses-only-Amplitude-control-on-the-left \$0-phaser-flanger/SAWTOOTH-OSCILLATOR/Alternate-Signals/Pink-Noise-Instead-uses-only-Amplitude-control-on-the-left Pink-Noise-Instead-uses-only-Amplitude-control-on-the-left 0 -6 0 10 -262144 -1 -1 0 1;
#X obj 385 60 tgl 15 0 \$0-phaser-flanger/SAWTOOTH-OSCILLATOR/Alternate-Signals/External-Input-Instead-overrides-Sawtooth-Noise-selection-above \$0-phaser-flanger/SAWTOOTH-OSCILLATOR/Alternate-Signals/External-Input-Instead-overrides-Sawtooth-Noise-selection-above External-Input-Instead-overrides-Sawtooth-Noise-selection-above 0 -6 0 10 -262144 -1 -1 0 1;
#X obj 10 210 tgl 15 0 \$0-phaser-flanger/FLANGER/Bypass \$0-phaser-flanger/FLANGER/Bypass Bypass 0 -6 0 10 -262144 -1 -1 0 1;
#X obj 60 210 tgl 15 0 \$0-phaser-flanger/FLANGER/Invert-Flange-Sum \$0-phaser-flanger/FLANGER/Invert-Flange-Sum Invert-Flange-Sum 0 -6 0 10 -262144 -1 -1 0 1;
#X obj 110 210 hsl 128 15 -1.5 1.5 0 0 \$0-phaser-flanger/FLANGER/Flange-LFO \$0-phaser-flanger/FLANGER/Flange-LFO Flange-LFO -2 -6 0 10 -233017 -1 -1 0 1;
#X obj 260 210 nbx 5 14 -1.5 1.5 0 0 \$0-phaser-flanger/FLANGER/Flange-LFO \$0-phaser-flanger/FLANGER/Flange-LFO empty 0 -6 0 10 -233017 -1 -1 256;
#X obj 10 240 hsl 128 15 0 10 0 0 \$0-phaser-flanger/FLANGER/Speed \$0-phaser-flanger/FLANGER/Speed Speed -2 -6 0 10 -262144 -1 -1 0 1;
#X obj 160 240 nbx 5 14 0 10 0 0 \$0-phaser-flanger/FLANGER/Speed \$0-phaser-flanger/FLANGER/Speed empty 0 -6 0 10 -262144 -1 -1 256;
#X obj 235 240 hsl 128 15 0 1 0 0 \$0-phaser-flanger/FLANGER/Depth \$0-phaser-flanger/FLANGER/Depth Depth -2 -6 0 10 -262144 -1 -1 0 1;
#X obj 385 240 nbx 5 14 0 1 0 0 \$0-phaser-flanger/FLANGER/Depth \$0-phaser-flanger/FLANGER/Depth empty 0 -6 0 10 -262144 -1 -1 256;
#X obj 460 240 hsl 128 15 -0.999 0.999 0 0 \$0-phaser-flanger/FLANGER/Feedback \$0-phaser-flanger/FLANGER/Feedback Feedback -2 -6 0 10 -262144 -1 -1 0 1;
#X obj 610 240 nbx 5 14 -0.999 0.999 0 0 \$0-phaser-flanger/FLANGER/Feedback \$0-phaser-flanger/FLANGER/Feedback empty 0 -6 0 10 -262144 -1 -1 256;
#X obj 10 270 hsl 128 15 0 20 0 0 \$0-phaser-flanger/FLANGER/Delay-Controls/Flange-Delay \$0-phaser-flanger/FLANGER/Delay-Controls/Flange-Delay Flange-Delay -2 -6 0 10 -262144 -1 -1 0 1;
#X obj 160 270 nbx 5 14 0 20 0 0 \$0-phaser-flanger/FLANGER/Delay-Controls/Flange-Delay \$0-phaser-flanger/FLANGER/Delay-Controls/Flange-Delay empty 0 -6 0 10 -262144 -1 -1 256;
#X obj 235 270 hsl 128 15 0 20 0 0 \$0-phaser-flanger/FLANGER/Delay-Controls/Delay-Offset \$0-phaser-flanger/FLANGER/Delay-Controls/Delay-Offset Delay-Offset -2 -6 0 10 -262144 -1 -1 0 1;
#X obj 385 270 nbx 5 14 0 20 0 0 \$0-phaser-flanger/FLANGER/Delay-Controls/Delay-Offset \$0-phaser-flanger/FLANGER/Delay-Controls/Delay-Offset empty 0 -6 0 10 -262144 -1 -1 256;
#X obj 10 300 hsl 128 15 -60 10 0 0 \$0-phaser-flanger/FLANGER/Flanger-Output-Level \$0-phaser-flanger/FLANGER/Flanger-Output-Level Flanger-Output-Level -2 -6 0 10 -262144 -1 -1 0 1;
#X obj 160 300 nbx 5 14 -60 10 0 0 \$0-phaser-flanger/FLANGER/Flanger-Output-Level \$0-phaser-flanger/FLANGER/Flanger-Output-Level empty 0 -6 0 10 -262144 -1 -1 256;
#X obj 10 330 tgl 15 0 \$0-phaser-flanger/PHASER2/Bypass \$0-phaser-flanger/PHASER2/Bypass Bypass 0 -6 0 10 -262144 -1 -1 0 1;
#X obj 60 330 tgl 15 0 \$0-phaser-flanger/PHASER2/Invert-Internal-Phaser-Sum \$0-phaser-flanger/PHASER2/Invert-Internal-Phaser-Sum Invert-Internal-Phaser-Sum 0 -6 0 10 -262144 -1 -1 0 1;
#X obj 110 330 tgl 15 0 \$0-phaser-flanger/PHASER2/Vibrato-Mode \$0-phaser-flanger/PHASER2/Vibrato-Mode Vibrato-Mode 0 -6 0 10 -262144 -1 -1 0 1;
#X obj 10 360 hsl 128 15 0 10 0 0 \$0-phaser-flanger/PHASER2/Speed \$0-phaser-flanger/PHASER2/Speed Speed -2 -6 0 10 -262144 -1 -1 0 1;
#X obj 160 360 nbx 5 14 0 10 0 0 \$0-phaser-flanger/PHASER2/Speed \$0-phaser-flanger/PHASER2/Speed empty 0 -6 0 10 -262144 -1 -1 256;
#X obj 235 360 hsl 128 15 0 1 0 0 \$0-phaser-flanger/PHASER2/Notch-Depth-Intensity \$0-phaser-flanger/PHASER2/Notch-Depth-Intensity Notch-Depth-Intensity -2 -6 0 10 -262144 -1 -1 0 1;
#X obj 385 360 nbx 5 14 0 1 0 0 \$0-phaser-flanger/PHASER2/Notch-Depth-Intensity \$0-phaser-flanger/PHASER2/Notch-Depth-Intensity empty 0 -6 0 10 -262144 -1 -1 256;
#X obj 460 360 hsl 128 15 -0.999 0.999 0 0 \$0-phaser-flanger/PHASER2/Feedback-Gain \$0-phaser-flanger/PHASER2/Feedback-Gain Feedback-Gain -2 -6 0 10 -262144 -1 -1 0 1;
#X obj 610 360 nbx 5 14 -0.999 0.999 0 0 \$0-phaser-flanger/PHASER2/Feedback-Gain \$0-phaser-flanger/PHASER2/Feedback-Gain empty 0 -6 0 10 -262144 -1 -1 256;
#X obj 10 390 hsl 128 15 10 5000 0 0 \$0-phaser-flanger/PHASER2/Notch-width \$0-phaser-flanger/PHASER2/Notch-width Notch-width -2 -6 0 10 -262144 -1 -1 0 1;
#X obj 160 390 nbx 5 14 10 5000 0 0 \$0-phaser-flanger/PHASER2/Notch-width \$0-phaser-flanger/PHASER2/Notch-width empty 0 -6 0 10 -262144 -1 -1 256;
#X obj 235 390 hsl 128 15 20 5000 0 0 \$0-phaser-flanger/PHASER2/Min-Notch1-Freq \$0-phaser-flanger/PHASER2/Min-Notch1-Freq Min-Notch1-Freq -2 -6 0 10 -262144 -1 -1 0 1;
#X obj 385 390 nbx 5 14 20 5000 0 0 \$0-phaser-flanger/PHASER2/Min-Notch1-Freq \$0-phaser-flanger/PHASER2/Min-Notch1-Freq empty 0 -6 0 10 -262144 -1 -1 256;
#X obj 460 390 hsl 128 15 20 10000 0 0 \$0-phaser-flanger/PHASER2/Max-Notch1-Freq \$0-phaser-flanger/PHASER2/Max-Notch1-Freq Max-Notch1-Freq -2 -6 0 10 -262144 -1 -1 0 1;
#X obj 610 390 nbx 5 14 20 10000 0 0 \$0-phaser-flanger/PHASER2/Max-Notch1-Freq \$0-phaser-flanger/PHASER2/Max-Notch1-Freq empty 0 -6 0 10 -262144 -1 -1 256;
#X obj 685 390 hsl 128 15 1.1 4 0 0 \$0-phaser-flanger/PHASER2/Notch-Freq-Ratio-NotchFreq-n-1-NotchFreq-n \$0-phaser-flanger/PHASER2/Notch-Freq-Ratio-NotchFreq-n-1-NotchFreq-n Notch-Freq-Ratio-NotchFreq-n-1-NotchFreq-n -2 -6 0 10 -262144 -1 -1 0 1;
#X obj 835 390 nbx 5 14 1.1 4 0 0 \$0-phaser-flanger/PHASER2/Notch-Freq-Ratio-NotchFreq-n-1-NotchFreq-n \$0-phaser-flanger/PHASER2/Notch-Freq-Ratio-NotchFreq-n-1-NotchFreq-n empty 0 -6 0 10 -262144 -1 -1 256;
#X obj 10 420 hsl 128 15 -60 10 0 0 \$0-phaser-flanger/PHASER2/Phaser-Output-Level \$0-phaser-flanger/PHASER2/Phaser-Output-Level Phaser-Output-Level -2 -6 0 10 -262144 -1 -1 0 1;
#X obj 160 420 nbx 5 14 -60 10 0 0 \$0-phaser-flanger/PHASER2/Phaser-Output-Level \$0-phaser-flanger/PHASER2/Phaser-Output-Level empty 0 -6 0 10 -262144 -1 -1 256;
#X obj 10 450 vsl 15 128 -50 10 0 0 \$0-phaser-flanger/CONSTANT-Q-SPECTRUM-ANALYZER-6E \$0-phaser-flanger/CONSTANT-Q-SPECTRUM-ANALYZER-6E empty 0 -8 0 10 -233017 -1 -1 0 1;
#X obj 10 590 nbx 5 14 -50 10 0 0 \$0-phaser-flanger/CONSTANT-Q-SPECTRUM-ANALYZER-6E \$0-phaser-flanger/CONSTANT-Q-SPECTRUM-ANALYZER-6E empty 0 -6 0 10 -233017 -1 -1 256;
#X obj 85 450 vsl 15 128 -50 10 0 0 \$0-phaser-flanger/CONSTANT-Q-SPECTRUM-ANALYZER-6E \$0-phaser-flanger/CONSTANT-Q-SPECTRUM-ANALYZER-6E empty 0 -8 0 10 -233017 -1 -1 0 1;
#X obj 85 590 nbx 5 14 -50 10 0 0 \$0-phaser-flanger/CONSTANT-Q-SPECTRUM-ANALYZER-6E \$0-phaser-flanger/CONSTANT-Q-SPECTRUM-ANALYZER-6E empty 0 -6 0 10 -233017 -1 -1 256;
#X obj 160 450 vsl 15 128 -50 10 0 0 \$0-phaser-flanger/CONSTANT-Q-SPECTRUM-ANALYZER-6E \$0-phaser-flanger/CONSTANT-Q-SPECTRUM-ANALYZER-6E empty 0 -8 0 10 -233017 -1 -1 0 1;
#X obj 160 590 nbx 5 14 -50 10 0 0 \$0-phaser-flanger/CONSTANT-Q-SPECTRUM-ANALYZER-6E \$0-phaser-flanger/CONSTANT-Q-SPECTRUM-ANALYZER-6E empty 0 -6 0 10 -233017 -1 -1 256;
#X obj 235 450 vsl 15 128 -50 10 0 0 \$0-phaser-flanger/CONSTANT-Q-SPECTRUM-ANALYZER-6E \$0-phaser-flanger/CONSTANT-Q-SPECTRUM-ANALYZER-6E empty 0 -8 0 10 -233017 -1 -1 0 1;
#X obj 235 590 nbx 5 14 -50 10 0 0 \$0-phaser-flanger/CONSTANT-Q-SPECTRUM-ANALYZER-6E \$0-phaser-flanger/CONSTANT-Q-SPECTRUM-ANALYZER-6E empty 0 -6 0 10 -233017 -1 -1 256;
#X obj 310 450 vsl 15 128 -50 10 0 0 \$0-phaser-flanger/CONSTANT-Q-SPECTRUM-ANALYZER-6E \$0-phaser-flanger/CONSTANT-Q-SPECTRUM-ANALYZER-6E empty 0 -8 0 10 -233017 -1 -1 0 1;
#X obj 310 590 nbx 5 14 -50 10 0 0 \$0-phaser-flanger/CONSTANT-Q-SPECTRUM-ANALYZER-6E \$0-phaser-flanger/CONSTANT-Q-SPECTRUM-ANALYZER-6E empty 0 -6 0 10 -233017 -1 -1 256;
#X obj 385 450 vsl 15 128 -50 10 0 0 \$0-phaser-flanger/CONSTANT-Q-SPECTRUM-ANALYZER-6E \$0-phaser-flanger/CONSTANT-Q-SPECTRUM-ANALYZER-6E empty 0 -8 0 10 -233017 -1 -1 0 1;
#X obj 385 590 nbx 5 14 -50 10 0 0 \$0-phaser-flanger/CONSTANT-Q-SPECTRUM-ANALYZER-6E \$0-phaser-flanger/CONSTANT-Q-SPECTRUM-ANALYZER-6E empty 0 -6 0 10 -233017 -1 -1 256;
#X obj 460 450 vsl 15 128 -50 10 0 0 \$0-phaser-flanger/CONSTANT-Q-SPECTRUM-ANALYZER-6E \$0-phaser-flanger/CONSTANT-Q-SPECTRUM-ANALYZER-6E empty 0 -8 0 10 -233017 -1 -1 0 1;
#X obj 460 590 nbx 5 14 -50 10 0 0 \$0-phaser-flanger/CONSTANT-Q-SPECTRUM-ANALYZER-6E \$0-phaser-flanger/CONSTANT-Q-SPECTRUM-ANALYZER-6E empty 0 -6 0 10 -233017 -1 -1 256;
#X obj 535 450 vsl 15 128 -50 10 0 0 \$0-phaser-flanger/CONSTANT-Q-SPECTRUM-ANALYZER-6E \$0-phaser-flanger/CONSTANT-Q-SPECTRUM-ANALYZER-6E empty 0 -8 0 10 -233017 -1 -1 0 1;
#X obj 535 590 nbx 5 14 -50 10 0 0 \$0-phaser-flanger/CONSTANT-Q-SPECTRUM-ANALYZER-6E \$0-phaser-flanger/CONSTANT-Q-SPECTRUM-ANALYZER-6E empty 0 -6 0 10 -233017 -1 -1 256;
#X obj 610 450 vsl 15 128 -50 10 0 0 \$0-phaser-flanger/CONSTANT-Q-SPECTRUM-ANALYZER-6E \$0-phaser-flanger/CONSTANT-Q-SPECTRUM-ANALYZER-6E empty 0 -8 0 10 -233017 -1 -1 0 1;
#X obj 610 590 nbx 5 14 -50 10 0 0 \$0-phaser-flanger/CONSTANT-Q-SPECTRUM-ANALYZER-6E \$0-phaser-flanger/CONSTANT-Q-SPECTRUM-ANALYZER-6E empty 0 -6 0 10 -233017 -1 -1 256;
#X obj 685 450 vsl 15 128 -50 10 0 0 \$0-phaser-flanger/CONSTANT-Q-SPECTRUM-ANALYZER-6E \$0-phaser-flanger/CONSTANT-Q-SPECTRUM-ANALYZER-6E empty 0 -8 0 10 -233017 -1 -1 0 1;
#X obj 685 590 nbx 5 14 -50 10 0 0 \$0-phaser-flanger/CONSTANT-Q-SPECTRUM-ANALYZER-6E \$0-phaser-flanger/CONSTANT-Q-SPECTRUM-ANALYZER-6E empty 0 -6 0 10 -233017 -1 -1 256;
#X obj 760 450 vsl 15 128 -50 10 0 0 \$0-phaser-flanger/CONSTANT-Q-SPECTRUM-ANALYZER-6E \$0-phaser-flanger/CONSTANT-Q-SPECTRUM-ANALYZER-6E empty 0 -8 0 10 -233017 -1 -1 0 1;
#X obj 760 590 nbx 5 14 -50 10 0 0 \$0-phaser-flanger/CONSTANT-Q-SPECTRUM-ANALYZER-6E \$0-phaser-flanger/CONSTANT-Q-SPECTRUM-ANALYZER-6E empty 0 -6 0 10 -233017 -1 -1 256;
#X obj 835 450 vsl 15 128 -50 10 0 0 \$0-phaser-flanger/CONSTANT-Q-SPECTRUM-ANALYZER-6E \$0-phaser-flanger/CONSTANT-Q-SPECTRUM-ANALYZER-6E empty 0 -8 0 10 -233017 -1 -1 0 1;
#X obj 835 590 nbx 5 14 -50 10 0 0 \$0-phaser-flanger/CONSTANT-Q-SPECTRUM-ANALYZER-6E \$0-phaser-flanger/CONSTANT-Q-SPECTRUM-ANALYZER-6E empty 0 -6 0 10 -233017 -1 -1 256;
#X obj 910 450 vsl 15 128 -50 10 0 0 \$0-phaser-flanger/CONSTANT-Q-SPECTRUM-ANALYZER-6E \$0-phaser-flanger/CONSTANT-Q-SPECTRUM-ANALYZER-6E empty 0 -8 0 10 -233017 -1 -1 0 1;
#X obj 910 590 nbx 5 14 -50 10 0 0 \$0-phaser-flanger/CONSTANT-Q-SPECTRUM-ANALYZER-6E \$0-phaser-flanger/CONSTANT-Q-SPECTRUM-ANALYZER-6E empty 0 -6 0 10 -233017 -1 -1 256;
#X obj 985 450 vsl 15 128 -50 10 0 0 \$0-phaser-flanger/CONSTANT-Q-SPECTRUM-ANALYZER-6E \$0-phaser-flanger/CONSTANT-Q-SPECTRUM-ANALYZER-6E empty 0 -8 0 10 -233017 -1 -1 0 1;
#X obj 985 590 nbx 5 14 -50 10 0 0 \$0-phaser-flanger/CONSTANT-Q-SPECTRUM-ANALYZER-6E \$0-phaser-flanger/CONSTANT-Q-SPECTRUM-ANALYZER-6E empty 0 -6 0 10 -233017 -1 -1 256;
#X obj 1060 450 vsl 15 128 -50 10 0 0 \$0-phaser-flanger/CONSTANT-Q-SPECTRUM-ANALYZER-6E \$0-phaser-flanger/CONSTANT-Q-SPECTRUM-ANALYZER-6E empty 0 -8 0 10 -233017 -1 -1 0 1;
#X obj 1060 590 nbx 5 14 -50 10 0 0 \$0-phaser-flanger/CONSTANT-Q-SPECTRUM-ANALYZER-6E \$0-phaser-flanger/CONSTANT-Q-SPECTRUM-ANALYZER-6E empty 0 -6 0 10 -233017 -1 -1 256;
#X obj 10 630 hsl 128 15 0 1 0 0 \$0-phaser-flanger/SPECTRUM-ANALYZER-CONTROLS/Level-Averaging-Time \$0-phaser-flanger/SPECTRUM-ANALYZER-CONTROLS/Level-Averaging-Time Level-Averaging-Time -2 -6 0 10 -262144 -1 -1 0 1;
#X obj 160 630 nbx 5 14 0 1 0 0 \$0-phaser-flanger/SPECTRUM-ANALYZER-CONTROLS/Level-Averaging-Time \$0-phaser-flanger/SPECTRUM-ANALYZER-CONTROLS/Level-Averaging-Time empty 0 -6 0 10 -262144 -1 -1 256;
#X obj 235 630 hsl 128 15 0 100 0 0 \$0-phaser-flanger/SPECTRUM-ANALYZER-CONTROLS/Level-dB-Offset \$0-phaser-flanger/SPECTRUM-ANALYZER-CONTROLS/Level-dB-Offset Level-dB-Offset -2 -6 0 10 -262144 -1 -1 0 1;
#X obj 385 630 nbx 5 14 0 100 0 0 \$0-phaser-flanger/SPECTRUM-ANALYZER-CONTROLS/Level-dB-Offset \$0-phaser-flanger/SPECTRUM-ANALYZER-CONTROLS/Level-dB-Offset empty 0 -6 0 10 -262144 -1 -1 256;
#X obj 1097 3 bng 15 250 50 1 \$0-init \$0-ignore empty 0 -6 0 10 -262144 -1 -1;
#X obj 1117 3 tgl 15 1 \$0-active \$0-active empty 0 -6 0 10 -262144 -1 -1 1 1;
#X obj 1165 10 r \$0-init;
#X obj 2157 10 s \$0-in;
#X obj 2653 10 s \$0-read;
#X obj 3149 10 r \$0-write;
#X msg 1165 30 1;
#X obj 1165 50 s \$0-active;
#X connect 98 0 99 0;
#X obj 2157 30 r \$0-active;
#X msg 2157 50 active \$1;
#X connect 100 0 101 0;
#X connect 101 0 95 0;
#X obj 3149 30 route active;
#X obj 3149 50 s \$0-active;
#X connect 97 0 102 0;
#X connect 102 0 103 0;
#X msg 1165 70 -20;
#X obj 1165 90 s \$0-phaser-flanger/SAWTOOTH-OSCILLATOR/Amplitude;
#X connect 94 0 104 0;
#X connect 104 0 105 0;
#X obj 2157 70 r \$0-phaser-flanger/SAWTOOTH-OSCILLATOR/Amplitude;
#X msg 2157 90 /phaser-flanger/SAWTOOTH-OSCILLATOR/Amplitude \$1;
#X connect 106 0 107 0;
#X connect 107 0 95 0;
#X obj 3149 70 route /phaser-flanger/SAWTOOTH-OSCILLATOR/Amplitude;
#X obj 3149 90 s \$0-phaser-flanger/SAWTOOTH-OSCILLATOR/Amplitude;
#X connect 102 1 108 0;
#X connect 108 0 109 0;
#X msg 1165 110 49;
#X obj 1165 130 s \$0-phaser-flanger/SAWTOOTH-OSCILLATOR/Frequency;
#X connect 94 0 110 0;
#X connect 110 0 111 0;
#X obj 2157 110 r \$0-phaser-flanger/SAWTOOTH-OSCILLATOR/Frequency;
#X msg 2157 130 /phaser-flanger/SAWTOOTH-OSCILLATOR/Frequency \$1;
#X connect 112 0 113 0;
#X connect 113 0 95 0;
#X obj 3149 110 route /phaser-flanger/SAWTOOTH-OSCILLATOR/Frequency;
#X obj 3149 130 s \$0-phaser-flanger/SAWTOOTH-OSCILLATOR/Frequency;
#X connect 108 1 114 0;
#X connect 114 0 115 0;
#X msg 1165 150 -0.1;
#X obj 1165 170 s \$0-phaser-flanger/SAWTOOTH-OSCILLATOR/Detuning-1;
#X connect 94 0 116 0;
#X connect 116 0 117 0;
#X obj 2157 150 r \$0-phaser-flanger/SAWTOOTH-OSCILLATOR/Detuning-1;
#X msg 2157 170 /phaser-flanger/SAWTOOTH-OSCILLATOR/Detuning-1 \$1;
#X connect 118 0 119 0;
#X connect 119 0 95 0;
#X obj 3149 150 route /phaser-flanger/SAWTOOTH-OSCILLATOR/Detuning-1;
#X obj 3149 170 s \$0-phaser-flanger/SAWTOOTH-OSCILLATOR/Detuning-1;
#X connect 114 1 120 0;
#X connect 120 0 121 0;
#X msg 1165 190 0.1;
#X obj 1165 210 s \$0-phaser-flanger/SAWTOOTH-OSCILLATOR/Detuning-2;
#X connect 94 0 122 0;
#X connect 122 0 123 0;
#X obj 2157 190 r \$0-phaser-flanger/SAWTOOTH-OSCILLATOR/Detuning-2;
#X msg 2157 210 /phaser-flanger/SAWTOOTH-OSCILLATOR/Detuning-2 \$1;
#X connect 124 0 125 0;
#X connect 125 0 95 0;
#X obj 3149 190 route /phaser-flanger/SAWTOOTH-OSCILLATOR/Detuning-2;
#X obj 3149 210 s \$0-phaser-flanger/SAWTOOTH-OSCILLATOR/Detuning-2;
#X connect 120 1 126 0;
#X connect 126 0 127 0;
#X msg 1165 230 0.1;
#X obj 1165 250 s \$0-phaser-flanger/SAWTOOTH-OSCILLATOR/Portamento;
#X connect 94 0 128 0;
#X connect 128 0 129 0;
#X obj 2157 230 r \$0-phaser-flanger/SAWTOOTH-OSCILLATOR/Portamento;
#X msg 2157 250 /phaser-flanger/SAWTOOTH-OSCILLATOR/Portamento \$1;
#X connect 130 0 131 0;
#X connect 131 0 95 0;
#X obj 3149 230 route /phaser-flanger/SAWTOOTH-OSCILLATOR/Portamento;
#X obj 3149 250 s \$0-phaser-flanger/SAWTOOTH-OSCILLATOR/Portamento;
#X connect 126 1 132 0;
#X connect 132 0 133 0;
#X msg 1165 270 0;
#X obj 1165 290 s \$0-phaser-flanger/SAWTOOTH-OSCILLATOR/Alternate-Signals/Pink-Noise-Instead-uses-only-Amplitude-control-on-the-left;
#X connect 94 0 134 0;
#X connect 134 0 135 0;
#X obj 2157 270 r \$0-phaser-flanger/SAWTOOTH-OSCILLATOR/Alternate-Signals/Pink-Noise-Instead-uses-only-Amplitude-control-on-the-left;
#X msg 2157 290 /phaser-flanger/SAWTOOTH-OSCILLATOR/Alternate-Signals/Pink-Noise-Instead-uses-only-Amplitude-control-on-the-left \$1;
#X connect 136 0 137 0;
#X connect 137 0 95 0;
#X obj 3149 270 route /phaser-flanger/SAWTOOTH-OSCILLATOR/Alternate-Signals/Pink-Noise-Instead-uses-only-Amplitude-control-on-the-left;
#X obj 3149 290 s \$0-phaser-flanger/SAWTOOTH-OSCILLATOR/Alternate-Signals/Pink-Noise-Instead-uses-only-Amplitude-control-on-the-left;
#X connect 132 1 138 0;
#X connect 138 0 139 0;
#X msg 1165 310 0;
#X obj 1165 330 s \$0-phaser-flanger/SAWTOOTH-OSCILLATOR/Alternate-Signals/External-Input-Instead-overrides-Sawtooth-Noise-selection-above;
#X connect 94 0 140 0;
#X connect 140 0 141 0;
#X obj 2157 310 r \$0-phaser-flanger/SAWTOOTH-OSCILLATOR/Alternate-Signals/External-Input-Instead-overrides-Sawtooth-Noise-selection-above;
#X msg 2157 330 /phaser-flanger/SAWTOOTH-OSCILLATOR/Alternate-Signals/External-Input-Instead-overrides-Sawtooth-Noise-selection-above \$1;
#X connect 142 0 143 0;
#X connect 143 0 95 0;
#X obj 3149 310 route /phaser-flanger/SAWTOOTH-OSCILLATOR/Alternate-Signals/External-Input-Instead-overrides-Sawtooth-Noise-selection-above;
#X obj 3149 330 s \$0-phaser-flanger/SAWTOOTH-OSCILLATOR/Alternate-Signals/External-Input-Instead-overrides-Sawtooth-Noise-selection-above;
#X connect 138 1 144 0;
#X connect 144 0 145 0;
#X msg 1165 350 0;
#X obj 1165 370 s \$0-phaser-flanger/FLANGER/Bypass;
#X connect 94 0 146 0;
#X connect 146 0 147 0;
#X obj 2157 350 r \$0-phaser-flanger/FLANGER/Bypass;
#X msg 2157 370 /phaser-flanger/FLANGER/Bypass \$1;
#X connect 148 0 149 0;
#X connect 149 0 95 0;
#X obj 3149 350 route /phaser-flanger/FLANGER/Bypass;
#X obj 3149 370 s \$0-phaser-flanger/FLANGER/Bypass;
#X connect 144 1 150 0;
#X connect 150 0 151 0;
#X msg 1165 390 0;
#X obj 1165 410 s \$0-phaser-flanger/FLANGER/Invert-Flange-Sum;
#X connect 94 0 152 0;
#X connect 152 0 153 0;
#X obj 2157 390 r \$0-phaser-flanger/FLANGER/Invert-Flange-Sum;
#X msg 2157 410 /phaser-flanger/FLANGER/Invert-Flange-Sum \$1;
#X connect 154 0 155 0;
#X connect 155 0 95 0;
#X obj 3149 390 route /phaser-flanger/FLANGER/Invert-Flange-Sum;
#X obj 3149 410 s \$0-phaser-flanger/FLANGER/Invert-Flange-Sum;
#X connect 150 1 156 0;
#X connect 156 0 157 0;
#X msg 1165 430 0;
#X obj 1165 450 s \$0-phaser-flanger/FLANGER/Flange-LFO;
#X connect 94 0 158 0;
#X connect 158 0 159 0;
#X obj 2157 430 faust-timer \$0;
#X msg 2157 450 /phaser-flanger/FLANGER/Flange-LFO;
#X connect 160 0 161 0;
#X connect 161 0 96 0;
#X obj 3149 430 route /phaser-flanger/FLANGER/Flange-LFO;
#X obj 3149 450 s \$0-phaser-flanger/FLANGER/Flange-LFO;
#X connect 156 1 162 0;
#X connect 162 0 163 0;
#X msg 1165 470 0.5;
#X obj 1165 490 s \$0-phaser-flanger/FLANGER/Speed;
#X connect 94 0 164 0;
#X connect 164 0 165 0;
#X obj 2157 470 r \$0-phaser-flanger/FLANGER/Speed;
#X msg 2157 490 /phaser-flanger/FLANGER/Speed \$1;
#X connect 166 0 167 0;
#X connect 167 0 95 0;
#X obj 3149 470 route /phaser-flanger/FLANGER/Speed;
#X obj 3149 490 s \$0-phaser-flanger/FLANGER/Speed;
#X connect 162 1 168 0;
#X connect 168 0 169 0;
#X msg 1165 510 1;
#X obj 1165 530 s \$0-phaser-flanger/FLANGER/Depth;
#X connect 94 0 170 0;
#X connect 170 0 171 0;
#X obj 2157 510 r \$0-phaser-flanger/FLANGER/Depth;
#X msg 2157 530 /phaser-flanger/FLANGER/Depth \$1;
#X connect 172 0 173 0;
#X connect 173 0 95 0;
#X obj 3149 510 route /phaser-flanger/FLANGER/Depth;
#X obj 3149 530 s \$0-phaser-flanger/FLANGER/Depth;
#X connect 168 1 174 0;
#X connect 174 0 175 0;
#X msg 1165 550 0;
#X obj 1165 570 s \$0-phaser-flanger/FLANGER/Feedback;
#X connect 94 0 176 0;
#X connect 176 0 177 0;
#X obj 2157 550 r \$0-phaser-flanger/FLANGER/Feedback;
#X msg 2157 570 /phaser-flanger/FLANGER/Feedback \$1;
#X connect 178 0 179 0;
#X connect 179 0 95 0;
#X obj 3149 550 route /phaser-flanger/FLANGER/Feedback;
#X obj 3149 570 s \$0-phaser-flanger/FLANGER/Feedback;
#X connect 174 1 180 0;
#X connect 180 0 181 0;
#X msg 1165 590 10;
#X obj 1165 610 s \$0-phaser-flanger/FLANGER/Delay-Controls/Flange-Delay;
#X connect 94 0 182 0;
#X connect 182 0 183 0;
#X obj 2157 590 r \$0-phaser-flanger/FLANGER/Delay-Controls/Flange-Delay;
#X msg 2157 610 /phaser-flanger/FLANGER/Delay-Controls/Flange-Delay \$1;
#X connect 184 0 185 0;
#X connect 185 0 95 0;
#X obj 3149 590 route /phaser-flanger/FLANGER/Delay-Controls/Flange-Delay;
#X obj 3149 610 s \$0-phaser-flanger/FLANGER/Delay-Controls/Flange-Delay;
#X connect 180 1 186 0;
#X connect 186 0 187 0;
#X msg 1165 630 1;
#X obj 1165 650 s \$0-phaser-flanger/FLANGER/Delay-Controls/Delay-Offset;
#X connect 94 0 188 0;
#X connect 188 0 189 0;
#X obj 2157 630 r \$0-phaser-flanger/FLANGER/Delay-Controls/Delay-Offset;
#X msg 2157 650 /phaser-flanger/FLANGER/Delay-Controls/Delay-Offset \$1;
#X connect 190 0 191 0;
#X connect 191 0 95 0;
#X obj 3149 630 route /phaser-flanger/FLANGER/Delay-Controls/Delay-Offset;
#X obj 3149 650 s \$0-phaser-flanger/FLANGER/Delay-Controls/Delay-Offset;
#X connect 186 1 192 0;
#X connect 192 0 193 0;
#X msg 1165 670 0;
#X obj 1165 690 s \$0-phaser-flanger/FLANGER/Flanger-Output-Level;
#X connect 94 0 194 0;
#X connect 194 0 195 0;
#X obj 2157 670 r \$0-phaser-flanger/FLANGER/Flanger-Output-Level;
#X msg 2157 690 /phaser-flanger/FLANGER/Flanger-Output-Level \$1;
#X connect 196 0 197 0;
#X connect 197 0 95 0;
#X obj 3149 670 route /phaser-flanger/FLANGER/Flanger-Output-Level;
#X obj 3149 690 s \$0-phaser-flanger/FLANGER/Flanger-Output-Level;
#X connect 192 1 198 0;
#X connect 198 0 199 0;
#X msg 1165 710 0;
#X obj 1165 730 s \$0-phaser-flanger/PHASER2/Bypass;
#X connect 94 0 200 0;
#X connect 200 0 201 0;
#X obj 2157 710 r \$0-phaser-flanger/PHASER2/Bypass;
#X msg 2157 730 /phaser-flanger/PHASER2/Bypass \$1;
#X connect 202 0 203 0;
#X connect 203 0 95 0;
#X obj 3149 710 route /phaser-flanger/PHASER2/Bypass;
#X obj 3149 730 s \$0-phaser-flanger/PHASER2/Bypass;
#X connect 198 1 204 0;
#X connect 204 0 205 0;
#X msg 1165 750 0;
#X obj 1165 770 s \$0-phaser-flanger/PHASER2/Invert-Internal-Phaser-Sum;
#X connect 94 0 206 0;
#X connect 206 0 207 0;
#X obj 2157 750 r \$0-phaser-flanger/PHASER2/Invert-Internal-Phaser-Sum;
#X msg 2157 770 /phaser-flanger/PHASER2/Invert-Internal-Phaser-Sum \$1;
#X connect 208 0 209 0;
#X connect 209 0 95 0;
#X obj 3149 750 route /phaser-flanger/PHASER2/Invert-Internal-Phaser-Sum;
#X obj 3149 770 s \$0-phaser-flanger/PHASER2/Invert-Internal-Phaser-Sum;
#X connect 204 1 210 0;
#X connect 210 0 211 0;
#X msg 1165 790 0;
#X obj 1165 810 s \$0-phaser-flanger/PHASER2/Vibrato-Mode;
#X connect 94 0 212 0;
#X connect 212 0 213 0;
#X obj 2157 790 r \$0-phaser-flanger/PHASER2/Vibrato-Mode;
#X msg 2157 810 /phaser-flanger/PHASER2/Vibrato-Mode \$1;
#X connect 214 0 215 0;
#X connect 215 0 95 0;
#X obj 3149 790 route /phaser-flanger/PHASER2/Vibrato-Mode;
#X obj 3149 810 s \$0-phaser-flanger/PHASER2/Vibrato-Mode;
#X connect 210 1 216 0;
#X connect 216 0 217 0;
#X msg 1165 830 0.5;
#X obj 1165 850 s \$0-phaser-flanger/PHASER2/Speed;
#X connect 94 0 218 0;
#X connect 218 0 219 0;
#X obj 2157 830 r \$0-phaser-flanger/PHASER2/Speed;
#X msg 2157 850 /phaser-flanger/PHASER2/Speed \$1;
#X connect 220 0 221 0;
#X connect 221 0 95 0;
#X obj 3149 830 route /phaser-flanger/PHASER2/Speed;
#X obj 3149 850 s \$0-phaser-flanger/PHASER2/Speed;
#X connect 216 1 222 0;
#X connect 222 0 223 0;
#X msg 1165 870 1;
#X obj 1165 890 s \$0-phaser-flanger/PHASER2/Notch-Depth-Intensity;
#X connect 94 0 224 0;
#X connect 224 0 225 0;
#X obj 2157 870 r \$0-phaser-flanger/PHASER2/Notch-Depth-Intensity;
#X msg 2157 890 /phaser-flanger/PHASER2/Notch-Depth-Intensity \$1;
#X connect 226 0 227 0;
#X connect 227 0 95 0;
#X obj 3149 870 route /phaser-flanger/PHASER2/Notch-Depth-Intensity;
#X obj 3149 890 s \$0-phaser-flanger/PHASER2/Notch-Depth-Intensity;
#X connect 222 1 228 0;
#X connect 228 0 229 0;
#X msg 1165 910 0;
#X obj 1165 930 s \$0-phaser-flanger/PHASER2/Feedback-Gain;
#X connect 94 0 230 0;
#X connect 230 0 231 0;
#X obj 2157 910 r \$0-phaser-flanger/PHASER2/Feedback-Gain;
#X msg 2157 930 /phaser-flanger/PHASER2/Feedback-Gain \$1;
#X connect 232 0 233 0;
#X connect 233 0 95 0;
#X obj 3149 910 route /phaser-flanger/PHASER2/Feedback-Gain;
#X obj 3149 930 s \$0-phaser-flanger/PHASER2/Feedback-Gain;
#X connect 228 1 234 0;
#X connect 234 0 235 0;
#X msg 1165 950 1000;
#X obj 1165 970 s \$0-phaser-flanger/PHASER2/Notch-width;
#X connect 94 0 236 0;
#X connect 236 0 237 0;
#X obj 2157 950 r \$0-phaser-flanger/PHASER2/Notch-width;
#X msg 2157 970 /phaser-flanger/PHASER2/Notch-width \$1;
#X connect 238 0 239 0;
#X connect 239 0 95 0;
#X obj 3149 950 route /phaser-flanger/PHASER2/Notch-width;
#X obj 3149 970 s \$0-phaser-flanger/PHASER2/Notch-width;
#X connect 234 1 240 0;
#X connect 240 0 241 0;
#X msg 1165 990 100;
#X obj 1165 1010 s \$0-phaser-flanger/PHASER2/Min-Notch1-Freq;
#X connect 94 0 242 0;
#X connect 242 0 243 0;
#X obj 2157 990 r \$0-phaser-flanger/PHASER2/Min-Notch1-Freq;
#X msg 2157 1010 /phaser-flanger/PHASER2/Min-Notch1-Freq \$1;
#X connect 244 0 245 0;
#X connect 245 0 95 0;
#X obj 3149 990 route /phaser-flanger/PHASER2/Min-Notch1-Freq;
#X obj 3149 1010 s \$0-phaser-flanger/PHASER2/Min-Notch1-Freq;
#X connect 240 1 246 0;
#X connect 246 0 247 0;
#X msg 1165 1030 800;
#X obj 1165 1050 s \$0-phaser-flanger/PHASER2/Max-Notch1-Freq;
#X connect 94 0 248 0;
#X connect 248 0 249 0;
#X obj 2157 1030 r \$0-phaser-flanger/PHASER2/Max-Notch1-Freq;
#X msg 2157 1050 /phaser-flanger/PHASER2/Max-Notch1-Freq \$1;
#X connect 250 0 251 0;
#X connect 251 0 95 0;
#X obj 3149 1030 route /phaser-flanger/PHASER2/Max-Notch1-Freq;
#X obj 3149 1050 s \$0-phaser-flanger/PHASER2/Max-Notch1-Freq;
#X connect 246 1 252 0;
#X connect 252 0 253 0;
#X msg 1165 1070 1.5;
#X obj 1165 1090 s \$0-phaser-flanger/PHASER2/Notch-Freq-Ratio-NotchFreq-n-1-NotchFreq-n;
#X connect 94 0 254 0;
#X connect 254 0 255 0;
#X obj 2157 1070 r \$0-phaser-flanger/PHASER2/Notch-Freq-Ratio-NotchFreq-n-1-NotchFreq-n;
#X msg 2157 1090 /phaser-flanger/PHASER2/Notch-Freq-Ratio-NotchFreq-n-1-NotchFreq-n \$1;
#X connect 256 0 257 0;
#X connect 257 0 95 0;
#X obj 3149 1070 route /phaser-flanger/PHASER2/Notch-Freq-Ratio-NotchFreq-n-1-NotchFreq-n;
#X obj 3149 1090 s \$0-phaser-flanger/PHASER2/Notch-Freq-Ratio-NotchFreq-n-1-NotchFreq-n;
#X connect 252 1 258 0;
#X connect 258 0 259 0;
#X msg 1165 1110 0;
#X obj 1165 1130 s \$0-phaser-flanger/PHASER2/Phaser-Output-Level;
#X connect 94 0 260 0;
#X connect 260 0 261 0;
#X obj 2157 1110 r \$0-phaser-flanger/PHASER2/Phaser-Output-Level;
#X msg 2157 1130 /phaser-flanger/PHASER2/Phaser-Output-Level \$1;
#X connect 262 0 263 0;
#X connect 263 0 95 0;
#X obj 3149 1110 route /phaser-flanger/PHASER2/Phaser-Output-Level;
#X obj 3149 1130 s \$0-phaser-flanger/PHASER2/Phaser-Output-Level;
#X connect 258 1 264 0;
#X connect 264 0 265 0;
#X msg 1165 1150 0;
#X obj 1165 1170 s \$0-phaser-flanger/CONSTANT-Q-SPECTRUM-ANALYZER-6E;
#X connect 94 0 266 0;
#X connect 266 0 267 0;
#X obj 2157 1150 faust-timer \$0;
#X msg 2157 1170 /phaser-flanger/CONSTANT-Q-SPECTRUM-ANALYZER-6E;
#X connect 268 0 269 0;
#X connect 269 0 96 0;
#X obj 3149 1150 route /phaser-flanger/CONSTANT-Q-SPECTRUM-ANALYZER-6E;
#X obj 3149 1170 s \$0-phaser-flanger/CONSTANT-Q-SPECTRUM-ANALYZER-6E;
#X connect 264 1 270 0;
#X connect 270 0 271 0;
#X msg 1165 1190 0;
#X obj 1165 1210 s \$0-phaser-flanger/CONSTANT-Q-SPECTRUM-ANALYZER-6E;
#X connect 94 0 272 0;
#X connect 272 0 273 0;
#X obj 2157 1190 faust-timer \$0;
#X msg 2157 1210 /phaser-flanger/CONSTANT-Q-SPECTRUM-ANALYZER-6E;
#X connect 274 0 275 0;
#X connect 275 0 96 0;
#X obj 3149 1190 route /phaser-flanger/CONSTANT-Q-SPECTRUM-ANALYZER-6E;
#X obj 3149 1210 s \$0-phaser-flanger/CONSTANT-Q-SPECTRUM-ANALYZER-6E;
#X connect 270 1 276 0;
#X connect 276 0 277 0;
#X msg 1165 1230 0;
#X obj 1165 1250 s \$0-phaser-flanger/CONSTANT-Q-SPECTRUM-ANALYZER-6E;
#X connect 94 0 278 0;
#X connect 278 0 279 0;
#X obj 2157 1230 faust-timer \$0;
#X msg 2157 1250 /phaser-flanger/CONSTANT-Q-SPECTRUM-ANALYZER-6E;
#X connect 280 0 281 0;
#X connect 281 0 96 0;
#X obj 3149 1230 route /phaser-flanger/CONSTANT-Q-SPECTRUM-ANALYZER-6E;
#X obj 3149 1250 s \$0-phaser-flanger/CONSTANT-Q-SPECTRUM-ANALYZER-6E;
#X connect 276 1 282 0;
#X connect 282 0 283 0;
#X msg 1165 1270 0;
#X obj 1165 1290 s \$0-phaser-flanger/CONSTANT-Q-SPECTRUM-ANALYZER-6E;
#X connect 94 0 284 0;
#X connect 284 0 285 0;
#X obj 2157 1270 faust-timer \$0;
#X msg 2157 1290 /phaser-flanger/CONSTANT-Q-SPECTRUM-ANALYZER-6E;
#X connect 286 0 287 0;
#X connect 287 0 96 0;
#X obj 3149 1270 route /phaser-flanger/CONSTANT-Q-SPECTRUM-ANALYZER-6E;
#X obj 3149 1290 s \$0-phaser-flanger/CONSTANT-Q-SPECTRUM-ANALYZER-6E;
#X connect 282 1 288 0;
#X connect 288 0 289 0;
#X msg 1165 1310 0;
#X obj 1165 1330 s \$0-phaser-flanger/CONSTANT-Q-SPECTRUM-ANALYZER-6E;
#X connect 94 0 290 0;
#X connect 290 0 291 0;
#X obj 2157 1310 faust-timer \$0;
#X msg 2157 1330 /phaser-flanger/CONSTANT-Q-SPECTRUM-ANALYZER-6E;
#X connect 292 0 293 0;
#X connect 293 0 96 0;
#X obj 3149 1310 route /phaser-flanger/CONSTANT-Q-SPECTRUM-ANALYZER-6E;
#X obj 3149 1330 s \$0-phaser-flanger/CONSTANT-Q-SPECTRUM-ANALYZER-6E;
#X connect 288 1 294 0;
#X connect 294 0 295 0;
#X msg 1165 1350 0;
#X obj 1165 1370 s \$0-phaser-flanger/CONSTANT-Q-SPECTRUM-ANALYZER-6E;
#X connect 94 0 296 0;
#X connect 296 0 297 0;
#X obj 2157 1350 faust-timer \$0;
#X msg 2157 1370 /phaser-flanger/CONSTANT-Q-SPECTRUM-ANALYZER-6E;
#X connect 298 0 299 0;
#X connect 299 0 96 0;
#X obj 3149 1350 route /phaser-flanger/CONSTANT-Q-SPECTRUM-ANALYZER-6E;
#X obj 3149 1370 s \$0-phaser-flanger/CONSTANT-Q-SPECTRUM-ANALYZER-6E;
#X connect 294 1 300 0;
#X connect 300 0 301 0;
#X msg 1165 1390 0;
#X obj 1165 1410 s \$0-phaser-flanger/CONSTANT-Q-SPECTRUM-ANALYZER-6E;
#X connect 94 0 302 0;
#X connect 302 0 303 0;
#X obj 2157 1390 faust-timer \$0;
#X msg 2157 1410 /phaser-flanger/CONSTANT-Q-SPECTRUM-ANALYZER-6E;
#X connect 304 0 305 0;
#X connect 305 0 96 0;
#X obj 3149 1390 route /phaser-flanger/CONSTANT-Q-SPECTRUM-ANALYZER-6E;
#X obj 3149 1410 s \$0-phaser-flanger/CONSTANT-Q-SPECTRUM-ANALYZER-6E;
#X connect 300 1 306 0;
#X connect 306 0 307 0;
#X msg 1165 1430 0;
#X obj 1165 1450 s \$0-phaser-flanger/CONSTANT-Q-SPECTRUM-ANALYZER-6E;
#X connect 94 0 308 0;
#X connect 308 0 309 0;
#X obj 2157 1430 faust-timer \$0;
#X msg 2157 1450 /phaser-flanger/CONSTANT-Q-SPECTRUM-ANALYZER-6E;
#X connect 310 0 311 0;
#X connect 311 0 96 0;
#X obj 3149 1430 route /phaser-flanger/CONSTANT-Q-SPECTRUM-ANALYZER-6E;
#X obj 3149 1450 s \$0-phaser-flanger/CONSTANT-Q-SPECTRUM-ANALYZER-6E;
#X connect 306 1 312 0;
#X connect 312 0 313 0;
#X msg 1165 1470 0;
#X obj 1165 1490 s \$0-phaser-flanger/CONSTANT-Q-SPECTRUM-ANALYZER-6E;
#X connect 94 0 314 0;
#X connect 314 0 315 0;
#X obj 2157 1470 faust-timer \$0;
#X msg 2157 1490 /phaser-flanger/CONSTANT-Q-SPECTRUM-ANALYZER-6E;
#X connect 316 0 317 0;
#X connect 317 0 96 0;
#X obj 3149 1470 route /phaser-flanger/CONSTANT-Q-SPECTRUM-ANALYZER-6E;
#X obj 3149 1490 s \$0-phaser-flanger/CONSTANT-Q-SPECTRUM-ANALYZER-6E;
#X connect 312 1 318 0;
#X connect 318 0 319 0;
#X msg 1165 1510 0;
#X obj 1165 1530 s \$0-phaser-flanger/CONSTANT-Q-SPECTRUM-ANALYZER-6E;
#X connect 94 0 320 0;
#X connect 320 0 321 0;
#X obj 2157 1510 faust-timer \$0;
#X msg 2157 1530 /phaser-flanger/CONSTANT-Q-SPECTRUM-ANALYZER-6E;
#X connect 322 0 323 0;
#X connect 323 0 96 0;
#X obj 3149 1510 route /phaser-flanger/CONSTANT-Q-SPECTRUM-ANALYZER-6E;
#X obj 3149 1530 s \$0-phaser-flanger/CONSTANT-Q-SPECTRUM-ANALYZER-6E;
#X connect 318 1 324 0;
#X connect 324 0 325 0;
#X msg 1165 1550 0;
#X obj 1165 1570 s \$0-phaser-flanger/CONSTANT-Q-SPECTRUM-ANALYZER-6E;
#X connect 94 0 326 0;
#X connect 326 0 327 0;
#X obj 2157 1550 faust-timer \$0;
#X msg 2157 1570 /phaser-flanger/CONSTANT-Q-SPECTRUM-ANALYZER-6E;
#X connect 328 0 329 0;
#X connect 329 0 96 0;
#X obj 3149 1550 route /phaser-flanger/CONSTANT-Q-SPECTRUM-ANALYZER-6E;
#X obj 3149 1570 s \$0-phaser-flanger/CONSTANT-Q-SPECTRUM-ANALYZER-6E;
#X connect 324 1 330 0;
#X connect 330 0 331 0;
#X msg 1165 1590 0;
#X obj 1165 1610 s \$0-phaser-flanger/CONSTANT-Q-SPECTRUM-ANALYZER-6E;
#X connect 94 0 332 0;
#X connect 332 0 333 0;
#X obj 2157 1590 faust-timer \$0;
#X msg 2157 1610 /phaser-flanger/CONSTANT-Q-SPECTRUM-ANALYZER-6E;
#X connect 334 0 335 0;
#X connect 335 0 96 0;
#X obj 3149 1590 route /phaser-flanger/CONSTANT-Q-SPECTRUM-ANALYZER-6E;
#X obj 3149 1610 s \$0-phaser-flanger/CONSTANT-Q-SPECTRUM-ANALYZER-6E;
#X connect 330 1 336 0;
#X connect 336 0 337 0;
#X msg 1165 1630 0;
#X obj 1165 1650 s \$0-phaser-flanger/CONSTANT-Q-SPECTRUM-ANALYZER-6E;
#X connect 94 0 338 0;
#X connect 338 0 339 0;
#X obj 2157 1630 faust-timer \$0;
#X msg 2157 1650 /phaser-flanger/CONSTANT-Q-SPECTRUM-ANALYZER-6E;
#X connect 340 0 341 0;
#X connect 341 0 96 0;
#X obj 3149 1630 route /phaser-flanger/CONSTANT-Q-SPECTRUM-ANALYZER-6E;
#X obj 3149 1650 s \$0-phaser-flanger/CONSTANT-Q-SPECTRUM-ANALYZER-6E;
#X connect 336 1 342 0;
#X connect 342 0 343 0;
#X msg 1165 1670 0;
#X obj 1165 1690 s \$0-phaser-flanger/CONSTANT-Q-SPECTRUM-ANALYZER-6E;
#X connect 94 0 344 0;
#X connect 344 0 345 0;
#X obj 2157 1670 faust-timer \$0;
#X msg 2157 1690 /phaser-flanger/CONSTANT-Q-SPECTRUM-ANALYZER-6E;
#X connect 346 0 347 0;
#X connect 347 0 96 0;
#X obj 3149 1670 route /phaser-flanger/CONSTANT-Q-SPECTRUM-ANALYZER-6E;
#X obj 3149 1690 s \$0-phaser-flanger/CONSTANT-Q-SPECTRUM-ANALYZER-6E;
#X connect 342 1 348 0;
#X connect 348 0 349 0;
#X msg 1165 1710 0;
#X obj 1165 1730 s \$0-phaser-flanger/CONSTANT-Q-SPECTRUM-ANALYZER-6E;
#X connect 94 0 350 0;
#X connect 350 0 351 0;
#X obj 2157 1710 faust-timer \$0;
#X msg 2157 1730 /phaser-flanger/CONSTANT-Q-SPECTRUM-ANALYZER-6E;
#X connect 352 0 353 0;
#X connect 353 0 96 0;
#X obj 3149 1710 route /phaser-flanger/CONSTANT-Q-SPECTRUM-ANALYZER-6E;
#X obj 3149 1730 s \$0-phaser-flanger/CONSTANT-Q-SPECTRUM-ANALYZER-6E;
#X connect 348 1 354 0;
#X connect 354 0 355 0;
#X msg 1165 1750 0.1;
#X obj 1165 1770 s \$0-phaser-flanger/SPECTRUM-ANALYZER-CONTROLS/Level-Averaging-Time;
#X connect 94 0 356 0;
#X connect 356 0 357 0;
#X obj 2157 1750 r \$0-phaser-flanger/SPECTRUM-ANALYZER-CONTROLS/Level-Averaging-Time;
#X msg 2157 1770 /phaser-flanger/SPECTRUM-ANALYZER-CONTROLS/Level-Averaging-Time \$1;
#X connect 358 0 359 0;
#X connect 359 0 95 0;
#X obj 3149 1750 route /phaser-flanger/SPECTRUM-ANALYZER-CONTROLS/Level-Averaging-Time;
#X obj 3149 1770 s \$0-phaser-flanger/SPECTRUM-ANALYZER-CONTROLS/Level-Averaging-Time;
#X connect 354 1 360 0;
#X connect 360 0 361 0;
#X msg 1165 1790 50;
#X obj 1165 1810 s \$0-phaser-flanger/SPECTRUM-ANALYZER-CONTROLS/Level-dB-Offset;
#X connect 94 0 362 0;
#X connect 362 0 363 0;
#X obj 2157 1790 r \$0-phaser-flanger/SPECTRUM-ANALYZER-CONTROLS/Level-dB-Offset;
#X msg 2157 1810 /phaser-flanger/SPECTRUM-ANALYZER-CONTROLS/Level-dB-Offset \$1;
#X connect 364 0 365 0;
#X connect 365 0 95 0;
#X obj 3149 1790 route /phaser-flanger/SPECTRUM-ANALYZER-CONTROLS/Level-dB-Offset;
#X obj 3149 1810 s \$0-phaser-flanger/SPECTRUM-ANALYZER-CONTROLS/Level-dB-Offset;
#X connect 360 1 366 0;
#X connect 366 0 367 0;
#X coords 0 -1 1 1 1135 650 1 0 0;
#X text 0 670 Generated Sun Aug  4 09:11:55 2013 by faust2pd v2.5. See http://faust.grame.fr and http://pure-lang.googlecode.com.;
