#N canvas 0 0 450 300 10;
#X obj 70 150 inlet~;
#X obj 130 150 inlet~;
#X obj 190 150 inlet~;
#X obj 250 150 inlet~;
#X obj 10 150 inlet;
#X obj 310 150 r \$0-read;
#X obj 310 180 faust-control \$0;
#X obj 310 210 s \$0-write;
#X obj 10 210 r \$0-in;
#X obj 10 240 quadecho~;
#X obj 10 270 s \$0-out;
#X obj 70 300 outlet~;
#X obj 130 300 outlet~;
#X obj 190 300 outlet~;
#X obj 250 300 outlet~;
#X obj 10 300 outlet;
#X connect 4 0 6 0;
#X connect 5 0 6 0;
#X connect 6 0 7 0;
#X connect 9 0 10 0;
#X connect 4 0 15 0;
#X connect 8 0 9 0;
#X connect 0 0 9 1;
#X connect 1 0 9 2;
#X connect 2 0 9 3;
#X connect 3 0 9 4;
#X connect 9 1 11 0;
#X connect 9 2 12 0;
#X connect 9 3 13 0;
#X connect 9 4 14 0;
#X obj 10 30 hsl 128 15 0 100 0 0 \$0-stereo-echo/echo-1000/feedback \$0-stereo-echo/echo-1000/feedback feedback -2 -6 0 10 -262144 -1 -1 0 1;
#X obj 160 30 nbx 5 14 0 100 0 0 \$0-stereo-echo/echo-1000/feedback \$0-stereo-echo/echo-1000/feedback empty 0 -6 0 10 -262144 -1 -1 256;
#X obj 10 60 hsl 128 15 0 1000 0 0 \$0-stereo-echo/echo-1000/millisecond \$0-stereo-echo/echo-1000/millisecond millisecond -2 -6 0 10 -262144 -1 -1 0 1;
#X obj 160 60 nbx 5 14 0 1000 0 0 \$0-stereo-echo/echo-1000/millisecond \$0-stereo-echo/echo-1000/millisecond empty 0 -6 0 10 -262144 -1 -1 256;
#X obj 197 3 bng 15 250 50 1 \$0-init \$0-ignore empty 0 -6 0 10 -262144 -1 -1;
#X obj 217 3 tgl 15 1 \$0-active \$0-active empty 0 -6 0 10 -262144 -1 -1 1 1;
#X obj 450 10 r \$0-init;
#X obj 778 10 s \$0-in;
#X obj 942 10 s \$0-read;
#X obj 1106 10 r \$0-write;
#X msg 450 30 1;
#X obj 450 50 s \$0-active;
#X connect 26 0 27 0;
#X obj 778 30 r \$0-active;
#X msg 778 50 active \$1;
#X connect 28 0 29 0;
#X connect 29 0 23 0;
#X obj 1106 30 route active;
#X obj 1106 50 s \$0-active;
#X connect 25 0 30 0;
#X connect 30 0 31 0;
#X msg 450 70 0;
#X obj 450 90 s \$0-stereo-echo/echo-1000/feedback;
#X connect 22 0 32 0;
#X connect 32 0 33 0;
#X obj 778 70 r \$0-stereo-echo/echo-1000/feedback;
#X msg 778 90 /stereo-echo/echo-1000/feedback \$1;
#X connect 34 0 35 0;
#X connect 35 0 23 0;
#X obj 1106 70 route /stereo-echo/echo-1000/feedback;
#X obj 1106 90 s \$0-stereo-echo/echo-1000/feedback;
#X connect 30 1 36 0;
#X connect 36 0 37 0;
#X msg 450 110 0;
#X obj 450 130 s \$0-stereo-echo/echo-1000/millisecond;
#X connect 22 0 38 0;
#X connect 38 0 39 0;
#X obj 778 110 r \$0-stereo-echo/echo-1000/millisecond;
#X msg 778 130 /stereo-echo/echo-1000/millisecond \$1;
#X connect 40 0 41 0;
#X connect 41 0 23 0;
#X obj 1106 110 route /stereo-echo/echo-1000/millisecond;
#X obj 1106 130 s \$0-stereo-echo/echo-1000/millisecond;
#X connect 36 1 42 0;
#X connect 42 0 43 0;
#X coords 0 -1 1 1 235 80 1 0 0;
#X text 0 100 Generated Sun Aug  4 09:11:50 2013 by faust2pd v2.5. See http://faust.grame.fr and http://pure-lang.googlecode.com.;
