#N canvas 0 0 450 300 10;
#X obj 70 150 inlet~;
#X obj 130 150 inlet~;
#X obj 10 150 inlet;
#X obj 190 150 r \$0-read;
#X obj 190 180 faust-control \$0;
#X obj 190 210 s \$0-write;
#X obj 10 210 r \$0-in;
#X obj 10 240 reverb_tester~;
#X obj 10 270 s \$0-out;
#X obj 70 300 outlet~;
#X obj 130 300 outlet~;
#X obj 10 300 outlet;
#X connect 2 0 4 0;
#X connect 3 0 4 0;
#X connect 4 0 5 0;
#X connect 7 0 8 0;
#X connect 2 0 11 0;
#X connect 6 0 7 0;
#X connect 0 0 7 1;
#X connect 1 0 7 2;
#X connect 7 1 9 0;
#X connect 7 2 10 0;
#X obj 10 30 tgl 15 0 \$0-Stereo-Reverb-Tester/Input-Config/Mute-Ext-Inputs \$0-Stereo-Reverb-Tester/Input-Config/Mute-Ext-Inputs Mute-Ext-Inputs 0 -6 0 10 -262144 -1 -1 0 1;
#X obj 10 60 tgl 15 0 \$0-Stereo-Reverb-Tester/Input-Config/Pink-Noise \$0-Stereo-Reverb-Tester/Input-Config/Pink-Noise Pink-Noise 0 -6 0 10 -262144 -1 -1 0 1;
#X obj 60 30 bng 15 250 50 0 \$0-Stereo-Reverb-Tester/Impulse-Selection/Left \$0-Stereo-Reverb-Tester/Impulse-Selection/Left Left 0 -6 0 10 -262144 -1 -1;
#X obj 110 30 bng 15 250 50 0 \$0-Stereo-Reverb-Tester/Impulse-Selection/Center \$0-Stereo-Reverb-Tester/Impulse-Selection/Center Center 0 -6 0 10 -262144 -1 -1;
#X obj 160 30 bng 15 250 50 0 \$0-Stereo-Reverb-Tester/Impulse-Selection/Right \$0-Stereo-Reverb-Tester/Impulse-Selection/Right Right 0 -6 0 10 -262144 -1 -1;
#X obj 172 3 bng 15 250 50 1 \$0-init \$0-ignore empty 0 -6 0 10 -262144 -1 -1;
#X obj 192 3 tgl 15 1 \$0-active \$0-active empty 0 -6 0 10 -262144 -1 -1 1 1;
#X obj 450 10 r \$0-init;
#X obj 906 10 s \$0-in;
#X obj 1134 10 s \$0-read;
#X obj 1362 10 r \$0-write;
#X msg 450 30 1;
#X obj 450 50 s \$0-active;
#X connect 23 0 24 0;
#X obj 906 30 r \$0-active;
#X msg 906 50 active \$1;
#X connect 25 0 26 0;
#X connect 26 0 20 0;
#X obj 1362 30 route active;
#X obj 1362 50 s \$0-active;
#X connect 22 0 27 0;
#X connect 27 0 28 0;
#X msg 450 70 0;
#X obj 450 90 s \$0-Stereo-Reverb-Tester/Input-Config/Mute-Ext-Inputs;
#X connect 19 0 29 0;
#X connect 29 0 30 0;
#X obj 906 70 r \$0-Stereo-Reverb-Tester/Input-Config/Mute-Ext-Inputs;
#X msg 906 90 /Stereo-Reverb-Tester/Input-Config/Mute-Ext-Inputs \$1;
#X connect 31 0 32 0;
#X connect 32 0 20 0;
#X obj 1362 70 route /Stereo-Reverb-Tester/Input-Config/Mute-Ext-Inputs;
#X obj 1362 90 s \$0-Stereo-Reverb-Tester/Input-Config/Mute-Ext-Inputs;
#X connect 27 1 33 0;
#X connect 33 0 34 0;
#X msg 450 110 0;
#X obj 450 130 s \$0-Stereo-Reverb-Tester/Input-Config/Pink-Noise;
#X connect 19 0 35 0;
#X connect 35 0 36 0;
#X obj 906 110 r \$0-Stereo-Reverb-Tester/Input-Config/Pink-Noise;
#X msg 906 130 /Stereo-Reverb-Tester/Input-Config/Pink-Noise \$1;
#X connect 37 0 38 0;
#X connect 38 0 20 0;
#X obj 1362 110 route /Stereo-Reverb-Tester/Input-Config/Pink-Noise;
#X obj 1362 130 s \$0-Stereo-Reverb-Tester/Input-Config/Pink-Noise;
#X connect 33 1 39 0;
#X connect 39 0 40 0;
#X msg 450 150 0;
#X obj 450 170 faust-s \$0-Stereo-Reverb-Tester/Impulse-Selection/Left;
#X connect 19 0 41 0;
#X connect 41 0 42 0;
#X obj 906 150 r \$0-Stereo-Reverb-Tester/Impulse-Selection/Left;
#X obj 906 170 faust-r /Stereo-Reverb-Tester/Impulse-Selection/Left;
#X connect 43 0 44 0;
#X connect 44 0 20 0;
#X obj 1362 150 route /Stereo-Reverb-Tester/Impulse-Selection/Left;
#X obj 1362 170 faust-s \$0-Stereo-Reverb-Tester/Impulse-Selection/Left;
#X connect 39 1 45 0;
#X connect 45 0 46 0;
#X msg 450 190 0;
#X obj 450 210 faust-s \$0-Stereo-Reverb-Tester/Impulse-Selection/Center;
#X connect 19 0 47 0;
#X connect 47 0 48 0;
#X obj 906 190 r \$0-Stereo-Reverb-Tester/Impulse-Selection/Center;
#X obj 906 210 faust-r /Stereo-Reverb-Tester/Impulse-Selection/Center;
#X connect 49 0 50 0;
#X connect 50 0 20 0;
#X obj 1362 190 route /Stereo-Reverb-Tester/Impulse-Selection/Center;
#X obj 1362 210 faust-s \$0-Stereo-Reverb-Tester/Impulse-Selection/Center;
#X connect 45 1 51 0;
#X connect 51 0 52 0;
#X msg 450 230 0;
#X obj 450 250 faust-s \$0-Stereo-Reverb-Tester/Impulse-Selection/Right;
#X connect 19 0 53 0;
#X connect 53 0 54 0;
#X obj 906 230 r \$0-Stereo-Reverb-Tester/Impulse-Selection/Right;
#X obj 906 250 faust-r /Stereo-Reverb-Tester/Impulse-Selection/Right;
#X connect 55 0 56 0;
#X connect 56 0 20 0;
#X obj 1362 230 route /Stereo-Reverb-Tester/Impulse-Selection/Right;
#X obj 1362 250 faust-s \$0-Stereo-Reverb-Tester/Impulse-Selection/Right;
#X connect 51 1 57 0;
#X connect 57 0 58 0;
#X coords 0 -1 1 1 210 80 1 0 0;
#X text 0 100 Generated Sun Aug  4 09:11:58 2013 by faust2pd v2.5. See http://faust.grame.fr and http://pure-lang.googlecode.com.;
