#N canvas 0 0 450 300 10;
#X obj 70 540 inlet~;
#X obj 130 540 inlet~;
#X obj 10 540 inlet;
#X obj 190 540 r \$0-read;
#X obj 190 570 faust-control \$0;
#X obj 190 600 s \$0-write;
#X obj 10 600 r \$0-in;
#X obj 10 630 reverb_designer~;
#X obj 10 660 s \$0-out;
#X obj 70 690 outlet~;
#X obj 130 690 outlet~;
#X obj 10 690 outlet;
#X connect 2 0 4 0;
#X connect 3 0 4 0;
#X connect 4 0 5 0;
#X connect 7 0 8 0;
#X connect 2 0 11 0;
#X connect 6 0 7 0;
#X connect 0 0 7 1;
#X connect 1 0 7 2;
#X connect 7 1 9 0;
#X connect 7 2 10 0;
#X obj 10 30 hsl 128 15 100 10000 0 0 \$0-reverb-designer/FEEDBACK-DELAY-NETWORK-FDN-REVERBERATOR-ORDER-16/Band-Crossover-Frequencies/Band-0-upper-edge-in-Hz \$0-reverb-designer/FEEDBACK-DELAY-NETWORK-FDN-REVERBERATOR-ORDER-16/Band-Crossover-Frequencies/Band-0-upper-edge-in-Hz Band-0-upper-edge-in-Hz -2 -6 0 10 -262144 -1 -1 0 1;
#X obj 160 30 nbx 5 14 100 10000 0 0 \$0-reverb-designer/FEEDBACK-DELAY-NETWORK-FDN-REVERBERATOR-ORDER-16/Band-Crossover-Frequencies/Band-0-upper-edge-in-Hz \$0-reverb-designer/FEEDBACK-DELAY-NETWORK-FDN-REVERBERATOR-ORDER-16/Band-Crossover-Frequencies/Band-0-upper-edge-in-Hz empty 0 -6 0 10 -262144 -1 -1 256;
#X obj 10 60 hsl 128 15 100 10000 0 0 \$0-reverb-designer/FEEDBACK-DELAY-NETWORK-FDN-REVERBERATOR-ORDER-16/Band-Crossover-Frequencies/Band-1-upper-edge-in-Hz \$0-reverb-designer/FEEDBACK-DELAY-NETWORK-FDN-REVERBERATOR-ORDER-16/Band-Crossover-Frequencies/Band-1-upper-edge-in-Hz Band-1-upper-edge-in-Hz -2 -6 0 10 -262144 -1 -1 0 1;
#X obj 160 60 nbx 5 14 100 10000 0 0 \$0-reverb-designer/FEEDBACK-DELAY-NETWORK-FDN-REVERBERATOR-ORDER-16/Band-Crossover-Frequencies/Band-1-upper-edge-in-Hz \$0-reverb-designer/FEEDBACK-DELAY-NETWORK-FDN-REVERBERATOR-ORDER-16/Band-Crossover-Frequencies/Band-1-upper-edge-in-Hz empty 0 -6 0 10 -262144 -1 -1 256;
#X obj 10 90 hsl 128 15 100 10000 0 0 \$0-reverb-designer/FEEDBACK-DELAY-NETWORK-FDN-REVERBERATOR-ORDER-16/Band-Crossover-Frequencies/Band-2-upper-edge-in-Hz \$0-reverb-designer/FEEDBACK-DELAY-NETWORK-FDN-REVERBERATOR-ORDER-16/Band-Crossover-Frequencies/Band-2-upper-edge-in-Hz Band-2-upper-edge-in-Hz -2 -6 0 10 -262144 -1 -1 0 1;
#X obj 160 90 nbx 5 14 100 10000 0 0 \$0-reverb-designer/FEEDBACK-DELAY-NETWORK-FDN-REVERBERATOR-ORDER-16/Band-Crossover-Frequencies/Band-2-upper-edge-in-Hz \$0-reverb-designer/FEEDBACK-DELAY-NETWORK-FDN-REVERBERATOR-ORDER-16/Band-Crossover-Frequencies/Band-2-upper-edge-in-Hz empty 0 -6 0 10 -262144 -1 -1 256;
#X obj 10 120 hsl 128 15 100 10000 0 0 \$0-reverb-designer/FEEDBACK-DELAY-NETWORK-FDN-REVERBERATOR-ORDER-16/Band-Crossover-Frequencies/Band-3-upper-edge-in-Hz \$0-reverb-designer/FEEDBACK-DELAY-NETWORK-FDN-REVERBERATOR-ORDER-16/Band-Crossover-Frequencies/Band-3-upper-edge-in-Hz Band-3-upper-edge-in-Hz -2 -6 0 10 -262144 -1 -1 0 1;
#X obj 160 120 nbx 5 14 100 10000 0 0 \$0-reverb-designer/FEEDBACK-DELAY-NETWORK-FDN-REVERBERATOR-ORDER-16/Band-Crossover-Frequencies/Band-3-upper-edge-in-Hz \$0-reverb-designer/FEEDBACK-DELAY-NETWORK-FDN-REVERBERATOR-ORDER-16/Band-Crossover-Frequencies/Band-3-upper-edge-in-Hz empty 0 -6 0 10 -262144 -1 -1 256;
#X obj 10 150 vsl 15 128 0.1 10 0 0 \$0-reverb-designer/FEEDBACK-DELAY-NETWORK-FDN-REVERBERATOR-ORDER-16/Band-Decay-Times-T60/0 \$0-reverb-designer/FEEDBACK-DELAY-NETWORK-FDN-REVERBERATOR-ORDER-16/Band-Decay-Times-T60/0 0 0 -8 0 10 -262144 -1 -1 0 1;
#X obj 10 290 nbx 5 14 0.1 10 0 0 \$0-reverb-designer/FEEDBACK-DELAY-NETWORK-FDN-REVERBERATOR-ORDER-16/Band-Decay-Times-T60/0 \$0-reverb-designer/FEEDBACK-DELAY-NETWORK-FDN-REVERBERATOR-ORDER-16/Band-Decay-Times-T60/0 empty 0 -6 0 10 -262144 -1 -1 256;
#X obj 85 150 vsl 15 128 0.1 10 0 0 \$0-reverb-designer/FEEDBACK-DELAY-NETWORK-FDN-REVERBERATOR-ORDER-16/Band-Decay-Times-T60/1 \$0-reverb-designer/FEEDBACK-DELAY-NETWORK-FDN-REVERBERATOR-ORDER-16/Band-Decay-Times-T60/1 1 0 -8 0 10 -262144 -1 -1 0 1;
#X obj 85 290 nbx 5 14 0.1 10 0 0 \$0-reverb-designer/FEEDBACK-DELAY-NETWORK-FDN-REVERBERATOR-ORDER-16/Band-Decay-Times-T60/1 \$0-reverb-designer/FEEDBACK-DELAY-NETWORK-FDN-REVERBERATOR-ORDER-16/Band-Decay-Times-T60/1 empty 0 -6 0 10 -262144 -1 -1 256;
#X obj 160 150 vsl 15 128 0.1 10 0 0 \$0-reverb-designer/FEEDBACK-DELAY-NETWORK-FDN-REVERBERATOR-ORDER-16/Band-Decay-Times-T60/2 \$0-reverb-designer/FEEDBACK-DELAY-NETWORK-FDN-REVERBERATOR-ORDER-16/Band-Decay-Times-T60/2 2 0 -8 0 10 -262144 -1 -1 0 1;
#X obj 160 290 nbx 5 14 0.1 10 0 0 \$0-reverb-designer/FEEDBACK-DELAY-NETWORK-FDN-REVERBERATOR-ORDER-16/Band-Decay-Times-T60/2 \$0-reverb-designer/FEEDBACK-DELAY-NETWORK-FDN-REVERBERATOR-ORDER-16/Band-Decay-Times-T60/2 empty 0 -6 0 10 -262144 -1 -1 256;
#X obj 235 150 vsl 15 128 0.1 10 0 0 \$0-reverb-designer/FEEDBACK-DELAY-NETWORK-FDN-REVERBERATOR-ORDER-16/Band-Decay-Times-T60/3 \$0-reverb-designer/FEEDBACK-DELAY-NETWORK-FDN-REVERBERATOR-ORDER-16/Band-Decay-Times-T60/3 3 0 -8 0 10 -262144 -1 -1 0 1;
#X obj 235 290 nbx 5 14 0.1 10 0 0 \$0-reverb-designer/FEEDBACK-DELAY-NETWORK-FDN-REVERBERATOR-ORDER-16/Band-Decay-Times-T60/3 \$0-reverb-designer/FEEDBACK-DELAY-NETWORK-FDN-REVERBERATOR-ORDER-16/Band-Decay-Times-T60/3 empty 0 -6 0 10 -262144 -1 -1 256;
#X obj 310 150 vsl 15 128 0.1 10 0 0 \$0-reverb-designer/FEEDBACK-DELAY-NETWORK-FDN-REVERBERATOR-ORDER-16/Band-Decay-Times-T60/4 \$0-reverb-designer/FEEDBACK-DELAY-NETWORK-FDN-REVERBERATOR-ORDER-16/Band-Decay-Times-T60/4 4 0 -8 0 10 -262144 -1 -1 0 1;
#X obj 310 290 nbx 5 14 0.1 10 0 0 \$0-reverb-designer/FEEDBACK-DELAY-NETWORK-FDN-REVERBERATOR-ORDER-16/Band-Decay-Times-T60/4 \$0-reverb-designer/FEEDBACK-DELAY-NETWORK-FDN-REVERBERATOR-ORDER-16/Band-Decay-Times-T60/4 empty 0 -6 0 10 -262144 -1 -1 256;
#X obj 10 330 hsl 128 15 0.1 63 0 0 \$0-reverb-designer/FEEDBACK-DELAY-NETWORK-FDN-REVERBERATOR-ORDER-16/Room-Dimensions/min-acoustic-ray-length \$0-reverb-designer/FEEDBACK-DELAY-NETWORK-FDN-REVERBERATOR-ORDER-16/Room-Dimensions/min-acoustic-ray-length min-acoustic-ray-length -2 -6 0 10 -262144 -1 -1 0 1;
#X obj 160 330 nbx 5 14 0.1 63 0 0 \$0-reverb-designer/FEEDBACK-DELAY-NETWORK-FDN-REVERBERATOR-ORDER-16/Room-Dimensions/min-acoustic-ray-length \$0-reverb-designer/FEEDBACK-DELAY-NETWORK-FDN-REVERBERATOR-ORDER-16/Room-Dimensions/min-acoustic-ray-length empty 0 -6 0 10 -262144 -1 -1 256;
#X obj 10 360 hsl 128 15 0.1 63 0 0 \$0-reverb-designer/FEEDBACK-DELAY-NETWORK-FDN-REVERBERATOR-ORDER-16/Room-Dimensions/max-acoustic-ray-length \$0-reverb-designer/FEEDBACK-DELAY-NETWORK-FDN-REVERBERATOR-ORDER-16/Room-Dimensions/max-acoustic-ray-length max-acoustic-ray-length -2 -6 0 10 -262144 -1 -1 0 1;
#X obj 160 360 nbx 5 14 0.1 63 0 0 \$0-reverb-designer/FEEDBACK-DELAY-NETWORK-FDN-REVERBERATOR-ORDER-16/Room-Dimensions/max-acoustic-ray-length \$0-reverb-designer/FEEDBACK-DELAY-NETWORK-FDN-REVERBERATOR-ORDER-16/Room-Dimensions/max-acoustic-ray-length empty 0 -6 0 10 -262144 -1 -1 256;
#X obj 10 390 tgl 15 0 \$0-reverb-designer/FEEDBACK-DELAY-NETWORK-FDN-REVERBERATOR-ORDER-16/Input-Controls/Input-Config/Mute-Ext-Inputs \$0-reverb-designer/FEEDBACK-DELAY-NETWORK-FDN-REVERBERATOR-ORDER-16/Input-Controls/Input-Config/Mute-Ext-Inputs Mute-Ext-Inputs 0 -6 0 10 -262144 -1 -1 0 1;
#X obj 10 420 tgl 15 0 \$0-reverb-designer/FEEDBACK-DELAY-NETWORK-FDN-REVERBERATOR-ORDER-16/Input-Controls/Input-Config/Pink-Noise \$0-reverb-designer/FEEDBACK-DELAY-NETWORK-FDN-REVERBERATOR-ORDER-16/Input-Controls/Input-Config/Pink-Noise Pink-Noise 0 -6 0 10 -262144 -1 -1 0 1;
#X obj 60 390 bng 15 250 50 0 \$0-reverb-designer/FEEDBACK-DELAY-NETWORK-FDN-REVERBERATOR-ORDER-16/Input-Controls/Impulse-Selection/Left \$0-reverb-designer/FEEDBACK-DELAY-NETWORK-FDN-REVERBERATOR-ORDER-16/Input-Controls/Impulse-Selection/Left Left 0 -6 0 10 -262144 -1 -1;
#X obj 110 390 bng 15 250 50 0 \$0-reverb-designer/FEEDBACK-DELAY-NETWORK-FDN-REVERBERATOR-ORDER-16/Input-Controls/Impulse-Selection/Center \$0-reverb-designer/FEEDBACK-DELAY-NETWORK-FDN-REVERBERATOR-ORDER-16/Input-Controls/Impulse-Selection/Center Center 0 -6 0 10 -262144 -1 -1;
#X obj 160 390 bng 15 250 50 0 \$0-reverb-designer/FEEDBACK-DELAY-NETWORK-FDN-REVERBERATOR-ORDER-16/Input-Controls/Impulse-Selection/Right \$0-reverb-designer/FEEDBACK-DELAY-NETWORK-FDN-REVERBERATOR-ORDER-16/Input-Controls/Impulse-Selection/Right Right 0 -6 0 10 -262144 -1 -1;
#X obj 210 390 bng 15 250 50 0 \$0-reverb-designer/FEEDBACK-DELAY-NETWORK-FDN-REVERBERATOR-ORDER-16/Input-Controls/Reverb-State/Quench \$0-reverb-designer/FEEDBACK-DELAY-NETWORK-FDN-REVERBERATOR-ORDER-16/Input-Controls/Reverb-State/Quench Quench 0 -6 0 10 -262144 -1 -1;
#X obj 10 450 hsl 128 15 -70 20 0 0 \$0-reverb-designer/Output-Level-dB \$0-reverb-designer/Output-Level-dB Output-Level-dB -2 -6 0 10 -262144 -1 -1 0 1;
#X obj 160 450 nbx 5 14 -70 20 0 0 \$0-reverb-designer/Output-Level-dB \$0-reverb-designer/Output-Level-dB empty 0 -6 0 10 -262144 -1 -1 256;
#X obj 347 3 bng 15 250 50 1 \$0-init \$0-ignore empty 0 -6 0 10 -262144 -1 -1;
#X obj 367 3 tgl 15 1 \$0-active \$0-active empty 0 -6 0 10 -262144 -1 -1 1 1;
#X obj 450 10 r \$0-init;
#X obj 1434 10 s \$0-in;
#X obj 1926 10 s \$0-read;
#X obj 2418 10 r \$0-write;
#X msg 450 30 1;
#X obj 450 50 s \$0-active;
#X connect 48 0 49 0;
#X obj 1434 30 r \$0-active;
#X msg 1434 50 active \$1;
#X connect 50 0 51 0;
#X connect 51 0 45 0;
#X obj 2418 30 route active;
#X obj 2418 50 s \$0-active;
#X connect 47 0 52 0;
#X connect 52 0 53 0;
#X msg 450 70 500;
#X obj 450 90 s \$0-reverb-designer/FEEDBACK-DELAY-NETWORK-FDN-REVERBERATOR-ORDER-16/Band-Crossover-Frequencies/Band-0-upper-edge-in-Hz;
#X connect 44 0 54 0;
#X connect 54 0 55 0;
#X obj 1434 70 r \$0-reverb-designer/FEEDBACK-DELAY-NETWORK-FDN-REVERBERATOR-ORDER-16/Band-Crossover-Frequencies/Band-0-upper-edge-in-Hz;
#X msg 1434 90 /reverb-designer/FEEDBACK-DELAY-NETWORK-FDN-REVERBERATOR-ORDER-16/Band-Crossover-Frequencies/Band-0-upper-edge-in-Hz \$1;
#X connect 56 0 57 0;
#X connect 57 0 45 0;
#X obj 2418 70 route /reverb-designer/FEEDBACK-DELAY-NETWORK-FDN-REVERBERATOR-ORDER-16/Band-Crossover-Frequencies/Band-0-upper-edge-in-Hz;
#X obj 2418 90 s \$0-reverb-designer/FEEDBACK-DELAY-NETWORK-FDN-REVERBERATOR-ORDER-16/Band-Crossover-Frequencies/Band-0-upper-edge-in-Hz;
#X connect 52 1 58 0;
#X connect 58 0 59 0;
#X msg 450 110 1000;
#X obj 450 130 s \$0-reverb-designer/FEEDBACK-DELAY-NETWORK-FDN-REVERBERATOR-ORDER-16/Band-Crossover-Frequencies/Band-1-upper-edge-in-Hz;
#X connect 44 0 60 0;
#X connect 60 0 61 0;
#X obj 1434 110 r \$0-reverb-designer/FEEDBACK-DELAY-NETWORK-FDN-REVERBERATOR-ORDER-16/Band-Crossover-Frequencies/Band-1-upper-edge-in-Hz;
#X msg 1434 130 /reverb-designer/FEEDBACK-DELAY-NETWORK-FDN-REVERBERATOR-ORDER-16/Band-Crossover-Frequencies/Band-1-upper-edge-in-Hz \$1;
#X connect 62 0 63 0;
#X connect 63 0 45 0;
#X obj 2418 110 route /reverb-designer/FEEDBACK-DELAY-NETWORK-FDN-REVERBERATOR-ORDER-16/Band-Crossover-Frequencies/Band-1-upper-edge-in-Hz;
#X obj 2418 130 s \$0-reverb-designer/FEEDBACK-DELAY-NETWORK-FDN-REVERBERATOR-ORDER-16/Band-Crossover-Frequencies/Band-1-upper-edge-in-Hz;
#X connect 58 1 64 0;
#X connect 64 0 65 0;
#X msg 450 150 2000;
#X obj 450 170 s \$0-reverb-designer/FEEDBACK-DELAY-NETWORK-FDN-REVERBERATOR-ORDER-16/Band-Crossover-Frequencies/Band-2-upper-edge-in-Hz;
#X connect 44 0 66 0;
#X connect 66 0 67 0;
#X obj 1434 150 r \$0-reverb-designer/FEEDBACK-DELAY-NETWORK-FDN-REVERBERATOR-ORDER-16/Band-Crossover-Frequencies/Band-2-upper-edge-in-Hz;
#X msg 1434 170 /reverb-designer/FEEDBACK-DELAY-NETWORK-FDN-REVERBERATOR-ORDER-16/Band-Crossover-Frequencies/Band-2-upper-edge-in-Hz \$1;
#X connect 68 0 69 0;
#X connect 69 0 45 0;
#X obj 2418 150 route /reverb-designer/FEEDBACK-DELAY-NETWORK-FDN-REVERBERATOR-ORDER-16/Band-Crossover-Frequencies/Band-2-upper-edge-in-Hz;
#X obj 2418 170 s \$0-reverb-designer/FEEDBACK-DELAY-NETWORK-FDN-REVERBERATOR-ORDER-16/Band-Crossover-Frequencies/Band-2-upper-edge-in-Hz;
#X connect 64 1 70 0;
#X connect 70 0 71 0;
#X msg 450 190 4000;
#X obj 450 210 s \$0-reverb-designer/FEEDBACK-DELAY-NETWORK-FDN-REVERBERATOR-ORDER-16/Band-Crossover-Frequencies/Band-3-upper-edge-in-Hz;
#X connect 44 0 72 0;
#X connect 72 0 73 0;
#X obj 1434 190 r \$0-reverb-designer/FEEDBACK-DELAY-NETWORK-FDN-REVERBERATOR-ORDER-16/Band-Crossover-Frequencies/Band-3-upper-edge-in-Hz;
#X msg 1434 210 /reverb-designer/FEEDBACK-DELAY-NETWORK-FDN-REVERBERATOR-ORDER-16/Band-Crossover-Frequencies/Band-3-upper-edge-in-Hz \$1;
#X connect 74 0 75 0;
#X connect 75 0 45 0;
#X obj 2418 190 route /reverb-designer/FEEDBACK-DELAY-NETWORK-FDN-REVERBERATOR-ORDER-16/Band-Crossover-Frequencies/Band-3-upper-edge-in-Hz;
#X obj 2418 210 s \$0-reverb-designer/FEEDBACK-DELAY-NETWORK-FDN-REVERBERATOR-ORDER-16/Band-Crossover-Frequencies/Band-3-upper-edge-in-Hz;
#X connect 70 1 76 0;
#X connect 76 0 77 0;
#X msg 450 230 8.4;
#X obj 450 250 s \$0-reverb-designer/FEEDBACK-DELAY-NETWORK-FDN-REVERBERATOR-ORDER-16/Band-Decay-Times-T60/0;
#X connect 44 0 78 0;
#X connect 78 0 79 0;
#X obj 1434 230 r \$0-reverb-designer/FEEDBACK-DELAY-NETWORK-FDN-REVERBERATOR-ORDER-16/Band-Decay-Times-T60/0;
#X msg 1434 250 /reverb-designer/FEEDBACK-DELAY-NETWORK-FDN-REVERBERATOR-ORDER-16/Band-Decay-Times-T60/0 \$1;
#X connect 80 0 81 0;
#X connect 81 0 45 0;
#X obj 2418 230 route /reverb-designer/FEEDBACK-DELAY-NETWORK-FDN-REVERBERATOR-ORDER-16/Band-Decay-Times-T60/0;
#X obj 2418 250 s \$0-reverb-designer/FEEDBACK-DELAY-NETWORK-FDN-REVERBERATOR-ORDER-16/Band-Decay-Times-T60/0;
#X connect 76 1 82 0;
#X connect 82 0 83 0;
#X msg 450 270 6.5;
#X obj 450 290 s \$0-reverb-designer/FEEDBACK-DELAY-NETWORK-FDN-REVERBERATOR-ORDER-16/Band-Decay-Times-T60/1;
#X connect 44 0 84 0;
#X connect 84 0 85 0;
#X obj 1434 270 r \$0-reverb-designer/FEEDBACK-DELAY-NETWORK-FDN-REVERBERATOR-ORDER-16/Band-Decay-Times-T60/1;
#X msg 1434 290 /reverb-designer/FEEDBACK-DELAY-NETWORK-FDN-REVERBERATOR-ORDER-16/Band-Decay-Times-T60/1 \$1;
#X connect 86 0 87 0;
#X connect 87 0 45 0;
#X obj 2418 270 route /reverb-designer/FEEDBACK-DELAY-NETWORK-FDN-REVERBERATOR-ORDER-16/Band-Decay-Times-T60/1;
#X obj 2418 290 s \$0-reverb-designer/FEEDBACK-DELAY-NETWORK-FDN-REVERBERATOR-ORDER-16/Band-Decay-Times-T60/1;
#X connect 82 1 88 0;
#X connect 88 0 89 0;
#X msg 450 310 5;
#X obj 450 330 s \$0-reverb-designer/FEEDBACK-DELAY-NETWORK-FDN-REVERBERATOR-ORDER-16/Band-Decay-Times-T60/2;
#X connect 44 0 90 0;
#X connect 90 0 91 0;
#X obj 1434 310 r \$0-reverb-designer/FEEDBACK-DELAY-NETWORK-FDN-REVERBERATOR-ORDER-16/Band-Decay-Times-T60/2;
#X msg 1434 330 /reverb-designer/FEEDBACK-DELAY-NETWORK-FDN-REVERBERATOR-ORDER-16/Band-Decay-Times-T60/2 \$1;
#X connect 92 0 93 0;
#X connect 93 0 45 0;
#X obj 2418 310 route /reverb-designer/FEEDBACK-DELAY-NETWORK-FDN-REVERBERATOR-ORDER-16/Band-Decay-Times-T60/2;
#X obj 2418 330 s \$0-reverb-designer/FEEDBACK-DELAY-NETWORK-FDN-REVERBERATOR-ORDER-16/Band-Decay-Times-T60/2;
#X connect 88 1 94 0;
#X connect 94 0 95 0;
#X msg 450 350 3.8;
#X obj 450 370 s \$0-reverb-designer/FEEDBACK-DELAY-NETWORK-FDN-REVERBERATOR-ORDER-16/Band-Decay-Times-T60/3;
#X connect 44 0 96 0;
#X connect 96 0 97 0;
#X obj 1434 350 r \$0-reverb-designer/FEEDBACK-DELAY-NETWORK-FDN-REVERBERATOR-ORDER-16/Band-Decay-Times-T60/3;
#X msg 1434 370 /reverb-designer/FEEDBACK-DELAY-NETWORK-FDN-REVERBERATOR-ORDER-16/Band-Decay-Times-T60/3 \$1;
#X connect 98 0 99 0;
#X connect 99 0 45 0;
#X obj 2418 350 route /reverb-designer/FEEDBACK-DELAY-NETWORK-FDN-REVERBERATOR-ORDER-16/Band-Decay-Times-T60/3;
#X obj 2418 370 s \$0-reverb-designer/FEEDBACK-DELAY-NETWORK-FDN-REVERBERATOR-ORDER-16/Band-Decay-Times-T60/3;
#X connect 94 1 100 0;
#X connect 100 0 101 0;
#X msg 450 390 2.7;
#X obj 450 410 s \$0-reverb-designer/FEEDBACK-DELAY-NETWORK-FDN-REVERBERATOR-ORDER-16/Band-Decay-Times-T60/4;
#X connect 44 0 102 0;
#X connect 102 0 103 0;
#X obj 1434 390 r \$0-reverb-designer/FEEDBACK-DELAY-NETWORK-FDN-REVERBERATOR-ORDER-16/Band-Decay-Times-T60/4;
#X msg 1434 410 /reverb-designer/FEEDBACK-DELAY-NETWORK-FDN-REVERBERATOR-ORDER-16/Band-Decay-Times-T60/4 \$1;
#X connect 104 0 105 0;
#X connect 105 0 45 0;
#X obj 2418 390 route /reverb-designer/FEEDBACK-DELAY-NETWORK-FDN-REVERBERATOR-ORDER-16/Band-Decay-Times-T60/4;
#X obj 2418 410 s \$0-reverb-designer/FEEDBACK-DELAY-NETWORK-FDN-REVERBERATOR-ORDER-16/Band-Decay-Times-T60/4;
#X connect 100 1 106 0;
#X connect 106 0 107 0;
#X msg 450 430 46;
#X obj 450 450 s \$0-reverb-designer/FEEDBACK-DELAY-NETWORK-FDN-REVERBERATOR-ORDER-16/Room-Dimensions/min-acoustic-ray-length;
#X connect 44 0 108 0;
#X connect 108 0 109 0;
#X obj 1434 430 r \$0-reverb-designer/FEEDBACK-DELAY-NETWORK-FDN-REVERBERATOR-ORDER-16/Room-Dimensions/min-acoustic-ray-length;
#X msg 1434 450 /reverb-designer/FEEDBACK-DELAY-NETWORK-FDN-REVERBERATOR-ORDER-16/Room-Dimensions/min-acoustic-ray-length \$1;
#X connect 110 0 111 0;
#X connect 111 0 45 0;
#X obj 2418 430 route /reverb-designer/FEEDBACK-DELAY-NETWORK-FDN-REVERBERATOR-ORDER-16/Room-Dimensions/min-acoustic-ray-length;
#X obj 2418 450 s \$0-reverb-designer/FEEDBACK-DELAY-NETWORK-FDN-REVERBERATOR-ORDER-16/Room-Dimensions/min-acoustic-ray-length;
#X connect 106 1 112 0;
#X connect 112 0 113 0;
#X msg 450 470 63;
#X obj 450 490 s \$0-reverb-designer/FEEDBACK-DELAY-NETWORK-FDN-REVERBERATOR-ORDER-16/Room-Dimensions/max-acoustic-ray-length;
#X connect 44 0 114 0;
#X connect 114 0 115 0;
#X obj 1434 470 r \$0-reverb-designer/FEEDBACK-DELAY-NETWORK-FDN-REVERBERATOR-ORDER-16/Room-Dimensions/max-acoustic-ray-length;
#X msg 1434 490 /reverb-designer/FEEDBACK-DELAY-NETWORK-FDN-REVERBERATOR-ORDER-16/Room-Dimensions/max-acoustic-ray-length \$1;
#X connect 116 0 117 0;
#X connect 117 0 45 0;
#X obj 2418 470 route /reverb-designer/FEEDBACK-DELAY-NETWORK-FDN-REVERBERATOR-ORDER-16/Room-Dimensions/max-acoustic-ray-length;
#X obj 2418 490 s \$0-reverb-designer/FEEDBACK-DELAY-NETWORK-FDN-REVERBERATOR-ORDER-16/Room-Dimensions/max-acoustic-ray-length;
#X connect 112 1 118 0;
#X connect 118 0 119 0;
#X msg 450 510 0;
#X obj 450 530 s \$0-reverb-designer/FEEDBACK-DELAY-NETWORK-FDN-REVERBERATOR-ORDER-16/Input-Controls/Input-Config/Mute-Ext-Inputs;
#X connect 44 0 120 0;
#X connect 120 0 121 0;
#X obj 1434 510 r \$0-reverb-designer/FEEDBACK-DELAY-NETWORK-FDN-REVERBERATOR-ORDER-16/Input-Controls/Input-Config/Mute-Ext-Inputs;
#X msg 1434 530 /reverb-designer/FEEDBACK-DELAY-NETWORK-FDN-REVERBERATOR-ORDER-16/Input-Controls/Input-Config/Mute-Ext-Inputs \$1;
#X connect 122 0 123 0;
#X connect 123 0 45 0;
#X obj 2418 510 route /reverb-designer/FEEDBACK-DELAY-NETWORK-FDN-REVERBERATOR-ORDER-16/Input-Controls/Input-Config/Mute-Ext-Inputs;
#X obj 2418 530 s \$0-reverb-designer/FEEDBACK-DELAY-NETWORK-FDN-REVERBERATOR-ORDER-16/Input-Controls/Input-Config/Mute-Ext-Inputs;
#X connect 118 1 124 0;
#X connect 124 0 125 0;
#X msg 450 550 0;
#X obj 450 570 s \$0-reverb-designer/FEEDBACK-DELAY-NETWORK-FDN-REVERBERATOR-ORDER-16/Input-Controls/Input-Config/Pink-Noise;
#X connect 44 0 126 0;
#X connect 126 0 127 0;
#X obj 1434 550 r \$0-reverb-designer/FEEDBACK-DELAY-NETWORK-FDN-REVERBERATOR-ORDER-16/Input-Controls/Input-Config/Pink-Noise;
#X msg 1434 570 /reverb-designer/FEEDBACK-DELAY-NETWORK-FDN-REVERBERATOR-ORDER-16/Input-Controls/Input-Config/Pink-Noise \$1;
#X connect 128 0 129 0;
#X connect 129 0 45 0;
#X obj 2418 550 route /reverb-designer/FEEDBACK-DELAY-NETWORK-FDN-REVERBERATOR-ORDER-16/Input-Controls/Input-Config/Pink-Noise;
#X obj 2418 570 s \$0-reverb-designer/FEEDBACK-DELAY-NETWORK-FDN-REVERBERATOR-ORDER-16/Input-Controls/Input-Config/Pink-Noise;
#X connect 124 1 130 0;
#X connect 130 0 131 0;
#X msg 450 590 0;
#X obj 450 610 faust-s \$0-reverb-designer/FEEDBACK-DELAY-NETWORK-FDN-REVERBERATOR-ORDER-16/Input-Controls/Impulse-Selection/Left;
#X connect 44 0 132 0;
#X connect 132 0 133 0;
#X obj 1434 590 r \$0-reverb-designer/FEEDBACK-DELAY-NETWORK-FDN-REVERBERATOR-ORDER-16/Input-Controls/Impulse-Selection/Left;
#X obj 1434 610 faust-r /reverb-designer/FEEDBACK-DELAY-NETWORK-FDN-REVERBERATOR-ORDER-16/Input-Controls/Impulse-Selection/Left;
#X connect 134 0 135 0;
#X connect 135 0 45 0;
#X obj 2418 590 route /reverb-designer/FEEDBACK-DELAY-NETWORK-FDN-REVERBERATOR-ORDER-16/Input-Controls/Impulse-Selection/Left;
#X obj 2418 610 faust-s \$0-reverb-designer/FEEDBACK-DELAY-NETWORK-FDN-REVERBERATOR-ORDER-16/Input-Controls/Impulse-Selection/Left;
#X connect 130 1 136 0;
#X connect 136 0 137 0;
#X msg 450 630 0;
#X obj 450 650 faust-s \$0-reverb-designer/FEEDBACK-DELAY-NETWORK-FDN-REVERBERATOR-ORDER-16/Input-Controls/Impulse-Selection/Center;
#X connect 44 0 138 0;
#X connect 138 0 139 0;
#X obj 1434 630 r \$0-reverb-designer/FEEDBACK-DELAY-NETWORK-FDN-REVERBERATOR-ORDER-16/Input-Controls/Impulse-Selection/Center;
#X obj 1434 650 faust-r /reverb-designer/FEEDBACK-DELAY-NETWORK-FDN-REVERBERATOR-ORDER-16/Input-Controls/Impulse-Selection/Center;
#X connect 140 0 141 0;
#X connect 141 0 45 0;
#X obj 2418 630 route /reverb-designer/FEEDBACK-DELAY-NETWORK-FDN-REVERBERATOR-ORDER-16/Input-Controls/Impulse-Selection/Center;
#X obj 2418 650 faust-s \$0-reverb-designer/FEEDBACK-DELAY-NETWORK-FDN-REVERBERATOR-ORDER-16/Input-Controls/Impulse-Selection/Center;
#X connect 136 1 142 0;
#X connect 142 0 143 0;
#X msg 450 670 0;
#X obj 450 690 faust-s \$0-reverb-designer/FEEDBACK-DELAY-NETWORK-FDN-REVERBERATOR-ORDER-16/Input-Controls/Impulse-Selection/Right;
#X connect 44 0 144 0;
#X connect 144 0 145 0;
#X obj 1434 670 r \$0-reverb-designer/FEEDBACK-DELAY-NETWORK-FDN-REVERBERATOR-ORDER-16/Input-Controls/Impulse-Selection/Right;
#X obj 1434 690 faust-r /reverb-designer/FEEDBACK-DELAY-NETWORK-FDN-REVERBERATOR-ORDER-16/Input-Controls/Impulse-Selection/Right;
#X connect 146 0 147 0;
#X connect 147 0 45 0;
#X obj 2418 670 route /reverb-designer/FEEDBACK-DELAY-NETWORK-FDN-REVERBERATOR-ORDER-16/Input-Controls/Impulse-Selection/Right;
#X obj 2418 690 faust-s \$0-reverb-designer/FEEDBACK-DELAY-NETWORK-FDN-REVERBERATOR-ORDER-16/Input-Controls/Impulse-Selection/Right;
#X connect 142 1 148 0;
#X connect 148 0 149 0;
#X msg 450 710 0;
#X obj 450 730 faust-s \$0-reverb-designer/FEEDBACK-DELAY-NETWORK-FDN-REVERBERATOR-ORDER-16/Input-Controls/Reverb-State/Quench;
#X connect 44 0 150 0;
#X connect 150 0 151 0;
#X obj 1434 710 r \$0-reverb-designer/FEEDBACK-DELAY-NETWORK-FDN-REVERBERATOR-ORDER-16/Input-Controls/Reverb-State/Quench;
#X obj 1434 730 faust-r /reverb-designer/FEEDBACK-DELAY-NETWORK-FDN-REVERBERATOR-ORDER-16/Input-Controls/Reverb-State/Quench;
#X connect 152 0 153 0;
#X connect 153 0 45 0;
#X obj 2418 710 route /reverb-designer/FEEDBACK-DELAY-NETWORK-FDN-REVERBERATOR-ORDER-16/Input-Controls/Reverb-State/Quench;
#X obj 2418 730 faust-s \$0-reverb-designer/FEEDBACK-DELAY-NETWORK-FDN-REVERBERATOR-ORDER-16/Input-Controls/Reverb-State/Quench;
#X connect 148 1 154 0;
#X connect 154 0 155 0;
#X msg 450 750 -40;
#X obj 450 770 s \$0-reverb-designer/Output-Level-dB;
#X connect 44 0 156 0;
#X connect 156 0 157 0;
#X obj 1434 750 r \$0-reverb-designer/Output-Level-dB;
#X msg 1434 770 /reverb-designer/Output-Level-dB \$1;
#X connect 158 0 159 0;
#X connect 159 0 45 0;
#X obj 2418 750 route /reverb-designer/Output-Level-dB;
#X obj 2418 770 s \$0-reverb-designer/Output-Level-dB;
#X connect 154 1 160 0;
#X connect 160 0 161 0;
#X coords 0 -1 1 1 385 470 1 0 0;
#X text 0 490 Generated Sun Aug  4 09:11:51 2013 by faust2pd v2.5. See http://faust.grame.fr and http://pure-lang.googlecode.com.;
