#N canvas 0 0 450 300 10;
#X obj 70 300 inlet~;
#X obj 10 300 inlet;
#X obj 130 300 r \$0-read;
#X obj 130 330 faust-control \$0;
#X obj 130 360 s \$0-write;
#X obj 10 360 r \$0-in;
#X obj 10 390 spectral_level~;
#X obj 10 420 s \$0-out;
#X obj 70 450 outlet~;
#X obj 130 450 outlet~;
#X obj 10 450 outlet;
#X connect 1 0 3 0;
#X connect 2 0 3 0;
#X connect 3 0 4 0;
#X connect 6 0 7 0;
#X connect 1 0 10 0;
#X connect 5 0 6 0;
#X connect 0 0 6 1;
#X connect 6 1 8 0;
#X connect 6 2 9 0;
#X obj 10 30 vsl 15 128 -50 10 0 0 \$0-spectral-level/CONSTANT-Q-SPECTRUM-ANALYZER-6E \$0-spectral-level/CONSTANT-Q-SPECTRUM-ANALYZER-6E empty 0 -8 0 10 -233017 -1 -1 0 1;
#X obj 10 170 nbx 5 14 -50 10 0 0 \$0-spectral-level/CONSTANT-Q-SPECTRUM-ANALYZER-6E \$0-spectral-level/CONSTANT-Q-SPECTRUM-ANALYZER-6E empty 0 -6 0 10 -233017 -1 -1 256;
#X obj 85 30 vsl 15 128 -50 10 0 0 \$0-spectral-level/CONSTANT-Q-SPECTRUM-ANALYZER-6E \$0-spectral-level/CONSTANT-Q-SPECTRUM-ANALYZER-6E empty 0 -8 0 10 -233017 -1 -1 0 1;
#X obj 85 170 nbx 5 14 -50 10 0 0 \$0-spectral-level/CONSTANT-Q-SPECTRUM-ANALYZER-6E \$0-spectral-level/CONSTANT-Q-SPECTRUM-ANALYZER-6E empty 0 -6 0 10 -233017 -1 -1 256;
#X obj 160 30 vsl 15 128 -50 10 0 0 \$0-spectral-level/CONSTANT-Q-SPECTRUM-ANALYZER-6E \$0-spectral-level/CONSTANT-Q-SPECTRUM-ANALYZER-6E empty 0 -8 0 10 -233017 -1 -1 0 1;
#X obj 160 170 nbx 5 14 -50 10 0 0 \$0-spectral-level/CONSTANT-Q-SPECTRUM-ANALYZER-6E \$0-spectral-level/CONSTANT-Q-SPECTRUM-ANALYZER-6E empty 0 -6 0 10 -233017 -1 -1 256;
#X obj 235 30 vsl 15 128 -50 10 0 0 \$0-spectral-level/CONSTANT-Q-SPECTRUM-ANALYZER-6E \$0-spectral-level/CONSTANT-Q-SPECTRUM-ANALYZER-6E empty 0 -8 0 10 -233017 -1 -1 0 1;
#X obj 235 170 nbx 5 14 -50 10 0 0 \$0-spectral-level/CONSTANT-Q-SPECTRUM-ANALYZER-6E \$0-spectral-level/CONSTANT-Q-SPECTRUM-ANALYZER-6E empty 0 -6 0 10 -233017 -1 -1 256;
#X obj 310 30 vsl 15 128 -50 10 0 0 \$0-spectral-level/CONSTANT-Q-SPECTRUM-ANALYZER-6E \$0-spectral-level/CONSTANT-Q-SPECTRUM-ANALYZER-6E empty 0 -8 0 10 -233017 -1 -1 0 1;
#X obj 310 170 nbx 5 14 -50 10 0 0 \$0-spectral-level/CONSTANT-Q-SPECTRUM-ANALYZER-6E \$0-spectral-level/CONSTANT-Q-SPECTRUM-ANALYZER-6E empty 0 -6 0 10 -233017 -1 -1 256;
#X obj 385 30 vsl 15 128 -50 10 0 0 \$0-spectral-level/CONSTANT-Q-SPECTRUM-ANALYZER-6E \$0-spectral-level/CONSTANT-Q-SPECTRUM-ANALYZER-6E empty 0 -8 0 10 -233017 -1 -1 0 1;
#X obj 385 170 nbx 5 14 -50 10 0 0 \$0-spectral-level/CONSTANT-Q-SPECTRUM-ANALYZER-6E \$0-spectral-level/CONSTANT-Q-SPECTRUM-ANALYZER-6E empty 0 -6 0 10 -233017 -1 -1 256;
#X obj 460 30 vsl 15 128 -50 10 0 0 \$0-spectral-level/CONSTANT-Q-SPECTRUM-ANALYZER-6E \$0-spectral-level/CONSTANT-Q-SPECTRUM-ANALYZER-6E empty 0 -8 0 10 -233017 -1 -1 0 1;
#X obj 460 170 nbx 5 14 -50 10 0 0 \$0-spectral-level/CONSTANT-Q-SPECTRUM-ANALYZER-6E \$0-spectral-level/CONSTANT-Q-SPECTRUM-ANALYZER-6E empty 0 -6 0 10 -233017 -1 -1 256;
#X obj 535 30 vsl 15 128 -50 10 0 0 \$0-spectral-level/CONSTANT-Q-SPECTRUM-ANALYZER-6E \$0-spectral-level/CONSTANT-Q-SPECTRUM-ANALYZER-6E empty 0 -8 0 10 -233017 -1 -1 0 1;
#X obj 535 170 nbx 5 14 -50 10 0 0 \$0-spectral-level/CONSTANT-Q-SPECTRUM-ANALYZER-6E \$0-spectral-level/CONSTANT-Q-SPECTRUM-ANALYZER-6E empty 0 -6 0 10 -233017 -1 -1 256;
#X obj 610 30 vsl 15 128 -50 10 0 0 \$0-spectral-level/CONSTANT-Q-SPECTRUM-ANALYZER-6E \$0-spectral-level/CONSTANT-Q-SPECTRUM-ANALYZER-6E empty 0 -8 0 10 -233017 -1 -1 0 1;
#X obj 610 170 nbx 5 14 -50 10 0 0 \$0-spectral-level/CONSTANT-Q-SPECTRUM-ANALYZER-6E \$0-spectral-level/CONSTANT-Q-SPECTRUM-ANALYZER-6E empty 0 -6 0 10 -233017 -1 -1 256;
#X obj 685 30 vsl 15 128 -50 10 0 0 \$0-spectral-level/CONSTANT-Q-SPECTRUM-ANALYZER-6E \$0-spectral-level/CONSTANT-Q-SPECTRUM-ANALYZER-6E empty 0 -8 0 10 -233017 -1 -1 0 1;
#X obj 685 170 nbx 5 14 -50 10 0 0 \$0-spectral-level/CONSTANT-Q-SPECTRUM-ANALYZER-6E \$0-spectral-level/CONSTANT-Q-SPECTRUM-ANALYZER-6E empty 0 -6 0 10 -233017 -1 -1 256;
#X obj 760 30 vsl 15 128 -50 10 0 0 \$0-spectral-level/CONSTANT-Q-SPECTRUM-ANALYZER-6E \$0-spectral-level/CONSTANT-Q-SPECTRUM-ANALYZER-6E empty 0 -8 0 10 -233017 -1 -1 0 1;
#X obj 760 170 nbx 5 14 -50 10 0 0 \$0-spectral-level/CONSTANT-Q-SPECTRUM-ANALYZER-6E \$0-spectral-level/CONSTANT-Q-SPECTRUM-ANALYZER-6E empty 0 -6 0 10 -233017 -1 -1 256;
#X obj 835 30 vsl 15 128 -50 10 0 0 \$0-spectral-level/CONSTANT-Q-SPECTRUM-ANALYZER-6E \$0-spectral-level/CONSTANT-Q-SPECTRUM-ANALYZER-6E empty 0 -8 0 10 -233017 -1 -1 0 1;
#X obj 835 170 nbx 5 14 -50 10 0 0 \$0-spectral-level/CONSTANT-Q-SPECTRUM-ANALYZER-6E \$0-spectral-level/CONSTANT-Q-SPECTRUM-ANALYZER-6E empty 0 -6 0 10 -233017 -1 -1 256;
#X obj 910 30 vsl 15 128 -50 10 0 0 \$0-spectral-level/CONSTANT-Q-SPECTRUM-ANALYZER-6E \$0-spectral-level/CONSTANT-Q-SPECTRUM-ANALYZER-6E empty 0 -8 0 10 -233017 -1 -1 0 1;
#X obj 910 170 nbx 5 14 -50 10 0 0 \$0-spectral-level/CONSTANT-Q-SPECTRUM-ANALYZER-6E \$0-spectral-level/CONSTANT-Q-SPECTRUM-ANALYZER-6E empty 0 -6 0 10 -233017 -1 -1 256;
#X obj 985 30 vsl 15 128 -50 10 0 0 \$0-spectral-level/CONSTANT-Q-SPECTRUM-ANALYZER-6E \$0-spectral-level/CONSTANT-Q-SPECTRUM-ANALYZER-6E empty 0 -8 0 10 -233017 -1 -1 0 1;
#X obj 985 170 nbx 5 14 -50 10 0 0 \$0-spectral-level/CONSTANT-Q-SPECTRUM-ANALYZER-6E \$0-spectral-level/CONSTANT-Q-SPECTRUM-ANALYZER-6E empty 0 -6 0 10 -233017 -1 -1 256;
#X obj 1060 30 vsl 15 128 -50 10 0 0 \$0-spectral-level/CONSTANT-Q-SPECTRUM-ANALYZER-6E \$0-spectral-level/CONSTANT-Q-SPECTRUM-ANALYZER-6E empty 0 -8 0 10 -233017 -1 -1 0 1;
#X obj 1060 170 nbx 5 14 -50 10 0 0 \$0-spectral-level/CONSTANT-Q-SPECTRUM-ANALYZER-6E \$0-spectral-level/CONSTANT-Q-SPECTRUM-ANALYZER-6E empty 0 -6 0 10 -233017 -1 -1 256;
#X obj 1135 30 vsl 15 128 -50 10 0 0 \$0-spectral-level/CONSTANT-Q-SPECTRUM-ANALYZER-6E \$0-spectral-level/CONSTANT-Q-SPECTRUM-ANALYZER-6E empty 0 -8 0 10 -233017 -1 -1 0 1;
#X obj 1135 170 nbx 5 14 -50 10 0 0 \$0-spectral-level/CONSTANT-Q-SPECTRUM-ANALYZER-6E \$0-spectral-level/CONSTANT-Q-SPECTRUM-ANALYZER-6E empty 0 -6 0 10 -233017 -1 -1 256;
#X obj 1210 30 vsl 15 128 -50 10 0 0 \$0-spectral-level/CONSTANT-Q-SPECTRUM-ANALYZER-6E \$0-spectral-level/CONSTANT-Q-SPECTRUM-ANALYZER-6E empty 0 -8 0 10 -233017 -1 -1 0 1;
#X obj 1210 170 nbx 5 14 -50 10 0 0 \$0-spectral-level/CONSTANT-Q-SPECTRUM-ANALYZER-6E \$0-spectral-level/CONSTANT-Q-SPECTRUM-ANALYZER-6E empty 0 -6 0 10 -233017 -1 -1 256;
#X obj 1285 30 vsl 15 128 -50 10 0 0 \$0-spectral-level/CONSTANT-Q-SPECTRUM-ANALYZER-6E \$0-spectral-level/CONSTANT-Q-SPECTRUM-ANALYZER-6E empty 0 -8 0 10 -233017 -1 -1 0 1;
#X obj 1285 170 nbx 5 14 -50 10 0 0 \$0-spectral-level/CONSTANT-Q-SPECTRUM-ANALYZER-6E \$0-spectral-level/CONSTANT-Q-SPECTRUM-ANALYZER-6E empty 0 -6 0 10 -233017 -1 -1 256;
#X obj 1360 30 vsl 15 128 -50 10 0 0 \$0-spectral-level/CONSTANT-Q-SPECTRUM-ANALYZER-6E \$0-spectral-level/CONSTANT-Q-SPECTRUM-ANALYZER-6E empty 0 -8 0 10 -233017 -1 -1 0 1;
#X obj 1360 170 nbx 5 14 -50 10 0 0 \$0-spectral-level/CONSTANT-Q-SPECTRUM-ANALYZER-6E \$0-spectral-level/CONSTANT-Q-SPECTRUM-ANALYZER-6E empty 0 -6 0 10 -233017 -1 -1 256;
#X obj 1435 30 vsl 15 128 -50 10 0 0 \$0-spectral-level/CONSTANT-Q-SPECTRUM-ANALYZER-6E \$0-spectral-level/CONSTANT-Q-SPECTRUM-ANALYZER-6E empty 0 -8 0 10 -233017 -1 -1 0 1;
#X obj 1435 170 nbx 5 14 -50 10 0 0 \$0-spectral-level/CONSTANT-Q-SPECTRUM-ANALYZER-6E \$0-spectral-level/CONSTANT-Q-SPECTRUM-ANALYZER-6E empty 0 -6 0 10 -233017 -1 -1 256;
#X obj 1510 30 vsl 15 128 -50 10 0 0 \$0-spectral-level/CONSTANT-Q-SPECTRUM-ANALYZER-6E \$0-spectral-level/CONSTANT-Q-SPECTRUM-ANALYZER-6E empty 0 -8 0 10 -233017 -1 -1 0 1;
#X obj 1510 170 nbx 5 14 -50 10 0 0 \$0-spectral-level/CONSTANT-Q-SPECTRUM-ANALYZER-6E \$0-spectral-level/CONSTANT-Q-SPECTRUM-ANALYZER-6E empty 0 -6 0 10 -233017 -1 -1 256;
#X obj 1585 30 vsl 15 128 -50 10 0 0 \$0-spectral-level/CONSTANT-Q-SPECTRUM-ANALYZER-6E \$0-spectral-level/CONSTANT-Q-SPECTRUM-ANALYZER-6E empty 0 -8 0 10 -233017 -1 -1 0 1;
#X obj 1585 170 nbx 5 14 -50 10 0 0 \$0-spectral-level/CONSTANT-Q-SPECTRUM-ANALYZER-6E \$0-spectral-level/CONSTANT-Q-SPECTRUM-ANALYZER-6E empty 0 -6 0 10 -233017 -1 -1 256;
#X obj 1660 30 vsl 15 128 -50 10 0 0 \$0-spectral-level/CONSTANT-Q-SPECTRUM-ANALYZER-6E \$0-spectral-level/CONSTANT-Q-SPECTRUM-ANALYZER-6E empty 0 -8 0 10 -233017 -1 -1 0 1;
#X obj 1660 170 nbx 5 14 -50 10 0 0 \$0-spectral-level/CONSTANT-Q-SPECTRUM-ANALYZER-6E \$0-spectral-level/CONSTANT-Q-SPECTRUM-ANALYZER-6E empty 0 -6 0 10 -233017 -1 -1 256;
#X obj 1735 30 vsl 15 128 -50 10 0 0 \$0-spectral-level/CONSTANT-Q-SPECTRUM-ANALYZER-6E \$0-spectral-level/CONSTANT-Q-SPECTRUM-ANALYZER-6E empty 0 -8 0 10 -233017 -1 -1 0 1;
#X obj 1735 170 nbx 5 14 -50 10 0 0 \$0-spectral-level/CONSTANT-Q-SPECTRUM-ANALYZER-6E \$0-spectral-level/CONSTANT-Q-SPECTRUM-ANALYZER-6E empty 0 -6 0 10 -233017 -1 -1 256;
#X obj 1810 30 vsl 15 128 -50 10 0 0 \$0-spectral-level/CONSTANT-Q-SPECTRUM-ANALYZER-6E \$0-spectral-level/CONSTANT-Q-SPECTRUM-ANALYZER-6E empty 0 -8 0 10 -233017 -1 -1 0 1;
#X obj 1810 170 nbx 5 14 -50 10 0 0 \$0-spectral-level/CONSTANT-Q-SPECTRUM-ANALYZER-6E \$0-spectral-level/CONSTANT-Q-SPECTRUM-ANALYZER-6E empty 0 -6 0 10 -233017 -1 -1 256;
#X obj 1885 30 vsl 15 128 -50 10 0 0 \$0-spectral-level/CONSTANT-Q-SPECTRUM-ANALYZER-6E \$0-spectral-level/CONSTANT-Q-SPECTRUM-ANALYZER-6E empty 0 -8 0 10 -233017 -1 -1 0 1;
#X obj 1885 170 nbx 5 14 -50 10 0 0 \$0-spectral-level/CONSTANT-Q-SPECTRUM-ANALYZER-6E \$0-spectral-level/CONSTANT-Q-SPECTRUM-ANALYZER-6E empty 0 -6 0 10 -233017 -1 -1 256;
#X obj 1960 30 vsl 15 128 -50 10 0 0 \$0-spectral-level/CONSTANT-Q-SPECTRUM-ANALYZER-6E \$0-spectral-level/CONSTANT-Q-SPECTRUM-ANALYZER-6E empty 0 -8 0 10 -233017 -1 -1 0 1;
#X obj 1960 170 nbx 5 14 -50 10 0 0 \$0-spectral-level/CONSTANT-Q-SPECTRUM-ANALYZER-6E \$0-spectral-level/CONSTANT-Q-SPECTRUM-ANALYZER-6E empty 0 -6 0 10 -233017 -1 -1 256;
#X obj 2035 30 vsl 15 128 -50 10 0 0 \$0-spectral-level/CONSTANT-Q-SPECTRUM-ANALYZER-6E \$0-spectral-level/CONSTANT-Q-SPECTRUM-ANALYZER-6E empty 0 -8 0 10 -233017 -1 -1 0 1;
#X obj 2035 170 nbx 5 14 -50 10 0 0 \$0-spectral-level/CONSTANT-Q-SPECTRUM-ANALYZER-6E \$0-spectral-level/CONSTANT-Q-SPECTRUM-ANALYZER-6E empty 0 -6 0 10 -233017 -1 -1 256;
#X obj 2110 30 vsl 15 128 -50 10 0 0 \$0-spectral-level/CONSTANT-Q-SPECTRUM-ANALYZER-6E \$0-spectral-level/CONSTANT-Q-SPECTRUM-ANALYZER-6E empty 0 -8 0 10 -233017 -1 -1 0 1;
#X obj 2110 170 nbx 5 14 -50 10 0 0 \$0-spectral-level/CONSTANT-Q-SPECTRUM-ANALYZER-6E \$0-spectral-level/CONSTANT-Q-SPECTRUM-ANALYZER-6E empty 0 -6 0 10 -233017 -1 -1 256;
#X obj 2185 30 vsl 15 128 -50 10 0 0 \$0-spectral-level/CONSTANT-Q-SPECTRUM-ANALYZER-6E \$0-spectral-level/CONSTANT-Q-SPECTRUM-ANALYZER-6E empty 0 -8 0 10 -233017 -1 -1 0 1;
#X obj 2185 170 nbx 5 14 -50 10 0 0 \$0-spectral-level/CONSTANT-Q-SPECTRUM-ANALYZER-6E \$0-spectral-level/CONSTANT-Q-SPECTRUM-ANALYZER-6E empty 0 -6 0 10 -233017 -1 -1 256;
#X obj 10 210 hsl 128 15 0 1 0 0 \$0-spectral-level/SPECTRUM-ANALYZER-CONTROLS/Level-Averaging-Time \$0-spectral-level/SPECTRUM-ANALYZER-CONTROLS/Level-Averaging-Time Level-Averaging-Time -2 -6 0 10 -262144 -1 -1 0 1;
#X obj 160 210 nbx 5 14 0 1 0 0 \$0-spectral-level/SPECTRUM-ANALYZER-CONTROLS/Level-Averaging-Time \$0-spectral-level/SPECTRUM-ANALYZER-CONTROLS/Level-Averaging-Time empty 0 -6 0 10 -262144 -1 -1 256;
#X obj 235 210 hsl 128 15 0 100 0 0 \$0-spectral-level/SPECTRUM-ANALYZER-CONTROLS/Level-dB-Offset \$0-spectral-level/SPECTRUM-ANALYZER-CONTROLS/Level-dB-Offset Level-dB-Offset -2 -6 0 10 -262144 -1 -1 0 1;
#X obj 385 210 nbx 5 14 0 100 0 0 \$0-spectral-level/SPECTRUM-ANALYZER-CONTROLS/Level-dB-Offset \$0-spectral-level/SPECTRUM-ANALYZER-CONTROLS/Level-dB-Offset empty 0 -6 0 10 -262144 -1 -1 256;
#X obj 2222 3 bng 15 250 50 1 \$0-init \$0-ignore empty 0 -6 0 10 -262144 -1 -1;
#X obj 2242 3 tgl 15 1 \$0-active \$0-active empty 0 -6 0 10 -262144 -1 -1 1 1;
#X obj 2290 10 r \$0-init;
#X obj 2850 10 s \$0-in;
#X obj 3130 10 s \$0-read;
#X obj 3410 10 r \$0-write;
#X msg 2290 30 1;
#X obj 2290 50 s \$0-active;
#X connect 81 0 82 0;
#X obj 2850 30 r \$0-active;
#X msg 2850 50 active \$1;
#X connect 83 0 84 0;
#X connect 84 0 78 0;
#X obj 3410 30 route active;
#X obj 3410 50 s \$0-active;
#X connect 80 0 85 0;
#X connect 85 0 86 0;
#X msg 2290 70 0;
#X obj 2290 90 s \$0-spectral-level/CONSTANT-Q-SPECTRUM-ANALYZER-6E;
#X connect 77 0 87 0;
#X connect 87 0 88 0;
#X obj 2850 70 faust-timer \$0;
#X msg 2850 90 /spectral-level/CONSTANT-Q-SPECTRUM-ANALYZER-6E;
#X connect 89 0 90 0;
#X connect 90 0 79 0;
#X obj 3410 70 route /spectral-level/CONSTANT-Q-SPECTRUM-ANALYZER-6E;
#X obj 3410 90 s \$0-spectral-level/CONSTANT-Q-SPECTRUM-ANALYZER-6E;
#X connect 85 1 91 0;
#X connect 91 0 92 0;
#X msg 2290 110 0;
#X obj 2290 130 s \$0-spectral-level/CONSTANT-Q-SPECTRUM-ANALYZER-6E;
#X connect 77 0 93 0;
#X connect 93 0 94 0;
#X obj 2850 110 faust-timer \$0;
#X msg 2850 130 /spectral-level/CONSTANT-Q-SPECTRUM-ANALYZER-6E;
#X connect 95 0 96 0;
#X connect 96 0 79 0;
#X obj 3410 110 route /spectral-level/CONSTANT-Q-SPECTRUM-ANALYZER-6E;
#X obj 3410 130 s \$0-spectral-level/CONSTANT-Q-SPECTRUM-ANALYZER-6E;
#X connect 91 1 97 0;
#X connect 97 0 98 0;
#X msg 2290 150 0;
#X obj 2290 170 s \$0-spectral-level/CONSTANT-Q-SPECTRUM-ANALYZER-6E;
#X connect 77 0 99 0;
#X connect 99 0 100 0;
#X obj 2850 150 faust-timer \$0;
#X msg 2850 170 /spectral-level/CONSTANT-Q-SPECTRUM-ANALYZER-6E;
#X connect 101 0 102 0;
#X connect 102 0 79 0;
#X obj 3410 150 route /spectral-level/CONSTANT-Q-SPECTRUM-ANALYZER-6E;
#X obj 3410 170 s \$0-spectral-level/CONSTANT-Q-SPECTRUM-ANALYZER-6E;
#X connect 97 1 103 0;
#X connect 103 0 104 0;
#X msg 2290 190 0;
#X obj 2290 210 s \$0-spectral-level/CONSTANT-Q-SPECTRUM-ANALYZER-6E;
#X connect 77 0 105 0;
#X connect 105 0 106 0;
#X obj 2850 190 faust-timer \$0;
#X msg 2850 210 /spectral-level/CONSTANT-Q-SPECTRUM-ANALYZER-6E;
#X connect 107 0 108 0;
#X connect 108 0 79 0;
#X obj 3410 190 route /spectral-level/CONSTANT-Q-SPECTRUM-ANALYZER-6E;
#X obj 3410 210 s \$0-spectral-level/CONSTANT-Q-SPECTRUM-ANALYZER-6E;
#X connect 103 1 109 0;
#X connect 109 0 110 0;
#X msg 2290 230 0;
#X obj 2290 250 s \$0-spectral-level/CONSTANT-Q-SPECTRUM-ANALYZER-6E;
#X connect 77 0 111 0;
#X connect 111 0 112 0;
#X obj 2850 230 faust-timer \$0;
#X msg 2850 250 /spectral-level/CONSTANT-Q-SPECTRUM-ANALYZER-6E;
#X connect 113 0 114 0;
#X connect 114 0 79 0;
#X obj 3410 230 route /spectral-level/CONSTANT-Q-SPECTRUM-ANALYZER-6E;
#X obj 3410 250 s \$0-spectral-level/CONSTANT-Q-SPECTRUM-ANALYZER-6E;
#X connect 109 1 115 0;
#X connect 115 0 116 0;
#X msg 2290 270 0;
#X obj 2290 290 s \$0-spectral-level/CONSTANT-Q-SPECTRUM-ANALYZER-6E;
#X connect 77 0 117 0;
#X connect 117 0 118 0;
#X obj 2850 270 faust-timer \$0;
#X msg 2850 290 /spectral-level/CONSTANT-Q-SPECTRUM-ANALYZER-6E;
#X connect 119 0 120 0;
#X connect 120 0 79 0;
#X obj 3410 270 route /spectral-level/CONSTANT-Q-SPECTRUM-ANALYZER-6E;
#X obj 3410 290 s \$0-spectral-level/CONSTANT-Q-SPECTRUM-ANALYZER-6E;
#X connect 115 1 121 0;
#X connect 121 0 122 0;
#X msg 2290 310 0;
#X obj 2290 330 s \$0-spectral-level/CONSTANT-Q-SPECTRUM-ANALYZER-6E;
#X connect 77 0 123 0;
#X connect 123 0 124 0;
#X obj 2850 310 faust-timer \$0;
#X msg 2850 330 /spectral-level/CONSTANT-Q-SPECTRUM-ANALYZER-6E;
#X connect 125 0 126 0;
#X connect 126 0 79 0;
#X obj 3410 310 route /spectral-level/CONSTANT-Q-SPECTRUM-ANALYZER-6E;
#X obj 3410 330 s \$0-spectral-level/CONSTANT-Q-SPECTRUM-ANALYZER-6E;
#X connect 121 1 127 0;
#X connect 127 0 128 0;
#X msg 2290 350 0;
#X obj 2290 370 s \$0-spectral-level/CONSTANT-Q-SPECTRUM-ANALYZER-6E;
#X connect 77 0 129 0;
#X connect 129 0 130 0;
#X obj 2850 350 faust-timer \$0;
#X msg 2850 370 /spectral-level/CONSTANT-Q-SPECTRUM-ANALYZER-6E;
#X connect 131 0 132 0;
#X connect 132 0 79 0;
#X obj 3410 350 route /spectral-level/CONSTANT-Q-SPECTRUM-ANALYZER-6E;
#X obj 3410 370 s \$0-spectral-level/CONSTANT-Q-SPECTRUM-ANALYZER-6E;
#X connect 127 1 133 0;
#X connect 133 0 134 0;
#X msg 2290 390 0;
#X obj 2290 410 s \$0-spectral-level/CONSTANT-Q-SPECTRUM-ANALYZER-6E;
#X connect 77 0 135 0;
#X connect 135 0 136 0;
#X obj 2850 390 faust-timer \$0;
#X msg 2850 410 /spectral-level/CONSTANT-Q-SPECTRUM-ANALYZER-6E;
#X connect 137 0 138 0;
#X connect 138 0 79 0;
#X obj 3410 390 route /spectral-level/CONSTANT-Q-SPECTRUM-ANALYZER-6E;
#X obj 3410 410 s \$0-spectral-level/CONSTANT-Q-SPECTRUM-ANALYZER-6E;
#X connect 133 1 139 0;
#X connect 139 0 140 0;
#X msg 2290 430 0;
#X obj 2290 450 s \$0-spectral-level/CONSTANT-Q-SPECTRUM-ANALYZER-6E;
#X connect 77 0 141 0;
#X connect 141 0 142 0;
#X obj 2850 430 faust-timer \$0;
#X msg 2850 450 /spectral-level/CONSTANT-Q-SPECTRUM-ANALYZER-6E;
#X connect 143 0 144 0;
#X connect 144 0 79 0;
#X obj 3410 430 route /spectral-level/CONSTANT-Q-SPECTRUM-ANALYZER-6E;
#X obj 3410 450 s \$0-spectral-level/CONSTANT-Q-SPECTRUM-ANALYZER-6E;
#X connect 139 1 145 0;
#X connect 145 0 146 0;
#X msg 2290 470 0;
#X obj 2290 490 s \$0-spectral-level/CONSTANT-Q-SPECTRUM-ANALYZER-6E;
#X connect 77 0 147 0;
#X connect 147 0 148 0;
#X obj 2850 470 faust-timer \$0;
#X msg 2850 490 /spectral-level/CONSTANT-Q-SPECTRUM-ANALYZER-6E;
#X connect 149 0 150 0;
#X connect 150 0 79 0;
#X obj 3410 470 route /spectral-level/CONSTANT-Q-SPECTRUM-ANALYZER-6E;
#X obj 3410 490 s \$0-spectral-level/CONSTANT-Q-SPECTRUM-ANALYZER-6E;
#X connect 145 1 151 0;
#X connect 151 0 152 0;
#X msg 2290 510 0;
#X obj 2290 530 s \$0-spectral-level/CONSTANT-Q-SPECTRUM-ANALYZER-6E;
#X connect 77 0 153 0;
#X connect 153 0 154 0;
#X obj 2850 510 faust-timer \$0;
#X msg 2850 530 /spectral-level/CONSTANT-Q-SPECTRUM-ANALYZER-6E;
#X connect 155 0 156 0;
#X connect 156 0 79 0;
#X obj 3410 510 route /spectral-level/CONSTANT-Q-SPECTRUM-ANALYZER-6E;
#X obj 3410 530 s \$0-spectral-level/CONSTANT-Q-SPECTRUM-ANALYZER-6E;
#X connect 151 1 157 0;
#X connect 157 0 158 0;
#X msg 2290 550 0;
#X obj 2290 570 s \$0-spectral-level/CONSTANT-Q-SPECTRUM-ANALYZER-6E;
#X connect 77 0 159 0;
#X connect 159 0 160 0;
#X obj 2850 550 faust-timer \$0;
#X msg 2850 570 /spectral-level/CONSTANT-Q-SPECTRUM-ANALYZER-6E;
#X connect 161 0 162 0;
#X connect 162 0 79 0;
#X obj 3410 550 route /spectral-level/CONSTANT-Q-SPECTRUM-ANALYZER-6E;
#X obj 3410 570 s \$0-spectral-level/CONSTANT-Q-SPECTRUM-ANALYZER-6E;
#X connect 157 1 163 0;
#X connect 163 0 164 0;
#X msg 2290 590 0;
#X obj 2290 610 s \$0-spectral-level/CONSTANT-Q-SPECTRUM-ANALYZER-6E;
#X connect 77 0 165 0;
#X connect 165 0 166 0;
#X obj 2850 590 faust-timer \$0;
#X msg 2850 610 /spectral-level/CONSTANT-Q-SPECTRUM-ANALYZER-6E;
#X connect 167 0 168 0;
#X connect 168 0 79 0;
#X obj 3410 590 route /spectral-level/CONSTANT-Q-SPECTRUM-ANALYZER-6E;
#X obj 3410 610 s \$0-spectral-level/CONSTANT-Q-SPECTRUM-ANALYZER-6E;
#X connect 163 1 169 0;
#X connect 169 0 170 0;
#X msg 2290 630 0;
#X obj 2290 650 s \$0-spectral-level/CONSTANT-Q-SPECTRUM-ANALYZER-6E;
#X connect 77 0 171 0;
#X connect 171 0 172 0;
#X obj 2850 630 faust-timer \$0;
#X msg 2850 650 /spectral-level/CONSTANT-Q-SPECTRUM-ANALYZER-6E;
#X connect 173 0 174 0;
#X connect 174 0 79 0;
#X obj 3410 630 route /spectral-level/CONSTANT-Q-SPECTRUM-ANALYZER-6E;
#X obj 3410 650 s \$0-spectral-level/CONSTANT-Q-SPECTRUM-ANALYZER-6E;
#X connect 169 1 175 0;
#X connect 175 0 176 0;
#X msg 2290 670 0;
#X obj 2290 690 s \$0-spectral-level/CONSTANT-Q-SPECTRUM-ANALYZER-6E;
#X connect 77 0 177 0;
#X connect 177 0 178 0;
#X obj 2850 670 faust-timer \$0;
#X msg 2850 690 /spectral-level/CONSTANT-Q-SPECTRUM-ANALYZER-6E;
#X connect 179 0 180 0;
#X connect 180 0 79 0;
#X obj 3410 670 route /spectral-level/CONSTANT-Q-SPECTRUM-ANALYZER-6E;
#X obj 3410 690 s \$0-spectral-level/CONSTANT-Q-SPECTRUM-ANALYZER-6E;
#X connect 175 1 181 0;
#X connect 181 0 182 0;
#X msg 2290 710 0;
#X obj 2290 730 s \$0-spectral-level/CONSTANT-Q-SPECTRUM-ANALYZER-6E;
#X connect 77 0 183 0;
#X connect 183 0 184 0;
#X obj 2850 710 faust-timer \$0;
#X msg 2850 730 /spectral-level/CONSTANT-Q-SPECTRUM-ANALYZER-6E;
#X connect 185 0 186 0;
#X connect 186 0 79 0;
#X obj 3410 710 route /spectral-level/CONSTANT-Q-SPECTRUM-ANALYZER-6E;
#X obj 3410 730 s \$0-spectral-level/CONSTANT-Q-SPECTRUM-ANALYZER-6E;
#X connect 181 1 187 0;
#X connect 187 0 188 0;
#X msg 2290 750 0;
#X obj 2290 770 s \$0-spectral-level/CONSTANT-Q-SPECTRUM-ANALYZER-6E;
#X connect 77 0 189 0;
#X connect 189 0 190 0;
#X obj 2850 750 faust-timer \$0;
#X msg 2850 770 /spectral-level/CONSTANT-Q-SPECTRUM-ANALYZER-6E;
#X connect 191 0 192 0;
#X connect 192 0 79 0;
#X obj 3410 750 route /spectral-level/CONSTANT-Q-SPECTRUM-ANALYZER-6E;
#X obj 3410 770 s \$0-spectral-level/CONSTANT-Q-SPECTRUM-ANALYZER-6E;
#X connect 187 1 193 0;
#X connect 193 0 194 0;
#X msg 2290 790 0;
#X obj 2290 810 s \$0-spectral-level/CONSTANT-Q-SPECTRUM-ANALYZER-6E;
#X connect 77 0 195 0;
#X connect 195 0 196 0;
#X obj 2850 790 faust-timer \$0;
#X msg 2850 810 /spectral-level/CONSTANT-Q-SPECTRUM-ANALYZER-6E;
#X connect 197 0 198 0;
#X connect 198 0 79 0;
#X obj 3410 790 route /spectral-level/CONSTANT-Q-SPECTRUM-ANALYZER-6E;
#X obj 3410 810 s \$0-spectral-level/CONSTANT-Q-SPECTRUM-ANALYZER-6E;
#X connect 193 1 199 0;
#X connect 199 0 200 0;
#X msg 2290 830 0;
#X obj 2290 850 s \$0-spectral-level/CONSTANT-Q-SPECTRUM-ANALYZER-6E;
#X connect 77 0 201 0;
#X connect 201 0 202 0;
#X obj 2850 830 faust-timer \$0;
#X msg 2850 850 /spectral-level/CONSTANT-Q-SPECTRUM-ANALYZER-6E;
#X connect 203 0 204 0;
#X connect 204 0 79 0;
#X obj 3410 830 route /spectral-level/CONSTANT-Q-SPECTRUM-ANALYZER-6E;
#X obj 3410 850 s \$0-spectral-level/CONSTANT-Q-SPECTRUM-ANALYZER-6E;
#X connect 199 1 205 0;
#X connect 205 0 206 0;
#X msg 2290 870 0;
#X obj 2290 890 s \$0-spectral-level/CONSTANT-Q-SPECTRUM-ANALYZER-6E;
#X connect 77 0 207 0;
#X connect 207 0 208 0;
#X obj 2850 870 faust-timer \$0;
#X msg 2850 890 /spectral-level/CONSTANT-Q-SPECTRUM-ANALYZER-6E;
#X connect 209 0 210 0;
#X connect 210 0 79 0;
#X obj 3410 870 route /spectral-level/CONSTANT-Q-SPECTRUM-ANALYZER-6E;
#X obj 3410 890 s \$0-spectral-level/CONSTANT-Q-SPECTRUM-ANALYZER-6E;
#X connect 205 1 211 0;
#X connect 211 0 212 0;
#X msg 2290 910 0;
#X obj 2290 930 s \$0-spectral-level/CONSTANT-Q-SPECTRUM-ANALYZER-6E;
#X connect 77 0 213 0;
#X connect 213 0 214 0;
#X obj 2850 910 faust-timer \$0;
#X msg 2850 930 /spectral-level/CONSTANT-Q-SPECTRUM-ANALYZER-6E;
#X connect 215 0 216 0;
#X connect 216 0 79 0;
#X obj 3410 910 route /spectral-level/CONSTANT-Q-SPECTRUM-ANALYZER-6E;
#X obj 3410 930 s \$0-spectral-level/CONSTANT-Q-SPECTRUM-ANALYZER-6E;
#X connect 211 1 217 0;
#X connect 217 0 218 0;
#X msg 2290 950 0;
#X obj 2290 970 s \$0-spectral-level/CONSTANT-Q-SPECTRUM-ANALYZER-6E;
#X connect 77 0 219 0;
#X connect 219 0 220 0;
#X obj 2850 950 faust-timer \$0;
#X msg 2850 970 /spectral-level/CONSTANT-Q-SPECTRUM-ANALYZER-6E;
#X connect 221 0 222 0;
#X connect 222 0 79 0;
#X obj 3410 950 route /spectral-level/CONSTANT-Q-SPECTRUM-ANALYZER-6E;
#X obj 3410 970 s \$0-spectral-level/CONSTANT-Q-SPECTRUM-ANALYZER-6E;
#X connect 217 1 223 0;
#X connect 223 0 224 0;
#X msg 2290 990 0;
#X obj 2290 1010 s \$0-spectral-level/CONSTANT-Q-SPECTRUM-ANALYZER-6E;
#X connect 77 0 225 0;
#X connect 225 0 226 0;
#X obj 2850 990 faust-timer \$0;
#X msg 2850 1010 /spectral-level/CONSTANT-Q-SPECTRUM-ANALYZER-6E;
#X connect 227 0 228 0;
#X connect 228 0 79 0;
#X obj 3410 990 route /spectral-level/CONSTANT-Q-SPECTRUM-ANALYZER-6E;
#X obj 3410 1010 s \$0-spectral-level/CONSTANT-Q-SPECTRUM-ANALYZER-6E;
#X connect 223 1 229 0;
#X connect 229 0 230 0;
#X msg 2290 1030 0;
#X obj 2290 1050 s \$0-spectral-level/CONSTANT-Q-SPECTRUM-ANALYZER-6E;
#X connect 77 0 231 0;
#X connect 231 0 232 0;
#X obj 2850 1030 faust-timer \$0;
#X msg 2850 1050 /spectral-level/CONSTANT-Q-SPECTRUM-ANALYZER-6E;
#X connect 233 0 234 0;
#X connect 234 0 79 0;
#X obj 3410 1030 route /spectral-level/CONSTANT-Q-SPECTRUM-ANALYZER-6E;
#X obj 3410 1050 s \$0-spectral-level/CONSTANT-Q-SPECTRUM-ANALYZER-6E;
#X connect 229 1 235 0;
#X connect 235 0 236 0;
#X msg 2290 1070 0;
#X obj 2290 1090 s \$0-spectral-level/CONSTANT-Q-SPECTRUM-ANALYZER-6E;
#X connect 77 0 237 0;
#X connect 237 0 238 0;
#X obj 2850 1070 faust-timer \$0;
#X msg 2850 1090 /spectral-level/CONSTANT-Q-SPECTRUM-ANALYZER-6E;
#X connect 239 0 240 0;
#X connect 240 0 79 0;
#X obj 3410 1070 route /spectral-level/CONSTANT-Q-SPECTRUM-ANALYZER-6E;
#X obj 3410 1090 s \$0-spectral-level/CONSTANT-Q-SPECTRUM-ANALYZER-6E;
#X connect 235 1 241 0;
#X connect 241 0 242 0;
#X msg 2290 1110 0;
#X obj 2290 1130 s \$0-spectral-level/CONSTANT-Q-SPECTRUM-ANALYZER-6E;
#X connect 77 0 243 0;
#X connect 243 0 244 0;
#X obj 2850 1110 faust-timer \$0;
#X msg 2850 1130 /spectral-level/CONSTANT-Q-SPECTRUM-ANALYZER-6E;
#X connect 245 0 246 0;
#X connect 246 0 79 0;
#X obj 3410 1110 route /spectral-level/CONSTANT-Q-SPECTRUM-ANALYZER-6E;
#X obj 3410 1130 s \$0-spectral-level/CONSTANT-Q-SPECTRUM-ANALYZER-6E;
#X connect 241 1 247 0;
#X connect 247 0 248 0;
#X msg 2290 1150 0;
#X obj 2290 1170 s \$0-spectral-level/CONSTANT-Q-SPECTRUM-ANALYZER-6E;
#X connect 77 0 249 0;
#X connect 249 0 250 0;
#X obj 2850 1150 faust-timer \$0;
#X msg 2850 1170 /spectral-level/CONSTANT-Q-SPECTRUM-ANALYZER-6E;
#X connect 251 0 252 0;
#X connect 252 0 79 0;
#X obj 3410 1150 route /spectral-level/CONSTANT-Q-SPECTRUM-ANALYZER-6E;
#X obj 3410 1170 s \$0-spectral-level/CONSTANT-Q-SPECTRUM-ANALYZER-6E;
#X connect 247 1 253 0;
#X connect 253 0 254 0;
#X msg 2290 1190 0;
#X obj 2290 1210 s \$0-spectral-level/CONSTANT-Q-SPECTRUM-ANALYZER-6E;
#X connect 77 0 255 0;
#X connect 255 0 256 0;
#X obj 2850 1190 faust-timer \$0;
#X msg 2850 1210 /spectral-level/CONSTANT-Q-SPECTRUM-ANALYZER-6E;
#X connect 257 0 258 0;
#X connect 258 0 79 0;
#X obj 3410 1190 route /spectral-level/CONSTANT-Q-SPECTRUM-ANALYZER-6E;
#X obj 3410 1210 s \$0-spectral-level/CONSTANT-Q-SPECTRUM-ANALYZER-6E;
#X connect 253 1 259 0;
#X connect 259 0 260 0;
#X msg 2290 1230 0;
#X obj 2290 1250 s \$0-spectral-level/CONSTANT-Q-SPECTRUM-ANALYZER-6E;
#X connect 77 0 261 0;
#X connect 261 0 262 0;
#X obj 2850 1230 faust-timer \$0;
#X msg 2850 1250 /spectral-level/CONSTANT-Q-SPECTRUM-ANALYZER-6E;
#X connect 263 0 264 0;
#X connect 264 0 79 0;
#X obj 3410 1230 route /spectral-level/CONSTANT-Q-SPECTRUM-ANALYZER-6E;
#X obj 3410 1250 s \$0-spectral-level/CONSTANT-Q-SPECTRUM-ANALYZER-6E;
#X connect 259 1 265 0;
#X connect 265 0 266 0;
#X msg 2290 1270 0.1;
#X obj 2290 1290 s \$0-spectral-level/SPECTRUM-ANALYZER-CONTROLS/Level-Averaging-Time;
#X connect 77 0 267 0;
#X connect 267 0 268 0;
#X obj 2850 1270 r \$0-spectral-level/SPECTRUM-ANALYZER-CONTROLS/Level-Averaging-Time;
#X msg 2850 1290 /spectral-level/SPECTRUM-ANALYZER-CONTROLS/Level-Averaging-Time \$1;
#X connect 269 0 270 0;
#X connect 270 0 78 0;
#X obj 3410 1270 route /spectral-level/SPECTRUM-ANALYZER-CONTROLS/Level-Averaging-Time;
#X obj 3410 1290 s \$0-spectral-level/SPECTRUM-ANALYZER-CONTROLS/Level-Averaging-Time;
#X connect 265 1 271 0;
#X connect 271 0 272 0;
#X msg 2290 1310 50;
#X obj 2290 1330 s \$0-spectral-level/SPECTRUM-ANALYZER-CONTROLS/Level-dB-Offset;
#X connect 77 0 273 0;
#X connect 273 0 274 0;
#X obj 2850 1310 r \$0-spectral-level/SPECTRUM-ANALYZER-CONTROLS/Level-dB-Offset;
#X msg 2850 1330 /spectral-level/SPECTRUM-ANALYZER-CONTROLS/Level-dB-Offset \$1;
#X connect 275 0 276 0;
#X connect 276 0 78 0;
#X obj 3410 1310 route /spectral-level/SPECTRUM-ANALYZER-CONTROLS/Level-dB-Offset;
#X obj 3410 1330 s \$0-spectral-level/SPECTRUM-ANALYZER-CONTROLS/Level-dB-Offset;
#X connect 271 1 277 0;
#X connect 277 0 278 0;
#X coords 0 -1 1 1 2260 230 1 0 0;
#X text 0 250 Generated Sun Aug  4 09:11:53 2013 by faust2pd v2.5. See http://faust.grame.fr and http://pure-lang.googlecode.com.;
