#N canvas 0 0 450 300 10;
#X obj 70 120 inlet~;
#X obj 130 120 inlet~;
#X obj 190 120 inlet~;
#X obj 250 120 inlet~;
#X obj 10 120 inlet;
#X obj 310 120 r \$0-read;
#X obj 310 150 faust-control \$0;
#X obj 310 180 s \$0-write;
#X obj 10 180 r \$0-in;
#X obj 10 210 switcher~;
#X obj 10 240 s \$0-out;
#X obj 70 270 outlet~;
#X obj 130 270 outlet~;
#X obj 10 270 outlet;
#X connect 4 0 6 0;
#X connect 5 0 6 0;
#X connect 6 0 7 0;
#X connect 9 0 10 0;
#X connect 4 0 13 0;
#X connect 8 0 9 0;
#X connect 0 0 9 1;
#X connect 1 0 9 2;
#X connect 2 0 9 3;
#X connect 3 0 9 4;
#X connect 9 1 11 0;
#X connect 9 2 12 0;
#X obj 10 30 hradio 15 1 0 2 \$0-switcher/source-0-source-1 \$0-switcher/source-0-source-1 source-0-source-1 0 -6 0 10 -262144 -1 -1 0;
#X obj 122 3 bng 15 250 50 1 \$0-init \$0-ignore empty 0 -6 0 10 -262144 -1 -1;
#X obj 142 3 tgl 15 1 \$0-active \$0-active empty 0 -6 0 10 -262144 -1 -1 1 1;
#X obj 450 10 r \$0-init;
#X obj 722 10 s \$0-in;
#X obj 858 10 s \$0-read;
#X obj 994 10 r \$0-write;
#X msg 450 30 1;
#X obj 450 50 s \$0-active;
#X connect 21 0 22 0;
#X obj 722 30 r \$0-active;
#X msg 722 50 active \$1;
#X connect 23 0 24 0;
#X connect 24 0 18 0;
#X obj 994 30 route active;
#X obj 994 50 s \$0-active;
#X connect 20 0 25 0;
#X connect 25 0 26 0;
#X msg 450 70 0;
#X obj 450 90 s \$0-switcher/source-0-source-1;
#X connect 17 0 27 0;
#X connect 27 0 28 0;
#X obj 722 70 r \$0-switcher/source-0-source-1;
#X msg 722 90 /switcher/source-0-source-1 \$1;
#X connect 29 0 30 0;
#X connect 30 0 18 0;
#X obj 994 70 route /switcher/source-0-source-1;
#X obj 994 90 s \$0-switcher/source-0-source-1;
#X connect 25 1 31 0;
#X connect 31 0 32 0;
#X coords 0 -1 1 1 160 50 1 0 0;
#X text 0 70 Generated Sun Aug  4 09:11:58 2013 by faust2pd v2.5. See http://faust.grame.fr and http://pure-lang.googlecode.com.;
