#N canvas 0 0 450 300 10;
#X obj 70 720 inlet~;
#X obj 130 720 inlet~;
#X obj 190 720 inlet~;
#X obj 250 720 inlet~;
#X obj 310 720 inlet~;
#X obj 370 720 inlet~;
#X obj 10 720 inlet;
#X obj 430 720 r \$0-read;
#X obj 430 750 faust-control \$0;
#X obj 430 780 s \$0-write;
#X obj 10 780 r \$0-in;
#X obj 10 810 UITester~;
#X obj 10 840 s \$0-out;
#X obj 70 870 outlet~;
#X obj 130 870 outlet~;
#X obj 190 870 outlet~;
#X obj 250 870 outlet~;
#X obj 310 870 outlet~;
#X obj 370 870 outlet~;
#X obj 430 870 outlet~;
#X obj 490 870 outlet~;
#X obj 550 870 outlet~;
#X obj 610 870 outlet~;
#X obj 670 870 outlet~;
#X obj 730 870 outlet~;
#X obj 790 870 outlet~;
#X obj 850 870 outlet~;
#X obj 910 870 outlet~;
#X obj 970 870 outlet~;
#X obj 1030 870 outlet~;
#X obj 1090 870 outlet~;
#X obj 1150 870 outlet~;
#X obj 1210 870 outlet~;
#X obj 1270 870 outlet~;
#X obj 1330 870 outlet~;
#X obj 1390 870 outlet~;
#X obj 1450 870 outlet~;
#X obj 1510 870 outlet~;
#X obj 1570 870 outlet~;
#X obj 1630 870 outlet~;
#X obj 1690 870 outlet~;
#X obj 1750 870 outlet~;
#X obj 1810 870 outlet~;
#X obj 1870 870 outlet~;
#X obj 1930 870 outlet~;
#X obj 1990 870 outlet~;
#X obj 2050 870 outlet~;
#X obj 10 870 outlet;
#X connect 6 0 8 0;
#X connect 7 0 8 0;
#X connect 8 0 9 0;
#X connect 11 0 12 0;
#X connect 6 0 47 0;
#X connect 10 0 11 0;
#X connect 0 0 11 1;
#X connect 1 0 11 2;
#X connect 2 0 11 3;
#X connect 3 0 11 4;
#X connect 4 0 11 5;
#X connect 5 0 11 6;
#X connect 11 1 13 0;
#X connect 11 2 14 0;
#X connect 11 3 15 0;
#X connect 11 4 16 0;
#X connect 11 5 17 0;
#X connect 11 6 18 0;
#X connect 11 7 19 0;
#X connect 11 8 20 0;
#X connect 11 9 21 0;
#X connect 11 10 22 0;
#X connect 11 11 23 0;
#X connect 11 12 24 0;
#X connect 11 13 25 0;
#X connect 11 14 26 0;
#X connect 11 15 27 0;
#X connect 11 16 28 0;
#X connect 11 17 29 0;
#X connect 11 18 30 0;
#X connect 11 19 31 0;
#X connect 11 20 32 0;
#X connect 11 21 33 0;
#X connect 11 22 34 0;
#X connect 11 23 35 0;
#X connect 11 24 36 0;
#X connect 11 25 37 0;
#X connect 11 26 38 0;
#X connect 11 27 39 0;
#X connect 11 28 40 0;
#X connect 11 29 41 0;
#X connect 11 30 42 0;
#X connect 11 31 43 0;
#X connect 11 32 44 0;
#X connect 11 33 45 0;
#X connect 11 34 46 0;
#X obj 10 30 bng 15 250 50 0 \$0-grp-1/hmisc/button \$0-grp-1/hmisc/button button 0 -6 0 10 -262144 -1 -1;
#X obj 60 30 hsl 128 15 0 127 0 0 \$0-grp-1/hmisc/hbar \$0-grp-1/hmisc/hbar hbar -2 -6 0 10 -233017 -1 -1 0 1;
#X obj 210 30 nbx 5 14 0 127 0 0 \$0-grp-1/hmisc/hbar \$0-grp-1/hmisc/hbar empty 0 -6 0 10 -233017 -1 -1 256;
#X obj 285 30 hsl 128 15 0 127 0 0 \$0-grp-1/hmisc/hslider \$0-grp-1/hmisc/hslider hslider -2 -6 0 10 -262144 -1 -1 0 1;
#X obj 435 30 nbx 5 14 0 127 0 0 \$0-grp-1/hmisc/hslider \$0-grp-1/hmisc/hslider empty 0 -6 0 10 -262144 -1 -1 256;
#X obj 510 30 nbx 5 14 0 127 0 0 \$0-grp-1/hmisc/num \$0-grp-1/hmisc/num num 0 -6 0 10 -262144 -1 -1 256;
#X obj 585 30 vsl 15 128 0 127 0 0 \$0-grp-1/hmisc/vbar \$0-grp-1/hmisc/vbar vbar 0 -8 0 10 -233017 -1 -1 0 1;
#X obj 585 170 nbx 5 14 0 127 0 0 \$0-grp-1/hmisc/vbar \$0-grp-1/hmisc/vbar empty 0 -6 0 10 -233017 -1 -1 256;
#X obj 660 30 vsl 15 128 0 127 0 0 \$0-grp-1/hmisc/vslider4 \$0-grp-1/hmisc/vslider4 vslider4 0 -8 0 10 -262144 -1 -1 0 1;
#X obj 660 170 nbx 5 14 0 127 0 0 \$0-grp-1/hmisc/vslider4 \$0-grp-1/hmisc/vslider4 empty 0 -6 0 10 -262144 -1 -1 256;
#X obj 735 30 vsl 15 128 0 127 0 0 \$0-grp-1/knobs/knob1 \$0-grp-1/knobs/knob1 knob1 0 -8 0 10 -262144 -1 -1 0 1;
#X obj 735 170 nbx 5 14 0 127 0 0 \$0-grp-1/knobs/knob1 \$0-grp-1/knobs/knob1 empty 0 -6 0 10 -262144 -1 -1 256;
#X obj 810 30 vsl 15 128 0 127 0 0 \$0-grp-1/knobs/knob2 \$0-grp-1/knobs/knob2 knob2 0 -8 0 10 -262144 -1 -1 0 1;
#X obj 810 170 nbx 5 14 0 127 0 0 \$0-grp-1/knobs/knob2 \$0-grp-1/knobs/knob2 empty 0 -6 0 10 -262144 -1 -1 256;
#X obj 885 30 vsl 15 128 0 127 0 0 \$0-grp-1/knobs/knob3 \$0-grp-1/knobs/knob3 knob3 0 -8 0 10 -262144 -1 -1 0 1;
#X obj 885 170 nbx 5 14 0 127 0 0 \$0-grp-1/knobs/knob3 \$0-grp-1/knobs/knob3 empty 0 -6 0 10 -262144 -1 -1 256;
#X obj 960 30 vsl 15 128 0 127 0 0 \$0-grp-1/sliders/vslider1 \$0-grp-1/sliders/vslider1 vslider1 0 -8 0 10 -262144 -1 -1 0 1;
#X obj 960 170 nbx 5 14 0 127 0 0 \$0-grp-1/sliders/vslider1 \$0-grp-1/sliders/vslider1 empty 0 -6 0 10 -262144 -1 -1 256;
#X obj 1035 30 vsl 15 128 0 127 0 0 \$0-grp-1/sliders/vslider2 \$0-grp-1/sliders/vslider2 vslider2 0 -8 0 10 -262144 -1 -1 0 1;
#X obj 1035 170 nbx 5 14 0 127 0 0 \$0-grp-1/sliders/vslider2 \$0-grp-1/sliders/vslider2 empty 0 -6 0 10 -262144 -1 -1 256;
#X obj 1110 30 vsl 15 128 0 127 0 0 \$0-grp-1/sliders/vslider3 \$0-grp-1/sliders/vslider3 vslider3 0 -8 0 10 -262144 -1 -1 0 1;
#X obj 1110 170 nbx 5 14 0 127 0 0 \$0-grp-1/sliders/vslider3 \$0-grp-1/sliders/vslider3 empty 0 -6 0 10 -262144 -1 -1 256;
#X obj 1185 30 tgl 15 0 \$0-grp-1/vbox/check1 \$0-grp-1/vbox/check1 check1 0 -6 0 10 -262144 -1 -1 0 1;
#X obj 1185 60 tgl 15 0 \$0-grp-1/vbox/check2 \$0-grp-1/vbox/check2 check2 0 -6 0 10 -262144 -1 -1 0 1;
#X obj 1185 90 nbx 5 14 0 127 0 0 \$0-grp-1/vbox/knob0 \$0-grp-1/vbox/knob0 knob0 0 -6 0 10 -262144 -1 -1 256;
#X obj 1260 30 bng 15 250 50 0 \$0-grp-1/vmisc/button \$0-grp-1/vmisc/button button 0 -6 0 10 -262144 -1 -1;
#X obj 1260 60 hsl 128 15 0 127 0 0 \$0-grp-1/vmisc/hbar \$0-grp-1/vmisc/hbar hbar -2 -6 0 10 -233017 -1 -1 0 1;
#X obj 1410 60 nbx 5 14 0 127 0 0 \$0-grp-1/vmisc/hbar \$0-grp-1/vmisc/hbar empty 0 -6 0 10 -233017 -1 -1 256;
#X obj 1260 90 hsl 128 15 0 127 0 0 \$0-grp-1/vmisc/hslider \$0-grp-1/vmisc/hslider hslider -2 -6 0 10 -262144 -1 -1 0 1;
#X obj 1410 90 nbx 5 14 0 127 0 0 \$0-grp-1/vmisc/hslider \$0-grp-1/vmisc/hslider empty 0 -6 0 10 -262144 -1 -1 256;
#X obj 1260 120 vsl 15 128 0 127 0 0 \$0-grp-1/vmisc/small-box-1/knob4 \$0-grp-1/vmisc/small-box-1/knob4 knob4 0 -8 0 10 -262144 -1 -1 0 1;
#X obj 1260 260 nbx 5 14 0 127 0 0 \$0-grp-1/vmisc/small-box-1/knob4 \$0-grp-1/vmisc/small-box-1/knob4 empty 0 -6 0 10 -262144 -1 -1 256;
#X obj 1335 120 nbx 5 14 0 127 0 0 \$0-grp-1/vmisc/small-box-1/num1 \$0-grp-1/vmisc/small-box-1/num1 num1 0 -6 0 10 -262144 -1 -1 256;
#X obj 1410 120 vsl 15 128 0 127 0 0 \$0-grp-1/vmisc/small-box-1/vbar1 \$0-grp-1/vmisc/small-box-1/vbar1 vbar1 0 -8 0 10 -233017 -1 -1 0 1;
#X obj 1410 260 nbx 5 14 0 127 0 0 \$0-grp-1/vmisc/small-box-1/vbar1 \$0-grp-1/vmisc/small-box-1/vbar1 empty 0 -6 0 10 -233017 -1 -1 256;
#X obj 1485 120 vsl 15 128 0 127 0 0 \$0-grp-1/vmisc/small-box-1/vslider5 \$0-grp-1/vmisc/small-box-1/vslider5 vslider5 0 -8 0 10 -262144 -1 -1 0 1;
#X obj 1485 260 nbx 5 14 0 127 0 0 \$0-grp-1/vmisc/small-box-1/vslider5 \$0-grp-1/vmisc/small-box-1/vslider5 empty 0 -6 0 10 -262144 -1 -1 256;
#X obj 1560 120 vsl 15 128 0 127 0 0 \$0-grp-1/vmisc/small-box-1/vslider6 \$0-grp-1/vmisc/small-box-1/vslider6 vslider6 0 -8 0 10 -262144 -1 -1 0 1;
#X obj 1560 260 nbx 5 14 0 127 0 0 \$0-grp-1/vmisc/small-box-1/vslider6 \$0-grp-1/vmisc/small-box-1/vslider6 empty 0 -6 0 10 -262144 -1 -1 256;
#X obj 1260 300 vsl 15 128 0 127 0 0 \$0-grp-1/vmisc/sub-box-1/small-box-2/knob5 \$0-grp-1/vmisc/sub-box-1/small-box-2/knob5 knob5 0 -8 0 10 -262144 -1 -1 0 1;
#X obj 1260 440 nbx 5 14 0 127 0 0 \$0-grp-1/vmisc/sub-box-1/small-box-2/knob5 \$0-grp-1/vmisc/sub-box-1/small-box-2/knob5 empty 0 -6 0 10 -262144 -1 -1 256;
#X obj 1335 300 nbx 5 14 0 127 0 0 \$0-grp-1/vmisc/sub-box-1/small-box-2/num2 \$0-grp-1/vmisc/sub-box-1/small-box-2/num2 num2 0 -6 0 10 -262144 -1 -1 256;
#X obj 1410 300 vsl 15 128 0 127 0 0 \$0-grp-1/vmisc/sub-box-1/small-box-2/vbar2 \$0-grp-1/vmisc/sub-box-1/small-box-2/vbar2 vbar2 0 -8 0 10 -233017 -1 -1 0 1;
#X obj 1410 440 nbx 5 14 0 127 0 0 \$0-grp-1/vmisc/sub-box-1/small-box-2/vbar2 \$0-grp-1/vmisc/sub-box-1/small-box-2/vbar2 empty 0 -6 0 10 -233017 -1 -1 256;
#X obj 1485 300 vsl 15 128 0 127 0 0 \$0-grp-1/vmisc/sub-box-1/small-box-2/vslider7 \$0-grp-1/vmisc/sub-box-1/small-box-2/vslider7 vslider7 0 -8 0 10 -262144 -1 -1 0 1;
#X obj 1485 440 nbx 5 14 0 127 0 0 \$0-grp-1/vmisc/sub-box-1/small-box-2/vslider7 \$0-grp-1/vmisc/sub-box-1/small-box-2/vslider7 empty 0 -6 0 10 -262144 -1 -1 256;
#X obj 1560 300 vsl 15 128 0 127 0 0 \$0-grp-1/vmisc/sub-box-1/small-box-2/vslider8 \$0-grp-1/vmisc/sub-box-1/small-box-2/vslider8 vslider8 0 -8 0 10 -262144 -1 -1 0 1;
#X obj 1560 440 nbx 5 14 0 127 0 0 \$0-grp-1/vmisc/sub-box-1/small-box-2/vslider8 \$0-grp-1/vmisc/sub-box-1/small-box-2/vslider8 empty 0 -6 0 10 -262144 -1 -1 256;
#X obj 1635 300 vsl 15 128 0 127 0 0 \$0-grp-1/vmisc/sub-box-1/small-box-3/knob6 \$0-grp-1/vmisc/sub-box-1/small-box-3/knob6 knob6 0 -8 0 10 -262144 -1 -1 0 1;
#X obj 1635 440 nbx 5 14 0 127 0 0 \$0-grp-1/vmisc/sub-box-1/small-box-3/knob6 \$0-grp-1/vmisc/sub-box-1/small-box-3/knob6 empty 0 -6 0 10 -262144 -1 -1 256;
#X obj 1710 300 nbx 5 14 0 127 0 0 \$0-grp-1/vmisc/sub-box-1/small-box-3/num3 \$0-grp-1/vmisc/sub-box-1/small-box-3/num3 num3 0 -6 0 10 -262144 -1 -1 256;
#X obj 1785 300 vsl 15 128 0 127 0 0 \$0-grp-1/vmisc/sub-box-1/small-box-3/vbar3 \$0-grp-1/vmisc/sub-box-1/small-box-3/vbar3 vbar3 0 -8 0 10 -233017 -1 -1 0 1;
#X obj 1785 440 nbx 5 14 0 127 0 0 \$0-grp-1/vmisc/sub-box-1/small-box-3/vbar3 \$0-grp-1/vmisc/sub-box-1/small-box-3/vbar3 empty 0 -6 0 10 -233017 -1 -1 256;
#X obj 1860 300 vsl 15 128 0 127 0 0 \$0-grp-1/vmisc/sub-box-1/small-box-3/vslider10 \$0-grp-1/vmisc/sub-box-1/small-box-3/vslider10 vslider10 0 -8 0 10 -262144 -1 -1 0 1;
#X obj 1860 440 nbx 5 14 0 127 0 0 \$0-grp-1/vmisc/sub-box-1/small-box-3/vslider10 \$0-grp-1/vmisc/sub-box-1/small-box-3/vslider10 empty 0 -6 0 10 -262144 -1 -1 256;
#X obj 1935 300 vsl 15 128 0 127 0 0 \$0-grp-1/vmisc/sub-box-1/small-box-3/vslider9 \$0-grp-1/vmisc/sub-box-1/small-box-3/vslider9 vslider9 0 -8 0 10 -262144 -1 -1 0 1;
#X obj 1935 440 nbx 5 14 0 127 0 0 \$0-grp-1/vmisc/sub-box-1/small-box-3/vslider9 \$0-grp-1/vmisc/sub-box-1/small-box-3/vslider9 empty 0 -6 0 10 -262144 -1 -1 256;
#X obj 1260 480 vsl 15 128 0 127 0 0 \$0-grp-1/vmisc/vslider4 \$0-grp-1/vmisc/vslider4 vslider4 0 -8 0 10 -262144 -1 -1 0 1;
#X obj 1260 620 nbx 5 14 0 127 0 0 \$0-grp-1/vmisc/vslider4 \$0-grp-1/vmisc/vslider4 empty 0 -6 0 10 -262144 -1 -1 256;
#X obj 1972 3 bng 15 250 50 1 \$0-init \$0-ignore empty 0 -6 0 10 -262144 -1 -1;
#X obj 1992 3 tgl 15 1 \$0-active \$0-active empty 0 -6 0 10 -262144 -1 -1 1 1;
#X obj 2040 10 r \$0-init;
#X obj 2448 10 s \$0-in;
#X obj 2652 10 s \$0-read;
#X obj 2856 10 r \$0-write;
#X msg 2040 30 1;
#X obj 2040 50 s \$0-active;
#X connect 113 0 114 0;
#X obj 2448 30 r \$0-active;
#X msg 2448 50 active \$1;
#X connect 115 0 116 0;
#X connect 116 0 110 0;
#X obj 2856 30 route active;
#X obj 2856 50 s \$0-active;
#X connect 112 0 117 0;
#X connect 117 0 118 0;
#X msg 2040 70 0;
#X obj 2040 90 faust-s \$0-grp-1/hmisc/button;
#X connect 109 0 119 0;
#X connect 119 0 120 0;
#X obj 2448 70 r \$0-grp-1/hmisc/button;
#X obj 2448 90 faust-r /grp-1/hmisc/button;
#X connect 121 0 122 0;
#X connect 122 0 110 0;
#X obj 2856 70 route /grp-1/hmisc/button;
#X obj 2856 90 faust-s \$0-grp-1/hmisc/button;
#X connect 117 1 123 0;
#X connect 123 0 124 0;
#X msg 2040 110 0;
#X obj 2040 130 s \$0-grp-1/hmisc/hbar;
#X connect 109 0 125 0;
#X connect 125 0 126 0;
#X obj 2448 110 faust-timer \$0;
#X msg 2448 130 /grp-1/hmisc/hbar;
#X connect 127 0 128 0;
#X connect 128 0 111 0;
#X obj 2856 110 route /grp-1/hmisc/hbar;
#X obj 2856 130 s \$0-grp-1/hmisc/hbar;
#X connect 123 1 129 0;
#X connect 129 0 130 0;
#X msg 2040 150 60;
#X obj 2040 170 s \$0-grp-1/hmisc/hslider;
#X connect 109 0 131 0;
#X connect 131 0 132 0;
#X obj 2448 150 r \$0-grp-1/hmisc/hslider;
#X msg 2448 170 /grp-1/hmisc/hslider \$1;
#X connect 133 0 134 0;
#X connect 134 0 110 0;
#X obj 2856 150 route /grp-1/hmisc/hslider;
#X obj 2856 170 s \$0-grp-1/hmisc/hslider;
#X connect 129 1 135 0;
#X connect 135 0 136 0;
#X msg 2040 190 60;
#X obj 2040 210 s \$0-grp-1/hmisc/num;
#X connect 109 0 137 0;
#X connect 137 0 138 0;
#X obj 2448 190 r \$0-grp-1/hmisc/num;
#X msg 2448 210 /grp-1/hmisc/num \$1;
#X connect 139 0 140 0;
#X connect 140 0 110 0;
#X obj 2856 190 route /grp-1/hmisc/num;
#X obj 2856 210 s \$0-grp-1/hmisc/num;
#X connect 135 1 141 0;
#X connect 141 0 142 0;
#X msg 2040 230 0;
#X obj 2040 250 s \$0-grp-1/hmisc/vbar;
#X connect 109 0 143 0;
#X connect 143 0 144 0;
#X obj 2448 230 faust-timer \$0;
#X msg 2448 250 /grp-1/hmisc/vbar;
#X connect 145 0 146 0;
#X connect 146 0 111 0;
#X obj 2856 230 route /grp-1/hmisc/vbar;
#X obj 2856 250 s \$0-grp-1/hmisc/vbar;
#X connect 141 1 147 0;
#X connect 147 0 148 0;
#X msg 2040 270 60;
#X obj 2040 290 s \$0-grp-1/hmisc/vslider4;
#X connect 109 0 149 0;
#X connect 149 0 150 0;
#X obj 2448 270 r \$0-grp-1/hmisc/vslider4;
#X msg 2448 290 /grp-1/hmisc/vslider4 \$1;
#X connect 151 0 152 0;
#X connect 152 0 110 0;
#X obj 2856 270 route /grp-1/hmisc/vslider4;
#X obj 2856 290 s \$0-grp-1/hmisc/vslider4;
#X connect 147 1 153 0;
#X connect 153 0 154 0;
#X msg 2040 310 60;
#X obj 2040 330 s \$0-grp-1/knobs/knob1;
#X connect 109 0 155 0;
#X connect 155 0 156 0;
#X obj 2448 310 r \$0-grp-1/knobs/knob1;
#X msg 2448 330 /grp-1/knobs/knob1 \$1;
#X connect 157 0 158 0;
#X connect 158 0 110 0;
#X obj 2856 310 route /grp-1/knobs/knob1;
#X obj 2856 330 s \$0-grp-1/knobs/knob1;
#X connect 153 1 159 0;
#X connect 159 0 160 0;
#X msg 2040 350 60;
#X obj 2040 370 s \$0-grp-1/knobs/knob2;
#X connect 109 0 161 0;
#X connect 161 0 162 0;
#X obj 2448 350 r \$0-grp-1/knobs/knob2;
#X msg 2448 370 /grp-1/knobs/knob2 \$1;
#X connect 163 0 164 0;
#X connect 164 0 110 0;
#X obj 2856 350 route /grp-1/knobs/knob2;
#X obj 2856 370 s \$0-grp-1/knobs/knob2;
#X connect 159 1 165 0;
#X connect 165 0 166 0;
#X msg 2040 390 60;
#X obj 2040 410 s \$0-grp-1/knobs/knob3;
#X connect 109 0 167 0;
#X connect 167 0 168 0;
#X obj 2448 390 r \$0-grp-1/knobs/knob3;
#X msg 2448 410 /grp-1/knobs/knob3 \$1;
#X connect 169 0 170 0;
#X connect 170 0 110 0;
#X obj 2856 390 route /grp-1/knobs/knob3;
#X obj 2856 410 s \$0-grp-1/knobs/knob3;
#X connect 165 1 171 0;
#X connect 171 0 172 0;
#X msg 2040 430 60;
#X obj 2040 450 s \$0-grp-1/sliders/vslider1;
#X connect 109 0 173 0;
#X connect 173 0 174 0;
#X obj 2448 430 r \$0-grp-1/sliders/vslider1;
#X msg 2448 450 /grp-1/sliders/vslider1 \$1;
#X connect 175 0 176 0;
#X connect 176 0 110 0;
#X obj 2856 430 route /grp-1/sliders/vslider1;
#X obj 2856 450 s \$0-grp-1/sliders/vslider1;
#X connect 171 1 177 0;
#X connect 177 0 178 0;
#X msg 2040 470 60;
#X obj 2040 490 s \$0-grp-1/sliders/vslider2;
#X connect 109 0 179 0;
#X connect 179 0 180 0;
#X obj 2448 470 r \$0-grp-1/sliders/vslider2;
#X msg 2448 490 /grp-1/sliders/vslider2 \$1;
#X connect 181 0 182 0;
#X connect 182 0 110 0;
#X obj 2856 470 route /grp-1/sliders/vslider2;
#X obj 2856 490 s \$0-grp-1/sliders/vslider2;
#X connect 177 1 183 0;
#X connect 183 0 184 0;
#X msg 2040 510 60;
#X obj 2040 530 s \$0-grp-1/sliders/vslider3;
#X connect 109 0 185 0;
#X connect 185 0 186 0;
#X obj 2448 510 r \$0-grp-1/sliders/vslider3;
#X msg 2448 530 /grp-1/sliders/vslider3 \$1;
#X connect 187 0 188 0;
#X connect 188 0 110 0;
#X obj 2856 510 route /grp-1/sliders/vslider3;
#X obj 2856 530 s \$0-grp-1/sliders/vslider3;
#X connect 183 1 189 0;
#X connect 189 0 190 0;
#X msg 2040 550 0;
#X obj 2040 570 s \$0-grp-1/vbox/check1;
#X connect 109 0 191 0;
#X connect 191 0 192 0;
#X obj 2448 550 r \$0-grp-1/vbox/check1;
#X msg 2448 570 /grp-1/vbox/check1 \$1;
#X connect 193 0 194 0;
#X connect 194 0 110 0;
#X obj 2856 550 route /grp-1/vbox/check1;
#X obj 2856 570 s \$0-grp-1/vbox/check1;
#X connect 189 1 195 0;
#X connect 195 0 196 0;
#X msg 2040 590 0;
#X obj 2040 610 s \$0-grp-1/vbox/check2;
#X connect 109 0 197 0;
#X connect 197 0 198 0;
#X obj 2448 590 r \$0-grp-1/vbox/check2;
#X msg 2448 610 /grp-1/vbox/check2 \$1;
#X connect 199 0 200 0;
#X connect 200 0 110 0;
#X obj 2856 590 route /grp-1/vbox/check2;
#X obj 2856 610 s \$0-grp-1/vbox/check2;
#X connect 195 1 201 0;
#X connect 201 0 202 0;
#X msg 2040 630 60;
#X obj 2040 650 s \$0-grp-1/vbox/knob0;
#X connect 109 0 203 0;
#X connect 203 0 204 0;
#X obj 2448 630 r \$0-grp-1/vbox/knob0;
#X msg 2448 650 /grp-1/vbox/knob0 \$1;
#X connect 205 0 206 0;
#X connect 206 0 110 0;
#X obj 2856 630 route /grp-1/vbox/knob0;
#X obj 2856 650 s \$0-grp-1/vbox/knob0;
#X connect 201 1 207 0;
#X connect 207 0 208 0;
#X msg 2040 670 0;
#X obj 2040 690 faust-s \$0-grp-1/vmisc/button;
#X connect 109 0 209 0;
#X connect 209 0 210 0;
#X obj 2448 670 r \$0-grp-1/vmisc/button;
#X obj 2448 690 faust-r /grp-1/vmisc/button;
#X connect 211 0 212 0;
#X connect 212 0 110 0;
#X obj 2856 670 route /grp-1/vmisc/button;
#X obj 2856 690 faust-s \$0-grp-1/vmisc/button;
#X connect 207 1 213 0;
#X connect 213 0 214 0;
#X msg 2040 710 0;
#X obj 2040 730 s \$0-grp-1/vmisc/hbar;
#X connect 109 0 215 0;
#X connect 215 0 216 0;
#X obj 2448 710 faust-timer \$0;
#X msg 2448 730 /grp-1/vmisc/hbar;
#X connect 217 0 218 0;
#X connect 218 0 111 0;
#X obj 2856 710 route /grp-1/vmisc/hbar;
#X obj 2856 730 s \$0-grp-1/vmisc/hbar;
#X connect 213 1 219 0;
#X connect 219 0 220 0;
#X msg 2040 750 60;
#X obj 2040 770 s \$0-grp-1/vmisc/hslider;
#X connect 109 0 221 0;
#X connect 221 0 222 0;
#X obj 2448 750 r \$0-grp-1/vmisc/hslider;
#X msg 2448 770 /grp-1/vmisc/hslider \$1;
#X connect 223 0 224 0;
#X connect 224 0 110 0;
#X obj 2856 750 route /grp-1/vmisc/hslider;
#X obj 2856 770 s \$0-grp-1/vmisc/hslider;
#X connect 219 1 225 0;
#X connect 225 0 226 0;
#X msg 2040 790 60;
#X obj 2040 810 s \$0-grp-1/vmisc/small-box-1/knob4;
#X connect 109 0 227 0;
#X connect 227 0 228 0;
#X obj 2448 790 r \$0-grp-1/vmisc/small-box-1/knob4;
#X msg 2448 810 /grp-1/vmisc/small-box-1/knob4 \$1;
#X connect 229 0 230 0;
#X connect 230 0 110 0;
#X obj 2856 790 route /grp-1/vmisc/small-box-1/knob4;
#X obj 2856 810 s \$0-grp-1/vmisc/small-box-1/knob4;
#X connect 225 1 231 0;
#X connect 231 0 232 0;
#X msg 2040 830 60;
#X obj 2040 850 s \$0-grp-1/vmisc/small-box-1/num1;
#X connect 109 0 233 0;
#X connect 233 0 234 0;
#X obj 2448 830 r \$0-grp-1/vmisc/small-box-1/num1;
#X msg 2448 850 /grp-1/vmisc/small-box-1/num1 \$1;
#X connect 235 0 236 0;
#X connect 236 0 110 0;
#X obj 2856 830 route /grp-1/vmisc/small-box-1/num1;
#X obj 2856 850 s \$0-grp-1/vmisc/small-box-1/num1;
#X connect 231 1 237 0;
#X connect 237 0 238 0;
#X msg 2040 870 0;
#X obj 2040 890 s \$0-grp-1/vmisc/small-box-1/vbar1;
#X connect 109 0 239 0;
#X connect 239 0 240 0;
#X obj 2448 870 faust-timer \$0;
#X msg 2448 890 /grp-1/vmisc/small-box-1/vbar1;
#X connect 241 0 242 0;
#X connect 242 0 111 0;
#X obj 2856 870 route /grp-1/vmisc/small-box-1/vbar1;
#X obj 2856 890 s \$0-grp-1/vmisc/small-box-1/vbar1;
#X connect 237 1 243 0;
#X connect 243 0 244 0;
#X msg 2040 910 60;
#X obj 2040 930 s \$0-grp-1/vmisc/small-box-1/vslider5;
#X connect 109 0 245 0;
#X connect 245 0 246 0;
#X obj 2448 910 r \$0-grp-1/vmisc/small-box-1/vslider5;
#X msg 2448 930 /grp-1/vmisc/small-box-1/vslider5 \$1;
#X connect 247 0 248 0;
#X connect 248 0 110 0;
#X obj 2856 910 route /grp-1/vmisc/small-box-1/vslider5;
#X obj 2856 930 s \$0-grp-1/vmisc/small-box-1/vslider5;
#X connect 243 1 249 0;
#X connect 249 0 250 0;
#X msg 2040 950 60;
#X obj 2040 970 s \$0-grp-1/vmisc/small-box-1/vslider6;
#X connect 109 0 251 0;
#X connect 251 0 252 0;
#X obj 2448 950 r \$0-grp-1/vmisc/small-box-1/vslider6;
#X msg 2448 970 /grp-1/vmisc/small-box-1/vslider6 \$1;
#X connect 253 0 254 0;
#X connect 254 0 110 0;
#X obj 2856 950 route /grp-1/vmisc/small-box-1/vslider6;
#X obj 2856 970 s \$0-grp-1/vmisc/small-box-1/vslider6;
#X connect 249 1 255 0;
#X connect 255 0 256 0;
#X msg 2040 990 60;
#X obj 2040 1010 s \$0-grp-1/vmisc/sub-box-1/small-box-2/knob5;
#X connect 109 0 257 0;
#X connect 257 0 258 0;
#X obj 2448 990 r \$0-grp-1/vmisc/sub-box-1/small-box-2/knob5;
#X msg 2448 1010 /grp-1/vmisc/sub-box-1/small-box-2/knob5 \$1;
#X connect 259 0 260 0;
#X connect 260 0 110 0;
#X obj 2856 990 route /grp-1/vmisc/sub-box-1/small-box-2/knob5;
#X obj 2856 1010 s \$0-grp-1/vmisc/sub-box-1/small-box-2/knob5;
#X connect 255 1 261 0;
#X connect 261 0 262 0;
#X msg 2040 1030 60;
#X obj 2040 1050 s \$0-grp-1/vmisc/sub-box-1/small-box-2/num2;
#X connect 109 0 263 0;
#X connect 263 0 264 0;
#X obj 2448 1030 r \$0-grp-1/vmisc/sub-box-1/small-box-2/num2;
#X msg 2448 1050 /grp-1/vmisc/sub-box-1/small-box-2/num2 \$1;
#X connect 265 0 266 0;
#X connect 266 0 110 0;
#X obj 2856 1030 route /grp-1/vmisc/sub-box-1/small-box-2/num2;
#X obj 2856 1050 s \$0-grp-1/vmisc/sub-box-1/small-box-2/num2;
#X connect 261 1 267 0;
#X connect 267 0 268 0;
#X msg 2040 1070 0;
#X obj 2040 1090 s \$0-grp-1/vmisc/sub-box-1/small-box-2/vbar2;
#X connect 109 0 269 0;
#X connect 269 0 270 0;
#X obj 2448 1070 faust-timer \$0;
#X msg 2448 1090 /grp-1/vmisc/sub-box-1/small-box-2/vbar2;
#X connect 271 0 272 0;
#X connect 272 0 111 0;
#X obj 2856 1070 route /grp-1/vmisc/sub-box-1/small-box-2/vbar2;
#X obj 2856 1090 s \$0-grp-1/vmisc/sub-box-1/small-box-2/vbar2;
#X connect 267 1 273 0;
#X connect 273 0 274 0;
#X msg 2040 1110 60;
#X obj 2040 1130 s \$0-grp-1/vmisc/sub-box-1/small-box-2/vslider7;
#X connect 109 0 275 0;
#X connect 275 0 276 0;
#X obj 2448 1110 r \$0-grp-1/vmisc/sub-box-1/small-box-2/vslider7;
#X msg 2448 1130 /grp-1/vmisc/sub-box-1/small-box-2/vslider7 \$1;
#X connect 277 0 278 0;
#X connect 278 0 110 0;
#X obj 2856 1110 route /grp-1/vmisc/sub-box-1/small-box-2/vslider7;
#X obj 2856 1130 s \$0-grp-1/vmisc/sub-box-1/small-box-2/vslider7;
#X connect 273 1 279 0;
#X connect 279 0 280 0;
#X msg 2040 1150 60;
#X obj 2040 1170 s \$0-grp-1/vmisc/sub-box-1/small-box-2/vslider8;
#X connect 109 0 281 0;
#X connect 281 0 282 0;
#X obj 2448 1150 r \$0-grp-1/vmisc/sub-box-1/small-box-2/vslider8;
#X msg 2448 1170 /grp-1/vmisc/sub-box-1/small-box-2/vslider8 \$1;
#X connect 283 0 284 0;
#X connect 284 0 110 0;
#X obj 2856 1150 route /grp-1/vmisc/sub-box-1/small-box-2/vslider8;
#X obj 2856 1170 s \$0-grp-1/vmisc/sub-box-1/small-box-2/vslider8;
#X connect 279 1 285 0;
#X connect 285 0 286 0;
#X msg 2040 1190 60;
#X obj 2040 1210 s \$0-grp-1/vmisc/sub-box-1/small-box-3/knob6;
#X connect 109 0 287 0;
#X connect 287 0 288 0;
#X obj 2448 1190 r \$0-grp-1/vmisc/sub-box-1/small-box-3/knob6;
#X msg 2448 1210 /grp-1/vmisc/sub-box-1/small-box-3/knob6 \$1;
#X connect 289 0 290 0;
#X connect 290 0 110 0;
#X obj 2856 1190 route /grp-1/vmisc/sub-box-1/small-box-3/knob6;
#X obj 2856 1210 s \$0-grp-1/vmisc/sub-box-1/small-box-3/knob6;
#X connect 285 1 291 0;
#X connect 291 0 292 0;
#X msg 2040 1230 60;
#X obj 2040 1250 s \$0-grp-1/vmisc/sub-box-1/small-box-3/num3;
#X connect 109 0 293 0;
#X connect 293 0 294 0;
#X obj 2448 1230 r \$0-grp-1/vmisc/sub-box-1/small-box-3/num3;
#X msg 2448 1250 /grp-1/vmisc/sub-box-1/small-box-3/num3 \$1;
#X connect 295 0 296 0;
#X connect 296 0 110 0;
#X obj 2856 1230 route /grp-1/vmisc/sub-box-1/small-box-3/num3;
#X obj 2856 1250 s \$0-grp-1/vmisc/sub-box-1/small-box-3/num3;
#X connect 291 1 297 0;
#X connect 297 0 298 0;
#X msg 2040 1270 0;
#X obj 2040 1290 s \$0-grp-1/vmisc/sub-box-1/small-box-3/vbar3;
#X connect 109 0 299 0;
#X connect 299 0 300 0;
#X obj 2448 1270 faust-timer \$0;
#X msg 2448 1290 /grp-1/vmisc/sub-box-1/small-box-3/vbar3;
#X connect 301 0 302 0;
#X connect 302 0 111 0;
#X obj 2856 1270 route /grp-1/vmisc/sub-box-1/small-box-3/vbar3;
#X obj 2856 1290 s \$0-grp-1/vmisc/sub-box-1/small-box-3/vbar3;
#X connect 297 1 303 0;
#X connect 303 0 304 0;
#X msg 2040 1310 60;
#X obj 2040 1330 s \$0-grp-1/vmisc/sub-box-1/small-box-3/vslider10;
#X connect 109 0 305 0;
#X connect 305 0 306 0;
#X obj 2448 1310 r \$0-grp-1/vmisc/sub-box-1/small-box-3/vslider10;
#X msg 2448 1330 /grp-1/vmisc/sub-box-1/small-box-3/vslider10 \$1;
#X connect 307 0 308 0;
#X connect 308 0 110 0;
#X obj 2856 1310 route /grp-1/vmisc/sub-box-1/small-box-3/vslider10;
#X obj 2856 1330 s \$0-grp-1/vmisc/sub-box-1/small-box-3/vslider10;
#X connect 303 1 309 0;
#X connect 309 0 310 0;
#X msg 2040 1350 60;
#X obj 2040 1370 s \$0-grp-1/vmisc/sub-box-1/small-box-3/vslider9;
#X connect 109 0 311 0;
#X connect 311 0 312 0;
#X obj 2448 1350 r \$0-grp-1/vmisc/sub-box-1/small-box-3/vslider9;
#X msg 2448 1370 /grp-1/vmisc/sub-box-1/small-box-3/vslider9 \$1;
#X connect 313 0 314 0;
#X connect 314 0 110 0;
#X obj 2856 1350 route /grp-1/vmisc/sub-box-1/small-box-3/vslider9;
#X obj 2856 1370 s \$0-grp-1/vmisc/sub-box-1/small-box-3/vslider9;
#X connect 309 1 315 0;
#X connect 315 0 316 0;
#X msg 2040 1390 60;
#X obj 2040 1410 s \$0-grp-1/vmisc/vslider4;
#X connect 109 0 317 0;
#X connect 317 0 318 0;
#X obj 2448 1390 r \$0-grp-1/vmisc/vslider4;
#X msg 2448 1410 /grp-1/vmisc/vslider4 \$1;
#X connect 319 0 320 0;
#X connect 320 0 110 0;
#X obj 2856 1390 route /grp-1/vmisc/vslider4;
#X obj 2856 1410 s \$0-grp-1/vmisc/vslider4;
#X connect 315 1 321 0;
#X connect 321 0 322 0;
#X coords 0 -1 1 1 2010 650 1 0 0;
#X text 0 670 Generated Sun Aug  4 09:11:51 2013 by faust2pd v2.5. See http://faust.grame.fr and http://pure-lang.googlecode.com.;
