#N canvas 0 0 450 300 10;
#X obj 70 600 inlet~;
#X obj 10 600 inlet;
#X obj 130 600 r \$0-read;
#X obj 130 630 faust-control \$0;
#X obj 130 660 s \$0-write;
#X obj 10 660 r \$0-in;
#X obj 10 690 vcf_wah_pedals~;
#X obj 10 720 s \$0-out;
#X obj 70 750 outlet~;
#X obj 130 750 outlet~;
#X obj 10 750 outlet;
#X connect 1 0 3 0;
#X connect 2 0 3 0;
#X connect 3 0 4 0;
#X connect 6 0 7 0;
#X connect 1 0 10 0;
#X connect 5 0 6 0;
#X connect 0 0 6 1;
#X connect 6 1 8 0;
#X connect 6 2 9 0;
#X obj 10 30 vsl 15 128 -120 10 0 0 \$0-vcf-wah-pedals/SAWTOOTH-OSCILLATOR/Amplitude \$0-vcf-wah-pedals/SAWTOOTH-OSCILLATOR/Amplitude Amplitude 0 -8 0 10 -262144 -1 -1 0 1;
#X obj 10 170 nbx 5 14 -120 10 0 0 \$0-vcf-wah-pedals/SAWTOOTH-OSCILLATOR/Amplitude \$0-vcf-wah-pedals/SAWTOOTH-OSCILLATOR/Amplitude empty 0 -6 0 10 -262144 -1 -1 256;
#X obj 85 30 vsl 15 128 1 88 0 0 \$0-vcf-wah-pedals/SAWTOOTH-OSCILLATOR/Frequency \$0-vcf-wah-pedals/SAWTOOTH-OSCILLATOR/Frequency Frequency 0 -8 0 10 -262144 -1 -1 0 1;
#X obj 85 170 nbx 5 14 1 88 0 0 \$0-vcf-wah-pedals/SAWTOOTH-OSCILLATOR/Frequency \$0-vcf-wah-pedals/SAWTOOTH-OSCILLATOR/Frequency empty 0 -6 0 10 -262144 -1 -1 256;
#X obj 160 30 vsl 15 128 -10 10 0 0 \$0-vcf-wah-pedals/SAWTOOTH-OSCILLATOR/Detuning-1 \$0-vcf-wah-pedals/SAWTOOTH-OSCILLATOR/Detuning-1 Detuning-1 0 -8 0 10 -262144 -1 -1 0 1;
#X obj 160 170 nbx 5 14 -10 10 0 0 \$0-vcf-wah-pedals/SAWTOOTH-OSCILLATOR/Detuning-1 \$0-vcf-wah-pedals/SAWTOOTH-OSCILLATOR/Detuning-1 empty 0 -6 0 10 -262144 -1 -1 256;
#X obj 235 30 vsl 15 128 -10 10 0 0 \$0-vcf-wah-pedals/SAWTOOTH-OSCILLATOR/Detuning-2 \$0-vcf-wah-pedals/SAWTOOTH-OSCILLATOR/Detuning-2 Detuning-2 0 -8 0 10 -262144 -1 -1 0 1;
#X obj 235 170 nbx 5 14 -10 10 0 0 \$0-vcf-wah-pedals/SAWTOOTH-OSCILLATOR/Detuning-2 \$0-vcf-wah-pedals/SAWTOOTH-OSCILLATOR/Detuning-2 empty 0 -6 0 10 -262144 -1 -1 256;
#X obj 310 30 vsl 15 128 0.01 1 0 0 \$0-vcf-wah-pedals/SAWTOOTH-OSCILLATOR/Portamento \$0-vcf-wah-pedals/SAWTOOTH-OSCILLATOR/Portamento Portamento 0 -8 0 10 -262144 -1 -1 0 1;
#X obj 310 170 nbx 5 14 0.01 1 0 0 \$0-vcf-wah-pedals/SAWTOOTH-OSCILLATOR/Portamento \$0-vcf-wah-pedals/SAWTOOTH-OSCILLATOR/Portamento empty 0 -6 0 10 -262144 -1 -1 256;
#X obj 385 30 tgl 15 0 \$0-vcf-wah-pedals/SAWTOOTH-OSCILLATOR/Alternate-Signals/Pink-Noise-Instead-uses-only-Amplitude-control-on-the-left \$0-vcf-wah-pedals/SAWTOOTH-OSCILLATOR/Alternate-Signals/Pink-Noise-Instead-uses-only-Amplitude-control-on-the-left Pink-Noise-Instead-uses-only-Amplitude-control-on-the-left 0 -6 0 10 -262144 -1 -1 0 1;
#X obj 385 60 tgl 15 0 \$0-vcf-wah-pedals/SAWTOOTH-OSCILLATOR/Alternate-Signals/External-Input-Instead-overrides-Sawtooth-Noise-selection-above \$0-vcf-wah-pedals/SAWTOOTH-OSCILLATOR/Alternate-Signals/External-Input-Instead-overrides-Sawtooth-Noise-selection-above External-Input-Instead-overrides-Sawtooth-Noise-selection-above 0 -6 0 10 -262144 -1 -1 0 1;
#X obj 10 210 tgl 15 0 \$0-vcf-wah-pedals/CRYBABY/Bypass \$0-vcf-wah-pedals/CRYBABY/Bypass Bypass 0 -6 0 10 -262144 -1 -1 0 1;
#X obj 60 210 hsl 128 15 0 1 0 0 \$0-vcf-wah-pedals/CRYBABY/Wah-parameter \$0-vcf-wah-pedals/CRYBABY/Wah-parameter Wah-parameter -2 -6 0 10 -262144 -1 -1 0 1;
#X obj 210 210 nbx 5 14 0 1 0 0 \$0-vcf-wah-pedals/CRYBABY/Wah-parameter \$0-vcf-wah-pedals/CRYBABY/Wah-parameter empty 0 -6 0 10 -262144 -1 -1 256;
#X obj 10 240 tgl 15 0 \$0-vcf-wah-pedals/WAH4/Bypass \$0-vcf-wah-pedals/WAH4/Bypass Bypass 0 -6 0 10 -262144 -1 -1 0 1;
#X obj 60 240 hsl 128 15 100 2000 0 0 \$0-vcf-wah-pedals/WAH4/Resonance-Frequency \$0-vcf-wah-pedals/WAH4/Resonance-Frequency Resonance-Frequency -2 -6 0 10 -262144 -1 -1 0 1;
#X obj 210 240 nbx 5 14 100 2000 0 0 \$0-vcf-wah-pedals/WAH4/Resonance-Frequency \$0-vcf-wah-pedals/WAH4/Resonance-Frequency empty 0 -6 0 10 -262144 -1 -1 256;
#X obj 10 270 tgl 15 0 \$0-vcf-wah-pedals/MOOG-VCF-Voltage-Controlled-Filter/Bypass \$0-vcf-wah-pedals/MOOG-VCF-Voltage-Controlled-Filter/Bypass Bypass 0 -6 0 10 -262144 -1 -1 0 1;
#X obj 60 270 tgl 15 0 \$0-vcf-wah-pedals/MOOG-VCF-Voltage-Controlled-Filter/Use-Biquads \$0-vcf-wah-pedals/MOOG-VCF-Voltage-Controlled-Filter/Use-Biquads Use-Biquads 0 -6 0 10 -262144 -1 -1 0 1;
#X obj 110 270 tgl 15 0 \$0-vcf-wah-pedals/MOOG-VCF-Voltage-Controlled-Filter/Normalized-Ladders \$0-vcf-wah-pedals/MOOG-VCF-Voltage-Controlled-Filter/Normalized-Ladders Normalized-Ladders 0 -6 0 10 -262144 -1 -1 0 1;
#X obj 10 300 hsl 128 15 -60 20 0 0 \$0-vcf-wah-pedals/MOOG-VCF-Voltage-Controlled-Filter/VCF-Output-Level \$0-vcf-wah-pedals/MOOG-VCF-Voltage-Controlled-Filter/VCF-Output-Level VCF-Output-Level -2 -6 0 10 -262144 -1 -1 0 1;
#X obj 160 300 nbx 5 14 -60 20 0 0 \$0-vcf-wah-pedals/MOOG-VCF-Voltage-Controlled-Filter/VCF-Output-Level \$0-vcf-wah-pedals/MOOG-VCF-Voltage-Controlled-Filter/VCF-Output-Level empty 0 -6 0 10 -262144 -1 -1 256;
#X obj 235 270 hsl 128 15 1 88 0 0 \$0-vcf-wah-pedals/MOOG-VCF-Voltage-Controlled-Filter/Corner-Frequency \$0-vcf-wah-pedals/MOOG-VCF-Voltage-Controlled-Filter/Corner-Frequency Corner-Frequency -2 -6 0 10 -262144 -1 -1 0 1;
#X obj 385 270 nbx 5 14 1 88 0 0 \$0-vcf-wah-pedals/MOOG-VCF-Voltage-Controlled-Filter/Corner-Frequency \$0-vcf-wah-pedals/MOOG-VCF-Voltage-Controlled-Filter/Corner-Frequency empty 0 -6 0 10 -262144 -1 -1 256;
#X obj 460 270 hsl 128 15 0 1 0 0 \$0-vcf-wah-pedals/MOOG-VCF-Voltage-Controlled-Filter/Corner-Resonance \$0-vcf-wah-pedals/MOOG-VCF-Voltage-Controlled-Filter/Corner-Resonance Corner-Resonance -2 -6 0 10 -262144 -1 -1 0 1;
#X obj 610 270 nbx 5 14 0 1 0 0 \$0-vcf-wah-pedals/MOOG-VCF-Voltage-Controlled-Filter/Corner-Resonance \$0-vcf-wah-pedals/MOOG-VCF-Voltage-Controlled-Filter/Corner-Resonance empty 0 -6 0 10 -262144 -1 -1 256;
#X obj 10 330 vsl 15 128 -50 10 0 0 \$0-vcf-wah-pedals/CONSTANT-Q-SPECTRUM-ANALYZER-6E \$0-vcf-wah-pedals/CONSTANT-Q-SPECTRUM-ANALYZER-6E empty 0 -8 0 10 -233017 -1 -1 0 1;
#X obj 10 470 nbx 5 14 -50 10 0 0 \$0-vcf-wah-pedals/CONSTANT-Q-SPECTRUM-ANALYZER-6E \$0-vcf-wah-pedals/CONSTANT-Q-SPECTRUM-ANALYZER-6E empty 0 -6 0 10 -233017 -1 -1 256;
#X obj 85 330 vsl 15 128 -50 10 0 0 \$0-vcf-wah-pedals/CONSTANT-Q-SPECTRUM-ANALYZER-6E \$0-vcf-wah-pedals/CONSTANT-Q-SPECTRUM-ANALYZER-6E empty 0 -8 0 10 -233017 -1 -1 0 1;
#X obj 85 470 nbx 5 14 -50 10 0 0 \$0-vcf-wah-pedals/CONSTANT-Q-SPECTRUM-ANALYZER-6E \$0-vcf-wah-pedals/CONSTANT-Q-SPECTRUM-ANALYZER-6E empty 0 -6 0 10 -233017 -1 -1 256;
#X obj 160 330 vsl 15 128 -50 10 0 0 \$0-vcf-wah-pedals/CONSTANT-Q-SPECTRUM-ANALYZER-6E \$0-vcf-wah-pedals/CONSTANT-Q-SPECTRUM-ANALYZER-6E empty 0 -8 0 10 -233017 -1 -1 0 1;
#X obj 160 470 nbx 5 14 -50 10 0 0 \$0-vcf-wah-pedals/CONSTANT-Q-SPECTRUM-ANALYZER-6E \$0-vcf-wah-pedals/CONSTANT-Q-SPECTRUM-ANALYZER-6E empty 0 -6 0 10 -233017 -1 -1 256;
#X obj 235 330 vsl 15 128 -50 10 0 0 \$0-vcf-wah-pedals/CONSTANT-Q-SPECTRUM-ANALYZER-6E \$0-vcf-wah-pedals/CONSTANT-Q-SPECTRUM-ANALYZER-6E empty 0 -8 0 10 -233017 -1 -1 0 1;
#X obj 235 470 nbx 5 14 -50 10 0 0 \$0-vcf-wah-pedals/CONSTANT-Q-SPECTRUM-ANALYZER-6E \$0-vcf-wah-pedals/CONSTANT-Q-SPECTRUM-ANALYZER-6E empty 0 -6 0 10 -233017 -1 -1 256;
#X obj 310 330 vsl 15 128 -50 10 0 0 \$0-vcf-wah-pedals/CONSTANT-Q-SPECTRUM-ANALYZER-6E \$0-vcf-wah-pedals/CONSTANT-Q-SPECTRUM-ANALYZER-6E empty 0 -8 0 10 -233017 -1 -1 0 1;
#X obj 310 470 nbx 5 14 -50 10 0 0 \$0-vcf-wah-pedals/CONSTANT-Q-SPECTRUM-ANALYZER-6E \$0-vcf-wah-pedals/CONSTANT-Q-SPECTRUM-ANALYZER-6E empty 0 -6 0 10 -233017 -1 -1 256;
#X obj 385 330 vsl 15 128 -50 10 0 0 \$0-vcf-wah-pedals/CONSTANT-Q-SPECTRUM-ANALYZER-6E \$0-vcf-wah-pedals/CONSTANT-Q-SPECTRUM-ANALYZER-6E empty 0 -8 0 10 -233017 -1 -1 0 1;
#X obj 385 470 nbx 5 14 -50 10 0 0 \$0-vcf-wah-pedals/CONSTANT-Q-SPECTRUM-ANALYZER-6E \$0-vcf-wah-pedals/CONSTANT-Q-SPECTRUM-ANALYZER-6E empty 0 -6 0 10 -233017 -1 -1 256;
#X obj 460 330 vsl 15 128 -50 10 0 0 \$0-vcf-wah-pedals/CONSTANT-Q-SPECTRUM-ANALYZER-6E \$0-vcf-wah-pedals/CONSTANT-Q-SPECTRUM-ANALYZER-6E empty 0 -8 0 10 -233017 -1 -1 0 1;
#X obj 460 470 nbx 5 14 -50 10 0 0 \$0-vcf-wah-pedals/CONSTANT-Q-SPECTRUM-ANALYZER-6E \$0-vcf-wah-pedals/CONSTANT-Q-SPECTRUM-ANALYZER-6E empty 0 -6 0 10 -233017 -1 -1 256;
#X obj 535 330 vsl 15 128 -50 10 0 0 \$0-vcf-wah-pedals/CONSTANT-Q-SPECTRUM-ANALYZER-6E \$0-vcf-wah-pedals/CONSTANT-Q-SPECTRUM-ANALYZER-6E empty 0 -8 0 10 -233017 -1 -1 0 1;
#X obj 535 470 nbx 5 14 -50 10 0 0 \$0-vcf-wah-pedals/CONSTANT-Q-SPECTRUM-ANALYZER-6E \$0-vcf-wah-pedals/CONSTANT-Q-SPECTRUM-ANALYZER-6E empty 0 -6 0 10 -233017 -1 -1 256;
#X obj 610 330 vsl 15 128 -50 10 0 0 \$0-vcf-wah-pedals/CONSTANT-Q-SPECTRUM-ANALYZER-6E \$0-vcf-wah-pedals/CONSTANT-Q-SPECTRUM-ANALYZER-6E empty 0 -8 0 10 -233017 -1 -1 0 1;
#X obj 610 470 nbx 5 14 -50 10 0 0 \$0-vcf-wah-pedals/CONSTANT-Q-SPECTRUM-ANALYZER-6E \$0-vcf-wah-pedals/CONSTANT-Q-SPECTRUM-ANALYZER-6E empty 0 -6 0 10 -233017 -1 -1 256;
#X obj 685 330 vsl 15 128 -50 10 0 0 \$0-vcf-wah-pedals/CONSTANT-Q-SPECTRUM-ANALYZER-6E \$0-vcf-wah-pedals/CONSTANT-Q-SPECTRUM-ANALYZER-6E empty 0 -8 0 10 -233017 -1 -1 0 1;
#X obj 685 470 nbx 5 14 -50 10 0 0 \$0-vcf-wah-pedals/CONSTANT-Q-SPECTRUM-ANALYZER-6E \$0-vcf-wah-pedals/CONSTANT-Q-SPECTRUM-ANALYZER-6E empty 0 -6 0 10 -233017 -1 -1 256;
#X obj 760 330 vsl 15 128 -50 10 0 0 \$0-vcf-wah-pedals/CONSTANT-Q-SPECTRUM-ANALYZER-6E \$0-vcf-wah-pedals/CONSTANT-Q-SPECTRUM-ANALYZER-6E empty 0 -8 0 10 -233017 -1 -1 0 1;
#X obj 760 470 nbx 5 14 -50 10 0 0 \$0-vcf-wah-pedals/CONSTANT-Q-SPECTRUM-ANALYZER-6E \$0-vcf-wah-pedals/CONSTANT-Q-SPECTRUM-ANALYZER-6E empty 0 -6 0 10 -233017 -1 -1 256;
#X obj 835 330 vsl 15 128 -50 10 0 0 \$0-vcf-wah-pedals/CONSTANT-Q-SPECTRUM-ANALYZER-6E \$0-vcf-wah-pedals/CONSTANT-Q-SPECTRUM-ANALYZER-6E empty 0 -8 0 10 -233017 -1 -1 0 1;
#X obj 835 470 nbx 5 14 -50 10 0 0 \$0-vcf-wah-pedals/CONSTANT-Q-SPECTRUM-ANALYZER-6E \$0-vcf-wah-pedals/CONSTANT-Q-SPECTRUM-ANALYZER-6E empty 0 -6 0 10 -233017 -1 -1 256;
#X obj 910 330 vsl 15 128 -50 10 0 0 \$0-vcf-wah-pedals/CONSTANT-Q-SPECTRUM-ANALYZER-6E \$0-vcf-wah-pedals/CONSTANT-Q-SPECTRUM-ANALYZER-6E empty 0 -8 0 10 -233017 -1 -1 0 1;
#X obj 910 470 nbx 5 14 -50 10 0 0 \$0-vcf-wah-pedals/CONSTANT-Q-SPECTRUM-ANALYZER-6E \$0-vcf-wah-pedals/CONSTANT-Q-SPECTRUM-ANALYZER-6E empty 0 -6 0 10 -233017 -1 -1 256;
#X obj 985 330 vsl 15 128 -50 10 0 0 \$0-vcf-wah-pedals/CONSTANT-Q-SPECTRUM-ANALYZER-6E \$0-vcf-wah-pedals/CONSTANT-Q-SPECTRUM-ANALYZER-6E empty 0 -8 0 10 -233017 -1 -1 0 1;
#X obj 985 470 nbx 5 14 -50 10 0 0 \$0-vcf-wah-pedals/CONSTANT-Q-SPECTRUM-ANALYZER-6E \$0-vcf-wah-pedals/CONSTANT-Q-SPECTRUM-ANALYZER-6E empty 0 -6 0 10 -233017 -1 -1 256;
#X obj 1060 330 vsl 15 128 -50 10 0 0 \$0-vcf-wah-pedals/CONSTANT-Q-SPECTRUM-ANALYZER-6E \$0-vcf-wah-pedals/CONSTANT-Q-SPECTRUM-ANALYZER-6E empty 0 -8 0 10 -233017 -1 -1 0 1;
#X obj 1060 470 nbx 5 14 -50 10 0 0 \$0-vcf-wah-pedals/CONSTANT-Q-SPECTRUM-ANALYZER-6E \$0-vcf-wah-pedals/CONSTANT-Q-SPECTRUM-ANALYZER-6E empty 0 -6 0 10 -233017 -1 -1 256;
#X obj 10 510 hsl 128 15 0 1 0 0 \$0-vcf-wah-pedals/SPECTRUM-ANALYZER-CONTROLS/Level-Averaging-Time \$0-vcf-wah-pedals/SPECTRUM-ANALYZER-CONTROLS/Level-Averaging-Time Level-Averaging-Time -2 -6 0 10 -262144 -1 -1 0 1;
#X obj 160 510 nbx 5 14 0 1 0 0 \$0-vcf-wah-pedals/SPECTRUM-ANALYZER-CONTROLS/Level-Averaging-Time \$0-vcf-wah-pedals/SPECTRUM-ANALYZER-CONTROLS/Level-Averaging-Time empty 0 -6 0 10 -262144 -1 -1 256;
#X obj 235 510 hsl 128 15 0 100 0 0 \$0-vcf-wah-pedals/SPECTRUM-ANALYZER-CONTROLS/Level-dB-Offset \$0-vcf-wah-pedals/SPECTRUM-ANALYZER-CONTROLS/Level-dB-Offset Level-dB-Offset -2 -6 0 10 -262144 -1 -1 0 1;
#X obj 385 510 nbx 5 14 0 100 0 0 \$0-vcf-wah-pedals/SPECTRUM-ANALYZER-CONTROLS/Level-dB-Offset \$0-vcf-wah-pedals/SPECTRUM-ANALYZER-CONTROLS/Level-dB-Offset empty 0 -6 0 10 -262144 -1 -1 256;
#X obj 1097 3 bng 15 250 50 1 \$0-init \$0-ignore empty 0 -6 0 10 -262144 -1 -1;
#X obj 1117 3 tgl 15 1 \$0-active \$0-active empty 0 -6 0 10 -262144 -1 -1 1 1;
#X obj 1165 10 r \$0-init;
#X obj 2157 10 s \$0-in;
#X obj 2653 10 s \$0-read;
#X obj 3149 10 r \$0-write;
#X msg 1165 30 1;
#X obj 1165 50 s \$0-active;
#X connect 78 0 79 0;
#X obj 2157 30 r \$0-active;
#X msg 2157 50 active \$1;
#X connect 80 0 81 0;
#X connect 81 0 75 0;
#X obj 3149 30 route active;
#X obj 3149 50 s \$0-active;
#X connect 77 0 82 0;
#X connect 82 0 83 0;
#X msg 1165 70 -20;
#X obj 1165 90 s \$0-vcf-wah-pedals/SAWTOOTH-OSCILLATOR/Amplitude;
#X connect 74 0 84 0;
#X connect 84 0 85 0;
#X obj 2157 70 r \$0-vcf-wah-pedals/SAWTOOTH-OSCILLATOR/Amplitude;
#X msg 2157 90 /vcf-wah-pedals/SAWTOOTH-OSCILLATOR/Amplitude \$1;
#X connect 86 0 87 0;
#X connect 87 0 75 0;
#X obj 3149 70 route /vcf-wah-pedals/SAWTOOTH-OSCILLATOR/Amplitude;
#X obj 3149 90 s \$0-vcf-wah-pedals/SAWTOOTH-OSCILLATOR/Amplitude;
#X connect 82 1 88 0;
#X connect 88 0 89 0;
#X msg 1165 110 49;
#X obj 1165 130 s \$0-vcf-wah-pedals/SAWTOOTH-OSCILLATOR/Frequency;
#X connect 74 0 90 0;
#X connect 90 0 91 0;
#X obj 2157 110 r \$0-vcf-wah-pedals/SAWTOOTH-OSCILLATOR/Frequency;
#X msg 2157 130 /vcf-wah-pedals/SAWTOOTH-OSCILLATOR/Frequency \$1;
#X connect 92 0 93 0;
#X connect 93 0 75 0;
#X obj 3149 110 route /vcf-wah-pedals/SAWTOOTH-OSCILLATOR/Frequency;
#X obj 3149 130 s \$0-vcf-wah-pedals/SAWTOOTH-OSCILLATOR/Frequency;
#X connect 88 1 94 0;
#X connect 94 0 95 0;
#X msg 1165 150 -0.1;
#X obj 1165 170 s \$0-vcf-wah-pedals/SAWTOOTH-OSCILLATOR/Detuning-1;
#X connect 74 0 96 0;
#X connect 96 0 97 0;
#X obj 2157 150 r \$0-vcf-wah-pedals/SAWTOOTH-OSCILLATOR/Detuning-1;
#X msg 2157 170 /vcf-wah-pedals/SAWTOOTH-OSCILLATOR/Detuning-1 \$1;
#X connect 98 0 99 0;
#X connect 99 0 75 0;
#X obj 3149 150 route /vcf-wah-pedals/SAWTOOTH-OSCILLATOR/Detuning-1;
#X obj 3149 170 s \$0-vcf-wah-pedals/SAWTOOTH-OSCILLATOR/Detuning-1;
#X connect 94 1 100 0;
#X connect 100 0 101 0;
#X msg 1165 190 0.1;
#X obj 1165 210 s \$0-vcf-wah-pedals/SAWTOOTH-OSCILLATOR/Detuning-2;
#X connect 74 0 102 0;
#X connect 102 0 103 0;
#X obj 2157 190 r \$0-vcf-wah-pedals/SAWTOOTH-OSCILLATOR/Detuning-2;
#X msg 2157 210 /vcf-wah-pedals/SAWTOOTH-OSCILLATOR/Detuning-2 \$1;
#X connect 104 0 105 0;
#X connect 105 0 75 0;
#X obj 3149 190 route /vcf-wah-pedals/SAWTOOTH-OSCILLATOR/Detuning-2;
#X obj 3149 210 s \$0-vcf-wah-pedals/SAWTOOTH-OSCILLATOR/Detuning-2;
#X connect 100 1 106 0;
#X connect 106 0 107 0;
#X msg 1165 230 0.1;
#X obj 1165 250 s \$0-vcf-wah-pedals/SAWTOOTH-OSCILLATOR/Portamento;
#X connect 74 0 108 0;
#X connect 108 0 109 0;
#X obj 2157 230 r \$0-vcf-wah-pedals/SAWTOOTH-OSCILLATOR/Portamento;
#X msg 2157 250 /vcf-wah-pedals/SAWTOOTH-OSCILLATOR/Portamento \$1;
#X connect 110 0 111 0;
#X connect 111 0 75 0;
#X obj 3149 230 route /vcf-wah-pedals/SAWTOOTH-OSCILLATOR/Portamento;
#X obj 3149 250 s \$0-vcf-wah-pedals/SAWTOOTH-OSCILLATOR/Portamento;
#X connect 106 1 112 0;
#X connect 112 0 113 0;
#X msg 1165 270 0;
#X obj 1165 290 s \$0-vcf-wah-pedals/SAWTOOTH-OSCILLATOR/Alternate-Signals/Pink-Noise-Instead-uses-only-Amplitude-control-on-the-left;
#X connect 74 0 114 0;
#X connect 114 0 115 0;
#X obj 2157 270 r \$0-vcf-wah-pedals/SAWTOOTH-OSCILLATOR/Alternate-Signals/Pink-Noise-Instead-uses-only-Amplitude-control-on-the-left;
#X msg 2157 290 /vcf-wah-pedals/SAWTOOTH-OSCILLATOR/Alternate-Signals/Pink-Noise-Instead-uses-only-Amplitude-control-on-the-left \$1;
#X connect 116 0 117 0;
#X connect 117 0 75 0;
#X obj 3149 270 route /vcf-wah-pedals/SAWTOOTH-OSCILLATOR/Alternate-Signals/Pink-Noise-Instead-uses-only-Amplitude-control-on-the-left;
#X obj 3149 290 s \$0-vcf-wah-pedals/SAWTOOTH-OSCILLATOR/Alternate-Signals/Pink-Noise-Instead-uses-only-Amplitude-control-on-the-left;
#X connect 112 1 118 0;
#X connect 118 0 119 0;
#X msg 1165 310 0;
#X obj 1165 330 s \$0-vcf-wah-pedals/SAWTOOTH-OSCILLATOR/Alternate-Signals/External-Input-Instead-overrides-Sawtooth-Noise-selection-above;
#X connect 74 0 120 0;
#X connect 120 0 121 0;
#X obj 2157 310 r \$0-vcf-wah-pedals/SAWTOOTH-OSCILLATOR/Alternate-Signals/External-Input-Instead-overrides-Sawtooth-Noise-selection-above;
#X msg 2157 330 /vcf-wah-pedals/SAWTOOTH-OSCILLATOR/Alternate-Signals/External-Input-Instead-overrides-Sawtooth-Noise-selection-above \$1;
#X connect 122 0 123 0;
#X connect 123 0 75 0;
#X obj 3149 310 route /vcf-wah-pedals/SAWTOOTH-OSCILLATOR/Alternate-Signals/External-Input-Instead-overrides-Sawtooth-Noise-selection-above;
#X obj 3149 330 s \$0-vcf-wah-pedals/SAWTOOTH-OSCILLATOR/Alternate-Signals/External-Input-Instead-overrides-Sawtooth-Noise-selection-above;
#X connect 118 1 124 0;
#X connect 124 0 125 0;
#X msg 1165 350 0;
#X obj 1165 370 s \$0-vcf-wah-pedals/CRYBABY/Bypass;
#X connect 74 0 126 0;
#X connect 126 0 127 0;
#X obj 2157 350 r \$0-vcf-wah-pedals/CRYBABY/Bypass;
#X msg 2157 370 /vcf-wah-pedals/CRYBABY/Bypass \$1;
#X connect 128 0 129 0;
#X connect 129 0 75 0;
#X obj 3149 350 route /vcf-wah-pedals/CRYBABY/Bypass;
#X obj 3149 370 s \$0-vcf-wah-pedals/CRYBABY/Bypass;
#X connect 124 1 130 0;
#X connect 130 0 131 0;
#X msg 1165 390 0.8;
#X obj 1165 410 s \$0-vcf-wah-pedals/CRYBABY/Wah-parameter;
#X connect 74 0 132 0;
#X connect 132 0 133 0;
#X obj 2157 390 r \$0-vcf-wah-pedals/CRYBABY/Wah-parameter;
#X msg 2157 410 /vcf-wah-pedals/CRYBABY/Wah-parameter \$1;
#X connect 134 0 135 0;
#X connect 135 0 75 0;
#X obj 3149 390 route /vcf-wah-pedals/CRYBABY/Wah-parameter;
#X obj 3149 410 s \$0-vcf-wah-pedals/CRYBABY/Wah-parameter;
#X connect 130 1 136 0;
#X connect 136 0 137 0;
#X msg 1165 430 0;
#X obj 1165 450 s \$0-vcf-wah-pedals/WAH4/Bypass;
#X connect 74 0 138 0;
#X connect 138 0 139 0;
#X obj 2157 430 r \$0-vcf-wah-pedals/WAH4/Bypass;
#X msg 2157 450 /vcf-wah-pedals/WAH4/Bypass \$1;
#X connect 140 0 141 0;
#X connect 141 0 75 0;
#X obj 3149 430 route /vcf-wah-pedals/WAH4/Bypass;
#X obj 3149 450 s \$0-vcf-wah-pedals/WAH4/Bypass;
#X connect 136 1 142 0;
#X connect 142 0 143 0;
#X msg 1165 470 200;
#X obj 1165 490 s \$0-vcf-wah-pedals/WAH4/Resonance-Frequency;
#X connect 74 0 144 0;
#X connect 144 0 145 0;
#X obj 2157 470 r \$0-vcf-wah-pedals/WAH4/Resonance-Frequency;
#X msg 2157 490 /vcf-wah-pedals/WAH4/Resonance-Frequency \$1;
#X connect 146 0 147 0;
#X connect 147 0 75 0;
#X obj 3149 470 route /vcf-wah-pedals/WAH4/Resonance-Frequency;
#X obj 3149 490 s \$0-vcf-wah-pedals/WAH4/Resonance-Frequency;
#X connect 142 1 148 0;
#X connect 148 0 149 0;
#X msg 1165 510 0;
#X obj 1165 530 s \$0-vcf-wah-pedals/MOOG-VCF-Voltage-Controlled-Filter/Bypass;
#X connect 74 0 150 0;
#X connect 150 0 151 0;
#X obj 2157 510 r \$0-vcf-wah-pedals/MOOG-VCF-Voltage-Controlled-Filter/Bypass;
#X msg 2157 530 /vcf-wah-pedals/MOOG-VCF-Voltage-Controlled-Filter/Bypass \$1;
#X connect 152 0 153 0;
#X connect 153 0 75 0;
#X obj 3149 510 route /vcf-wah-pedals/MOOG-VCF-Voltage-Controlled-Filter/Bypass;
#X obj 3149 530 s \$0-vcf-wah-pedals/MOOG-VCF-Voltage-Controlled-Filter/Bypass;
#X connect 148 1 154 0;
#X connect 154 0 155 0;
#X msg 1165 550 0;
#X obj 1165 570 s \$0-vcf-wah-pedals/MOOG-VCF-Voltage-Controlled-Filter/Use-Biquads;
#X connect 74 0 156 0;
#X connect 156 0 157 0;
#X obj 2157 550 r \$0-vcf-wah-pedals/MOOG-VCF-Voltage-Controlled-Filter/Use-Biquads;
#X msg 2157 570 /vcf-wah-pedals/MOOG-VCF-Voltage-Controlled-Filter/Use-Biquads \$1;
#X connect 158 0 159 0;
#X connect 159 0 75 0;
#X obj 3149 550 route /vcf-wah-pedals/MOOG-VCF-Voltage-Controlled-Filter/Use-Biquads;
#X obj 3149 570 s \$0-vcf-wah-pedals/MOOG-VCF-Voltage-Controlled-Filter/Use-Biquads;
#X connect 154 1 160 0;
#X connect 160 0 161 0;
#X msg 1165 590 0;
#X obj 1165 610 s \$0-vcf-wah-pedals/MOOG-VCF-Voltage-Controlled-Filter/Normalized-Ladders;
#X connect 74 0 162 0;
#X connect 162 0 163 0;
#X obj 2157 590 r \$0-vcf-wah-pedals/MOOG-VCF-Voltage-Controlled-Filter/Normalized-Ladders;
#X msg 2157 610 /vcf-wah-pedals/MOOG-VCF-Voltage-Controlled-Filter/Normalized-Ladders \$1;
#X connect 164 0 165 0;
#X connect 165 0 75 0;
#X obj 3149 590 route /vcf-wah-pedals/MOOG-VCF-Voltage-Controlled-Filter/Normalized-Ladders;
#X obj 3149 610 s \$0-vcf-wah-pedals/MOOG-VCF-Voltage-Controlled-Filter/Normalized-Ladders;
#X connect 160 1 166 0;
#X connect 166 0 167 0;
#X msg 1165 630 5;
#X obj 1165 650 s \$0-vcf-wah-pedals/MOOG-VCF-Voltage-Controlled-Filter/VCF-Output-Level;
#X connect 74 0 168 0;
#X connect 168 0 169 0;
#X obj 2157 630 r \$0-vcf-wah-pedals/MOOG-VCF-Voltage-Controlled-Filter/VCF-Output-Level;
#X msg 2157 650 /vcf-wah-pedals/MOOG-VCF-Voltage-Controlled-Filter/VCF-Output-Level \$1;
#X connect 170 0 171 0;
#X connect 171 0 75 0;
#X obj 3149 630 route /vcf-wah-pedals/MOOG-VCF-Voltage-Controlled-Filter/VCF-Output-Level;
#X obj 3149 650 s \$0-vcf-wah-pedals/MOOG-VCF-Voltage-Controlled-Filter/VCF-Output-Level;
#X connect 166 1 172 0;
#X connect 172 0 173 0;
#X msg 1165 670 25;
#X obj 1165 690 s \$0-vcf-wah-pedals/MOOG-VCF-Voltage-Controlled-Filter/Corner-Frequency;
#X connect 74 0 174 0;
#X connect 174 0 175 0;
#X obj 2157 670 r \$0-vcf-wah-pedals/MOOG-VCF-Voltage-Controlled-Filter/Corner-Frequency;
#X msg 2157 690 /vcf-wah-pedals/MOOG-VCF-Voltage-Controlled-Filter/Corner-Frequency \$1;
#X connect 176 0 177 0;
#X connect 177 0 75 0;
#X obj 3149 670 route /vcf-wah-pedals/MOOG-VCF-Voltage-Controlled-Filter/Corner-Frequency;
#X obj 3149 690 s \$0-vcf-wah-pedals/MOOG-VCF-Voltage-Controlled-Filter/Corner-Frequency;
#X connect 172 1 178 0;
#X connect 178 0 179 0;
#X msg 1165 710 0.9;
#X obj 1165 730 s \$0-vcf-wah-pedals/MOOG-VCF-Voltage-Controlled-Filter/Corner-Resonance;
#X connect 74 0 180 0;
#X connect 180 0 181 0;
#X obj 2157 710 r \$0-vcf-wah-pedals/MOOG-VCF-Voltage-Controlled-Filter/Corner-Resonance;
#X msg 2157 730 /vcf-wah-pedals/MOOG-VCF-Voltage-Controlled-Filter/Corner-Resonance \$1;
#X connect 182 0 183 0;
#X connect 183 0 75 0;
#X obj 3149 710 route /vcf-wah-pedals/MOOG-VCF-Voltage-Controlled-Filter/Corner-Resonance;
#X obj 3149 730 s \$0-vcf-wah-pedals/MOOG-VCF-Voltage-Controlled-Filter/Corner-Resonance;
#X connect 178 1 184 0;
#X connect 184 0 185 0;
#X msg 1165 750 0;
#X obj 1165 770 s \$0-vcf-wah-pedals/CONSTANT-Q-SPECTRUM-ANALYZER-6E;
#X connect 74 0 186 0;
#X connect 186 0 187 0;
#X obj 2157 750 faust-timer \$0;
#X msg 2157 770 /vcf-wah-pedals/CONSTANT-Q-SPECTRUM-ANALYZER-6E;
#X connect 188 0 189 0;
#X connect 189 0 76 0;
#X obj 3149 750 route /vcf-wah-pedals/CONSTANT-Q-SPECTRUM-ANALYZER-6E;
#X obj 3149 770 s \$0-vcf-wah-pedals/CONSTANT-Q-SPECTRUM-ANALYZER-6E;
#X connect 184 1 190 0;
#X connect 190 0 191 0;
#X msg 1165 790 0;
#X obj 1165 810 s \$0-vcf-wah-pedals/CONSTANT-Q-SPECTRUM-ANALYZER-6E;
#X connect 74 0 192 0;
#X connect 192 0 193 0;
#X obj 2157 790 faust-timer \$0;
#X msg 2157 810 /vcf-wah-pedals/CONSTANT-Q-SPECTRUM-ANALYZER-6E;
#X connect 194 0 195 0;
#X connect 195 0 76 0;
#X obj 3149 790 route /vcf-wah-pedals/CONSTANT-Q-SPECTRUM-ANALYZER-6E;
#X obj 3149 810 s \$0-vcf-wah-pedals/CONSTANT-Q-SPECTRUM-ANALYZER-6E;
#X connect 190 1 196 0;
#X connect 196 0 197 0;
#X msg 1165 830 0;
#X obj 1165 850 s \$0-vcf-wah-pedals/CONSTANT-Q-SPECTRUM-ANALYZER-6E;
#X connect 74 0 198 0;
#X connect 198 0 199 0;
#X obj 2157 830 faust-timer \$0;
#X msg 2157 850 /vcf-wah-pedals/CONSTANT-Q-SPECTRUM-ANALYZER-6E;
#X connect 200 0 201 0;
#X connect 201 0 76 0;
#X obj 3149 830 route /vcf-wah-pedals/CONSTANT-Q-SPECTRUM-ANALYZER-6E;
#X obj 3149 850 s \$0-vcf-wah-pedals/CONSTANT-Q-SPECTRUM-ANALYZER-6E;
#X connect 196 1 202 0;
#X connect 202 0 203 0;
#X msg 1165 870 0;
#X obj 1165 890 s \$0-vcf-wah-pedals/CONSTANT-Q-SPECTRUM-ANALYZER-6E;
#X connect 74 0 204 0;
#X connect 204 0 205 0;
#X obj 2157 870 faust-timer \$0;
#X msg 2157 890 /vcf-wah-pedals/CONSTANT-Q-SPECTRUM-ANALYZER-6E;
#X connect 206 0 207 0;
#X connect 207 0 76 0;
#X obj 3149 870 route /vcf-wah-pedals/CONSTANT-Q-SPECTRUM-ANALYZER-6E;
#X obj 3149 890 s \$0-vcf-wah-pedals/CONSTANT-Q-SPECTRUM-ANALYZER-6E;
#X connect 202 1 208 0;
#X connect 208 0 209 0;
#X msg 1165 910 0;
#X obj 1165 930 s \$0-vcf-wah-pedals/CONSTANT-Q-SPECTRUM-ANALYZER-6E;
#X connect 74 0 210 0;
#X connect 210 0 211 0;
#X obj 2157 910 faust-timer \$0;
#X msg 2157 930 /vcf-wah-pedals/CONSTANT-Q-SPECTRUM-ANALYZER-6E;
#X connect 212 0 213 0;
#X connect 213 0 76 0;
#X obj 3149 910 route /vcf-wah-pedals/CONSTANT-Q-SPECTRUM-ANALYZER-6E;
#X obj 3149 930 s \$0-vcf-wah-pedals/CONSTANT-Q-SPECTRUM-ANALYZER-6E;
#X connect 208 1 214 0;
#X connect 214 0 215 0;
#X msg 1165 950 0;
#X obj 1165 970 s \$0-vcf-wah-pedals/CONSTANT-Q-SPECTRUM-ANALYZER-6E;
#X connect 74 0 216 0;
#X connect 216 0 217 0;
#X obj 2157 950 faust-timer \$0;
#X msg 2157 970 /vcf-wah-pedals/CONSTANT-Q-SPECTRUM-ANALYZER-6E;
#X connect 218 0 219 0;
#X connect 219 0 76 0;
#X obj 3149 950 route /vcf-wah-pedals/CONSTANT-Q-SPECTRUM-ANALYZER-6E;
#X obj 3149 970 s \$0-vcf-wah-pedals/CONSTANT-Q-SPECTRUM-ANALYZER-6E;
#X connect 214 1 220 0;
#X connect 220 0 221 0;
#X msg 1165 990 0;
#X obj 1165 1010 s \$0-vcf-wah-pedals/CONSTANT-Q-SPECTRUM-ANALYZER-6E;
#X connect 74 0 222 0;
#X connect 222 0 223 0;
#X obj 2157 990 faust-timer \$0;
#X msg 2157 1010 /vcf-wah-pedals/CONSTANT-Q-SPECTRUM-ANALYZER-6E;
#X connect 224 0 225 0;
#X connect 225 0 76 0;
#X obj 3149 990 route /vcf-wah-pedals/CONSTANT-Q-SPECTRUM-ANALYZER-6E;
#X obj 3149 1010 s \$0-vcf-wah-pedals/CONSTANT-Q-SPECTRUM-ANALYZER-6E;
#X connect 220 1 226 0;
#X connect 226 0 227 0;
#X msg 1165 1030 0;
#X obj 1165 1050 s \$0-vcf-wah-pedals/CONSTANT-Q-SPECTRUM-ANALYZER-6E;
#X connect 74 0 228 0;
#X connect 228 0 229 0;
#X obj 2157 1030 faust-timer \$0;
#X msg 2157 1050 /vcf-wah-pedals/CONSTANT-Q-SPECTRUM-ANALYZER-6E;
#X connect 230 0 231 0;
#X connect 231 0 76 0;
#X obj 3149 1030 route /vcf-wah-pedals/CONSTANT-Q-SPECTRUM-ANALYZER-6E;
#X obj 3149 1050 s \$0-vcf-wah-pedals/CONSTANT-Q-SPECTRUM-ANALYZER-6E;
#X connect 226 1 232 0;
#X connect 232 0 233 0;
#X msg 1165 1070 0;
#X obj 1165 1090 s \$0-vcf-wah-pedals/CONSTANT-Q-SPECTRUM-ANALYZER-6E;
#X connect 74 0 234 0;
#X connect 234 0 235 0;
#X obj 2157 1070 faust-timer \$0;
#X msg 2157 1090 /vcf-wah-pedals/CONSTANT-Q-SPECTRUM-ANALYZER-6E;
#X connect 236 0 237 0;
#X connect 237 0 76 0;
#X obj 3149 1070 route /vcf-wah-pedals/CONSTANT-Q-SPECTRUM-ANALYZER-6E;
#X obj 3149 1090 s \$0-vcf-wah-pedals/CONSTANT-Q-SPECTRUM-ANALYZER-6E;
#X connect 232 1 238 0;
#X connect 238 0 239 0;
#X msg 1165 1110 0;
#X obj 1165 1130 s \$0-vcf-wah-pedals/CONSTANT-Q-SPECTRUM-ANALYZER-6E;
#X connect 74 0 240 0;
#X connect 240 0 241 0;
#X obj 2157 1110 faust-timer \$0;
#X msg 2157 1130 /vcf-wah-pedals/CONSTANT-Q-SPECTRUM-ANALYZER-6E;
#X connect 242 0 243 0;
#X connect 243 0 76 0;
#X obj 3149 1110 route /vcf-wah-pedals/CONSTANT-Q-SPECTRUM-ANALYZER-6E;
#X obj 3149 1130 s \$0-vcf-wah-pedals/CONSTANT-Q-SPECTRUM-ANALYZER-6E;
#X connect 238 1 244 0;
#X connect 244 0 245 0;
#X msg 1165 1150 0;
#X obj 1165 1170 s \$0-vcf-wah-pedals/CONSTANT-Q-SPECTRUM-ANALYZER-6E;
#X connect 74 0 246 0;
#X connect 246 0 247 0;
#X obj 2157 1150 faust-timer \$0;
#X msg 2157 1170 /vcf-wah-pedals/CONSTANT-Q-SPECTRUM-ANALYZER-6E;
#X connect 248 0 249 0;
#X connect 249 0 76 0;
#X obj 3149 1150 route /vcf-wah-pedals/CONSTANT-Q-SPECTRUM-ANALYZER-6E;
#X obj 3149 1170 s \$0-vcf-wah-pedals/CONSTANT-Q-SPECTRUM-ANALYZER-6E;
#X connect 244 1 250 0;
#X connect 250 0 251 0;
#X msg 1165 1190 0;
#X obj 1165 1210 s \$0-vcf-wah-pedals/CONSTANT-Q-SPECTRUM-ANALYZER-6E;
#X connect 74 0 252 0;
#X connect 252 0 253 0;
#X obj 2157 1190 faust-timer \$0;
#X msg 2157 1210 /vcf-wah-pedals/CONSTANT-Q-SPECTRUM-ANALYZER-6E;
#X connect 254 0 255 0;
#X connect 255 0 76 0;
#X obj 3149 1190 route /vcf-wah-pedals/CONSTANT-Q-SPECTRUM-ANALYZER-6E;
#X obj 3149 1210 s \$0-vcf-wah-pedals/CONSTANT-Q-SPECTRUM-ANALYZER-6E;
#X connect 250 1 256 0;
#X connect 256 0 257 0;
#X msg 1165 1230 0;
#X obj 1165 1250 s \$0-vcf-wah-pedals/CONSTANT-Q-SPECTRUM-ANALYZER-6E;
#X connect 74 0 258 0;
#X connect 258 0 259 0;
#X obj 2157 1230 faust-timer \$0;
#X msg 2157 1250 /vcf-wah-pedals/CONSTANT-Q-SPECTRUM-ANALYZER-6E;
#X connect 260 0 261 0;
#X connect 261 0 76 0;
#X obj 3149 1230 route /vcf-wah-pedals/CONSTANT-Q-SPECTRUM-ANALYZER-6E;
#X obj 3149 1250 s \$0-vcf-wah-pedals/CONSTANT-Q-SPECTRUM-ANALYZER-6E;
#X connect 256 1 262 0;
#X connect 262 0 263 0;
#X msg 1165 1270 0;
#X obj 1165 1290 s \$0-vcf-wah-pedals/CONSTANT-Q-SPECTRUM-ANALYZER-6E;
#X connect 74 0 264 0;
#X connect 264 0 265 0;
#X obj 2157 1270 faust-timer \$0;
#X msg 2157 1290 /vcf-wah-pedals/CONSTANT-Q-SPECTRUM-ANALYZER-6E;
#X connect 266 0 267 0;
#X connect 267 0 76 0;
#X obj 3149 1270 route /vcf-wah-pedals/CONSTANT-Q-SPECTRUM-ANALYZER-6E;
#X obj 3149 1290 s \$0-vcf-wah-pedals/CONSTANT-Q-SPECTRUM-ANALYZER-6E;
#X connect 262 1 268 0;
#X connect 268 0 269 0;
#X msg 1165 1310 0;
#X obj 1165 1330 s \$0-vcf-wah-pedals/CONSTANT-Q-SPECTRUM-ANALYZER-6E;
#X connect 74 0 270 0;
#X connect 270 0 271 0;
#X obj 2157 1310 faust-timer \$0;
#X msg 2157 1330 /vcf-wah-pedals/CONSTANT-Q-SPECTRUM-ANALYZER-6E;
#X connect 272 0 273 0;
#X connect 273 0 76 0;
#X obj 3149 1310 route /vcf-wah-pedals/CONSTANT-Q-SPECTRUM-ANALYZER-6E;
#X obj 3149 1330 s \$0-vcf-wah-pedals/CONSTANT-Q-SPECTRUM-ANALYZER-6E;
#X connect 268 1 274 0;
#X connect 274 0 275 0;
#X msg 1165 1350 0.1;
#X obj 1165 1370 s \$0-vcf-wah-pedals/SPECTRUM-ANALYZER-CONTROLS/Level-Averaging-Time;
#X connect 74 0 276 0;
#X connect 276 0 277 0;
#X obj 2157 1350 r \$0-vcf-wah-pedals/SPECTRUM-ANALYZER-CONTROLS/Level-Averaging-Time;
#X msg 2157 1370 /vcf-wah-pedals/SPECTRUM-ANALYZER-CONTROLS/Level-Averaging-Time \$1;
#X connect 278 0 279 0;
#X connect 279 0 75 0;
#X obj 3149 1350 route /vcf-wah-pedals/SPECTRUM-ANALYZER-CONTROLS/Level-Averaging-Time;
#X obj 3149 1370 s \$0-vcf-wah-pedals/SPECTRUM-ANALYZER-CONTROLS/Level-Averaging-Time;
#X connect 274 1 280 0;
#X connect 280 0 281 0;
#X msg 1165 1390 50;
#X obj 1165 1410 s \$0-vcf-wah-pedals/SPECTRUM-ANALYZER-CONTROLS/Level-dB-Offset;
#X connect 74 0 282 0;
#X connect 282 0 283 0;
#X obj 2157 1390 r \$0-vcf-wah-pedals/SPECTRUM-ANALYZER-CONTROLS/Level-dB-Offset;
#X msg 2157 1410 /vcf-wah-pedals/SPECTRUM-ANALYZER-CONTROLS/Level-dB-Offset \$1;
#X connect 284 0 285 0;
#X connect 285 0 75 0;
#X obj 3149 1390 route /vcf-wah-pedals/SPECTRUM-ANALYZER-CONTROLS/Level-dB-Offset;
#X obj 3149 1410 s \$0-vcf-wah-pedals/SPECTRUM-ANALYZER-CONTROLS/Level-dB-Offset;
#X connect 280 1 286 0;
#X connect 286 0 287 0;
#X coords 0 -1 1 1 1135 530 1 0 0;
#X text 0 550 Generated Sun Aug  4 09:11:53 2013 by faust2pd v2.5. See http://faust.grame.fr and http://pure-lang.googlecode.com.;
