#N canvas 0 0 450 300 10;
#X obj 70 930 inlet~;
#X obj 10 930 inlet;
#X obj 130 930 r \$0-read;
#X obj 130 960 faust-control \$0;
#X obj 130 990 s \$0-write;
#X obj 10 990 r \$0-in;
#X obj 10 1020 virtual_analog_oscillators~;
#X obj 10 1050 s \$0-out;
#X obj 70 1080 outlet~;
#X obj 130 1080 outlet~;
#X obj 10 1080 outlet;
#X connect 1 0 3 0;
#X connect 2 0 3 0;
#X connect 3 0 4 0;
#X connect 6 0 7 0;
#X connect 1 0 10 0;
#X connect 5 0 6 0;
#X connect 0 0 6 1;
#X connect 6 1 8 0;
#X connect 6 2 9 0;
#X obj 10 30 vsl 15 128 0 1 0 0 \$0-virtual-analog-oscillators/VIRTUAL-ANALOG-OSCILLATORS/Signal-Levels/Sawtooth \$0-virtual-analog-oscillators/VIRTUAL-ANALOG-OSCILLATORS/Signal-Levels/Sawtooth Sawtooth 0 -8 0 10 -262144 -1 -1 0 1;
#X obj 10 170 nbx 5 14 0 1 0 0 \$0-virtual-analog-oscillators/VIRTUAL-ANALOG-OSCILLATORS/Signal-Levels/Sawtooth \$0-virtual-analog-oscillators/VIRTUAL-ANALOG-OSCILLATORS/Signal-Levels/Sawtooth empty 0 -6 0 10 -262144 -1 -1 256;
#X obj 85 30 tgl 15 0 \$0-virtual-analog-oscillators/VIRTUAL-ANALOG-OSCILLATORS/Signal-Levels/Pulse-Train/Order-3 \$0-virtual-analog-oscillators/VIRTUAL-ANALOG-OSCILLATORS/Signal-Levels/Pulse-Train/Order-3 Order-3 0 -6 0 10 -262144 -1 -1 0 1;
#X obj 85 60 vsl 15 128 0 1 0 0 \$0-virtual-analog-oscillators/VIRTUAL-ANALOG-OSCILLATORS/Signal-Levels/Pulse-Train \$0-virtual-analog-oscillators/VIRTUAL-ANALOG-OSCILLATORS/Signal-Levels/Pulse-Train empty 0 -8 0 10 -262144 -1 -1 0 1;
#X obj 85 200 nbx 5 14 0 1 0 0 \$0-virtual-analog-oscillators/VIRTUAL-ANALOG-OSCILLATORS/Signal-Levels/Pulse-Train \$0-virtual-analog-oscillators/VIRTUAL-ANALOG-OSCILLATORS/Signal-Levels/Pulse-Train empty 0 -6 0 10 -262144 -1 -1 256;
#X obj 85 240 vsl 15 128 0 1 0 0 \$0-virtual-analog-oscillators/VIRTUAL-ANALOG-OSCILLATORS/Signal-Levels/Pulse-Train/Duty-Cycle \$0-virtual-analog-oscillators/VIRTUAL-ANALOG-OSCILLATORS/Signal-Levels/Pulse-Train/Duty-Cycle Duty-Cycle 0 -8 0 10 -262144 -1 -1 0 1;
#X obj 85 380 nbx 5 14 0 1 0 0 \$0-virtual-analog-oscillators/VIRTUAL-ANALOG-OSCILLATORS/Signal-Levels/Pulse-Train/Duty-Cycle \$0-virtual-analog-oscillators/VIRTUAL-ANALOG-OSCILLATORS/Signal-Levels/Pulse-Train/Duty-Cycle empty 0 -6 0 10 -262144 -1 -1 256;
#X obj 160 30 vsl 15 128 0 1 0 0 \$0-virtual-analog-oscillators/VIRTUAL-ANALOG-OSCILLATORS/Signal-Levels/Square \$0-virtual-analog-oscillators/VIRTUAL-ANALOG-OSCILLATORS/Signal-Levels/Square Square 0 -8 0 10 -262144 -1 -1 0 1;
#X obj 160 170 nbx 5 14 0 1 0 0 \$0-virtual-analog-oscillators/VIRTUAL-ANALOG-OSCILLATORS/Signal-Levels/Square \$0-virtual-analog-oscillators/VIRTUAL-ANALOG-OSCILLATORS/Signal-Levels/Square empty 0 -6 0 10 -262144 -1 -1 256;
#X obj 235 30 vsl 15 128 0 1 0 0 \$0-virtual-analog-oscillators/VIRTUAL-ANALOG-OSCILLATORS/Signal-Levels/Triangle \$0-virtual-analog-oscillators/VIRTUAL-ANALOG-OSCILLATORS/Signal-Levels/Triangle Triangle 0 -8 0 10 -262144 -1 -1 0 1;
#X obj 235 170 nbx 5 14 0 1 0 0 \$0-virtual-analog-oscillators/VIRTUAL-ANALOG-OSCILLATORS/Signal-Levels/Triangle \$0-virtual-analog-oscillators/VIRTUAL-ANALOG-OSCILLATORS/Signal-Levels/Triangle empty 0 -6 0 10 -262144 -1 -1 256;
#X obj 310 30 vsl 15 128 0 1 0 0 \$0-virtual-analog-oscillators/VIRTUAL-ANALOG-OSCILLATORS/Signal-Levels/Pink-Noise \$0-virtual-analog-oscillators/VIRTUAL-ANALOG-OSCILLATORS/Signal-Levels/Pink-Noise Pink-Noise 0 -8 0 10 -262144 -1 -1 0 1;
#X obj 310 170 nbx 5 14 0 1 0 0 \$0-virtual-analog-oscillators/VIRTUAL-ANALOG-OSCILLATORS/Signal-Levels/Pink-Noise \$0-virtual-analog-oscillators/VIRTUAL-ANALOG-OSCILLATORS/Signal-Levels/Pink-Noise empty 0 -6 0 10 -262144 -1 -1 256;
#X obj 385 30 vsl 15 128 0 1 0 0 \$0-virtual-analog-oscillators/VIRTUAL-ANALOG-OSCILLATORS/Signal-Levels/Ext-Input \$0-virtual-analog-oscillators/VIRTUAL-ANALOG-OSCILLATORS/Signal-Levels/Ext-Input Ext-Input 0 -8 0 10 -262144 -1 -1 0 1;
#X obj 385 170 nbx 5 14 0 1 0 0 \$0-virtual-analog-oscillators/VIRTUAL-ANALOG-OSCILLATORS/Signal-Levels/Ext-Input \$0-virtual-analog-oscillators/VIRTUAL-ANALOG-OSCILLATORS/Signal-Levels/Ext-Input empty 0 -6 0 10 -262144 -1 -1 256;
#X obj 10 420 hsl 128 15 -120 10 0 0 \$0-virtual-analog-oscillators/VIRTUAL-ANALOG-OSCILLATORS/Signal-Parameters/Mix-Amplitude \$0-virtual-analog-oscillators/VIRTUAL-ANALOG-OSCILLATORS/Signal-Parameters/Mix-Amplitude Mix-Amplitude -2 -6 0 10 -262144 -1 -1 0 1;
#X obj 160 420 nbx 5 14 -120 10 0 0 \$0-virtual-analog-oscillators/VIRTUAL-ANALOG-OSCILLATORS/Signal-Parameters/Mix-Amplitude \$0-virtual-analog-oscillators/VIRTUAL-ANALOG-OSCILLATORS/Signal-Parameters/Mix-Amplitude empty 0 -6 0 10 -262144 -1 -1 256;
#X obj 10 450 hsl 128 15 1 88 0 0 \$0-virtual-analog-oscillators/VIRTUAL-ANALOG-OSCILLATORS/Signal-Parameters/Frequency \$0-virtual-analog-oscillators/VIRTUAL-ANALOG-OSCILLATORS/Signal-Parameters/Frequency Frequency -2 -6 0 10 -262144 -1 -1 0 1;
#X obj 160 450 nbx 5 14 1 88 0 0 \$0-virtual-analog-oscillators/VIRTUAL-ANALOG-OSCILLATORS/Signal-Parameters/Frequency \$0-virtual-analog-oscillators/VIRTUAL-ANALOG-OSCILLATORS/Signal-Parameters/Frequency empty 0 -6 0 10 -262144 -1 -1 256;
#X obj 235 420 vsl 15 128 -10 10 0 0 \$0-virtual-analog-oscillators/VIRTUAL-ANALOG-OSCILLATORS/Signal-Parameters/Detuning-1 \$0-virtual-analog-oscillators/VIRTUAL-ANALOG-OSCILLATORS/Signal-Parameters/Detuning-1 Detuning-1 0 -8 0 10 -262144 -1 -1 0 1;
#X obj 235 560 nbx 5 14 -10 10 0 0 \$0-virtual-analog-oscillators/VIRTUAL-ANALOG-OSCILLATORS/Signal-Parameters/Detuning-1 \$0-virtual-analog-oscillators/VIRTUAL-ANALOG-OSCILLATORS/Signal-Parameters/Detuning-1 empty 0 -6 0 10 -262144 -1 -1 256;
#X obj 310 420 vsl 15 128 -10 10 0 0 \$0-virtual-analog-oscillators/VIRTUAL-ANALOG-OSCILLATORS/Signal-Parameters/Detuning-2 \$0-virtual-analog-oscillators/VIRTUAL-ANALOG-OSCILLATORS/Signal-Parameters/Detuning-2 Detuning-2 0 -8 0 10 -262144 -1 -1 0 1;
#X obj 310 560 nbx 5 14 -10 10 0 0 \$0-virtual-analog-oscillators/VIRTUAL-ANALOG-OSCILLATORS/Signal-Parameters/Detuning-2 \$0-virtual-analog-oscillators/VIRTUAL-ANALOG-OSCILLATORS/Signal-Parameters/Detuning-2 empty 0 -6 0 10 -262144 -1 -1 256;
#X obj 385 420 vsl 15 128 0.01 1 0 0 \$0-virtual-analog-oscillators/VIRTUAL-ANALOG-OSCILLATORS/Signal-Parameters/Portamento \$0-virtual-analog-oscillators/VIRTUAL-ANALOG-OSCILLATORS/Signal-Parameters/Portamento Portamento 0 -8 0 10 -262144 -1 -1 0 1;
#X obj 385 560 nbx 5 14 0.01 1 0 0 \$0-virtual-analog-oscillators/VIRTUAL-ANALOG-OSCILLATORS/Signal-Parameters/Portamento \$0-virtual-analog-oscillators/VIRTUAL-ANALOG-OSCILLATORS/Signal-Parameters/Portamento empty 0 -6 0 10 -262144 -1 -1 256;
#X obj 10 600 tgl 15 0 \$0-virtual-analog-oscillators/MOOG-VCF-Voltage-Controlled-Filter/Bypass \$0-virtual-analog-oscillators/MOOG-VCF-Voltage-Controlled-Filter/Bypass Bypass 0 -6 0 10 -262144 -1 -1 0 1;
#X obj 60 600 tgl 15 0 \$0-virtual-analog-oscillators/MOOG-VCF-Voltage-Controlled-Filter/Use-Biquads \$0-virtual-analog-oscillators/MOOG-VCF-Voltage-Controlled-Filter/Use-Biquads Use-Biquads 0 -6 0 10 -262144 -1 -1 0 1;
#X obj 110 600 tgl 15 0 \$0-virtual-analog-oscillators/MOOG-VCF-Voltage-Controlled-Filter/Normalized-Ladders \$0-virtual-analog-oscillators/MOOG-VCF-Voltage-Controlled-Filter/Normalized-Ladders Normalized-Ladders 0 -6 0 10 -262144 -1 -1 0 1;
#X obj 10 630 hsl 128 15 -60 20 0 0 \$0-virtual-analog-oscillators/MOOG-VCF-Voltage-Controlled-Filter/VCF-Output-Level \$0-virtual-analog-oscillators/MOOG-VCF-Voltage-Controlled-Filter/VCF-Output-Level VCF-Output-Level -2 -6 0 10 -262144 -1 -1 0 1;
#X obj 160 630 nbx 5 14 -60 20 0 0 \$0-virtual-analog-oscillators/MOOG-VCF-Voltage-Controlled-Filter/VCF-Output-Level \$0-virtual-analog-oscillators/MOOG-VCF-Voltage-Controlled-Filter/VCF-Output-Level empty 0 -6 0 10 -262144 -1 -1 256;
#X obj 235 600 hsl 128 15 1 88 0 0 \$0-virtual-analog-oscillators/MOOG-VCF-Voltage-Controlled-Filter/Corner-Frequency \$0-virtual-analog-oscillators/MOOG-VCF-Voltage-Controlled-Filter/Corner-Frequency Corner-Frequency -2 -6 0 10 -262144 -1 -1 0 1;
#X obj 385 600 nbx 5 14 1 88 0 0 \$0-virtual-analog-oscillators/MOOG-VCF-Voltage-Controlled-Filter/Corner-Frequency \$0-virtual-analog-oscillators/MOOG-VCF-Voltage-Controlled-Filter/Corner-Frequency empty 0 -6 0 10 -262144 -1 -1 256;
#X obj 460 600 hsl 128 15 0 1 0 0 \$0-virtual-analog-oscillators/MOOG-VCF-Voltage-Controlled-Filter/Corner-Resonance \$0-virtual-analog-oscillators/MOOG-VCF-Voltage-Controlled-Filter/Corner-Resonance Corner-Resonance -2 -6 0 10 -262144 -1 -1 0 1;
#X obj 610 600 nbx 5 14 0 1 0 0 \$0-virtual-analog-oscillators/MOOG-VCF-Voltage-Controlled-Filter/Corner-Resonance \$0-virtual-analog-oscillators/MOOG-VCF-Voltage-Controlled-Filter/Corner-Resonance empty 0 -6 0 10 -262144 -1 -1 256;
#X obj 10 660 vsl 15 128 -50 10 0 0 \$0-virtual-analog-oscillators/CONSTANT-Q-SPECTRUM-ANALYZER-6E \$0-virtual-analog-oscillators/CONSTANT-Q-SPECTRUM-ANALYZER-6E empty 0 -8 0 10 -233017 -1 -1 0 1;
#X obj 10 800 nbx 5 14 -50 10 0 0 \$0-virtual-analog-oscillators/CONSTANT-Q-SPECTRUM-ANALYZER-6E \$0-virtual-analog-oscillators/CONSTANT-Q-SPECTRUM-ANALYZER-6E empty 0 -6 0 10 -233017 -1 -1 256;
#X obj 85 660 vsl 15 128 -50 10 0 0 \$0-virtual-analog-oscillators/CONSTANT-Q-SPECTRUM-ANALYZER-6E \$0-virtual-analog-oscillators/CONSTANT-Q-SPECTRUM-ANALYZER-6E empty 0 -8 0 10 -233017 -1 -1 0 1;
#X obj 85 800 nbx 5 14 -50 10 0 0 \$0-virtual-analog-oscillators/CONSTANT-Q-SPECTRUM-ANALYZER-6E \$0-virtual-analog-oscillators/CONSTANT-Q-SPECTRUM-ANALYZER-6E empty 0 -6 0 10 -233017 -1 -1 256;
#X obj 160 660 vsl 15 128 -50 10 0 0 \$0-virtual-analog-oscillators/CONSTANT-Q-SPECTRUM-ANALYZER-6E \$0-virtual-analog-oscillators/CONSTANT-Q-SPECTRUM-ANALYZER-6E empty 0 -8 0 10 -233017 -1 -1 0 1;
#X obj 160 800 nbx 5 14 -50 10 0 0 \$0-virtual-analog-oscillators/CONSTANT-Q-SPECTRUM-ANALYZER-6E \$0-virtual-analog-oscillators/CONSTANT-Q-SPECTRUM-ANALYZER-6E empty 0 -6 0 10 -233017 -1 -1 256;
#X obj 235 660 vsl 15 128 -50 10 0 0 \$0-virtual-analog-oscillators/CONSTANT-Q-SPECTRUM-ANALYZER-6E \$0-virtual-analog-oscillators/CONSTANT-Q-SPECTRUM-ANALYZER-6E empty 0 -8 0 10 -233017 -1 -1 0 1;
#X obj 235 800 nbx 5 14 -50 10 0 0 \$0-virtual-analog-oscillators/CONSTANT-Q-SPECTRUM-ANALYZER-6E \$0-virtual-analog-oscillators/CONSTANT-Q-SPECTRUM-ANALYZER-6E empty 0 -6 0 10 -233017 -1 -1 256;
#X obj 310 660 vsl 15 128 -50 10 0 0 \$0-virtual-analog-oscillators/CONSTANT-Q-SPECTRUM-ANALYZER-6E \$0-virtual-analog-oscillators/CONSTANT-Q-SPECTRUM-ANALYZER-6E empty 0 -8 0 10 -233017 -1 -1 0 1;
#X obj 310 800 nbx 5 14 -50 10 0 0 \$0-virtual-analog-oscillators/CONSTANT-Q-SPECTRUM-ANALYZER-6E \$0-virtual-analog-oscillators/CONSTANT-Q-SPECTRUM-ANALYZER-6E empty 0 -6 0 10 -233017 -1 -1 256;
#X obj 385 660 vsl 15 128 -50 10 0 0 \$0-virtual-analog-oscillators/CONSTANT-Q-SPECTRUM-ANALYZER-6E \$0-virtual-analog-oscillators/CONSTANT-Q-SPECTRUM-ANALYZER-6E empty 0 -8 0 10 -233017 -1 -1 0 1;
#X obj 385 800 nbx 5 14 -50 10 0 0 \$0-virtual-analog-oscillators/CONSTANT-Q-SPECTRUM-ANALYZER-6E \$0-virtual-analog-oscillators/CONSTANT-Q-SPECTRUM-ANALYZER-6E empty 0 -6 0 10 -233017 -1 -1 256;
#X obj 460 660 vsl 15 128 -50 10 0 0 \$0-virtual-analog-oscillators/CONSTANT-Q-SPECTRUM-ANALYZER-6E \$0-virtual-analog-oscillators/CONSTANT-Q-SPECTRUM-ANALYZER-6E empty 0 -8 0 10 -233017 -1 -1 0 1;
#X obj 460 800 nbx 5 14 -50 10 0 0 \$0-virtual-analog-oscillators/CONSTANT-Q-SPECTRUM-ANALYZER-6E \$0-virtual-analog-oscillators/CONSTANT-Q-SPECTRUM-ANALYZER-6E empty 0 -6 0 10 -233017 -1 -1 256;
#X obj 535 660 vsl 15 128 -50 10 0 0 \$0-virtual-analog-oscillators/CONSTANT-Q-SPECTRUM-ANALYZER-6E \$0-virtual-analog-oscillators/CONSTANT-Q-SPECTRUM-ANALYZER-6E empty 0 -8 0 10 -233017 -1 -1 0 1;
#X obj 535 800 nbx 5 14 -50 10 0 0 \$0-virtual-analog-oscillators/CONSTANT-Q-SPECTRUM-ANALYZER-6E \$0-virtual-analog-oscillators/CONSTANT-Q-SPECTRUM-ANALYZER-6E empty 0 -6 0 10 -233017 -1 -1 256;
#X obj 610 660 vsl 15 128 -50 10 0 0 \$0-virtual-analog-oscillators/CONSTANT-Q-SPECTRUM-ANALYZER-6E \$0-virtual-analog-oscillators/CONSTANT-Q-SPECTRUM-ANALYZER-6E empty 0 -8 0 10 -233017 -1 -1 0 1;
#X obj 610 800 nbx 5 14 -50 10 0 0 \$0-virtual-analog-oscillators/CONSTANT-Q-SPECTRUM-ANALYZER-6E \$0-virtual-analog-oscillators/CONSTANT-Q-SPECTRUM-ANALYZER-6E empty 0 -6 0 10 -233017 -1 -1 256;
#X obj 685 660 vsl 15 128 -50 10 0 0 \$0-virtual-analog-oscillators/CONSTANT-Q-SPECTRUM-ANALYZER-6E \$0-virtual-analog-oscillators/CONSTANT-Q-SPECTRUM-ANALYZER-6E empty 0 -8 0 10 -233017 -1 -1 0 1;
#X obj 685 800 nbx 5 14 -50 10 0 0 \$0-virtual-analog-oscillators/CONSTANT-Q-SPECTRUM-ANALYZER-6E \$0-virtual-analog-oscillators/CONSTANT-Q-SPECTRUM-ANALYZER-6E empty 0 -6 0 10 -233017 -1 -1 256;
#X obj 760 660 vsl 15 128 -50 10 0 0 \$0-virtual-analog-oscillators/CONSTANT-Q-SPECTRUM-ANALYZER-6E \$0-virtual-analog-oscillators/CONSTANT-Q-SPECTRUM-ANALYZER-6E empty 0 -8 0 10 -233017 -1 -1 0 1;
#X obj 760 800 nbx 5 14 -50 10 0 0 \$0-virtual-analog-oscillators/CONSTANT-Q-SPECTRUM-ANALYZER-6E \$0-virtual-analog-oscillators/CONSTANT-Q-SPECTRUM-ANALYZER-6E empty 0 -6 0 10 -233017 -1 -1 256;
#X obj 835 660 vsl 15 128 -50 10 0 0 \$0-virtual-analog-oscillators/CONSTANT-Q-SPECTRUM-ANALYZER-6E \$0-virtual-analog-oscillators/CONSTANT-Q-SPECTRUM-ANALYZER-6E empty 0 -8 0 10 -233017 -1 -1 0 1;
#X obj 835 800 nbx 5 14 -50 10 0 0 \$0-virtual-analog-oscillators/CONSTANT-Q-SPECTRUM-ANALYZER-6E \$0-virtual-analog-oscillators/CONSTANT-Q-SPECTRUM-ANALYZER-6E empty 0 -6 0 10 -233017 -1 -1 256;
#X obj 910 660 vsl 15 128 -50 10 0 0 \$0-virtual-analog-oscillators/CONSTANT-Q-SPECTRUM-ANALYZER-6E \$0-virtual-analog-oscillators/CONSTANT-Q-SPECTRUM-ANALYZER-6E empty 0 -8 0 10 -233017 -1 -1 0 1;
#X obj 910 800 nbx 5 14 -50 10 0 0 \$0-virtual-analog-oscillators/CONSTANT-Q-SPECTRUM-ANALYZER-6E \$0-virtual-analog-oscillators/CONSTANT-Q-SPECTRUM-ANALYZER-6E empty 0 -6 0 10 -233017 -1 -1 256;
#X obj 985 660 vsl 15 128 -50 10 0 0 \$0-virtual-analog-oscillators/CONSTANT-Q-SPECTRUM-ANALYZER-6E \$0-virtual-analog-oscillators/CONSTANT-Q-SPECTRUM-ANALYZER-6E empty 0 -8 0 10 -233017 -1 -1 0 1;
#X obj 985 800 nbx 5 14 -50 10 0 0 \$0-virtual-analog-oscillators/CONSTANT-Q-SPECTRUM-ANALYZER-6E \$0-virtual-analog-oscillators/CONSTANT-Q-SPECTRUM-ANALYZER-6E empty 0 -6 0 10 -233017 -1 -1 256;
#X obj 1060 660 vsl 15 128 -50 10 0 0 \$0-virtual-analog-oscillators/CONSTANT-Q-SPECTRUM-ANALYZER-6E \$0-virtual-analog-oscillators/CONSTANT-Q-SPECTRUM-ANALYZER-6E empty 0 -8 0 10 -233017 -1 -1 0 1;
#X obj 1060 800 nbx 5 14 -50 10 0 0 \$0-virtual-analog-oscillators/CONSTANT-Q-SPECTRUM-ANALYZER-6E \$0-virtual-analog-oscillators/CONSTANT-Q-SPECTRUM-ANALYZER-6E empty 0 -6 0 10 -233017 -1 -1 256;
#X obj 10 840 hsl 128 15 0 1 0 0 \$0-virtual-analog-oscillators/SPECTRUM-ANALYZER-CONTROLS/Level-Averaging-Time \$0-virtual-analog-oscillators/SPECTRUM-ANALYZER-CONTROLS/Level-Averaging-Time Level-Averaging-Time -2 -6 0 10 -262144 -1 -1 0 1;
#X obj 160 840 nbx 5 14 0 1 0 0 \$0-virtual-analog-oscillators/SPECTRUM-ANALYZER-CONTROLS/Level-Averaging-Time \$0-virtual-analog-oscillators/SPECTRUM-ANALYZER-CONTROLS/Level-Averaging-Time empty 0 -6 0 10 -262144 -1 -1 256;
#X obj 235 840 hsl 128 15 0 100 0 0 \$0-virtual-analog-oscillators/SPECTRUM-ANALYZER-CONTROLS/Level-dB-Offset \$0-virtual-analog-oscillators/SPECTRUM-ANALYZER-CONTROLS/Level-dB-Offset Level-dB-Offset -2 -6 0 10 -262144 -1 -1 0 1;
#X obj 385 840 nbx 5 14 0 100 0 0 \$0-virtual-analog-oscillators/SPECTRUM-ANALYZER-CONTROLS/Level-dB-Offset \$0-virtual-analog-oscillators/SPECTRUM-ANALYZER-CONTROLS/Level-dB-Offset empty 0 -6 0 10 -262144 -1 -1 256;
#X obj 1097 3 bng 15 250 50 1 \$0-init \$0-ignore empty 0 -6 0 10 -262144 -1 -1;
#X obj 1117 3 tgl 15 1 \$0-active \$0-active empty 0 -6 0 10 -262144 -1 -1 1 1;
#X obj 1165 10 r \$0-init;
#X obj 1949 10 s \$0-in;
#X obj 2341 10 s \$0-read;
#X obj 2733 10 r \$0-write;
#X msg 1165 30 1;
#X obj 1165 50 s \$0-active;
#X connect 85 0 86 0;
#X obj 1949 30 r \$0-active;
#X msg 1949 50 active \$1;
#X connect 87 0 88 0;
#X connect 88 0 82 0;
#X obj 2733 30 route active;
#X obj 2733 50 s \$0-active;
#X connect 84 0 89 0;
#X connect 89 0 90 0;
#X msg 1165 70 1;
#X obj 1165 90 s \$0-virtual-analog-oscillators/VIRTUAL-ANALOG-OSCILLATORS/Signal-Levels/Sawtooth;
#X connect 81 0 91 0;
#X connect 91 0 92 0;
#X obj 1949 70 r \$0-virtual-analog-oscillators/VIRTUAL-ANALOG-OSCILLATORS/Signal-Levels/Sawtooth;
#X msg 1949 90 /virtual-analog-oscillators/VIRTUAL-ANALOG-OSCILLATORS/Signal-Levels/Sawtooth \$1;
#X connect 93 0 94 0;
#X connect 94 0 82 0;
#X obj 2733 70 route /virtual-analog-oscillators/VIRTUAL-ANALOG-OSCILLATORS/Signal-Levels/Sawtooth;
#X obj 2733 90 s \$0-virtual-analog-oscillators/VIRTUAL-ANALOG-OSCILLATORS/Signal-Levels/Sawtooth;
#X connect 89 1 95 0;
#X connect 95 0 96 0;
#X msg 1165 110 0;
#X obj 1165 130 s \$0-virtual-analog-oscillators/VIRTUAL-ANALOG-OSCILLATORS/Signal-Levels/Pulse-Train/Order-3;
#X connect 81 0 97 0;
#X connect 97 0 98 0;
#X obj 1949 110 r \$0-virtual-analog-oscillators/VIRTUAL-ANALOG-OSCILLATORS/Signal-Levels/Pulse-Train/Order-3;
#X msg 1949 130 /virtual-analog-oscillators/VIRTUAL-ANALOG-OSCILLATORS/Signal-Levels/Pulse-Train/Order-3 \$1;
#X connect 99 0 100 0;
#X connect 100 0 82 0;
#X obj 2733 110 route /virtual-analog-oscillators/VIRTUAL-ANALOG-OSCILLATORS/Signal-Levels/Pulse-Train/Order-3;
#X obj 2733 130 s \$0-virtual-analog-oscillators/VIRTUAL-ANALOG-OSCILLATORS/Signal-Levels/Pulse-Train/Order-3;
#X connect 95 1 101 0;
#X connect 101 0 102 0;
#X msg 1165 150 0;
#X obj 1165 170 s \$0-virtual-analog-oscillators/VIRTUAL-ANALOG-OSCILLATORS/Signal-Levels/Pulse-Train;
#X connect 81 0 103 0;
#X connect 103 0 104 0;
#X obj 1949 150 r \$0-virtual-analog-oscillators/VIRTUAL-ANALOG-OSCILLATORS/Signal-Levels/Pulse-Train;
#X msg 1949 170 /virtual-analog-oscillators/VIRTUAL-ANALOG-OSCILLATORS/Signal-Levels/Pulse-Train \$1;
#X connect 105 0 106 0;
#X connect 106 0 82 0;
#X obj 2733 150 route /virtual-analog-oscillators/VIRTUAL-ANALOG-OSCILLATORS/Signal-Levels/Pulse-Train;
#X obj 2733 170 s \$0-virtual-analog-oscillators/VIRTUAL-ANALOG-OSCILLATORS/Signal-Levels/Pulse-Train;
#X connect 101 1 107 0;
#X connect 107 0 108 0;
#X msg 1165 190 0.5;
#X obj 1165 210 s \$0-virtual-analog-oscillators/VIRTUAL-ANALOG-OSCILLATORS/Signal-Levels/Pulse-Train/Duty-Cycle;
#X connect 81 0 109 0;
#X connect 109 0 110 0;
#X obj 1949 190 r \$0-virtual-analog-oscillators/VIRTUAL-ANALOG-OSCILLATORS/Signal-Levels/Pulse-Train/Duty-Cycle;
#X msg 1949 210 /virtual-analog-oscillators/VIRTUAL-ANALOG-OSCILLATORS/Signal-Levels/Pulse-Train/Duty-Cycle \$1;
#X connect 111 0 112 0;
#X connect 112 0 82 0;
#X obj 2733 190 route /virtual-analog-oscillators/VIRTUAL-ANALOG-OSCILLATORS/Signal-Levels/Pulse-Train/Duty-Cycle;
#X obj 2733 210 s \$0-virtual-analog-oscillators/VIRTUAL-ANALOG-OSCILLATORS/Signal-Levels/Pulse-Train/Duty-Cycle;
#X connect 107 1 113 0;
#X connect 113 0 114 0;
#X msg 1165 230 0;
#X obj 1165 250 s \$0-virtual-analog-oscillators/VIRTUAL-ANALOG-OSCILLATORS/Signal-Levels/Square;
#X connect 81 0 115 0;
#X connect 115 0 116 0;
#X obj 1949 230 r \$0-virtual-analog-oscillators/VIRTUAL-ANALOG-OSCILLATORS/Signal-Levels/Square;
#X msg 1949 250 /virtual-analog-oscillators/VIRTUAL-ANALOG-OSCILLATORS/Signal-Levels/Square \$1;
#X connect 117 0 118 0;
#X connect 118 0 82 0;
#X obj 2733 230 route /virtual-analog-oscillators/VIRTUAL-ANALOG-OSCILLATORS/Signal-Levels/Square;
#X obj 2733 250 s \$0-virtual-analog-oscillators/VIRTUAL-ANALOG-OSCILLATORS/Signal-Levels/Square;
#X connect 113 1 119 0;
#X connect 119 0 120 0;
#X msg 1165 270 0;
#X obj 1165 290 s \$0-virtual-analog-oscillators/VIRTUAL-ANALOG-OSCILLATORS/Signal-Levels/Triangle;
#X connect 81 0 121 0;
#X connect 121 0 122 0;
#X obj 1949 270 r \$0-virtual-analog-oscillators/VIRTUAL-ANALOG-OSCILLATORS/Signal-Levels/Triangle;
#X msg 1949 290 /virtual-analog-oscillators/VIRTUAL-ANALOG-OSCILLATORS/Signal-Levels/Triangle \$1;
#X connect 123 0 124 0;
#X connect 124 0 82 0;
#X obj 2733 270 route /virtual-analog-oscillators/VIRTUAL-ANALOG-OSCILLATORS/Signal-Levels/Triangle;
#X obj 2733 290 s \$0-virtual-analog-oscillators/VIRTUAL-ANALOG-OSCILLATORS/Signal-Levels/Triangle;
#X connect 119 1 125 0;
#X connect 125 0 126 0;
#X msg 1165 310 0;
#X obj 1165 330 s \$0-virtual-analog-oscillators/VIRTUAL-ANALOG-OSCILLATORS/Signal-Levels/Pink-Noise;
#X connect 81 0 127 0;
#X connect 127 0 128 0;
#X obj 1949 310 r \$0-virtual-analog-oscillators/VIRTUAL-ANALOG-OSCILLATORS/Signal-Levels/Pink-Noise;
#X msg 1949 330 /virtual-analog-oscillators/VIRTUAL-ANALOG-OSCILLATORS/Signal-Levels/Pink-Noise \$1;
#X connect 129 0 130 0;
#X connect 130 0 82 0;
#X obj 2733 310 route /virtual-analog-oscillators/VIRTUAL-ANALOG-OSCILLATORS/Signal-Levels/Pink-Noise;
#X obj 2733 330 s \$0-virtual-analog-oscillators/VIRTUAL-ANALOG-OSCILLATORS/Signal-Levels/Pink-Noise;
#X connect 125 1 131 0;
#X connect 131 0 132 0;
#X msg 1165 350 0;
#X obj 1165 370 s \$0-virtual-analog-oscillators/VIRTUAL-ANALOG-OSCILLATORS/Signal-Levels/Ext-Input;
#X connect 81 0 133 0;
#X connect 133 0 134 0;
#X obj 1949 350 r \$0-virtual-analog-oscillators/VIRTUAL-ANALOG-OSCILLATORS/Signal-Levels/Ext-Input;
#X msg 1949 370 /virtual-analog-oscillators/VIRTUAL-ANALOG-OSCILLATORS/Signal-Levels/Ext-Input \$1;
#X connect 135 0 136 0;
#X connect 136 0 82 0;
#X obj 2733 350 route /virtual-analog-oscillators/VIRTUAL-ANALOG-OSCILLATORS/Signal-Levels/Ext-Input;
#X obj 2733 370 s \$0-virtual-analog-oscillators/VIRTUAL-ANALOG-OSCILLATORS/Signal-Levels/Ext-Input;
#X connect 131 1 137 0;
#X connect 137 0 138 0;
#X msg 1165 390 -20;
#X obj 1165 410 s \$0-virtual-analog-oscillators/VIRTUAL-ANALOG-OSCILLATORS/Signal-Parameters/Mix-Amplitude;
#X connect 81 0 139 0;
#X connect 139 0 140 0;
#X obj 1949 390 r \$0-virtual-analog-oscillators/VIRTUAL-ANALOG-OSCILLATORS/Signal-Parameters/Mix-Amplitude;
#X msg 1949 410 /virtual-analog-oscillators/VIRTUAL-ANALOG-OSCILLATORS/Signal-Parameters/Mix-Amplitude \$1;
#X connect 141 0 142 0;
#X connect 142 0 82 0;
#X obj 2733 390 route /virtual-analog-oscillators/VIRTUAL-ANALOG-OSCILLATORS/Signal-Parameters/Mix-Amplitude;
#X obj 2733 410 s \$0-virtual-analog-oscillators/VIRTUAL-ANALOG-OSCILLATORS/Signal-Parameters/Mix-Amplitude;
#X connect 137 1 143 0;
#X connect 143 0 144 0;
#X msg 1165 430 49;
#X obj 1165 450 s \$0-virtual-analog-oscillators/VIRTUAL-ANALOG-OSCILLATORS/Signal-Parameters/Frequency;
#X connect 81 0 145 0;
#X connect 145 0 146 0;
#X obj 1949 430 r \$0-virtual-analog-oscillators/VIRTUAL-ANALOG-OSCILLATORS/Signal-Parameters/Frequency;
#X msg 1949 450 /virtual-analog-oscillators/VIRTUAL-ANALOG-OSCILLATORS/Signal-Parameters/Frequency \$1;
#X connect 147 0 148 0;
#X connect 148 0 82 0;
#X obj 2733 430 route /virtual-analog-oscillators/VIRTUAL-ANALOG-OSCILLATORS/Signal-Parameters/Frequency;
#X obj 2733 450 s \$0-virtual-analog-oscillators/VIRTUAL-ANALOG-OSCILLATORS/Signal-Parameters/Frequency;
#X connect 143 1 149 0;
#X connect 149 0 150 0;
#X msg 1165 470 -0.1;
#X obj 1165 490 s \$0-virtual-analog-oscillators/VIRTUAL-ANALOG-OSCILLATORS/Signal-Parameters/Detuning-1;
#X connect 81 0 151 0;
#X connect 151 0 152 0;
#X obj 1949 470 r \$0-virtual-analog-oscillators/VIRTUAL-ANALOG-OSCILLATORS/Signal-Parameters/Detuning-1;
#X msg 1949 490 /virtual-analog-oscillators/VIRTUAL-ANALOG-OSCILLATORS/Signal-Parameters/Detuning-1 \$1;
#X connect 153 0 154 0;
#X connect 154 0 82 0;
#X obj 2733 470 route /virtual-analog-oscillators/VIRTUAL-ANALOG-OSCILLATORS/Signal-Parameters/Detuning-1;
#X obj 2733 490 s \$0-virtual-analog-oscillators/VIRTUAL-ANALOG-OSCILLATORS/Signal-Parameters/Detuning-1;
#X connect 149 1 155 0;
#X connect 155 0 156 0;
#X msg 1165 510 0.1;
#X obj 1165 530 s \$0-virtual-analog-oscillators/VIRTUAL-ANALOG-OSCILLATORS/Signal-Parameters/Detuning-2;
#X connect 81 0 157 0;
#X connect 157 0 158 0;
#X obj 1949 510 r \$0-virtual-analog-oscillators/VIRTUAL-ANALOG-OSCILLATORS/Signal-Parameters/Detuning-2;
#X msg 1949 530 /virtual-analog-oscillators/VIRTUAL-ANALOG-OSCILLATORS/Signal-Parameters/Detuning-2 \$1;
#X connect 159 0 160 0;
#X connect 160 0 82 0;
#X obj 2733 510 route /virtual-analog-oscillators/VIRTUAL-ANALOG-OSCILLATORS/Signal-Parameters/Detuning-2;
#X obj 2733 530 s \$0-virtual-analog-oscillators/VIRTUAL-ANALOG-OSCILLATORS/Signal-Parameters/Detuning-2;
#X connect 155 1 161 0;
#X connect 161 0 162 0;
#X msg 1165 550 0.1;
#X obj 1165 570 s \$0-virtual-analog-oscillators/VIRTUAL-ANALOG-OSCILLATORS/Signal-Parameters/Portamento;
#X connect 81 0 163 0;
#X connect 163 0 164 0;
#X obj 1949 550 r \$0-virtual-analog-oscillators/VIRTUAL-ANALOG-OSCILLATORS/Signal-Parameters/Portamento;
#X msg 1949 570 /virtual-analog-oscillators/VIRTUAL-ANALOG-OSCILLATORS/Signal-Parameters/Portamento \$1;
#X connect 165 0 166 0;
#X connect 166 0 82 0;
#X obj 2733 550 route /virtual-analog-oscillators/VIRTUAL-ANALOG-OSCILLATORS/Signal-Parameters/Portamento;
#X obj 2733 570 s \$0-virtual-analog-oscillators/VIRTUAL-ANALOG-OSCILLATORS/Signal-Parameters/Portamento;
#X connect 161 1 167 0;
#X connect 167 0 168 0;
#X msg 1165 590 0;
#X obj 1165 610 s \$0-virtual-analog-oscillators/MOOG-VCF-Voltage-Controlled-Filter/Bypass;
#X connect 81 0 169 0;
#X connect 169 0 170 0;
#X obj 1949 590 r \$0-virtual-analog-oscillators/MOOG-VCF-Voltage-Controlled-Filter/Bypass;
#X msg 1949 610 /virtual-analog-oscillators/MOOG-VCF-Voltage-Controlled-Filter/Bypass \$1;
#X connect 171 0 172 0;
#X connect 172 0 82 0;
#X obj 2733 590 route /virtual-analog-oscillators/MOOG-VCF-Voltage-Controlled-Filter/Bypass;
#X obj 2733 610 s \$0-virtual-analog-oscillators/MOOG-VCF-Voltage-Controlled-Filter/Bypass;
#X connect 167 1 173 0;
#X connect 173 0 174 0;
#X msg 1165 630 0;
#X obj 1165 650 s \$0-virtual-analog-oscillators/MOOG-VCF-Voltage-Controlled-Filter/Use-Biquads;
#X connect 81 0 175 0;
#X connect 175 0 176 0;
#X obj 1949 630 r \$0-virtual-analog-oscillators/MOOG-VCF-Voltage-Controlled-Filter/Use-Biquads;
#X msg 1949 650 /virtual-analog-oscillators/MOOG-VCF-Voltage-Controlled-Filter/Use-Biquads \$1;
#X connect 177 0 178 0;
#X connect 178 0 82 0;
#X obj 2733 630 route /virtual-analog-oscillators/MOOG-VCF-Voltage-Controlled-Filter/Use-Biquads;
#X obj 2733 650 s \$0-virtual-analog-oscillators/MOOG-VCF-Voltage-Controlled-Filter/Use-Biquads;
#X connect 173 1 179 0;
#X connect 179 0 180 0;
#X msg 1165 670 0;
#X obj 1165 690 s \$0-virtual-analog-oscillators/MOOG-VCF-Voltage-Controlled-Filter/Normalized-Ladders;
#X connect 81 0 181 0;
#X connect 181 0 182 0;
#X obj 1949 670 r \$0-virtual-analog-oscillators/MOOG-VCF-Voltage-Controlled-Filter/Normalized-Ladders;
#X msg 1949 690 /virtual-analog-oscillators/MOOG-VCF-Voltage-Controlled-Filter/Normalized-Ladders \$1;
#X connect 183 0 184 0;
#X connect 184 0 82 0;
#X obj 2733 670 route /virtual-analog-oscillators/MOOG-VCF-Voltage-Controlled-Filter/Normalized-Ladders;
#X obj 2733 690 s \$0-virtual-analog-oscillators/MOOG-VCF-Voltage-Controlled-Filter/Normalized-Ladders;
#X connect 179 1 185 0;
#X connect 185 0 186 0;
#X msg 1165 710 5;
#X obj 1165 730 s \$0-virtual-analog-oscillators/MOOG-VCF-Voltage-Controlled-Filter/VCF-Output-Level;
#X connect 81 0 187 0;
#X connect 187 0 188 0;
#X obj 1949 710 r \$0-virtual-analog-oscillators/MOOG-VCF-Voltage-Controlled-Filter/VCF-Output-Level;
#X msg 1949 730 /virtual-analog-oscillators/MOOG-VCF-Voltage-Controlled-Filter/VCF-Output-Level \$1;
#X connect 189 0 190 0;
#X connect 190 0 82 0;
#X obj 2733 710 route /virtual-analog-oscillators/MOOG-VCF-Voltage-Controlled-Filter/VCF-Output-Level;
#X obj 2733 730 s \$0-virtual-analog-oscillators/MOOG-VCF-Voltage-Controlled-Filter/VCF-Output-Level;
#X connect 185 1 191 0;
#X connect 191 0 192 0;
#X msg 1165 750 25;
#X obj 1165 770 s \$0-virtual-analog-oscillators/MOOG-VCF-Voltage-Controlled-Filter/Corner-Frequency;
#X connect 81 0 193 0;
#X connect 193 0 194 0;
#X obj 1949 750 r \$0-virtual-analog-oscillators/MOOG-VCF-Voltage-Controlled-Filter/Corner-Frequency;
#X msg 1949 770 /virtual-analog-oscillators/MOOG-VCF-Voltage-Controlled-Filter/Corner-Frequency \$1;
#X connect 195 0 196 0;
#X connect 196 0 82 0;
#X obj 2733 750 route /virtual-analog-oscillators/MOOG-VCF-Voltage-Controlled-Filter/Corner-Frequency;
#X obj 2733 770 s \$0-virtual-analog-oscillators/MOOG-VCF-Voltage-Controlled-Filter/Corner-Frequency;
#X connect 191 1 197 0;
#X connect 197 0 198 0;
#X msg 1165 790 0.9;
#X obj 1165 810 s \$0-virtual-analog-oscillators/MOOG-VCF-Voltage-Controlled-Filter/Corner-Resonance;
#X connect 81 0 199 0;
#X connect 199 0 200 0;
#X obj 1949 790 r \$0-virtual-analog-oscillators/MOOG-VCF-Voltage-Controlled-Filter/Corner-Resonance;
#X msg 1949 810 /virtual-analog-oscillators/MOOG-VCF-Voltage-Controlled-Filter/Corner-Resonance \$1;
#X connect 201 0 202 0;
#X connect 202 0 82 0;
#X obj 2733 790 route /virtual-analog-oscillators/MOOG-VCF-Voltage-Controlled-Filter/Corner-Resonance;
#X obj 2733 810 s \$0-virtual-analog-oscillators/MOOG-VCF-Voltage-Controlled-Filter/Corner-Resonance;
#X connect 197 1 203 0;
#X connect 203 0 204 0;
#X msg 1165 830 0;
#X obj 1165 850 s \$0-virtual-analog-oscillators/CONSTANT-Q-SPECTRUM-ANALYZER-6E;
#X connect 81 0 205 0;
#X connect 205 0 206 0;
#X obj 1949 830 faust-timer \$0;
#X msg 1949 850 /virtual-analog-oscillators/CONSTANT-Q-SPECTRUM-ANALYZER-6E;
#X connect 207 0 208 0;
#X connect 208 0 83 0;
#X obj 2733 830 route /virtual-analog-oscillators/CONSTANT-Q-SPECTRUM-ANALYZER-6E;
#X obj 2733 850 s \$0-virtual-analog-oscillators/CONSTANT-Q-SPECTRUM-ANALYZER-6E;
#X connect 203 1 209 0;
#X connect 209 0 210 0;
#X msg 1165 870 0;
#X obj 1165 890 s \$0-virtual-analog-oscillators/CONSTANT-Q-SPECTRUM-ANALYZER-6E;
#X connect 81 0 211 0;
#X connect 211 0 212 0;
#X obj 1949 870 faust-timer \$0;
#X msg 1949 890 /virtual-analog-oscillators/CONSTANT-Q-SPECTRUM-ANALYZER-6E;
#X connect 213 0 214 0;
#X connect 214 0 83 0;
#X obj 2733 870 route /virtual-analog-oscillators/CONSTANT-Q-SPECTRUM-ANALYZER-6E;
#X obj 2733 890 s \$0-virtual-analog-oscillators/CONSTANT-Q-SPECTRUM-ANALYZER-6E;
#X connect 209 1 215 0;
#X connect 215 0 216 0;
#X msg 1165 910 0;
#X obj 1165 930 s \$0-virtual-analog-oscillators/CONSTANT-Q-SPECTRUM-ANALYZER-6E;
#X connect 81 0 217 0;
#X connect 217 0 218 0;
#X obj 1949 910 faust-timer \$0;
#X msg 1949 930 /virtual-analog-oscillators/CONSTANT-Q-SPECTRUM-ANALYZER-6E;
#X connect 219 0 220 0;
#X connect 220 0 83 0;
#X obj 2733 910 route /virtual-analog-oscillators/CONSTANT-Q-SPECTRUM-ANALYZER-6E;
#X obj 2733 930 s \$0-virtual-analog-oscillators/CONSTANT-Q-SPECTRUM-ANALYZER-6E;
#X connect 215 1 221 0;
#X connect 221 0 222 0;
#X msg 1165 950 0;
#X obj 1165 970 s \$0-virtual-analog-oscillators/CONSTANT-Q-SPECTRUM-ANALYZER-6E;
#X connect 81 0 223 0;
#X connect 223 0 224 0;
#X obj 1949 950 faust-timer \$0;
#X msg 1949 970 /virtual-analog-oscillators/CONSTANT-Q-SPECTRUM-ANALYZER-6E;
#X connect 225 0 226 0;
#X connect 226 0 83 0;
#X obj 2733 950 route /virtual-analog-oscillators/CONSTANT-Q-SPECTRUM-ANALYZER-6E;
#X obj 2733 970 s \$0-virtual-analog-oscillators/CONSTANT-Q-SPECTRUM-ANALYZER-6E;
#X connect 221 1 227 0;
#X connect 227 0 228 0;
#X msg 1165 990 0;
#X obj 1165 1010 s \$0-virtual-analog-oscillators/CONSTANT-Q-SPECTRUM-ANALYZER-6E;
#X connect 81 0 229 0;
#X connect 229 0 230 0;
#X obj 1949 990 faust-timer \$0;
#X msg 1949 1010 /virtual-analog-oscillators/CONSTANT-Q-SPECTRUM-ANALYZER-6E;
#X connect 231 0 232 0;
#X connect 232 0 83 0;
#X obj 2733 990 route /virtual-analog-oscillators/CONSTANT-Q-SPECTRUM-ANALYZER-6E;
#X obj 2733 1010 s \$0-virtual-analog-oscillators/CONSTANT-Q-SPECTRUM-ANALYZER-6E;
#X connect 227 1 233 0;
#X connect 233 0 234 0;
#X msg 1165 1030 0;
#X obj 1165 1050 s \$0-virtual-analog-oscillators/CONSTANT-Q-SPECTRUM-ANALYZER-6E;
#X connect 81 0 235 0;
#X connect 235 0 236 0;
#X obj 1949 1030 faust-timer \$0;
#X msg 1949 1050 /virtual-analog-oscillators/CONSTANT-Q-SPECTRUM-ANALYZER-6E;
#X connect 237 0 238 0;
#X connect 238 0 83 0;
#X obj 2733 1030 route /virtual-analog-oscillators/CONSTANT-Q-SPECTRUM-ANALYZER-6E;
#X obj 2733 1050 s \$0-virtual-analog-oscillators/CONSTANT-Q-SPECTRUM-ANALYZER-6E;
#X connect 233 1 239 0;
#X connect 239 0 240 0;
#X msg 1165 1070 0;
#X obj 1165 1090 s \$0-virtual-analog-oscillators/CONSTANT-Q-SPECTRUM-ANALYZER-6E;
#X connect 81 0 241 0;
#X connect 241 0 242 0;
#X obj 1949 1070 faust-timer \$0;
#X msg 1949 1090 /virtual-analog-oscillators/CONSTANT-Q-SPECTRUM-ANALYZER-6E;
#X connect 243 0 244 0;
#X connect 244 0 83 0;
#X obj 2733 1070 route /virtual-analog-oscillators/CONSTANT-Q-SPECTRUM-ANALYZER-6E;
#X obj 2733 1090 s \$0-virtual-analog-oscillators/CONSTANT-Q-SPECTRUM-ANALYZER-6E;
#X connect 239 1 245 0;
#X connect 245 0 246 0;
#X msg 1165 1110 0;
#X obj 1165 1130 s \$0-virtual-analog-oscillators/CONSTANT-Q-SPECTRUM-ANALYZER-6E;
#X connect 81 0 247 0;
#X connect 247 0 248 0;
#X obj 1949 1110 faust-timer \$0;
#X msg 1949 1130 /virtual-analog-oscillators/CONSTANT-Q-SPECTRUM-ANALYZER-6E;
#X connect 249 0 250 0;
#X connect 250 0 83 0;
#X obj 2733 1110 route /virtual-analog-oscillators/CONSTANT-Q-SPECTRUM-ANALYZER-6E;
#X obj 2733 1130 s \$0-virtual-analog-oscillators/CONSTANT-Q-SPECTRUM-ANALYZER-6E;
#X connect 245 1 251 0;
#X connect 251 0 252 0;
#X msg 1165 1150 0;
#X obj 1165 1170 s \$0-virtual-analog-oscillators/CONSTANT-Q-SPECTRUM-ANALYZER-6E;
#X connect 81 0 253 0;
#X connect 253 0 254 0;
#X obj 1949 1150 faust-timer \$0;
#X msg 1949 1170 /virtual-analog-oscillators/CONSTANT-Q-SPECTRUM-ANALYZER-6E;
#X connect 255 0 256 0;
#X connect 256 0 83 0;
#X obj 2733 1150 route /virtual-analog-oscillators/CONSTANT-Q-SPECTRUM-ANALYZER-6E;
#X obj 2733 1170 s \$0-virtual-analog-oscillators/CONSTANT-Q-SPECTRUM-ANALYZER-6E;
#X connect 251 1 257 0;
#X connect 257 0 258 0;
#X msg 1165 1190 0;
#X obj 1165 1210 s \$0-virtual-analog-oscillators/CONSTANT-Q-SPECTRUM-ANALYZER-6E;
#X connect 81 0 259 0;
#X connect 259 0 260 0;
#X obj 1949 1190 faust-timer \$0;
#X msg 1949 1210 /virtual-analog-oscillators/CONSTANT-Q-SPECTRUM-ANALYZER-6E;
#X connect 261 0 262 0;
#X connect 262 0 83 0;
#X obj 2733 1190 route /virtual-analog-oscillators/CONSTANT-Q-SPECTRUM-ANALYZER-6E;
#X obj 2733 1210 s \$0-virtual-analog-oscillators/CONSTANT-Q-SPECTRUM-ANALYZER-6E;
#X connect 257 1 263 0;
#X connect 263 0 264 0;
#X msg 1165 1230 0;
#X obj 1165 1250 s \$0-virtual-analog-oscillators/CONSTANT-Q-SPECTRUM-ANALYZER-6E;
#X connect 81 0 265 0;
#X connect 265 0 266 0;
#X obj 1949 1230 faust-timer \$0;
#X msg 1949 1250 /virtual-analog-oscillators/CONSTANT-Q-SPECTRUM-ANALYZER-6E;
#X connect 267 0 268 0;
#X connect 268 0 83 0;
#X obj 2733 1230 route /virtual-analog-oscillators/CONSTANT-Q-SPECTRUM-ANALYZER-6E;
#X obj 2733 1250 s \$0-virtual-analog-oscillators/CONSTANT-Q-SPECTRUM-ANALYZER-6E;
#X connect 263 1 269 0;
#X connect 269 0 270 0;
#X msg 1165 1270 0;
#X obj 1165 1290 s \$0-virtual-analog-oscillators/CONSTANT-Q-SPECTRUM-ANALYZER-6E;
#X connect 81 0 271 0;
#X connect 271 0 272 0;
#X obj 1949 1270 faust-timer \$0;
#X msg 1949 1290 /virtual-analog-oscillators/CONSTANT-Q-SPECTRUM-ANALYZER-6E;
#X connect 273 0 274 0;
#X connect 274 0 83 0;
#X obj 2733 1270 route /virtual-analog-oscillators/CONSTANT-Q-SPECTRUM-ANALYZER-6E;
#X obj 2733 1290 s \$0-virtual-analog-oscillators/CONSTANT-Q-SPECTRUM-ANALYZER-6E;
#X connect 269 1 275 0;
#X connect 275 0 276 0;
#X msg 1165 1310 0;
#X obj 1165 1330 s \$0-virtual-analog-oscillators/CONSTANT-Q-SPECTRUM-ANALYZER-6E;
#X connect 81 0 277 0;
#X connect 277 0 278 0;
#X obj 1949 1310 faust-timer \$0;
#X msg 1949 1330 /virtual-analog-oscillators/CONSTANT-Q-SPECTRUM-ANALYZER-6E;
#X connect 279 0 280 0;
#X connect 280 0 83 0;
#X obj 2733 1310 route /virtual-analog-oscillators/CONSTANT-Q-SPECTRUM-ANALYZER-6E;
#X obj 2733 1330 s \$0-virtual-analog-oscillators/CONSTANT-Q-SPECTRUM-ANALYZER-6E;
#X connect 275 1 281 0;
#X connect 281 0 282 0;
#X msg 1165 1350 0;
#X obj 1165 1370 s \$0-virtual-analog-oscillators/CONSTANT-Q-SPECTRUM-ANALYZER-6E;
#X connect 81 0 283 0;
#X connect 283 0 284 0;
#X obj 1949 1350 faust-timer \$0;
#X msg 1949 1370 /virtual-analog-oscillators/CONSTANT-Q-SPECTRUM-ANALYZER-6E;
#X connect 285 0 286 0;
#X connect 286 0 83 0;
#X obj 2733 1350 route /virtual-analog-oscillators/CONSTANT-Q-SPECTRUM-ANALYZER-6E;
#X obj 2733 1370 s \$0-virtual-analog-oscillators/CONSTANT-Q-SPECTRUM-ANALYZER-6E;
#X connect 281 1 287 0;
#X connect 287 0 288 0;
#X msg 1165 1390 0;
#X obj 1165 1410 s \$0-virtual-analog-oscillators/CONSTANT-Q-SPECTRUM-ANALYZER-6E;
#X connect 81 0 289 0;
#X connect 289 0 290 0;
#X obj 1949 1390 faust-timer \$0;
#X msg 1949 1410 /virtual-analog-oscillators/CONSTANT-Q-SPECTRUM-ANALYZER-6E;
#X connect 291 0 292 0;
#X connect 292 0 83 0;
#X obj 2733 1390 route /virtual-analog-oscillators/CONSTANT-Q-SPECTRUM-ANALYZER-6E;
#X obj 2733 1410 s \$0-virtual-analog-oscillators/CONSTANT-Q-SPECTRUM-ANALYZER-6E;
#X connect 287 1 293 0;
#X connect 293 0 294 0;
#X msg 1165 1430 0.1;
#X obj 1165 1450 s \$0-virtual-analog-oscillators/SPECTRUM-ANALYZER-CONTROLS/Level-Averaging-Time;
#X connect 81 0 295 0;
#X connect 295 0 296 0;
#X obj 1949 1430 r \$0-virtual-analog-oscillators/SPECTRUM-ANALYZER-CONTROLS/Level-Averaging-Time;
#X msg 1949 1450 /virtual-analog-oscillators/SPECTRUM-ANALYZER-CONTROLS/Level-Averaging-Time \$1;
#X connect 297 0 298 0;
#X connect 298 0 82 0;
#X obj 2733 1430 route /virtual-analog-oscillators/SPECTRUM-ANALYZER-CONTROLS/Level-Averaging-Time;
#X obj 2733 1450 s \$0-virtual-analog-oscillators/SPECTRUM-ANALYZER-CONTROLS/Level-Averaging-Time;
#X connect 293 1 299 0;
#X connect 299 0 300 0;
#X msg 1165 1470 50;
#X obj 1165 1490 s \$0-virtual-analog-oscillators/SPECTRUM-ANALYZER-CONTROLS/Level-dB-Offset;
#X connect 81 0 301 0;
#X connect 301 0 302 0;
#X obj 1949 1470 r \$0-virtual-analog-oscillators/SPECTRUM-ANALYZER-CONTROLS/Level-dB-Offset;
#X msg 1949 1490 /virtual-analog-oscillators/SPECTRUM-ANALYZER-CONTROLS/Level-dB-Offset \$1;
#X connect 303 0 304 0;
#X connect 304 0 82 0;
#X obj 2733 1470 route /virtual-analog-oscillators/SPECTRUM-ANALYZER-CONTROLS/Level-dB-Offset;
#X obj 2733 1490 s \$0-virtual-analog-oscillators/SPECTRUM-ANALYZER-CONTROLS/Level-dB-Offset;
#X connect 299 1 305 0;
#X connect 305 0 306 0;
#X coords 0 -1 1 1 1135 860 1 0 0;
#X text 0 880 Generated Sun Aug  4 09:11:59 2013 by faust2pd v2.5. See http://faust.grame.fr and http://pure-lang.googlecode.com.;
