#N canvas 0 0 450 300 10;
#X obj 70 270 inlet~;
#X obj 10 270 inlet;
#X obj 130 270 r \$0-read;
#X obj 130 300 faust-control \$0;
#X obj 130 330 s \$0-write;
#X obj 10 330 r \$0-in;
#X obj 10 360 volume~;
#X obj 10 390 s \$0-out;
#X obj 70 420 outlet~;
#X obj 10 420 outlet;
#X connect 1 0 3 0;
#X connect 2 0 3 0;
#X connect 3 0 4 0;
#X connect 6 0 7 0;
#X connect 1 0 9 0;
#X connect 5 0 6 0;
#X connect 0 0 6 1;
#X connect 6 1 8 0;
#X obj 10 30 vsl 15 128 -70 4 0 0 \$0-volume \$0-volume empty 0 -8 0 10 -262144 -1 -1 0 1;
#X obj 10 170 nbx 5 14 -70 4 0 0 \$0-volume \$0-volume empty 0 -6 0 10 -262144 -1 -1 256;
#X obj 47 3 bng 15 250 50 1 \$0-init \$0-ignore empty 0 -6 0 10 -262144 -1 -1;
#X obj 67 3 tgl 15 1 \$0-active \$0-active empty 0 -6 0 10 -262144 -1 -1 1 1;
#X obj 450 10 r \$0-init;
#X obj 562 10 s \$0-in;
#X obj 618 10 s \$0-read;
#X obj 674 10 r \$0-write;
#X msg 450 30 1;
#X obj 450 50 s \$0-active;
#X connect 18 0 19 0;
#X obj 562 30 r \$0-active;
#X msg 562 50 active \$1;
#X connect 20 0 21 0;
#X connect 21 0 15 0;
#X obj 674 30 route active;
#X obj 674 50 s \$0-active;
#X connect 17 0 22 0;
#X connect 22 0 23 0;
#X msg 450 70 0;
#X obj 450 90 s \$0-volume;
#X connect 14 0 24 0;
#X connect 24 0 25 0;
#X obj 562 70 r \$0-volume;
#X msg 562 90 /volume \$1;
#X connect 26 0 27 0;
#X connect 27 0 15 0;
#X obj 674 70 route /volume;
#X obj 674 90 s \$0-volume;
#X connect 22 1 28 0;
#X connect 28 0 29 0;
#X coords 0 -1 1 1 85 200 1 0 0;
#X text 0 220 Generated Sun Aug  4 09:11:58 2013 by faust2pd v2.5. See http://faust.grame.fr and http://pure-lang.googlecode.com.;
