#N canvas 0 0 450 300 10;
#X obj 70 270 inlet~;
#X obj 130 270 inlet~;
#X obj 10 270 inlet;
#X obj 190 270 r \$0-read;
#X obj 190 300 faust-control \$0;
#X obj 190 330 s \$0-write;
#X obj 10 330 r \$0-in;
#X obj 10 360 zita_rev1~;
#X obj 10 390 s \$0-out;
#X obj 70 420 outlet~;
#X obj 130 420 outlet~;
#X obj 10 420 outlet;
#X connect 2 0 4 0;
#X connect 3 0 4 0;
#X connect 4 0 5 0;
#X connect 7 0 8 0;
#X connect 2 0 11 0;
#X connect 6 0 7 0;
#X connect 0 0 7 1;
#X connect 1 0 7 2;
#X connect 7 1 9 0;
#X connect 7 2 10 0;
#X obj 10 30 vsl 15 128 20 100 0 0 \$0-Zita-Rev1/Input/In-Delay \$0-Zita-Rev1/Input/In-Delay In-Delay 0 -8 0 10 -262144 -1 -1 0 1;
#X obj 10 170 nbx 5 14 20 100 0 0 \$0-Zita-Rev1/Input/In-Delay \$0-Zita-Rev1/Input/In-Delay empty 0 -6 0 10 -262144 -1 -1 256;
#X obj 85 30 vsl 15 128 50 1000 0 0 \$0-Zita-Rev1/Decay-Times-in-Bands-see-tooltips/LF-X \$0-Zita-Rev1/Decay-Times-in-Bands-see-tooltips/LF-X LF-X 0 -8 0 10 -262144 -1 -1 0 1;
#X obj 85 170 nbx 5 14 50 1000 0 0 \$0-Zita-Rev1/Decay-Times-in-Bands-see-tooltips/LF-X \$0-Zita-Rev1/Decay-Times-in-Bands-see-tooltips/LF-X empty 0 -6 0 10 -262144 -1 -1 256;
#X obj 160 30 vsl 15 128 1 8 0 0 \$0-Zita-Rev1/Decay-Times-in-Bands-see-tooltips/Low-RT60 \$0-Zita-Rev1/Decay-Times-in-Bands-see-tooltips/Low-RT60 Low-RT60 0 -8 0 10 -262144 -1 -1 0 1;
#X obj 160 170 nbx 5 14 1 8 0 0 \$0-Zita-Rev1/Decay-Times-in-Bands-see-tooltips/Low-RT60 \$0-Zita-Rev1/Decay-Times-in-Bands-see-tooltips/Low-RT60 empty 0 -6 0 10 -262144 -1 -1 256;
#X obj 235 30 vsl 15 128 1 8 0 0 \$0-Zita-Rev1/Decay-Times-in-Bands-see-tooltips/Mid-RT60 \$0-Zita-Rev1/Decay-Times-in-Bands-see-tooltips/Mid-RT60 Mid-RT60 0 -8 0 10 -262144 -1 -1 0 1;
#X obj 235 170 nbx 5 14 1 8 0 0 \$0-Zita-Rev1/Decay-Times-in-Bands-see-tooltips/Mid-RT60 \$0-Zita-Rev1/Decay-Times-in-Bands-see-tooltips/Mid-RT60 empty 0 -6 0 10 -262144 -1 -1 256;
#X obj 310 30 vsl 15 128 1500 23520 0 0 \$0-Zita-Rev1/Decay-Times-in-Bands-see-tooltips/HF-Damping \$0-Zita-Rev1/Decay-Times-in-Bands-see-tooltips/HF-Damping HF-Damping 0 -8 0 10 -262144 -1 -1 0 1;
#X obj 310 170 nbx 5 14 1500 23520 0 0 \$0-Zita-Rev1/Decay-Times-in-Bands-see-tooltips/HF-Damping \$0-Zita-Rev1/Decay-Times-in-Bands-see-tooltips/HF-Damping empty 0 -6 0 10 -262144 -1 -1 256;
#X obj 385 30 vsl 15 128 40 2500 0 0 \$0-Zita-Rev1/RM-Peaking-Equalizer-1/Eq1-Freq \$0-Zita-Rev1/RM-Peaking-Equalizer-1/Eq1-Freq Eq1-Freq 0 -8 0 10 -262144 -1 -1 0 1;
#X obj 385 170 nbx 5 14 40 2500 0 0 \$0-Zita-Rev1/RM-Peaking-Equalizer-1/Eq1-Freq \$0-Zita-Rev1/RM-Peaking-Equalizer-1/Eq1-Freq empty 0 -6 0 10 -262144 -1 -1 256;
#X obj 460 30 vsl 15 128 -15 15 0 0 \$0-Zita-Rev1/RM-Peaking-Equalizer-1/Eq1-Level \$0-Zita-Rev1/RM-Peaking-Equalizer-1/Eq1-Level Eq1-Level 0 -8 0 10 -262144 -1 -1 0 1;
#X obj 460 170 nbx 5 14 -15 15 0 0 \$0-Zita-Rev1/RM-Peaking-Equalizer-1/Eq1-Level \$0-Zita-Rev1/RM-Peaking-Equalizer-1/Eq1-Level empty 0 -6 0 10 -262144 -1 -1 256;
#X obj 535 30 vsl 15 128 40 2500 0 0 \$0-Zita-Rev1/RM-Peaking-Equalizer-2/Eq2-Freq \$0-Zita-Rev1/RM-Peaking-Equalizer-2/Eq2-Freq Eq2-Freq 0 -8 0 10 -262144 -1 -1 0 1;
#X obj 535 170 nbx 5 14 40 2500 0 0 \$0-Zita-Rev1/RM-Peaking-Equalizer-2/Eq2-Freq \$0-Zita-Rev1/RM-Peaking-Equalizer-2/Eq2-Freq empty 0 -6 0 10 -262144 -1 -1 256;
#X obj 610 30 vsl 15 128 -15 15 0 0 \$0-Zita-Rev1/RM-Peaking-Equalizer-2/Eq2-Level \$0-Zita-Rev1/RM-Peaking-Equalizer-2/Eq2-Level Eq2-Level 0 -8 0 10 -262144 -1 -1 0 1;
#X obj 610 170 nbx 5 14 -15 15 0 0 \$0-Zita-Rev1/RM-Peaking-Equalizer-2/Eq2-Level \$0-Zita-Rev1/RM-Peaking-Equalizer-2/Eq2-Level empty 0 -6 0 10 -262144 -1 -1 256;
#X obj 685 30 vsl 15 128 -1 1 0 0 \$0-Zita-Rev1/Output/Dry-Wet-Mix \$0-Zita-Rev1/Output/Dry-Wet-Mix Dry-Wet-Mix 0 -8 0 10 -262144 -1 -1 0 1;
#X obj 685 170 nbx 5 14 -1 1 0 0 \$0-Zita-Rev1/Output/Dry-Wet-Mix \$0-Zita-Rev1/Output/Dry-Wet-Mix empty 0 -6 0 10 -262144 -1 -1 256;
#X obj 760 30 vsl 15 128 -70 40 0 0 \$0-Zita-Rev1/Output/Level \$0-Zita-Rev1/Output/Level Level 0 -8 0 10 -262144 -1 -1 0 1;
#X obj 760 170 nbx 5 14 -70 40 0 0 \$0-Zita-Rev1/Output/Level \$0-Zita-Rev1/Output/Level empty 0 -6 0 10 -262144 -1 -1 256;
#X obj 797 3 bng 15 250 50 1 \$0-init \$0-ignore empty 0 -6 0 10 -262144 -1 -1;
#X obj 817 3 tgl 15 1 \$0-active \$0-active empty 0 -6 0 10 -262144 -1 -1 1 1;
#X obj 865 10 r \$0-init;
#X obj 1361 10 s \$0-in;
#X obj 1609 10 s \$0-read;
#X obj 1857 10 r \$0-write;
#X msg 865 30 1;
#X obj 865 50 s \$0-active;
#X connect 40 0 41 0;
#X obj 1361 30 r \$0-active;
#X msg 1361 50 active \$1;
#X connect 42 0 43 0;
#X connect 43 0 37 0;
#X obj 1857 30 route active;
#X obj 1857 50 s \$0-active;
#X connect 39 0 44 0;
#X connect 44 0 45 0;
#X msg 865 70 60;
#X obj 865 90 s \$0-Zita-Rev1/Input/In-Delay;
#X connect 36 0 46 0;
#X connect 46 0 47 0;
#X obj 1361 70 r \$0-Zita-Rev1/Input/In-Delay;
#X msg 1361 90 /Zita-Rev1/Input/In-Delay \$1;
#X connect 48 0 49 0;
#X connect 49 0 37 0;
#X obj 1857 70 route /Zita-Rev1/Input/In-Delay;
#X obj 1857 90 s \$0-Zita-Rev1/Input/In-Delay;
#X connect 44 1 50 0;
#X connect 50 0 51 0;
#X msg 865 110 200;
#X obj 865 130 s \$0-Zita-Rev1/Decay-Times-in-Bands-see-tooltips/LF-X;
#X connect 36 0 52 0;
#X connect 52 0 53 0;
#X obj 1361 110 r \$0-Zita-Rev1/Decay-Times-in-Bands-see-tooltips/LF-X;
#X msg 1361 130 /Zita-Rev1/Decay-Times-in-Bands-see-tooltips/LF-X \$1;
#X connect 54 0 55 0;
#X connect 55 0 37 0;
#X obj 1857 110 route /Zita-Rev1/Decay-Times-in-Bands-see-tooltips/LF-X;
#X obj 1857 130 s \$0-Zita-Rev1/Decay-Times-in-Bands-see-tooltips/LF-X;
#X connect 50 1 56 0;
#X connect 56 0 57 0;
#X msg 865 150 3;
#X obj 865 170 s \$0-Zita-Rev1/Decay-Times-in-Bands-see-tooltips/Low-RT60;
#X connect 36 0 58 0;
#X connect 58 0 59 0;
#X obj 1361 150 r \$0-Zita-Rev1/Decay-Times-in-Bands-see-tooltips/Low-RT60;
#X msg 1361 170 /Zita-Rev1/Decay-Times-in-Bands-see-tooltips/Low-RT60 \$1;
#X connect 60 0 61 0;
#X connect 61 0 37 0;
#X obj 1857 150 route /Zita-Rev1/Decay-Times-in-Bands-see-tooltips/Low-RT60;
#X obj 1857 170 s \$0-Zita-Rev1/Decay-Times-in-Bands-see-tooltips/Low-RT60;
#X connect 56 1 62 0;
#X connect 62 0 63 0;
#X msg 865 190 2;
#X obj 865 210 s \$0-Zita-Rev1/Decay-Times-in-Bands-see-tooltips/Mid-RT60;
#X connect 36 0 64 0;
#X connect 64 0 65 0;
#X obj 1361 190 r \$0-Zita-Rev1/Decay-Times-in-Bands-see-tooltips/Mid-RT60;
#X msg 1361 210 /Zita-Rev1/Decay-Times-in-Bands-see-tooltips/Mid-RT60 \$1;
#X connect 66 0 67 0;
#X connect 67 0 37 0;
#X obj 1857 190 route /Zita-Rev1/Decay-Times-in-Bands-see-tooltips/Mid-RT60;
#X obj 1857 210 s \$0-Zita-Rev1/Decay-Times-in-Bands-see-tooltips/Mid-RT60;
#X connect 62 1 68 0;
#X connect 68 0 69 0;
#X msg 865 230 6000;
#X obj 865 250 s \$0-Zita-Rev1/Decay-Times-in-Bands-see-tooltips/HF-Damping;
#X connect 36 0 70 0;
#X connect 70 0 71 0;
#X obj 1361 230 r \$0-Zita-Rev1/Decay-Times-in-Bands-see-tooltips/HF-Damping;
#X msg 1361 250 /Zita-Rev1/Decay-Times-in-Bands-see-tooltips/HF-Damping \$1;
#X connect 72 0 73 0;
#X connect 73 0 37 0;
#X obj 1857 230 route /Zita-Rev1/Decay-Times-in-Bands-see-tooltips/HF-Damping;
#X obj 1857 250 s \$0-Zita-Rev1/Decay-Times-in-Bands-see-tooltips/HF-Damping;
#X connect 68 1 74 0;
#X connect 74 0 75 0;
#X msg 865 270 315;
#X obj 865 290 s \$0-Zita-Rev1/RM-Peaking-Equalizer-1/Eq1-Freq;
#X connect 36 0 76 0;
#X connect 76 0 77 0;
#X obj 1361 270 r \$0-Zita-Rev1/RM-Peaking-Equalizer-1/Eq1-Freq;
#X msg 1361 290 /Zita-Rev1/RM-Peaking-Equalizer-1/Eq1-Freq \$1;
#X connect 78 0 79 0;
#X connect 79 0 37 0;
#X obj 1857 270 route /Zita-Rev1/RM-Peaking-Equalizer-1/Eq1-Freq;
#X obj 1857 290 s \$0-Zita-Rev1/RM-Peaking-Equalizer-1/Eq1-Freq;
#X connect 74 1 80 0;
#X connect 80 0 81 0;
#X msg 865 310 0;
#X obj 865 330 s \$0-Zita-Rev1/RM-Peaking-Equalizer-1/Eq1-Level;
#X connect 36 0 82 0;
#X connect 82 0 83 0;
#X obj 1361 310 r \$0-Zita-Rev1/RM-Peaking-Equalizer-1/Eq1-Level;
#X msg 1361 330 /Zita-Rev1/RM-Peaking-Equalizer-1/Eq1-Level \$1;
#X connect 84 0 85 0;
#X connect 85 0 37 0;
#X obj 1857 310 route /Zita-Rev1/RM-Peaking-Equalizer-1/Eq1-Level;
#X obj 1857 330 s \$0-Zita-Rev1/RM-Peaking-Equalizer-1/Eq1-Level;
#X connect 80 1 86 0;
#X connect 86 0 87 0;
#X msg 865 350 315;
#X obj 865 370 s \$0-Zita-Rev1/RM-Peaking-Equalizer-2/Eq2-Freq;
#X connect 36 0 88 0;
#X connect 88 0 89 0;
#X obj 1361 350 r \$0-Zita-Rev1/RM-Peaking-Equalizer-2/Eq2-Freq;
#X msg 1361 370 /Zita-Rev1/RM-Peaking-Equalizer-2/Eq2-Freq \$1;
#X connect 90 0 91 0;
#X connect 91 0 37 0;
#X obj 1857 350 route /Zita-Rev1/RM-Peaking-Equalizer-2/Eq2-Freq;
#X obj 1857 370 s \$0-Zita-Rev1/RM-Peaking-Equalizer-2/Eq2-Freq;
#X connect 86 1 92 0;
#X connect 92 0 93 0;
#X msg 865 390 0;
#X obj 865 410 s \$0-Zita-Rev1/RM-Peaking-Equalizer-2/Eq2-Level;
#X connect 36 0 94 0;
#X connect 94 0 95 0;
#X obj 1361 390 r \$0-Zita-Rev1/RM-Peaking-Equalizer-2/Eq2-Level;
#X msg 1361 410 /Zita-Rev1/RM-Peaking-Equalizer-2/Eq2-Level \$1;
#X connect 96 0 97 0;
#X connect 97 0 37 0;
#X obj 1857 390 route /Zita-Rev1/RM-Peaking-Equalizer-2/Eq2-Level;
#X obj 1857 410 s \$0-Zita-Rev1/RM-Peaking-Equalizer-2/Eq2-Level;
#X connect 92 1 98 0;
#X connect 98 0 99 0;
#X msg 865 430 0;
#X obj 865 450 s \$0-Zita-Rev1/Output/Dry-Wet-Mix;
#X connect 36 0 100 0;
#X connect 100 0 101 0;
#X obj 1361 430 r \$0-Zita-Rev1/Output/Dry-Wet-Mix;
#X msg 1361 450 /Zita-Rev1/Output/Dry-Wet-Mix \$1;
#X connect 102 0 103 0;
#X connect 103 0 37 0;
#X obj 1857 430 route /Zita-Rev1/Output/Dry-Wet-Mix;
#X obj 1857 450 s \$0-Zita-Rev1/Output/Dry-Wet-Mix;
#X connect 98 1 104 0;
#X connect 104 0 105 0;
#X msg 865 470 -20;
#X obj 865 490 s \$0-Zita-Rev1/Output/Level;
#X connect 36 0 106 0;
#X connect 106 0 107 0;
#X obj 1361 470 r \$0-Zita-Rev1/Output/Level;
#X msg 1361 490 /Zita-Rev1/Output/Level \$1;
#X connect 108 0 109 0;
#X connect 109 0 37 0;
#X obj 1857 470 route /Zita-Rev1/Output/Level;
#X obj 1857 490 s \$0-Zita-Rev1/Output/Level;
#X connect 104 1 110 0;
#X connect 110 0 111 0;
#X coords 0 -1 1 1 835 200 1 0 0;
#X text 0 220 Generated Sun Aug  4 09:11:54 2013 by faust2pd v2.5. See http://faust.grame.fr and http://pure-lang.googlecode.com.;
