#N canvas 748 248 450 300 10;
#X obj 108 15 keyname;
#X symbolatom 108 181 10 0 0 0 - - -;
#X obj 108 67 sel 1;
#X obj 108 206 outlet;
#X text 99 227 Name of key pressed;
#X msg 172 81 set \$1;
#X text 101 239 when down.;
#X connect 0 0 2 0;
#X connect 0 1 5 0;
#X connect 1 0 3 0;
#X connect 2 0 1 0;
#X connect 5 0 1 0;
