#N canvas 128 0 958 565 10;
#X msg 0 19 \; pd dsp 1;
#X msg 1 54 \; pd dsp 0;
#X msg 602 342 symbol oud-samples/trill3.wav;
#X msg 602 389 symbol oud-samples/short-glissdown.1.wav;
#X msg 602 478 symbol oud-samples/lowD1.wav;
#X msg 602 434 symbol oud-samples/harm-allstrings.1.wav;
#X obj 602 455 store-sample harm;
#X obj 224 375 hsl 128 15 0 1 0 0 empty empty empty -2 -6 0 8 -262144
-1 -1 4500 1;
#X floatatom 221 397 5 0 0 0 - - -;
#X obj 167 464 dac~;
#X obj 173 438 *~;
#X text 221 355 Volume;
#X msg 257 122 symbol lowD;
#X msg 197 61 symbol trill;
#X msg 216 84 symbol gliss;
#X obj 602 363 store-sample trill;
#X obj 602 410 store-sample gliss;
#X obj 602 499 store-sample lowD;
#X msg 236 101 symbol harm;
#X text 654 306 Loading sound files into memory;
#X obj 173 301 play-sample;
#X obj 197 188 t b s;
#X floatatom 276 270 5 0 0 0 - - -;
#X msg 307 219 1;
#X msg 273 219 0.5;
#X msg 454 220 1.5;
#X msg 407 220 1.333;
#X msg 340 220 1.2;
#X msg 370 220 1.25;
#X text -20 112 Click one to play the sample;
#X obj 198 15 sel t g h d;
#X obj 198 -6 keyname-down;
#X obj 346 104 route symbol;
#X obj 346 147 sel z x c v b n;
#X text -28 -2 1) Turn on audio;
#X obj 580 301 loadbang;
#X text -31 97 The names of the sample tables ->;
#X text 484 218 <--Some just intervals;
#X text 462 149 <--These keys change pitch;
#X text 296 -6 3) Type;
#X text 222 337 2) Adjust the volume;
#X connect 2 0 15 0;
#X connect 3 0 16 0;
#X connect 4 0 17 0;
#X connect 5 0 6 0;
#X connect 7 0 8 0;
#X connect 8 0 10 1;
#X connect 10 0 9 0;
#X connect 10 0 9 1;
#X connect 12 0 21 0;
#X connect 13 0 21 0;
#X connect 14 0 21 0;
#X connect 18 0 21 0;
#X connect 20 0 10 0;
#X connect 21 0 20 0;
#X connect 21 1 20 1;
#X connect 22 0 20 2;
#X connect 23 0 22 0;
#X connect 24 0 22 0;
#X connect 25 0 22 0;
#X connect 26 0 22 0;
#X connect 27 0 22 0;
#X connect 28 0 22 0;
#X connect 30 0 13 0;
#X connect 30 1 14 0;
#X connect 30 2 18 0;
#X connect 30 3 12 0;
#X connect 30 4 32 0;
#X connect 31 0 30 0;
#X connect 32 0 33 0;
#X connect 33 0 24 0;
#X connect 33 1 23 0;
#X connect 33 2 27 0;
#X connect 33 3 28 0;
#X connect 33 4 26 0;
#X connect 33 5 25 0;
#X connect 35 0 2 0;
#X connect 35 0 3 0;
#X connect 35 0 5 0;
#X connect 35 0 4 0;
