#N canvas 9 195 542 519 10;
#X obj 137 63 inlet;
#X text 128 39 Name of table;
#X obj 23 60 inlet;
#X text 15 36 Bang to play;
#X obj 365 59 inlet;
#X text 356 35 Rate;
#X obj 110 374 tabread4~;
#X obj 110 340 line~;
#X msg 265 170 set \$1;
#X obj 160 112 t s a;
#X obj 70 173 s ask-length;
#X obj 68 196 r sample-length;
#X floatatom 68 219 7 0 0 0 - - -;
#X text 64 155 2) find length;
#X text 164 153 1) point tabread~ to the right sound;
#X obj 19 266 make-line-msg;
#X text 387 307;
#X obj 8 231 float;
#X obj 111 409 outlet~;
#X connect 0 0 9 0;
#X connect 2 0 17 0;
#X connect 4 0 15 1;
#X connect 6 0 18 0;
#X connect 7 0 6 0;
#X connect 8 0 6 0;
#X connect 9 0 10 0;
#X connect 9 1 8 0;
#X connect 11 0 12 0;
#X connect 11 0 17 1;
#X connect 15 0 7 0;
#X connect 17 0 15 0;
