#N canvas 643 69 612 175 10;
#N canvas 31 450 1399 220 my-synth 0;
#X obj 30 19 inlet;
#X obj 127 75 inlet;
#X obj 220 14 inlet;
#X obj 317 74 inlet;
#X obj 459 184 dac~;
#X obj 30 41 playwav-abstraction re.wav;
#X obj 127 98 playwav-abstraction tas3.wav;
#X obj 220 38 playwav-abstraction te.wav;
#X obj 317 96 playwav-abstraction tun.wav;
#X obj 445 25 inlet;
#X obj 577 102 inlet;
#X obj 721 21 inlet;
#X obj 850 75 inlet;
#X obj 850 97 playwav-abstraction anamorphosis__gmb-kantilan-9.wav
;
#X obj 445 47 playwav-abstraction crescendo__kick125.wav;
#X obj 577 125 playwav-abstraction calaudio__wood-block.wav;
#X obj 721 45 playwav-abstraction junggle__waterdrop25.wav;
#X obj 1215 77 inlet;
#N canvas 416 379 450 300 osc-synth 0;
#X obj 64 16 inlet;
#X obj 121 264 outlet~;
#X obj 133 82 mtof;
#X obj 133 129 phasor~;
#X obj 88 56 t b b f;
#X obj 78 154 line~;
#X obj 119 180 *~;
#X msg 95 105 1 15;
#X obj 17 98 delay 15;
#X obj 121 241 *~ 0.07;
#X msg 35 129 0 40;
#X obj 118 209 onepole~ 1500 Hz.;
#X connect 0 0 4 0;
#X connect 2 0 3 0;
#X connect 3 0 6 1;
#X connect 4 0 8 0;
#X connect 4 1 7 0;
#X connect 4 2 2 0;
#X connect 5 0 6 0;
#X connect 6 0 11 0;
#X connect 7 0 5 0;
#X connect 8 0 10 0;
#X connect 9 0 1 0;
#X connect 10 0 5 0;
#X connect 11 0 9 0;
#X restore 1215 116 pd osc-synth;
#X connect 0 0 5 0;
#X connect 1 0 6 0;
#X connect 2 0 7 0;
#X connect 3 0 8 0;
#X connect 5 0 4 0;
#X connect 6 0 4 1;
#X connect 7 0 4 0;
#X connect 8 0 4 1;
#X connect 9 0 14 0;
#X connect 10 0 15 0;
#X connect 11 0 16 0;
#X connect 12 0 13 0;
#X connect 13 0 4 1;
#X connect 14 0 4 0;
#X connect 15 0 4 1;
#X connect 16 0 4 0;
#X connect 17 0 18 0;
#X connect 18 0 4 1;
#X connect 18 0 4 0;
#X restore -243 145 pd my-synth;
#X msg -324 69 0.1;
#X msg -278 82 0.1;
#X msg -262 43 0.1;
#X msg -235 76 0.1;
#X msg -191 76 0.1;
#X msg -143 44 0.1;
#X text -350 7 Send bang to these messages or send "volume" gains to
the corresponding inlets to my-synth ...;
#X msg -206 47 0.05;
#X msg -136 74 0.05;
#X connect 1 0 0 0;
#X connect 2 0 0 1;
#X connect 3 0 0 2;
#X connect 4 0 0 3;
#X connect 5 0 0 5;
#X connect 6 0 0 6;
#X connect 8 0 0 4;
#X connect 9 0 0 7;
