#N canvas 175 100 1075 664 12;
#X obj -435 104 bng 15 250 50 0 empty empty empty 17 7 0 10 -262144
-1 -1;
#X obj -435 172 +;
#X msg -435 138 1.1;
#X msg -366 135 2.3;
#X floatatom -435 201 5 0 0 0 - - -;
#X text -418 101 bang;
#X floatatom -24 2112 5 20 170 0 - - -;
#X text 12 2111 <-- Try numbers between 50 and 80;
#X text -433 2061 Send bang to these messages or send "volume" gains
to the corresponding inlets to my-synth ...;
#N canvas 237 204 1440 456 my-synth 0;
#X obj 8 9 inlet;
#X obj 105 65 inlet;
#X obj 198 4 inlet;
#X obj 295 64 inlet;
#X obj 851 350 dac~;
#X obj 423 15 inlet;
#X obj 555 92 inlet;
#X obj 699 11 inlet;
#X obj 828 65 inlet;
#X obj 1516 231 inlet;
#N canvas 416 379 450 300 osc-synth 1;
#X obj 64 16 inlet;
#X obj 121 264 outlet~;
#X obj 133 82 mtof;
#X obj 133 129 phasor~;
#X obj 88 56 t b b f;
#X obj 78 154 line~;
#X obj 119 180 *~;
#X msg 95 105 1 15;
#X obj 17 98 delay 15;
#X msg 35 129 0 40;
#X obj 118 209 onepole~ 1500 Hz.;
#X obj 121 241 *~ 0.062;
#X connect 0 0 4 0;
#X connect 2 0 3 0;
#X connect 3 0 6 1;
#X connect 4 0 8 0;
#X connect 4 1 7 0;
#X connect 4 2 2 0;
#X connect 5 0 6 0;
#X connect 6 0 10 0;
#X connect 7 0 5 0;
#X connect 8 0 9 0;
#X connect 9 0 5 0;
#X connect 10 0 11 0;
#X connect 11 0 1 0;
#X restore 1516 256 pd osc-synth;
#X obj 8 31 playwav-abstraction gbell-1-1-pp.wav;
#X obj 105 88 playwav-abstraction gbell-1-2-pp.wav;
#X obj 198 28 playwav-abstraction gbell-2-1-pp.wav;
#X obj 295 86 playwav-abstraction gbell-2-2-pp.wav;
#X obj 423 37 playwav-abstraction gbell-3-1-pp.wav;
#X obj 555 115 playwav-abstraction gbell-3-2-pp.wav;
#X obj 699 35 playwav-abstraction gbell-4-1-pp.wav;
#X obj 828 87 playwav-abstraction gbell-4-2-pp.wav;
#X obj 1047 -21 inlet;
#X obj 1166 125 inlet;
#X obj 1267 32 inlet;
#X obj 1364 92 inlet;
#X obj 1492 43 inlet;
#X obj 1047 1 playwav-abstraction gbell-5-1-pp.wav;
#X obj 1166 148 playwav-abstraction gbell-5-2-pp.wav;
#X obj 1267 56 playwav-abstraction gbell-6-1-pp.wav;
#X obj 1364 114 playwav-abstraction gbell-6-2-pp.wav;
#X obj 1492 65 playwav-abstraction gbell-9-2-pp.wav;
#X connect 0 0 11 0;
#X connect 1 0 12 0;
#X connect 2 0 13 0;
#X connect 3 0 14 0;
#X connect 5 0 15 0;
#X connect 6 0 16 0;
#X connect 7 0 17 0;
#X connect 8 0 18 0;
#X connect 9 0 10 0;
#X connect 10 0 4 1;
#X connect 10 0 4 0;
#X connect 11 0 4 0;
#X connect 12 0 4 1;
#X connect 13 0 4 0;
#X connect 14 0 4 1;
#X connect 15 0 4 0;
#X connect 16 0 4 1;
#X connect 17 0 4 0;
#X connect 18 0 4 1;
#X connect 19 0 24 0;
#X connect 20 0 25 0;
#X connect 21 0 26 0;
#X connect 22 0 27 0;
#X connect 23 0 28 0;
#X connect 24 0 4 0;
#X connect 25 0 4 1;
#X connect 26 0 4 0;
#X connect 27 0 4 1;
#X connect 28 0 4 0;
#X restore -326 2199 pd my-synth just-make-this-object-look-longer
;
#N canvas 85 461 613 187 some-synths 0;
#X obj 15 16 inlet;
#X obj 269 153 dac~;
#X obj 173 16 inlet;
#N canvas 416 379 450 300 osc-synth 0;
#X obj 64 16 inlet;
#X obj 121 264 outlet~;
#X obj 133 82 mtof;
#X obj 88 56 t b b f;
#X obj 78 154 line~;
#X obj 119 180 *~;
#X msg 95 105 1 15;
#X obj 17 98 delay 15;
#X msg 35 129 0 40;
#X obj 118 209 onepole~ 1500 Hz.;
#X obj 133 129 osc~;
#X obj 121 241 *~ 0.1;
#X connect 0 0 3 0;
#X connect 2 0 10 0;
#X connect 3 0 7 0;
#X connect 3 1 6 0;
#X connect 3 2 2 0;
#X connect 4 0 5 0;
#X connect 5 0 9 0;
#X connect 6 0 4 0;
#X connect 7 0 8 0;
#X connect 8 0 4 0;
#X connect 9 0 11 0;
#X connect 10 0 5 1;
#X connect 11 0 1 0;
#X restore 172 42 pd osc-synth;
#X obj 311 16 inlet;
#X obj 470 16 inlet;
#N canvas 416 379 450 300 phasor-synth 0;
#X obj 64 16 inlet;
#X obj 121 264 outlet~;
#X obj 133 82 mtof;
#X obj 133 129 phasor~;
#X obj 88 56 t b b f;
#X obj 78 154 line~;
#X obj 119 180 *~;
#X msg 95 105 1 15;
#X obj 17 98 delay 15;
#X msg 35 129 0 40;
#X obj 118 209 onepole~ 1500 Hz.;
#X obj 121 241 *~ 0.022;
#X connect 0 0 4 0;
#X connect 2 0 3 0;
#X connect 3 0 6 1;
#X connect 4 0 8 0;
#X connect 4 1 7 0;
#X connect 4 2 2 0;
#X connect 5 0 6 0;
#X connect 6 0 10 0;
#X connect 7 0 5 0;
#X connect 8 0 9 0;
#X connect 9 0 5 0;
#X connect 10 0 11 0;
#X connect 11 0 1 0;
#X restore 15 41 pd phasor-synth;
#N canvas 416 379 450 300 square-synth 0;
#X obj 64 16 inlet;
#X obj 121 264 outlet~;
#X obj 133 82 mtof;
#X obj 88 56 t b b f;
#X obj 78 154 line~;
#X obj 119 180 *~;
#X obj 118 209 onepole~ 1500 Hz.;
#X obj 121 241 *~ 0.022;
#X obj 133 129 square~;
#X msg 95 105 1 2;
#X obj 17 98 delay 2;
#X msg 35 129 0 120;
#X connect 0 0 3 0;
#X connect 2 0 8 0;
#X connect 3 0 10 0;
#X connect 3 1 9 0;
#X connect 3 2 2 0;
#X connect 4 0 5 0;
#X connect 5 0 6 0;
#X connect 6 0 7 0;
#X connect 7 0 1 0;
#X connect 8 0 5 1;
#X connect 9 0 4 0;
#X connect 10 0 11 0;
#X connect 11 0 4 0;
#X restore 311 41 pd square-synth;
#N canvas 416 379 698 304 octave-synth 0;
#X obj 64 -4 inlet;
#X obj 117 267 outlet~;
#X obj 133 62 mtof;
#X obj 133 129 phasor~;
#X obj 88 36 t b b f;
#X obj 75 157 line~;
#X obj 115 183 *~;
#X obj 114 212 onepole~ 1500 Hz.;
#X obj 117 244 *~ 0.022;
#X obj 226 130 phasor~;
#X obj 226 104 / 2;
#X text 254 102 Dividing the frequency by two drops the note by an
octave.;
#X msg 95 105 1 30;
#X obj 17 98 delay 30;
#X msg 35 129 0 350;
#X connect 0 0 4 0;
#X connect 2 0 3 0;
#X connect 2 0 10 0;
#X connect 3 0 6 1;
#X connect 4 0 13 0;
#X connect 4 1 12 0;
#X connect 4 2 2 0;
#X connect 5 0 6 0;
#X connect 6 0 7 0;
#X connect 7 0 8 0;
#X connect 8 0 1 0;
#X connect 9 0 6 1;
#X connect 10 0 9 0;
#X connect 12 0 5 0;
#X connect 13 0 14 0;
#X connect 14 0 5 0;
#X restore 470 41 pd octave-synth;
#X connect 0 0 6 0;
#X connect 2 0 3 0;
#X connect 3 0 1 1;
#X connect 4 0 7 0;
#X connect 5 0 8 0;
#X connect 6 0 1 0;
#X connect 7 0 1 0;
#X connect 8 0 1 1;
#X restore -429 1328 pd some-synths;
#X floatatom -300 1327 5 20 300 0 - - -;
#X text -264 1326 <-- Try numbers between 50 and 80;
#X floatatom -335 1295 5 20 300 0 - - -;
#X text -299 1294 <-- Try numbers between 50 and 80;
#X floatatom -365 1265 5 20 300 0 - - -;
#X text -329 1264 <-- Try numbers between 50 and 80;
#X floatatom -401 1240 5 20 300 0 - - -;
#X text -365 1239 <-- Try numbers between 50 and 80;
#X text -440 9 Lab 1 - This lab designed by Edgar Berdahl.;
#X text -440 23 3 Parts;
#X obj -305 1866 coll;
#C flags 1 0;
#C restore;
#X msg -232 1841 flags 1 0;
#X obj -232 1817 loadbang;
#X text -157 1799 This part of the patch makes it so that the contents
of the "coll" object are stored within the patch. That way \, if you
change the "coll \, " modify the patch \, save the patch \, and then
reopen the patch \, your updated "coll" contents will still be there.
;
#X obj -305 1892 iter;
#X obj -292 1918 print cameoutofcoll;
#X obj -305 1783 bng 45 250 50 0 empty empty empty 17 7 0 10 -262144
-1 -1;
#X obj 45 1213 maxlib/scale;
#X obj 45 1094 key;
#X floatatom 45 1120 5 0 0 0 - - -;
#X obj 140 1095 notein;
#X floatatom 140 1121 5 0 0 0 - - -;
#X floatatom 159 1146 5 0 0 0 - - -;
#X floatatom 179 1171 5 0 0 0 - - -;
#X text 188 1093 (If you have a MIDI device connected and working.)
;
#X text 42 1072 Other generally useful objects:;
#X text -434 997 C. Make a simple but intriguing ditty using objects
such as "metro \, " "random \, " "urn \, " "drunk \, " or "sel." Use
some math objects too (i.e. + \, - \, * \, / \, etc.) Connect these
objects to the synths down below.;
#X text -439 67 A. Fix the following patch so that it always produces
the result 3.4 when you click on the bang button.;
#X text -437 526 B. Make a patch that sends out a bang at random intervals.
In other words \, it should be a like a randomized "metro" object.
Hint: You could make one using a "bang" object \, a "delay" object
\, a "random" object \, and a "t b f" object.;
#N canvas 248 449 423 288 just-bang-me-to-make-sound 0;
#X obj -354 -60 inlet;
#N canvas 150 231 1440 456 my-synth 0;
#X obj 8 9 inlet;
#X obj 105 65 inlet;
#X obj 198 4 inlet;
#X obj 295 64 inlet;
#X obj 851 350 dac~;
#X obj 423 15 inlet;
#X obj 555 92 inlet;
#X obj 699 11 inlet;
#X obj 828 65 inlet;
#X obj 1516 231 inlet;
#N canvas 416 379 450 300 osc-synth 0;
#X obj 64 16 inlet;
#X obj 121 264 outlet~;
#X obj 133 82 mtof;
#X obj 133 129 phasor~;
#X obj 88 56 t b b f;
#X obj 78 154 line~;
#X obj 119 180 *~;
#X msg 95 105 1 15;
#X obj 17 98 delay 15;
#X msg 35 129 0 40;
#X obj 118 209 onepole~ 1500 Hz.;
#X obj 121 241 *~ 0.022;
#X connect 0 0 4 0;
#X connect 2 0 3 0;
#X connect 3 0 6 1;
#X connect 4 0 8 0;
#X connect 4 1 7 0;
#X connect 4 2 2 0;
#X connect 5 0 6 0;
#X connect 6 0 10 0;
#X connect 7 0 5 0;
#X connect 8 0 9 0;
#X connect 9 0 5 0;
#X connect 10 0 11 0;
#X connect 11 0 1 0;
#X restore 1516 256 pd osc-synth;
#X obj 8 31 playwav-abstraction gbell-1-1-pp.wav;
#X obj 105 88 playwav-abstraction gbell-1-2-pp.wav;
#X obj 198 28 playwav-abstraction gbell-2-1-pp.wav;
#X obj 295 86 playwav-abstraction gbell-2-2-pp.wav;
#X obj 423 37 playwav-abstraction gbell-3-1-pp.wav;
#X obj 555 115 playwav-abstraction gbell-3-2-pp.wav;
#X obj 699 35 playwav-abstraction gbell-4-1-pp.wav;
#X obj 828 87 playwav-abstraction gbell-4-2-pp.wav;
#X obj 1047 -21 inlet;
#X obj 1166 125 inlet;
#X obj 1267 32 inlet;
#X obj 1364 92 inlet;
#X obj 1492 43 inlet;
#X obj 1047 1 playwav-abstraction gbell-5-1-pp.wav;
#X obj 1166 148 playwav-abstraction gbell-5-2-pp.wav;
#X obj 1267 56 playwav-abstraction gbell-6-1-pp.wav;
#X obj 1364 114 playwav-abstraction gbell-6-2-pp.wav;
#X obj 1492 65 playwav-abstraction gbell-9-2-pp.wav;
#X connect 0 0 11 0;
#X connect 1 0 12 0;
#X connect 2 0 13 0;
#X connect 3 0 14 0;
#X connect 5 0 15 0;
#X connect 6 0 16 0;
#X connect 7 0 17 0;
#X connect 8 0 18 0;
#X connect 9 0 10 0;
#X connect 10 0 4 1;
#X connect 10 0 4 0;
#X connect 11 0 4 0;
#X connect 12 0 4 1;
#X connect 13 0 4 0;
#X connect 14 0 4 1;
#X connect 15 0 4 0;
#X connect 16 0 4 1;
#X connect 17 0 4 0;
#X connect 18 0 4 1;
#X connect 19 0 24 0;
#X connect 20 0 25 0;
#X connect 21 0 26 0;
#X connect 22 0 27 0;
#X connect 23 0 28 0;
#X connect 24 0 4 0;
#X connect 25 0 4 1;
#X connect 26 0 4 0;
#X connect 27 0 4 1;
#X connect 28 0 4 0;
#X restore -354 181 pd my-synth just-make-this-object-look-longer;
#X msg -99 79 0.3;
#X msg -131 110 0.3;
#X msg -165 76 0.3;
#X msg -214 79 0.3;
#X msg -184 114 0.3;
#X msg -247 110 0.3;
#X msg -275 90 0.3;
#X msg -302 112 0.3;
#X msg -326 86 0.3;
#X msg -346 112 0.3;
#X msg -378 84 0.3;
#X msg -389 118 0.3;
#X msg -435 105 0.3;
#X obj -354 -13 random 13;
#X obj -354 15 sel 0 1 2 3 4 5 6 7 8 9 10 11;
#X obj -354 -34 bng 15 250 50 0 empty empty empty 17 7 0 10 -262144
-1 -1;
#X connect 0 0 17 0;
#X connect 2 0 1 12;
#X connect 3 0 1 11;
#X connect 4 0 1 10;
#X connect 5 0 1 8;
#X connect 6 0 1 9;
#X connect 7 0 1 7;
#X connect 8 0 1 6;
#X connect 9 0 1 5;
#X connect 10 0 1 4;
#X connect 11 0 1 3;
#X connect 12 0 1 2;
#X connect 13 0 1 1;
#X connect 14 0 1 0;
#X connect 15 0 16 0;
#X connect 16 0 14 0;
#X connect 16 1 13 0;
#X connect 16 2 12 0;
#X connect 16 3 11 0;
#X connect 16 4 10 0;
#X connect 16 5 9 0;
#X connect 16 6 8 0;
#X connect 16 7 7 0;
#X connect 16 8 5 0;
#X connect 16 9 6 0;
#X connect 16 10 4 0;
#X connect 16 11 3 0;
#X connect 16 12 2 0;
#X connect 17 0 15 0;
#X restore -369 901 pd just-bang-me-to-make-sound;
#X obj -369 868 bng 15 250 50 0 empty empty empty 17 7 0 10 -262144
-1 -1;
#X text -353 864 <--- If you want to hear your bangs \, you can connect
the output of your randomized metronome to this.;
#X msg -407 2123 0.3;
#X msg -350 2102 0.3;
#X msg -361 2136 0.3;
#X msg -318 2130 0.3;
#X msg -298 2104 0.3;
#X msg -274 2130 0.3;
#X msg -247 2108 0.3;
#X msg -219 2128 0.3;
#X msg -186 2097 0.3;
#X msg -156 2132 0.3;
#X msg -137 2094 0.3;
#X msg -102 2128 0.3;
#X msg -71 2097 0.3;
#X text -434 1662 D. Put (and save) some data in the "coll" object
and connect it to the synthesizer at the very bottom. It might help
you to use the "sel" object to convert numbers/messages into bangs
coming out specific outlets.;
#X text -434 1741 Program it to play something interesting!;
#X connect 0 0 2 0;
#X connect 0 0 3 0;
#X connect 1 0 4 0;
#X connect 2 0 1 0;
#X connect 3 0 1 1;
#X connect 6 0 9 13;
#X connect 11 0 10 3;
#X connect 13 0 10 2;
#X connect 15 0 10 1;
#X connect 17 0 10 0;
#X connect 21 0 25 0;
#X connect 22 0 21 0;
#X connect 23 0 22 0;
#X connect 25 0 26 0;
#X connect 27 0 21 0;
#X connect 29 0 30 0;
#X connect 31 0 32 0;
#X connect 31 1 33 0;
#X connect 31 2 34 0;
#X connect 41 0 40 0;
#X connect 43 0 9 0;
#X connect 44 0 9 2;
#X connect 45 0 9 1;
#X connect 46 0 9 3;
#X connect 47 0 9 4;
#X connect 48 0 9 5;
#X connect 49 0 9 6;
#X connect 50 0 9 7;
#X connect 51 0 9 8;
#X connect 52 0 9 9;
#X connect 53 0 9 10;
#X connect 54 0 9 11;
#X connect 55 0 9 12;
