#N canvas 0 417 520 385 10;
#X obj 76 119 inlet;
#X text 52 97 Length in samples;
#X obj 362 105 inlet;
#X text 357 84 Rate (1=normal);
#X obj 126 178 samplerate~;
#X obj 92 328 outlet;
#X msg 350 269 0;
#X text 57 -15 Given a number of samples and a rate \,;
#X text 63 5 make a message suitable for line~;
#X text 63 22 e.g. \, 0 \, 44100 1000 would start at time zero and
;
#X text 65 36 play a one-second sound file in one second (rate=1);
#X obj 110 199 /;
#X obj 110 225 * 1000;
#X obj 77 142 trigger f f b b;
#X obj 41 276 pack 0 0;
#X obj 373 185 /;
#X obj 362 130 t b f;
#X msg 362 151 1;
#X floatatom 370 214 5 0 0 0 - - -;
#X text 135 200 Convert to seconds;
#X text 155 220 Convert to milliseconds;
#X text 321 292 Start at time 0;
#X obj 110 252 * 1;
#X text 138 252 Apply rate adjustment;
#X connect 0 0 13 0;
#X connect 2 0 16 0;
#X connect 4 0 11 1;
#X connect 6 0 5 0;
#X connect 11 0 12 0;
#X connect 12 0 22 0;
#X connect 13 0 14 0;
#X connect 13 1 11 0;
#X connect 13 2 4 0;
#X connect 13 3 6 0;
#X connect 14 0 5 0;
#X connect 15 0 18 0;
#X connect 16 0 17 0;
#X connect 16 1 15 1;
#X connect 17 0 15 0;
#X connect 18 0 22 1;
#X connect 22 0 14 1;
