#N canvas 103 51 1048 759 10;
#X msg 316 639 disconnect;
#X text 316 604 Last step: Disconnect from the UDP socket for controlling
;
#X text 316 621 the graphics.;
#X text -96 5 Step 0: Run the following command to start the graphics
;
#X text 238 5 process:;
#X text -55 452 Step 1: Connect to the UDP port created by that process
;
#X msg -55 470 connect localhost 7000;
#X obj 577 140 vsl 15 128 0 127 0 0 empty empty empty 0 -9 0 10 -258113
-1 -1 0 1;
#X obj 659 139 vsl 15 128 0 127 0 0 empty empty empty 0 -9 0 10 -4034
-1 -1 0 1;
#X obj 745 137 vsl 15 128 0 127 0 0 empty empty empty 0 -9 0 10 -4160
-1 -1 0 1;
#X obj 577 313 expr $f1/127;
#X obj 659 313 expr $f1/127;
#X obj 745 312 expr $f1/127;
#X text -77 20 ./SimpleGraphics;
#X obj 505 139 vsl 15 128 0 127 0 0 empty empty empty 0 -9 0 10 -262144
-1 -1 0 1;
#X text 499 104 size;
#X text 306 50 position;
#X obj 453 314 expr 0.05+2*$f1/127;
#X obj 338 476 bondo 7;
#X obj 301 506 pack f f f f f f s;
#X msg 797 404 symbol rect;
#X obj 194 320 expr 2*$f1/1000-1;
#X obj 325 318 expr 2*$f1/1000-1;
#X text 646 92 color;
#X obj -60 405 loadbang;
#X msg 792 364 symbol ellipse;
#X msg 211 568 send /sg/\$7 my\$7 \$1 \$2 \$3 \$3 \$4 \$5 \$6 1;
#X obj 210 605 osc/packOSC;
#X obj 237 694 iemnet/udpsend;
#X obj 237 82 unauthorized/grid grid1 200 0 1000 200 0 1000 0 1 1 10
10 293 148;
#X connect 0 0 28 0;
#X connect 6 0 28 0;
#X connect 7 0 10 0;
#X connect 8 0 11 0;
#X connect 9 0 12 0;
#X connect 10 0 18 3;
#X connect 11 0 18 4;
#X connect 12 0 18 5;
#X connect 14 0 17 0;
#X connect 17 0 18 2;
#X connect 18 0 19 0;
#X connect 18 1 19 1;
#X connect 18 2 19 2;
#X connect 18 3 19 3;
#X connect 18 4 19 4;
#X connect 18 5 19 5;
#X connect 19 0 26 0;
#X connect 20 0 19 6;
#X connect 21 0 18 0;
#X connect 22 0 18 1;
#X connect 24 0 6 0;
#X connect 25 0 19 6;
#X connect 26 0 27 0;
#X connect 27 0 28 0;
#X connect 29 0 21 0;
#X connect 29 1 22 0;
