#N canvas 26 92 601 396 10;
#N canvas 0 22 1337 653 message.rate 0;
#X obj 423 421 biquadm.mmb~;
#X obj 423 364 noise~;
#X obj 423 458 *~ 0.2;
#X floatatom 532 184 5 0 0 0 - - -;
#X floatatom 492 158 5 0 0 0 - - -;
#X obj 492 183 mtof;
#X obj 532 221 t b f;
#X msg 775 281 lowpass;
#X msg 775 311 highpass;
#X msg 775 341 bandpass;
#X msg 775 371 resonant;
#X msg 775 431 lowshelf;
#X msg 775 461 highshelf;
#X msg 775 491 peaking;
#X msg 775 521 allpass;
#X floatatom 572 222 5 0 0 0 - - -;
#X obj 572 249 t b f;
#X floatatom 492 221 5 0 0 0 - - -;
#X obj 492 286 filtercoeff.mmb lowpass;
#X text 609 221 gain (shelving and peaking only);
#X text 429 221 frequency;
#X obj 532 68 + 100;
#X obj 532 93 dbtorms;
#X floatatom 532 37 5 0 0 0 - - -;
#X text 594 37 For lowpass \, highpass \, and resonant \, Q = the gain
of the resonant (cutoff) frequency. By convention \, -3dB is no resonance
for lowpass and highpass.;
#X text 766 260 Filter types;
#X msg 511 374 interp \$1;
#X floatatom 513 346 5 0 0 0 - - -;
#X obj 423 559 throw~ \$0-dac;
#X text 34 215 [filtercoeff.mmb] calculate coefficients for [biquad]
at the message rate. The filter type can be defined as the argument
or throught the rightmost inlet.;
#X text 37 361 [biquadm.mmb~] is just like [biquad~] \, except you
can define an interpolation time to smooth transitions.;
#X obj 441 502 tgl 15 0 empty empty empty 17 7 0 10 -262144 -1 -1 0
1;
#N canvas 0 22 510 393 fft 0;
#X obj 129 46 inlet~;
#X obj 173 159 rfft~;
#X obj 170 193 *~;
#X obj 200 193 *~;
#X obj 339 259 metro 200;
#X obj 239 46 inlet;
#X obj 129 87 *~;
#X obj 129 355 outlet~;
#X obj 316 88 block~ 1024;
#X obj 173 131 /~ 10;
#X obj 189 356 tabwrite~ \$0-biquadm.graph;
#X connect 0 0 6 0;
#X connect 1 0 2 0;
#X connect 1 0 2 1;
#X connect 1 1 3 0;
#X connect 1 1 3 1;
#X connect 2 0 10 0;
#X connect 3 0 10 0;
#X connect 4 0 10 0;
#X connect 5 0 4 0;
#X connect 5 0 6 1;
#X connect 6 0 7 0;
#X connect 6 0 9 0;
#X connect 9 0 1 0;
#X restore 423 527 pd fft;
#X text 462 499 <-- click here to hear it and see the spectrum;
#N canvas 0 0 450 300 (subpatch) 0;
#X array \$0-biquadm.graph 512 float 2;
#X coords 0 1 511 0 400 140 1;
#X restore 857 412 graph;
#X msg 775 401 notch;
#X text 570 184 Q (lowpass \, highpass \, bandpass \, resonant \, notch
\, peaking \, allpass) or slope (lowshelf \, highshelf);
#X connect 0 0 2 0;
#X connect 1 0 0 0;
#X connect 2 0 32 0;
#X connect 3 0 6 0;
#X connect 4 0 5 0;
#X connect 5 0 17 0;
#X connect 6 0 18 0;
#X connect 6 1 18 1;
#X connect 7 0 18 3;
#X connect 8 0 18 3;
#X connect 9 0 18 3;
#X connect 10 0 18 3;
#X connect 11 0 18 3;
#X connect 12 0 18 3;
#X connect 13 0 18 3;
#X connect 14 0 18 3;
#X connect 15 0 16 0;
#X connect 16 0 18 0;
#X connect 16 1 18 2;
#X connect 17 0 18 0;
#X connect 18 0 0 1;
#X connect 21 0 22 0;
#X connect 22 0 3 0;
#X connect 23 0 21 0;
#X connect 26 0 0 1;
#X connect 27 0 26 0;
#X connect 31 0 32 1;
#X connect 32 0 28 0;
#X connect 35 0 18 3;
#X restore 113 133 pd message.rate;
#N canvas 21 22 1344 648 audio.rate 0;
#X obj 429 347 noise~;
#X obj 429 481 *~ 0.2;
#X floatatom 545 207 5 0 0 0 - - -;
#X floatatom 478 181 5 0 0 0 - - -;
#X obj 478 206 mtof;
#X msg 781 304 lowpass;
#X msg 781 334 highpass;
#X msg 781 364 bandpass;
#X msg 781 394 resonant;
#X msg 781 454 lowshelf;
#X msg 781 484 highshelf;
#X msg 781 514 peaking;
#X msg 781 544 allpass;
#X floatatom 592 245 5 0 0 0 - - -;
#X floatatom 478 244 0 0 0 0 - - -;
#X text 629 244 gain (shelving and peaking only);
#X text 415 244 frequency;
#X obj 545 91 + 100;
#X obj 545 116 dbtorms;
#X floatatom 545 60 5 0 0 0 - - -;
#X text 607 60 For lowpass \, highpass \, and resonant \, Q = the gain
of the resonant (cutoff) frequency. By convention \, -3dB is no resonance
for lowpass and highpass.;
#X text 772 283 Filter types;
#X obj 429 582 throw~ \$0-dac;
#X obj 447 525 tgl 15 0 empty empty empty 17 7 0 10 -262144 -1 -1 0
1;
#X obj 498 309 filtercoeff.mmb~ lowpass;
#X obj 429 443 biquad.mmb~;
#X obj 592 272 sig~;
#X obj 545 244 sig~;
#X obj 498 273 sig~;
#X text 40 238 [filtercoeff.mmb~] calculate coefficients for [biquad.mmb~]
\, meaning the parameters can be controlled by audio signals. The filter
type can be defined as the argument or throught the rightmost inlet.
;
#X text 44 384 [biquadm.mmb~] is just like [biquad~] \, except the
coefficients can be controlled with audio signals.;
#X text 49 486 NOTE: these can be pretty cpu intensive.;
#N canvas 0 22 510 393 fft 0;
#X obj 129 46 inlet~;
#X obj 173 159 rfft~;
#X obj 170 193 *~;
#X obj 200 193 *~;
#X obj 189 356 tabwrite~ \$0-biquad.graph;
#X obj 339 259 metro 200;
#X obj 239 46 inlet;
#X obj 129 87 *~;
#X obj 129 355 outlet~;
#X obj 316 88 block~ 1024;
#X obj 208 256 expr~ 10*log($v1);
#X obj 173 131 /~ 10;
#X connect 0 0 7 0;
#X connect 1 0 2 0;
#X connect 1 0 2 1;
#X connect 1 1 3 0;
#X connect 1 1 3 1;
#X connect 2 0 10 0;
#X connect 2 0 4 0;
#X connect 3 0 10 0;
#X connect 3 0 4 0;
#X connect 5 0 4 0;
#X connect 6 0 5 0;
#X connect 6 0 7 1;
#X connect 7 0 8 0;
#X connect 7 0 11 0;
#X connect 11 0 1 0;
#X restore 429 550 pd fft;
#X text 468 522 <-- click here to hear it and see the spectrum;
#N canvas 0 0 450 300 (subpatch) 0;
#X array \$0-biquad.graph 512 float 2;
#X coords 0 1 512 0 400 140 1;
#X restore 860 378 graph;
#X msg 781 424 notch;
#X text 589 200 Q (lowpass \, highpass \, bandpass \, resonant \, notch
\, peaking \, allpass) or slope (lowshelf \, highshelf);
#X connect 0 0 25 0;
#X connect 1 0 32 0;
#X connect 2 0 27 0;
#X connect 3 0 4 0;
#X connect 4 0 14 0;
#X connect 5 0 24 3;
#X connect 6 0 24 3;
#X connect 7 0 24 3;
#X connect 8 0 24 3;
#X connect 9 0 24 3;
#X connect 10 0 24 3;
#X connect 11 0 24 3;
#X connect 12 0 24 3;
#X connect 13 0 26 0;
#X connect 14 0 28 0;
#X connect 17 0 18 0;
#X connect 18 0 2 0;
#X connect 19 0 17 0;
#X connect 23 0 32 1;
#X connect 24 0 25 1;
#X connect 24 1 25 2;
#X connect 24 2 25 3;
#X connect 24 3 25 4;
#X connect 24 4 25 5;
#X connect 25 0 1 0;
#X connect 26 0 24 2;
#X connect 27 0 24 1;
#X connect 28 0 24 0;
#X connect 32 0 22 0;
#X connect 35 0 24 3;
#X restore 334 133 pd audio.rate;
#X obj 228 195 catch~ \$0-dac;
#X obj 226 240 dac~;
#X text 212 134 <-- look inside -->;
#X text 107 66 help for [biquad.mmb~] \, [biquadm.mmb~] \, [filtercoeff.mmb~]
\, and [filtercoeff.mmb];
#X text 364 255 .mmb;
#X connect 2 0 3 0;
#X connect 2 0 3 1;
