#N canvas 603 85 618 387 10;
#X obj 250 266 poltocar~;
#X obj 142 109 cartopol~;
#X obj 142 65 inlet~;
#X obj 193 65 inlet~;
#X obj 342 109 cartopol~;
#X obj 342 65 inlet~;
#X obj 393 65 inlet~;
#X obj 250 312 outlet~;
#X obj 301 312 outlet~;
#X text 430 284 .mmb;
#X obj 250 211 *~;
#X obj 301 211 +~;
#X connect 0 0 7 0;
#X connect 0 1 8 0;
#X connect 1 0 10 0;
#X connect 1 1 11 0;
#X connect 2 0 1 0;
#X connect 3 0 1 1;
#X connect 4 0 10 1;
#X connect 4 1 11 1;
#X connect 5 0 4 0;
#X connect 6 0 4 1;
#X connect 10 0 0 0;
#X connect 11 0 0 1;
