#N canvas 418 22 841 770 10;
#X obj 25 12 cnv 15 400 35 empty empty complex_(math).mmb 20 12 0 14
-4160 -203904 0;
#X obj 25 48 cnv 15 400 110 empty empty empty 20 12 0 14 -203904 -66577
0;
#X text 724 725 .mmb;
#X text 45 48 These are set of abstractions that implement basic arithmetic
using complex numbers. The message-rate abstractions take the real
and imaginary parts as a two element list or just a single real number.
This is done to help avoid accidentally using the imaginary part from
a previous calculation. Audio-rate objects \, of course \, can't take
lists \, so the real and imaginary parts are sent separately.;
#X obj 156 306 complex_add.mmb;
#X obj 156 376 complex_sub.mmb;
#X obj 156 446 complex_mul.mmb;
#X obj 156 516 complex_div.mmb;
#X obj 156 586 complex_con.mmb;
#X msg 256 330 set \$1 \$2;
#X msg 256 351;
#X obj 156 268 pack f f;
#X floatatom 156 216 5 0 0 0 - - -;
#X floatatom 201 236 5 0 0 0 - - -;
#X obj 243 268 pack f f;
#X floatatom 243 216 5 0 0 0 - - -;
#X floatatom 288 236 5 0 0 0 - - -;
#X msg 256 400 set \$1 \$2;
#X msg 256 421;
#X msg 256 470 set \$1 \$2;
#X msg 256 491;
#X msg 256 540 set \$1 \$2;
#X msg 256 561;
#X msg 256 610 set \$1 \$2;
#X msg 256 631;
#X text 354 305 addition;
#X text 350 376 subtraction;
#X text 343 447 multiplication;
#X text 359 516 division;
#X text 351 587 conjugation;
#X obj 456 306 complex_add.mmb~;
#X obj 456 376 complex_sub.mmb~;
#X obj 456 446 complex_mul.mmb~;
#X obj 456 516 complex_div.mmb~;
#X obj 456 586 complex_con.mmb~;
#X text 25 303 output a list with;
#X text 25 317 real and imaginary;
#X text 645 307 left outlet is real part \,;
#X text 645 320 right outlet is imaginary;
#X text 645 334 part.;
#X text 25 330 part.;
#X obj 566 333 number.mmb~;
#X obj 566 353 number.mmb~;
#X obj 566 403 number.mmb~;
#X obj 566 423 number.mmb~;
#X obj 566 473 number.mmb~;
#X obj 566 493 number.mmb~;
#X obj 566 543 number.mmb~;
#X obj 566 563 number.mmb~;
#X obj 566 613 number.mmb~;
#X obj 566 633 number.mmb~;
#X floatatom 456 216 5 0 0 0 - - -;
#X floatatom 487 240 5 0 0 0 - - -;
#X floatatom 518 216 5 0 0 0 - - -;
#X floatatom 549 240 5 0 0 0 - - -;
#X text 344 215 real;
#X text 362 237 imaginary;
#X connect 4 0 9 0;
#X connect 5 0 17 0;
#X connect 6 0 19 0;
#X connect 7 0 21 0;
#X connect 8 0 23 0;
#X connect 9 0 10 0;
#X connect 11 0 4 0;
#X connect 11 0 5 0;
#X connect 11 0 6 0;
#X connect 11 0 7 0;
#X connect 11 0 8 0;
#X connect 12 0 11 0;
#X connect 13 0 11 1;
#X connect 14 0 4 1;
#X connect 14 0 5 1;
#X connect 14 0 6 1;
#X connect 14 0 7 1;
#X connect 15 0 14 0;
#X connect 16 0 14 1;
#X connect 17 0 18 0;
#X connect 19 0 20 0;
#X connect 21 0 22 0;
#X connect 23 0 24 0;
#X connect 30 0 41 0;
#X connect 30 1 42 0;
#X connect 31 0 43 0;
#X connect 31 1 44 0;
#X connect 32 0 45 0;
#X connect 32 1 46 0;
#X connect 33 0 47 0;
#X connect 33 1 48 0;
#X connect 34 0 49 0;
#X connect 34 1 50 0;
#X connect 51 0 30 0;
#X connect 51 0 31 0;
#X connect 51 0 32 0;
#X connect 51 0 33 0;
#X connect 51 0 34 0;
#X connect 52 0 30 1;
#X connect 52 0 31 1;
#X connect 52 0 33 1;
#X connect 52 0 34 1;
#X connect 53 0 30 2;
#X connect 53 0 31 2;
#X connect 53 0 32 2;
#X connect 53 0 33 2;
#X connect 54 0 30 3;
#X connect 54 0 31 3;
#X connect 54 0 32 3;
#X connect 54 0 33 3;
