#N canvas 0 22 857 528 10;
#X obj 140 48 inlet;
#X obj 197 144 list split 2;
#X msg 266 172 \$1 0;
#X obj 487 48 inlet;
#X obj 487 144 list split 2;
#X msg 556 172 \$1 0;
#X text 588 171 convert real to complex;
#X obj 140 89 route bang;
#X obj 336 399 outlet;
#X text 624 385 .mmb;
#X obj 501 215 cartopol;
#X obj 211 215 cartopol;
#X obj 336 337 poltocar;
#X obj 336 362 pack f f;
#X obj 316 301 /;
#X obj 424 301 -;
#X obj 369 152 loadbang;
#X obj 369 205 cartopol;
#X obj 369 180 list append \$1 \$2;
#X connect 0 0 7 0;
#X connect 1 0 11 0;
#X connect 1 2 2 0;
#X connect 2 0 11 0;
#X connect 3 0 4 0;
#X connect 4 0 10 0;
#X connect 4 2 5 0;
#X connect 5 0 10 0;
#X connect 7 0 11 0;
#X connect 7 1 1 0;
#X connect 10 0 14 1;
#X connect 10 1 15 1;
#X connect 11 0 14 0;
#X connect 11 1 15 0;
#X connect 12 0 13 0;
#X connect 12 1 13 1;
#X connect 13 0 8 0;
#X connect 14 0 12 0;
#X connect 15 0 12 1;
#X connect 16 0 18 0;
#X connect 17 0 14 1;
#X connect 17 1 15 1;
#X connect 18 0 17 0;
