#N canvas 1018 214 224 242 12;
#X msg -129 140 0;
#X msg -179 140 1;
#X obj -188 168 readsf~;
#X obj -189 196 outlet~;
#X obj -220 32 inlet;
#X obj -220 61 t b b;
#X obj -143 33 spigot;
#X obj -104 7 inlet;
#X obj -188 112 sprintf %s \$1;
#X msg -188 87 open;
#X connect 0 0 2 0;
#X connect 1 0 2 0;
#X connect 2 0 3 0;
#X connect 2 1 6 0;
#X connect 4 0 5 0;
#X connect 5 0 1 0;
#X connect 5 1 9 0;
#X connect 6 0 5 0;
#X connect 7 0 6 1;
#X connect 8 0 2 0;
#X connect 9 0 8 0;
