#N canvas 0 0 450 300 10;
#X obj 70 390 inlet~;
#X obj 130 390 inlet~;
#X obj 10 390 inlet;
#X obj 190 390 r \$0-read;
#X obj 190 420 faust-control \$0;
#X obj 190 450 s \$0-write;
#X obj 10 450 r \$0-in;
#X obj 10 480 simple_snare~;
#X obj 10 510 s \$0-out;
#X obj 70 540 outlet~;
#X obj 130 540 outlet~;
#X obj 190 540 outlet~;
#X obj 250 540 outlet~;
#X obj 10 540 outlet;
#X connect 2 0 4 0;
#X connect 3 0 4 0;
#X connect 4 0 5 0;
#X connect 7 0 8 0;
#X connect 2 0 13 0;
#X connect 6 0 7 0;
#X connect 0 0 7 1;
#X connect 1 0 7 2;
#X connect 7 1 9 0;
#X connect 7 2 10 0;
#X connect 7 3 11 0;
#X connect 7 4 12 0;
#X obj 10 30 hsl 128 15 -40 40 0 0 \$0-simple-snare/Ze-Volume \$0-simple-snare/Ze-Volume Ze-Volume -2 -6 0 10 -262144 -1 -1 0 1;
#X obj 160 30 nbx 5 14 -40 40 0 0 \$0-simple-snare/Ze-Volume \$0-simple-snare/Ze-Volume empty 0 -6 0 10 -262144 -1 -1 256;
#X obj 10 60 hsl 128 15 0.01 1 0 0 \$0-simple-snare/decayTimeMembrane \$0-simple-snare/decayTimeMembrane decayTimeMembrane -2 -6 0 10 -262144 -1 -1 0 1;
#X obj 160 60 nbx 5 14 0.01 1 0 0 \$0-simple-snare/decayTimeMembrane \$0-simple-snare/decayTimeMembrane empty 0 -6 0 10 -262144 -1 -1 256;
#X obj 10 90 hsl 128 15 30 2000 0 0 \$0-simple-snare/freqMembrane \$0-simple-snare/freqMembrane freqMembrane -2 -6 0 10 -262144 -1 -1 0 1;
#X obj 160 90 nbx 5 14 30 2000 0 0 \$0-simple-snare/freqMembrane \$0-simple-snare/freqMembrane empty 0 -6 0 10 -262144 -1 -1 256;
#X obj 10 120 hsl 128 15 1 100 0 0 \$0-simple-snare/gravParam \$0-simple-snare/gravParam gravParam -2 -6 0 10 -262144 -1 -1 0 1;
#X obj 160 120 nbx 5 14 1 100 0 0 \$0-simple-snare/gravParam \$0-simple-snare/gravParam empty 0 -6 0 10 -262144 -1 -1 256;
#X obj 10 150 hsl 128 15 3e-06 1e-05 0 0 \$0-simple-snare/massL \$0-simple-snare/massL massL -2 -6 0 10 -262144 -1 -1 0 1;
#X obj 160 150 nbx 5 14 3e-06 1e-05 0 0 \$0-simple-snare/massL \$0-simple-snare/massL empty 0 -6 0 10 -262144 -1 -1 256;
#X obj 10 180 hsl 128 15 0.0001 0.1 0 0 \$0-simple-snare/massMembrane \$0-simple-snare/massMembrane massMembrane -2 -6 0 10 -262144 -1 -1 0 1;
#X obj 160 180 nbx 5 14 0.0001 0.1 0 0 \$0-simple-snare/massMembrane \$0-simple-snare/massMembrane empty 0 -6 0 10 -262144 -1 -1 256;
#X obj 10 210 hsl 128 15 3e-06 1e-05 0 0 \$0-simple-snare/massR \$0-simple-snare/massR massR -2 -6 0 10 -262144 -1 -1 0 1;
#X obj 160 210 nbx 5 14 3e-06 1e-05 0 0 \$0-simple-snare/massR \$0-simple-snare/massR empty 0 -6 0 10 -262144 -1 -1 256;
#X obj 10 240 hsl 128 15 0 0.5 0 0 \$0-simple-snare/touchDamp \$0-simple-snare/touchDamp touchDamp -2 -6 0 10 -262144 -1 -1 0 1;
#X obj 160 240 nbx 5 14 0 0.5 0 0 \$0-simple-snare/touchDamp \$0-simple-snare/touchDamp empty 0 -6 0 10 -262144 -1 -1 256;
#X obj 10 270 hsl 128 15 2000 20000 0 0 \$0-simple-snare/touchStiffnL \$0-simple-snare/touchStiffnL touchStiffnL -2 -6 0 10 -262144 -1 -1 0 1;
#X obj 160 270 nbx 5 14 2000 20000 0 0 \$0-simple-snare/touchStiffnL \$0-simple-snare/touchStiffnL empty 0 -6 0 10 -262144 -1 -1 256;
#X obj 10 300 hsl 128 15 2000 20000 0 0 \$0-simple-snare/touchStiffnR \$0-simple-snare/touchStiffnR touchStiffnR -2 -6 0 10 -262144 -1 -1 0 1;
#X obj 160 300 nbx 5 14 2000 20000 0 0 \$0-simple-snare/touchStiffnR \$0-simple-snare/touchStiffnR empty 0 -6 0 10 -262144 -1 -1 256;
#X obj 197 3 bng 15 250 50 1 \$0-init \$0-ignore empty 0 -6 0 10 -262144 -1 -1;
#X obj 217 3 tgl 15 1 \$0-active \$0-active empty 0 -6 0 10 -262144 -1 -1 1 1;
#X obj 450 10 r \$0-init;
#X obj 754 10 s \$0-in;
#X obj 906 10 s \$0-read;
#X obj 1058 10 r \$0-write;
#X msg 450 30 1;
#X obj 450 50 s \$0-active;
#X connect 40 0 41 0;
#X obj 754 30 r \$0-active;
#X msg 754 50 active \$1;
#X connect 42 0 43 0;
#X connect 43 0 37 0;
#X obj 1058 30 route active;
#X obj 1058 50 s \$0-active;
#X connect 39 0 44 0;
#X connect 44 0 45 0;
#X msg 450 70 27;
#X obj 450 90 s \$0-simple-snare/Ze-Volume;
#X connect 36 0 46 0;
#X connect 46 0 47 0;
#X obj 754 70 r \$0-simple-snare/Ze-Volume;
#X msg 754 90 /simple-snare/Ze-Volume \$1;
#X connect 48 0 49 0;
#X connect 49 0 37 0;
#X obj 1058 70 route /simple-snare/Ze-Volume;
#X obj 1058 90 s \$0-simple-snare/Ze-Volume;
#X connect 44 1 50 0;
#X connect 50 0 51 0;
#X msg 450 110 0.08;
#X obj 450 130 s \$0-simple-snare/decayTimeMembrane;
#X connect 36 0 52 0;
#X connect 52 0 53 0;
#X obj 754 110 r \$0-simple-snare/decayTimeMembrane;
#X msg 754 130 /simple-snare/decayTimeMembrane \$1;
#X connect 54 0 55 0;
#X connect 55 0 37 0;
#X obj 1058 110 route /simple-snare/decayTimeMembrane;
#X obj 1058 130 s \$0-simple-snare/decayTimeMembrane;
#X connect 50 1 56 0;
#X connect 56 0 57 0;
#X msg 450 150 170;
#X obj 450 170 s \$0-simple-snare/freqMembrane;
#X connect 36 0 58 0;
#X connect 58 0 59 0;
#X obj 754 150 r \$0-simple-snare/freqMembrane;
#X msg 754 170 /simple-snare/freqMembrane \$1;
#X connect 60 0 61 0;
#X connect 61 0 37 0;
#X obj 1058 150 route /simple-snare/freqMembrane;
#X obj 1058 170 s \$0-simple-snare/freqMembrane;
#X connect 56 1 62 0;
#X connect 62 0 63 0;
#X msg 450 190 30;
#X obj 450 210 s \$0-simple-snare/gravParam;
#X connect 36 0 64 0;
#X connect 64 0 65 0;
#X obj 754 190 r \$0-simple-snare/gravParam;
#X msg 754 210 /simple-snare/gravParam \$1;
#X connect 66 0 67 0;
#X connect 67 0 37 0;
#X obj 1058 190 route /simple-snare/gravParam;
#X obj 1058 210 s \$0-simple-snare/gravParam;
#X connect 62 1 68 0;
#X connect 68 0 69 0;
#X msg 450 230 7e-06;
#X obj 450 250 s \$0-simple-snare/massL;
#X connect 36 0 70 0;
#X connect 70 0 71 0;
#X obj 754 230 r \$0-simple-snare/massL;
#X msg 754 250 /simple-snare/massL \$1;
#X connect 72 0 73 0;
#X connect 73 0 37 0;
#X obj 1058 230 route /simple-snare/massL;
#X obj 1058 250 s \$0-simple-snare/massL;
#X connect 68 1 74 0;
#X connect 74 0 75 0;
#X msg 450 270 0.08;
#X obj 450 290 s \$0-simple-snare/massMembrane;
#X connect 36 0 76 0;
#X connect 76 0 77 0;
#X obj 754 270 r \$0-simple-snare/massMembrane;
#X msg 754 290 /simple-snare/massMembrane \$1;
#X connect 78 0 79 0;
#X connect 79 0 37 0;
#X obj 1058 270 route /simple-snare/massMembrane;
#X obj 1058 290 s \$0-simple-snare/massMembrane;
#X connect 74 1 80 0;
#X connect 80 0 81 0;
#X msg 450 310 4e-06;
#X obj 450 330 s \$0-simple-snare/massR;
#X connect 36 0 82 0;
#X connect 82 0 83 0;
#X obj 754 310 r \$0-simple-snare/massR;
#X msg 754 330 /simple-snare/massR \$1;
#X connect 84 0 85 0;
#X connect 85 0 37 0;
#X obj 1058 310 route /simple-snare/massR;
#X obj 1058 330 s \$0-simple-snare/massR;
#X connect 80 1 86 0;
#X connect 86 0 87 0;
#X msg 450 350 0.01;
#X obj 450 370 s \$0-simple-snare/touchDamp;
#X connect 36 0 88 0;
#X connect 88 0 89 0;
#X obj 754 350 r \$0-simple-snare/touchDamp;
#X msg 754 370 /simple-snare/touchDamp \$1;
#X connect 90 0 91 0;
#X connect 91 0 37 0;
#X obj 1058 350 route /simple-snare/touchDamp;
#X obj 1058 370 s \$0-simple-snare/touchDamp;
#X connect 86 1 92 0;
#X connect 92 0 93 0;
#X msg 450 390 18000;
#X obj 450 410 s \$0-simple-snare/touchStiffnL;
#X connect 36 0 94 0;
#X connect 94 0 95 0;
#X obj 754 390 r \$0-simple-snare/touchStiffnL;
#X msg 754 410 /simple-snare/touchStiffnL \$1;
#X connect 96 0 97 0;
#X connect 97 0 37 0;
#X obj 1058 390 route /simple-snare/touchStiffnL;
#X obj 1058 410 s \$0-simple-snare/touchStiffnL;
#X connect 92 1 98 0;
#X connect 98 0 99 0;
#X msg 450 430 13000;
#X obj 450 450 s \$0-simple-snare/touchStiffnR;
#X connect 36 0 100 0;
#X connect 100 0 101 0;
#X obj 754 430 r \$0-simple-snare/touchStiffnR;
#X msg 754 450 /simple-snare/touchStiffnR \$1;
#X connect 102 0 103 0;
#X connect 103 0 37 0;
#X obj 1058 430 route /simple-snare/touchStiffnR;
#X obj 1058 450 s \$0-simple-snare/touchStiffnR;
#X connect 98 1 104 0;
#X connect 104 0 105 0;
#X coords 0 -1 1 1 235 320 1 0 0;
#X text 0 340 Generated Sat Aug  3 13:19:46 2013 by faust2pd v2.5. See http://faust.grame.fr and http://pure-lang.googlecode.com.;
