#N canvas 0 0 450 300 10;
#X obj 70 180 inlet~;
#X obj 130 180 inlet~;
#X obj 10 180 inlet;
#X obj 190 180 r \$0-read;
#X obj 190 210 faust-control \$0;
#X obj 190 240 s \$0-write;
#X obj 10 240 r \$0-in;
#X obj 10 270 simple_snare_example_presets~;
#X obj 10 300 s \$0-out;
#X obj 70 330 outlet~;
#X obj 130 330 outlet~;
#X obj 190 330 outlet~;
#X obj 250 330 outlet~;
#X obj 10 330 outlet;
#X connect 2 0 4 0;
#X connect 3 0 4 0;
#X connect 4 0 5 0;
#X connect 7 0 8 0;
#X connect 2 0 13 0;
#X connect 6 0 7 0;
#X connect 0 0 7 1;
#X connect 1 0 7 2;
#X connect 7 1 9 0;
#X connect 7 2 10 0;
#X connect 7 3 11 0;
#X connect 7 4 12 0;
#X obj 10 30 nbx 5 14 0 23 0 0 \$0-simple-snare-example-presets/Preset-number \$0-simple-snare-example-presets/Preset-number Preset-number 0 -6 0 10 -262144 -1 -1 256;
#X obj 10 60 hsl 128 15 0.25 8 0 0 \$0-simple-snare-example-presets/Scale-the-masses \$0-simple-snare-example-presets/Scale-the-masses Scale-the-masses -2 -6 0 10 -262144 -1 -1 0 1;
#X obj 160 60 nbx 5 14 0.25 8 0 0 \$0-simple-snare-example-presets/Scale-the-masses \$0-simple-snare-example-presets/Scale-the-masses empty 0 -6 0 10 -262144 -1 -1 256;
#X obj 10 90 hsl 128 15 -40 40 0 0 \$0-simple-snare-example-presets/Ze-Volume \$0-simple-snare-example-presets/Ze-Volume Ze-Volume -2 -6 0 10 -262144 -1 -1 0 1;
#X obj 160 90 nbx 5 14 -40 40 0 0 \$0-simple-snare-example-presets/Ze-Volume \$0-simple-snare-example-presets/Ze-Volume empty 0 -6 0 10 -262144 -1 -1 256;
#X obj 197 3 bng 15 250 50 1 \$0-init \$0-ignore empty 0 -6 0 10 -262144 -1 -1;
#X obj 217 3 tgl 15 1 \$0-active \$0-active empty 0 -6 0 10 -262144 -1 -1 1 1;
#X obj 450 10 r \$0-init;
#X obj 874 10 s \$0-in;
#X obj 1086 10 s \$0-read;
#X obj 1298 10 r \$0-write;
#X msg 450 30 1;
#X obj 450 50 s \$0-active;
#X connect 25 0 26 0;
#X obj 874 30 r \$0-active;
#X msg 874 50 active \$1;
#X connect 27 0 28 0;
#X connect 28 0 22 0;
#X obj 1298 30 route active;
#X obj 1298 50 s \$0-active;
#X connect 24 0 29 0;
#X connect 29 0 30 0;
#X msg 450 70 0;
#X obj 450 90 s \$0-simple-snare-example-presets/Preset-number;
#X connect 21 0 31 0;
#X connect 31 0 32 0;
#X obj 874 70 r \$0-simple-snare-example-presets/Preset-number;
#X msg 874 90 /simple-snare-example-presets/Preset-number \$1;
#X connect 33 0 34 0;
#X connect 34 0 22 0;
#X obj 1298 70 route /simple-snare-example-presets/Preset-number;
#X obj 1298 90 s \$0-simple-snare-example-presets/Preset-number;
#X connect 29 1 35 0;
#X connect 35 0 36 0;
#X msg 450 110 1;
#X obj 450 130 s \$0-simple-snare-example-presets/Scale-the-masses;
#X connect 21 0 37 0;
#X connect 37 0 38 0;
#X obj 874 110 r \$0-simple-snare-example-presets/Scale-the-masses;
#X msg 874 130 /simple-snare-example-presets/Scale-the-masses \$1;
#X connect 39 0 40 0;
#X connect 40 0 22 0;
#X obj 1298 110 route /simple-snare-example-presets/Scale-the-masses;
#X obj 1298 130 s \$0-simple-snare-example-presets/Scale-the-masses;
#X connect 35 1 41 0;
#X connect 41 0 42 0;
#X msg 450 150 -12;
#X obj 450 170 s \$0-simple-snare-example-presets/Ze-Volume;
#X connect 21 0 43 0;
#X connect 43 0 44 0;
#X obj 874 150 r \$0-simple-snare-example-presets/Ze-Volume;
#X msg 874 170 /simple-snare-example-presets/Ze-Volume \$1;
#X connect 45 0 46 0;
#X connect 46 0 22 0;
#X obj 1298 150 route /simple-snare-example-presets/Ze-Volume;
#X obj 1298 170 s \$0-simple-snare-example-presets/Ze-Volume;
#X connect 41 1 47 0;
#X connect 47 0 48 0;
#X coords 0 -1 1 1 235 110 1 0 0;
#X text 0 130 Generated Sat Aug  3 13:19:46 2013 by faust2pd v2.5. See http://faust.grame.fr and http://pure-lang.googlecode.com.;
