#N canvas 0 0 450 300 10;
#X obj 70 270 inlet~;
#X obj 130 270 inlet~;
#X obj 10 270 inlet;
#X obj 190 270 r \$0-read;
#X obj 190 300 faust-control \$0;
#X obj 190 330 s \$0-write;
#X obj 10 330 r \$0-in;
#X obj 10 360 throw_many_masses~;
#X obj 10 390 s \$0-out;
#X obj 70 420 outlet~;
#X obj 130 420 outlet~;
#X obj 190 420 outlet~;
#X obj 250 420 outlet~;
#X obj 10 420 outlet;
#X connect 2 0 4 0;
#X connect 3 0 4 0;
#X connect 4 0 5 0;
#X connect 7 0 8 0;
#X connect 2 0 13 0;
#X connect 6 0 7 0;
#X connect 0 0 7 1;
#X connect 1 0 7 2;
#X connect 7 1 9 0;
#X connect 7 2 10 0;
#X connect 7 3 11 0;
#X connect 7 4 12 0;
#X obj 10 30 hsl 128 15 0 0.5 0 0 \$0-throw-many-masses/Damping-to-ground \$0-throw-many-masses/Damping-to-ground Damping-to-ground -2 -6 0 10 -262144 -1 -1 0 1;
#X obj 160 30 nbx 5 14 0 0.5 0 0 \$0-throw-many-masses/Damping-to-ground \$0-throw-many-masses/Damping-to-ground empty 0 -6 0 10 -262144 -1 -1 256;
#X obj 10 60 hsl 128 15 0.0002 0.075 0 0 \$0-throw-many-masses/Maximum-mass \$0-throw-many-masses/Maximum-mass Maximum-mass -2 -6 0 10 -262144 -1 -1 0 1;
#X obj 160 60 nbx 5 14 0.0002 0.075 0 0 \$0-throw-many-masses/Maximum-mass \$0-throw-many-masses/Maximum-mass empty 0 -6 0 10 -262144 -1 -1 256;
#X obj 10 90 hsl 128 15 0 0.2 0 0 \$0-throw-many-masses/Touch-damping \$0-throw-many-masses/Touch-damping Touch-damping -2 -6 0 10 -262144 -1 -1 0 1;
#X obj 160 90 nbx 5 14 0 0.2 0 0 \$0-throw-many-masses/Touch-damping \$0-throw-many-masses/Touch-damping empty 0 -6 0 10 -262144 -1 -1 256;
#X obj 10 120 hsl 128 15 1 500 0 0 \$0-throw-many-masses/Touch-stiffness \$0-throw-many-masses/Touch-stiffness Touch-stiffness -2 -6 0 10 -262144 -1 -1 0 1;
#X obj 160 120 nbx 5 14 1 500 0 0 \$0-throw-many-masses/Touch-stiffness \$0-throw-many-masses/Touch-stiffness empty 0 -6 0 10 -262144 -1 -1 256;
#X obj 10 150 hsl 128 15 20 2000 0 0 \$0-throw-many-masses/Ze-Highpass-cutoff-frequency \$0-throw-many-masses/Ze-Highpass-cutoff-frequency Ze-Highpass-cutoff-frequency -2 -6 0 10 -262144 -1 -1 0 1;
#X obj 160 150 nbx 5 14 20 2000 0 0 \$0-throw-many-masses/Ze-Highpass-cutoff-frequency \$0-throw-many-masses/Ze-Highpass-cutoff-frequency empty 0 -6 0 10 -262144 -1 -1 256;
#X obj 10 180 hsl 128 15 -10 70 0 0 \$0-throw-many-masses/Ze-Volume \$0-throw-many-masses/Ze-Volume Ze-Volume -2 -6 0 10 -262144 -1 -1 0 1;
#X obj 160 180 nbx 5 14 -10 70 0 0 \$0-throw-many-masses/Ze-Volume \$0-throw-many-masses/Ze-Volume empty 0 -6 0 10 -262144 -1 -1 256;
#X obj 197 3 bng 15 250 50 1 \$0-init \$0-ignore empty 0 -6 0 10 -262144 -1 -1;
#X obj 217 3 tgl 15 1 \$0-active \$0-active empty 0 -6 0 10 -262144 -1 -1 1 1;
#X obj 450 10 r \$0-init;
#X obj 882 10 s \$0-in;
#X obj 1098 10 s \$0-read;
#X obj 1314 10 r \$0-write;
#X msg 450 30 1;
#X obj 450 50 s \$0-active;
#X connect 32 0 33 0;
#X obj 882 30 r \$0-active;
#X msg 882 50 active \$1;
#X connect 34 0 35 0;
#X connect 35 0 29 0;
#X obj 1314 30 route active;
#X obj 1314 50 s \$0-active;
#X connect 31 0 36 0;
#X connect 36 0 37 0;
#X msg 450 70 0.01;
#X obj 450 90 s \$0-throw-many-masses/Damping-to-ground;
#X connect 28 0 38 0;
#X connect 38 0 39 0;
#X obj 882 70 r \$0-throw-many-masses/Damping-to-ground;
#X msg 882 90 /throw-many-masses/Damping-to-ground \$1;
#X connect 40 0 41 0;
#X connect 41 0 29 0;
#X obj 1314 70 route /throw-many-masses/Damping-to-ground;
#X obj 1314 90 s \$0-throw-many-masses/Damping-to-ground;
#X connect 36 1 42 0;
#X connect 42 0 43 0;
#X msg 450 110 0.01865;
#X obj 450 130 s \$0-throw-many-masses/Maximum-mass;
#X connect 28 0 44 0;
#X connect 44 0 45 0;
#X obj 882 110 r \$0-throw-many-masses/Maximum-mass;
#X msg 882 130 /throw-many-masses/Maximum-mass \$1;
#X connect 46 0 47 0;
#X connect 47 0 29 0;
#X obj 1314 110 route /throw-many-masses/Maximum-mass;
#X obj 1314 130 s \$0-throw-many-masses/Maximum-mass;
#X connect 42 1 48 0;
#X connect 48 0 49 0;
#X msg 450 150 0.01;
#X obj 450 170 s \$0-throw-many-masses/Touch-damping;
#X connect 28 0 50 0;
#X connect 50 0 51 0;
#X obj 882 150 r \$0-throw-many-masses/Touch-damping;
#X msg 882 170 /throw-many-masses/Touch-damping \$1;
#X connect 52 0 53 0;
#X connect 53 0 29 0;
#X obj 1314 150 route /throw-many-masses/Touch-damping;
#X obj 1314 170 s \$0-throw-many-masses/Touch-damping;
#X connect 48 1 54 0;
#X connect 54 0 55 0;
#X msg 450 190 130;
#X obj 450 210 s \$0-throw-many-masses/Touch-stiffness;
#X connect 28 0 56 0;
#X connect 56 0 57 0;
#X obj 882 190 r \$0-throw-many-masses/Touch-stiffness;
#X msg 882 210 /throw-many-masses/Touch-stiffness \$1;
#X connect 58 0 59 0;
#X connect 59 0 29 0;
#X obj 1314 190 route /throw-many-masses/Touch-stiffness;
#X obj 1314 210 s \$0-throw-many-masses/Touch-stiffness;
#X connect 54 1 60 0;
#X connect 60 0 61 0;
#X msg 450 230 200;
#X obj 450 250 s \$0-throw-many-masses/Ze-Highpass-cutoff-frequency;
#X connect 28 0 62 0;
#X connect 62 0 63 0;
#X obj 882 230 r \$0-throw-many-masses/Ze-Highpass-cutoff-frequency;
#X msg 882 250 /throw-many-masses/Ze-Highpass-cutoff-frequency \$1;
#X connect 64 0 65 0;
#X connect 65 0 29 0;
#X obj 1314 230 route /throw-many-masses/Ze-Highpass-cutoff-frequency;
#X obj 1314 250 s \$0-throw-many-masses/Ze-Highpass-cutoff-frequency;
#X connect 60 1 66 0;
#X connect 66 0 67 0;
#X msg 450 270 16;
#X obj 450 290 s \$0-throw-many-masses/Ze-Volume;
#X connect 28 0 68 0;
#X connect 68 0 69 0;
#X obj 882 270 r \$0-throw-many-masses/Ze-Volume;
#X msg 882 290 /throw-many-masses/Ze-Volume \$1;
#X connect 70 0 71 0;
#X connect 71 0 29 0;
#X obj 1314 270 route /throw-many-masses/Ze-Volume;
#X obj 1314 290 s \$0-throw-many-masses/Ze-Volume;
#X connect 66 1 72 0;
#X connect 72 0 73 0;
#X coords 0 -1 1 1 235 200 1 0 0;
#X text 0 220 Generated Sat Aug  3 13:19:46 2013 by faust2pd v2.5. See http://faust.grame.fr and http://pure-lang.googlecode.com.;
