#N canvas 0 0 450 300 10;
#X obj 70 360 inlet~;
#X obj 130 360 inlet~;
#X obj 10 360 inlet;
#X obj 190 360 r \$0-read;
#X obj 190 390 faust-control \$0;
#X obj 190 420 s \$0-write;
#X obj 10 420 r \$0-in;
#X obj 10 450 touch_several_fixed_modal_resonators_with_virtual_drumstick~;
#X obj 10 480 s \$0-out;
#X obj 70 510 outlet~;
#X obj 130 510 outlet~;
#X obj 190 510 outlet~;
#X obj 250 510 outlet~;
#X obj 10 510 outlet;
#X connect 2 0 4 0;
#X connect 3 0 4 0;
#X connect 4 0 5 0;
#X connect 7 0 8 0;
#X connect 2 0 13 0;
#X connect 6 0 7 0;
#X connect 0 0 7 1;
#X connect 1 0 7 2;
#X connect 7 1 9 0;
#X connect 7 2 10 0;
#X connect 7 3 11 0;
#X connect 7 4 12 0;
#X obj 10 30 hsl 128 15 0.01 5 0 0 \$0-touch-several-fixed-modal-resonators-with-virtual-drumstick/Decay-Time-of-Resonator \$0-touch-several-fixed-modal-resonators-with-virtual-drumstick/Decay-Time-of-Resonator Decay-Time-of-Resonator -2 -6 0 10 -262144 -1 -1 0 1;
#X obj 160 30 nbx 5 14 0.01 5 0 0 \$0-touch-several-fixed-modal-resonators-with-virtual-drumstick/Decay-Time-of-Resonator \$0-touch-several-fixed-modal-resonators-with-virtual-drumstick/Decay-Time-of-Resonator empty 0 -6 0 10 -262144 -1 -1 256;
#X obj 10 60 hsl 128 15 0.002 0.1 0 0 \$0-touch-several-fixed-modal-resonators-with-virtual-drumstick/Holding-Damping \$0-touch-several-fixed-modal-resonators-with-virtual-drumstick/Holding-Damping Holding-Damping -2 -6 0 10 -262144 -1 -1 0 1;
#X obj 160 60 nbx 5 14 0.002 0.1 0 0 \$0-touch-several-fixed-modal-resonators-with-virtual-drumstick/Holding-Damping \$0-touch-several-fixed-modal-resonators-with-virtual-drumstick/Holding-Damping empty 0 -6 0 10 -262144 -1 -1 256;
#X obj 10 90 hsl 128 15 10 150 0 0 \$0-touch-several-fixed-modal-resonators-with-virtual-drumstick/Holding-Stiffness \$0-touch-several-fixed-modal-resonators-with-virtual-drumstick/Holding-Stiffness Holding-Stiffness -2 -6 0 10 -262144 -1 -1 0 1;
#X obj 160 90 nbx 5 14 10 150 0 0 \$0-touch-several-fixed-modal-resonators-with-virtual-drumstick/Holding-Stiffness \$0-touch-several-fixed-modal-resonators-with-virtual-drumstick/Holding-Stiffness empty 0 -6 0 10 -262144 -1 -1 256;
#X obj 10 120 hsl 128 15 0.001 0.01 0 0 \$0-touch-several-fixed-modal-resonators-with-virtual-drumstick/Mass-of-Drumstick \$0-touch-several-fixed-modal-resonators-with-virtual-drumstick/Mass-of-Drumstick Mass-of-Drumstick -2 -6 0 10 -262144 -1 -1 0 1;
#X obj 160 120 nbx 5 14 0.001 0.01 0 0 \$0-touch-several-fixed-modal-resonators-with-virtual-drumstick/Mass-of-Drumstick \$0-touch-several-fixed-modal-resonators-with-virtual-drumstick/Mass-of-Drumstick empty 0 -6 0 10 -262144 -1 -1 256;
#X obj 10 150 hsl 128 15 0.0005 0.03 0 0 \$0-touch-several-fixed-modal-resonators-with-virtual-drumstick/Mass-of-Resonator \$0-touch-several-fixed-modal-resonators-with-virtual-drumstick/Mass-of-Resonator Mass-of-Resonator -2 -6 0 10 -262144 -1 -1 0 1;
#X obj 160 150 nbx 5 14 0.0005 0.03 0 0 \$0-touch-several-fixed-modal-resonators-with-virtual-drumstick/Mass-of-Resonator \$0-touch-several-fixed-modal-resonators-with-virtual-drumstick/Mass-of-Resonator empty 0 -6 0 10 -262144 -1 -1 256;
#X obj 10 180 hsl 128 15 40 3000 0 0 \$0-touch-several-fixed-modal-resonators-with-virtual-drumstick/Resonance-Frequency-0 \$0-touch-several-fixed-modal-resonators-with-virtual-drumstick/Resonance-Frequency-0 Resonance-Frequency-0 -2 -6 0 10 -262144 -1 -1 0 1;
#X obj 160 180 nbx 5 14 40 3000 0 0 \$0-touch-several-fixed-modal-resonators-with-virtual-drumstick/Resonance-Frequency-0 \$0-touch-several-fixed-modal-resonators-with-virtual-drumstick/Resonance-Frequency-0 empty 0 -6 0 10 -262144 -1 -1 256;
#X obj 10 210 hsl 128 15 0.002 0.1 0 0 \$0-touch-several-fixed-modal-resonators-with-virtual-drumstick/Touch-Interaction-Damping \$0-touch-several-fixed-modal-resonators-with-virtual-drumstick/Touch-Interaction-Damping Touch-Interaction-Damping -2 -6 0 10 -262144 -1 -1 0 1;
#X obj 160 210 nbx 5 14 0.002 0.1 0 0 \$0-touch-several-fixed-modal-resonators-with-virtual-drumstick/Touch-Interaction-Damping \$0-touch-several-fixed-modal-resonators-with-virtual-drumstick/Touch-Interaction-Damping empty 0 -6 0 10 -262144 -1 -1 256;
#X obj 10 240 hsl 128 15 50 2500 0 0 \$0-touch-several-fixed-modal-resonators-with-virtual-drumstick/Touch-Interaction-Stiffness \$0-touch-several-fixed-modal-resonators-with-virtual-drumstick/Touch-Interaction-Stiffness Touch-Interaction-Stiffness -2 -6 0 10 -262144 -1 -1 0 1;
#X obj 160 240 nbx 5 14 50 2500 0 0 \$0-touch-several-fixed-modal-resonators-with-virtual-drumstick/Touch-Interaction-Stiffness \$0-touch-several-fixed-modal-resonators-with-virtual-drumstick/Touch-Interaction-Stiffness empty 0 -6 0 10 -262144 -1 -1 256;
#X obj 10 270 hsl 128 15 0.01 1 0 0 \$0-touch-several-fixed-modal-resonators-with-virtual-drumstick/Z-Volume \$0-touch-several-fixed-modal-resonators-with-virtual-drumstick/Z-Volume Z-Volume -2 -6 0 10 -262144 -1 -1 0 1;
#X obj 160 270 nbx 5 14 0.01 1 0 0 \$0-touch-several-fixed-modal-resonators-with-virtual-drumstick/Z-Volume \$0-touch-several-fixed-modal-resonators-with-virtual-drumstick/Z-Volume empty 0 -6 0 10 -262144 -1 -1 256;
#X obj 197 3 bng 15 250 50 1 \$0-init \$0-ignore empty 0 -6 0 10 -262144 -1 -1;
#X obj 217 3 tgl 15 1 \$0-active \$0-active empty 0 -6 0 10 -262144 -1 -1 1 1;
#X obj 450 10 r \$0-init;
#X obj 1210 10 s \$0-in;
#X obj 1590 10 s \$0-read;
#X obj 1970 10 r \$0-write;
#X msg 450 30 1;
#X obj 450 50 s \$0-active;
#X connect 38 0 39 0;
#X obj 1210 30 r \$0-active;
#X msg 1210 50 active \$1;
#X connect 40 0 41 0;
#X connect 41 0 35 0;
#X obj 1970 30 route active;
#X obj 1970 50 s \$0-active;
#X connect 37 0 42 0;
#X connect 42 0 43 0;
#X msg 450 70 1.9632;
#X obj 450 90 s \$0-touch-several-fixed-modal-resonators-with-virtual-drumstick/Decay-Time-of-Resonator;
#X connect 34 0 44 0;
#X connect 44 0 45 0;
#X obj 1210 70 r \$0-touch-several-fixed-modal-resonators-with-virtual-drumstick/Decay-Time-of-Resonator;
#X msg 1210 90 /touch-several-fixed-modal-resonators-with-virtual-drumstick/Decay-Time-of-Resonator \$1;
#X connect 46 0 47 0;
#X connect 47 0 35 0;
#X obj 1970 70 route /touch-several-fixed-modal-resonators-with-virtual-drumstick/Decay-Time-of-Resonator;
#X obj 1970 90 s \$0-touch-several-fixed-modal-resonators-with-virtual-drumstick/Decay-Time-of-Resonator;
#X connect 42 1 48 0;
#X connect 48 0 49 0;
#X msg 450 110 0.1;
#X obj 450 130 s \$0-touch-several-fixed-modal-resonators-with-virtual-drumstick/Holding-Damping;
#X connect 34 0 50 0;
#X connect 50 0 51 0;
#X obj 1210 110 r \$0-touch-several-fixed-modal-resonators-with-virtual-drumstick/Holding-Damping;
#X msg 1210 130 /touch-several-fixed-modal-resonators-with-virtual-drumstick/Holding-Damping \$1;
#X connect 52 0 53 0;
#X connect 53 0 35 0;
#X obj 1970 110 route /touch-several-fixed-modal-resonators-with-virtual-drumstick/Holding-Damping;
#X obj 1970 130 s \$0-touch-several-fixed-modal-resonators-with-virtual-drumstick/Holding-Damping;
#X connect 48 1 54 0;
#X connect 54 0 55 0;
#X msg 450 150 60;
#X obj 450 170 s \$0-touch-several-fixed-modal-resonators-with-virtual-drumstick/Holding-Stiffness;
#X connect 34 0 56 0;
#X connect 56 0 57 0;
#X obj 1210 150 r \$0-touch-several-fixed-modal-resonators-with-virtual-drumstick/Holding-Stiffness;
#X msg 1210 170 /touch-several-fixed-modal-resonators-with-virtual-drumstick/Holding-Stiffness \$1;
#X connect 58 0 59 0;
#X connect 59 0 35 0;
#X obj 1970 150 route /touch-several-fixed-modal-resonators-with-virtual-drumstick/Holding-Stiffness;
#X obj 1970 170 s \$0-touch-several-fixed-modal-resonators-with-virtual-drumstick/Holding-Stiffness;
#X connect 54 1 60 0;
#X connect 60 0 61 0;
#X msg 450 190 0.006;
#X obj 450 210 s \$0-touch-several-fixed-modal-resonators-with-virtual-drumstick/Mass-of-Drumstick;
#X connect 34 0 62 0;
#X connect 62 0 63 0;
#X obj 1210 190 r \$0-touch-several-fixed-modal-resonators-with-virtual-drumstick/Mass-of-Drumstick;
#X msg 1210 210 /touch-several-fixed-modal-resonators-with-virtual-drumstick/Mass-of-Drumstick \$1;
#X connect 64 0 65 0;
#X connect 65 0 35 0;
#X obj 1970 190 route /touch-several-fixed-modal-resonators-with-virtual-drumstick/Mass-of-Drumstick;
#X obj 1970 210 s \$0-touch-several-fixed-modal-resonators-with-virtual-drumstick/Mass-of-Drumstick;
#X connect 60 1 66 0;
#X connect 66 0 67 0;
#X msg 450 230 0.0043;
#X obj 450 250 s \$0-touch-several-fixed-modal-resonators-with-virtual-drumstick/Mass-of-Resonator;
#X connect 34 0 68 0;
#X connect 68 0 69 0;
#X obj 1210 230 r \$0-touch-several-fixed-modal-resonators-with-virtual-drumstick/Mass-of-Resonator;
#X msg 1210 250 /touch-several-fixed-modal-resonators-with-virtual-drumstick/Mass-of-Resonator \$1;
#X connect 70 0 71 0;
#X connect 71 0 35 0;
#X obj 1970 230 route /touch-several-fixed-modal-resonators-with-virtual-drumstick/Mass-of-Resonator;
#X obj 1970 250 s \$0-touch-several-fixed-modal-resonators-with-virtual-drumstick/Mass-of-Resonator;
#X connect 66 1 72 0;
#X connect 72 0 73 0;
#X msg 450 270 890;
#X obj 450 290 s \$0-touch-several-fixed-modal-resonators-with-virtual-drumstick/Resonance-Frequency-0;
#X connect 34 0 74 0;
#X connect 74 0 75 0;
#X obj 1210 270 r \$0-touch-several-fixed-modal-resonators-with-virtual-drumstick/Resonance-Frequency-0;
#X msg 1210 290 /touch-several-fixed-modal-resonators-with-virtual-drumstick/Resonance-Frequency-0 \$1;
#X connect 76 0 77 0;
#X connect 77 0 35 0;
#X obj 1970 270 route /touch-several-fixed-modal-resonators-with-virtual-drumstick/Resonance-Frequency-0;
#X obj 1970 290 s \$0-touch-several-fixed-modal-resonators-with-virtual-drumstick/Resonance-Frequency-0;
#X connect 72 1 78 0;
#X connect 78 0 79 0;
#X msg 450 310 0.082;
#X obj 450 330 s \$0-touch-several-fixed-modal-resonators-with-virtual-drumstick/Touch-Interaction-Damping;
#X connect 34 0 80 0;
#X connect 80 0 81 0;
#X obj 1210 310 r \$0-touch-several-fixed-modal-resonators-with-virtual-drumstick/Touch-Interaction-Damping;
#X msg 1210 330 /touch-several-fixed-modal-resonators-with-virtual-drumstick/Touch-Interaction-Damping \$1;
#X connect 82 0 83 0;
#X connect 83 0 35 0;
#X obj 1970 310 route /touch-several-fixed-modal-resonators-with-virtual-drumstick/Touch-Interaction-Damping;
#X obj 1970 330 s \$0-touch-several-fixed-modal-resonators-with-virtual-drumstick/Touch-Interaction-Damping;
#X connect 78 1 84 0;
#X connect 84 0 85 0;
#X msg 450 350 200;
#X obj 450 370 s \$0-touch-several-fixed-modal-resonators-with-virtual-drumstick/Touch-Interaction-Stiffness;
#X connect 34 0 86 0;
#X connect 86 0 87 0;
#X obj 1210 350 r \$0-touch-several-fixed-modal-resonators-with-virtual-drumstick/Touch-Interaction-Stiffness;
#X msg 1210 370 /touch-several-fixed-modal-resonators-with-virtual-drumstick/Touch-Interaction-Stiffness \$1;
#X connect 88 0 89 0;
#X connect 89 0 35 0;
#X obj 1970 350 route /touch-several-fixed-modal-resonators-with-virtual-drumstick/Touch-Interaction-Stiffness;
#X obj 1970 370 s \$0-touch-several-fixed-modal-resonators-with-virtual-drumstick/Touch-Interaction-Stiffness;
#X connect 84 1 90 0;
#X connect 90 0 91 0;
#X msg 450 390 0.3;
#X obj 450 410 s \$0-touch-several-fixed-modal-resonators-with-virtual-drumstick/Z-Volume;
#X connect 34 0 92 0;
#X connect 92 0 93 0;
#X obj 1210 390 r \$0-touch-several-fixed-modal-resonators-with-virtual-drumstick/Z-Volume;
#X msg 1210 410 /touch-several-fixed-modal-resonators-with-virtual-drumstick/Z-Volume \$1;
#X connect 94 0 95 0;
#X connect 95 0 35 0;
#X obj 1970 390 route /touch-several-fixed-modal-resonators-with-virtual-drumstick/Z-Volume;
#X obj 1970 410 s \$0-touch-several-fixed-modal-resonators-with-virtual-drumstick/Z-Volume;
#X connect 90 1 96 0;
#X connect 96 0 97 0;
#X coords 0 -1 1 1 235 290 1 0 0;
#X text 0 310 Generated Sat Aug  3 13:19:47 2013 by faust2pd v2.5. See http://faust.grame.fr and http://pure-lang.googlecode.com.;
