#N canvas 214 37 1208 798 10;
#X obj -58 -9 noise~;
#X obj 305 191 hradio 15 1 0 8 empty empty empty 0 -6 0 8 -262144 -1
-1 2;
#X obj 41 488 hip~;
#X obj 442 647 dac~;
#X obj 456 615 *~;
#X obj 497 618 hsl 128 15 0 1 0 0 empty empty empty -2 -6 0 8 -262144
-1 -1 3300 1;
#X floatatom 494 637 5 0 0 0 - - -;
#X msg -100 632 \; pd dsp 1;
#X msg -99 597 \; pd dsp 0;
#X floatatom 64 468 5 0 0 0 - - -;
#X obj 162 490 hip~;
#X floatatom 198 470 5 0 0 0 - - -;
#X obj 171 513 hip~;
#X obj 184 536 hip~;
#X obj 201 558 hip~;
#X obj 64 330 vsl 15 128 20 6000 0 0 empty empty empty 0 -8 0 8 -262144
-1 -1 0 1;
#X text 58 300 Cut-off;
#X text 52 312 frequency;
#X obj 198 336 vsl 15 128 20 6000 0 0 empty empty empty 0 -8 0 8 -262144
-1 -1 0 1;
#X text 179 306 Cut-off;
#X text 173 318 frequency;
#X text 175 271 HP filters;
#X floatatom 328 461 5 0 0 0 - - -;
#X obj 328 323 vsl 15 128 20 6000 0 0 empty empty empty 0 -8 0 8 -262144
-1 -1 0 1;
#X text 323 294 Cut-off;
#X text 316 305 frequency;
#X floatatom 245 192 5 0 0 0 - - -;
#X text -78 258 0: Unfiltered;
#X obj -69 460 *~ 1;
#X text 42 256 1: High-pass;
#X text 174 258 2: Cascaded;
#X text 303 261 3: Low-pass;
#X obj 305 481 lop~;
#X floatatom 444 469 5 0 0 0 - - -;
#X obj 444 335 vsl 15 128 20 6000 0 0 empty empty empty 0 -8 0 8 -262144
-1 -1 0 1;
#X text 425 305 Cut-off;
#X text 419 317 frequency;
#X text 420 257 4: Cascaded;
#X text 421 270 LP filters;
#X obj 408 489 lop~;
#X obj 417 512 lop~;
#X obj 430 535 lop~;
#X obj 447 557 lop~;
#X floatatom 572 463 5 0 0 0 - - -;
#X obj 572 325 vsl 15 128 20 6000 0 0 empty empty empty 0 -8 0 8 -262144
-1 -1 0 1;
#X text 576 261 5: Band-pass;
#X text 555 296 Center;
#X floatatom 618 464 5 0 0 0 - - -;
#X obj 619 327 vsl 15 128 0.1 100 0 0 empty empty empty 0 -8 0 8 -262144
-1 -1 114 1;
#X text 614 297 Q = quality;
#X text 627 308 = narrowness;
#X obj 564 500 bp~;
#X text 560 307 freq;
#X floatatom 752 460 5 0 0 0 - - -;
#X obj 752 322 vsl 15 128 20 6000 0 0 empty empty empty 0 -8 0 8 -262144
-1 -1 0 1;
#X text 735 293 Center;
#X floatatom 798 461 5 0 0 0 - - -;
#X obj 799 324 vsl 15 128 0.1 100 0 0 empty empty empty 0 -8 0 8 -262144
-1 -1 114 1;
#X text 794 294 Q = quality;
#X text 807 305 = narrowness;
#X obj 732 490 bp~;
#X text 740 304 freq;
#X text 754 258 6: Cascaded BP;
#X obj 754 512 bp~;
#X obj 783 534 bp~;
#X obj 82 55 osc~;
#X obj 85 11 hsl 128 15 20 5000 0 0 empty empty empty -2 -6 0 8 -262144
-1 -1 2400 1;
#X floatatom 82 33 5 0 0 0 - - -;
#X obj 99 146 signal-selecter~ 0;
#X obj 304 150 hradio 15 1 0 8 empty empty empty 0 -6 0 8 -262144 -1
-1 4;
#X floatatom 236 147 5 0 0 0 - - -;
#X text 302 127 Select input source;
#X text 303 174 Select filter type;
#X text -73 -46 0: White noise;
#X text 78 -33 Contains only a;
#X text 77 -20 single frequency;
#X text 637 325 narrow;
#X text 638 442 wide;
#X text 818 324 narrow;
#X text 819 441 wide;
#X obj 613 131 loadbang;
#X msg 613 154 0;
#X msg 628 4 symbol lowD;
#X msg 509 -16 symbol trill;
#X msg 536 6 symbol gliss;
#X msg 609 -14 symbol harm;
#X obj 586 42 t b s;
#X obj 561 -48 sel t g h d;
#N canvas 36 40 476 302 samples 0;
#X obj 29 27 inlet load-samples;
#X text 52 -22 Loading sound files into memory;
#X obj 29 49 bng 15 250 50 0 empty empty empty 0 -6 0 8 -262144 -1
-1;
#X obj 56 184 store-sample harm;
#X obj 56 92 store-sample trill;
#X obj 56 139 store-sample gliss;
#X obj 56 228 store-sample lowD;
#X msg 69 69 symbol ../oud-samples/trill3.wav;
#X msg 56 118 symbol ../oud-samples/short-glissdown.1.wav;
#X msg 56 163 symbol ../oud-samples/harm-allstrings.1.wav;
#X msg 55 207 symbol ../oud-samples/lowD1.wav;
#X connect 0 0 2 0;
#X connect 2 0 7 0;
#X connect 2 0 8 0;
#X connect 2 0 9 0;
#X connect 2 0 10 0;
#X connect 7 0 4 0;
#X connect 8 0 5 0;
#X connect 9 0 3 0;
#X connect 10 0 6 0;
#X restore 730 -54 pd samples;
#X obj 730 -75 bng 15 250 50 0 empty empty empty 0 -6 0 8 -262144 -1
-1;
#X text 747 -78 Load;
#X text 79 -47 1: Sine wave;
#X text -77 -31 Contains all freqs;
#X text 528 -110 Contain a natural;
#X text 528 -100 mix of frequncies;
#X text 528 -90 affected by transposition;
#X obj 561 -69 keyname-down;
#X floatatom 658 44 5 0 0 0 - - -;
#X msg 656 156 1;
#X obj 734 -13 vsl 15 128 -36 36 0 0 empty empty empty 0 -8 0 8 -262144
-1 -1 0 1;
#X obj 733 173 pow;
#X msg 733 146 1.05946;
#X obj 734 122 t b f;
#X floatatom 755 100 5 0 0 0 - - -;
#X text 756 85 1/2 steps;
#X msg 753 -15 0;
#X obj 586 64 play-sample;
#X obj 255 34 osc~;
#X obj 258 -10 hsl 128 15 20 5000 0 0 empty empty empty -2 -6 0 8 -262144
-1 -1 1900 1;
#X floatatom 255 12 5 0 0 0 - - -;
#X text 527 -125 3: Oud samples;
#X text 283 -60 2: Two sine waves;
#X text 282 -46 Contain exactly;
#X text 281 -33 two frequencies;
#X obj 266 70 +~;
#X obj 311 54 osc~;
#X obj 314 10 hsl 128 15 20 5000 0 0 empty empty empty -2 -6 0 8 -262144
-1 -1 5300 1;
#X floatatom 311 32 5 0 0 0 - - -;
#X obj 870 -6 hsl 128 15 20 5000 0 0 empty empty empty -2 -6 0 8 -262144
-1 -1 300 1;
#X floatatom 867 16 5 0 0 0 - - -;
#X text 850 -57 4: Sawtooth wave;
#X obj 867 38 phasor~;
#X text 850 -42 Harmonic signal rich in overtones;
#X obj -59 19 *~ 0.5;
#X text 629 27 transposition;
#X obj 100 175 signal-router~ 0;
#X obj 60 227 s~ unfilt;
#X obj -69 281 r~ unfilt;
#X obj -4 460 r~ hip;
#X obj 114 206 s~ hip;
#X obj 129 233 s~ hip_casc;
#X obj 106 458 r~ hip_casc;
#X obj 166 209 s~ lop;
#X obj 274 456 r~ lop;
#X obj 213 233 s~ lop_casc;
#X obj 360 438 r~ lop_casc;
#X obj 218 209 s~ bp;
#X obj 261 209 s~ bp_casc;
#X obj 532 467 r~ bp;
#X obj 674 457 r~ bp_casc;
#X text 549 599 output level;
#X text -100 575 turn on audio!;
#X text 8 622 filter-demo.pd Created (I believe) by Michael Gurevich.
Modified only slightly by Luke Dahl 10/13/09;
#X connect 0 0 123 0;
#X connect 1 0 26 0;
#X connect 2 0 4 0;
#X connect 4 0 3 0;
#X connect 4 0 3 1;
#X connect 5 0 6 0;
#X connect 6 0 4 1;
#X connect 9 0 2 1;
#X connect 10 0 12 0;
#X connect 11 0 10 1;
#X connect 11 0 12 1;
#X connect 11 0 13 1;
#X connect 11 0 14 1;
#X connect 12 0 13 0;
#X connect 13 0 14 0;
#X connect 14 0 4 0;
#X connect 15 0 9 0;
#X connect 18 0 11 0;
#X connect 22 0 32 1;
#X connect 23 0 22 0;
#X connect 26 0 125 1;
#X connect 28 0 4 0;
#X connect 32 0 4 0;
#X connect 33 0 39 1;
#X connect 33 0 40 1;
#X connect 33 0 41 1;
#X connect 33 0 42 1;
#X connect 34 0 33 0;
#X connect 39 0 40 0;
#X connect 40 0 41 0;
#X connect 41 0 42 0;
#X connect 42 0 4 0;
#X connect 43 0 51 1;
#X connect 44 0 43 0;
#X connect 47 0 51 2;
#X connect 48 0 47 0;
#X connect 51 0 4 0;
#X connect 53 0 60 1;
#X connect 53 0 63 1;
#X connect 53 0 64 1;
#X connect 54 0 53 0;
#X connect 56 0 60 2;
#X connect 56 0 63 2;
#X connect 56 0 64 2;
#X connect 57 0 56 0;
#X connect 60 0 63 0;
#X connect 63 0 64 0;
#X connect 64 0 4 0;
#X connect 65 0 68 1;
#X connect 66 0 67 0;
#X connect 67 0 65 0;
#X connect 68 0 125 0;
#X connect 69 0 70 0;
#X connect 70 0 68 8;
#X connect 80 0 81 0;
#X connect 80 0 98 0;
#X connect 81 0 69 0;
#X connect 81 0 1 0;
#X connect 82 0 86 0;
#X connect 83 0 86 0;
#X connect 84 0 86 0;
#X connect 85 0 86 0;
#X connect 86 0 106 0;
#X connect 86 1 106 1;
#X connect 87 0 83 0;
#X connect 87 1 84 0;
#X connect 87 2 85 0;
#X connect 87 3 82 0;
#X connect 89 0 88 0;
#X connect 96 0 87 0;
#X connect 97 0 106 2;
#X connect 98 0 97 0;
#X connect 98 0 48 0;
#X connect 98 0 57 0;
#X connect 99 0 102 0;
#X connect 99 0 103 0;
#X connect 100 0 97 0;
#X connect 101 0 100 0;
#X connect 102 0 101 0;
#X connect 102 1 100 1;
#X connect 105 0 99 0;
#X connect 106 0 68 3;
#X connect 107 0 114 0;
#X connect 108 0 109 0;
#X connect 109 0 107 0;
#X connect 114 0 68 2;
#X connect 115 0 114 1;
#X connect 116 0 117 0;
#X connect 117 0 115 0;
#X connect 118 0 119 0;
#X connect 119 0 121 0;
#X connect 121 0 68 4;
#X connect 123 0 68 0;
#X connect 125 0 126 0;
#X connect 125 1 129 0;
#X connect 125 2 130 0;
#X connect 125 3 132 0;
#X connect 125 4 134 0;
#X connect 125 5 136 0;
#X connect 125 6 137 0;
#X connect 127 0 28 0;
#X connect 128 0 2 0;
#X connect 131 0 10 0;
#X connect 133 0 32 0;
#X connect 135 0 39 0;
#X connect 138 0 51 0;
#X connect 139 0 60 0;
