#N canvas 328 63 794 502 10;
#X msg 500 27 phase \$1;
#X obj 500 -3 tgl 15 0 empty empty empty 17 7 0 10 -262144 -1 -1 0
1;
#X msg 505 86 units \$1;
#X obj 507 65 tgl 15 0 empty empty empty 17 7 0 10 -262144 -1 -1 0
1;
#X msg 521 141 dbrange \$1;
#X floatatom 521 116 5 0 0 0 - - -;
#X floatatom 528 174 5 0 0 0 - - -;
#X msg 528 195 amprange \$1;
#X text 566 83 0 = dB \, 1 = raw amplitude <default 0>;
#X text 598 140 amplitude range in dB mode from -x to x <default 24>
;
#X text 609 193 ampligue range in raw amp mode fro 0 to x <default
2>;
#X text 560 20 plot phase response <default 0>. The range of the phase
plot is -pi to pi;
#X obj 229 225 filterplot.mmb \$0-plot;
#X obj 228 107 filtercoeff.mmb peaking;
#X obj 228 -12 mtof;
#X obj 230 -45 hsl 128 15 0 127 0 1 empty empty frequency 2 8 0 10
-262144 -1 -1 5800 1;
#X obj 277 -16 hsl 128 15 0 20 0 1 empty empty Q 2 8 0 10 -262144 -1
-1 900 1;
#X obj 274 11 t b f;
#X obj 325 73 t b f;
#X obj 328 6 hsl 128 15 0 24 0 1 empty empty gain 2 8 0 10 -262144
-1 -1 7700 1;
#X msg -27 -40 0;
#X msg 14 -40 1;
#X obj 44 23 readsf~;
#X msg 45 -40 open guitar1.wav;
#X obj -19 -3 t b b;
#X obj 43 261 dac~;
#N canvas 0 22 450 300 (subpatch) 0;
#X array \$0-plot 500 float 0;
#X coords 0 1 499 -1 500 140 1;
#X restore 154 289 graph;
#X floatatom 56 104 5 0 10 0 - - -;
#X obj 42 222 biquadm.mmb~;
#X msg 108 191 interp \$1;
#X text 93 105 pre-attenuation;
#X obj 5 342 dsp;
#X floatatom 5 372 3 0 0 0 - - -;
#X text 32 373 % cpu;
#X msg 56 81 5;
#X obj 137 56 loadbang;
#X obj 42 152 divl~;
#X msg 69 130 1;
#X connect 0 0 12 1;
#X connect 1 0 0 0;
#X connect 2 0 12 1;
#X connect 3 0 2 0;
#X connect 4 0 12 1;
#X connect 5 0 4 0;
#X connect 6 0 7 0;
#X connect 7 0 12 1;
#X connect 13 0 28 1;
#X connect 13 0 12 0;
#X connect 14 0 13 0;
#X connect 15 0 14 0;
#X connect 16 0 17 0;
#X connect 17 0 13 0;
#X connect 17 1 13 1;
#X connect 18 0 13 0;
#X connect 18 1 13 2;
#X connect 19 0 18 0;
#X connect 20 0 22 0;
#X connect 21 0 22 0;
#X connect 22 0 36 0;
#X connect 22 1 24 0;
#X connect 23 0 22 0;
#X connect 24 0 21 0;
#X connect 24 1 23 0;
#X connect 27 0 36 1;
#X connect 28 0 25 0;
#X connect 28 0 25 1;
#X connect 29 0 28 1;
#X connect 31 0 32 0;
#X connect 34 0 27 0;
#X connect 35 0 34 0;
#X connect 35 0 29 0;
#X connect 35 0 37 0;
#X connect 36 0 28 0;
#X connect 37 0 36 2;
