#N canvas 244 162 1016 567 12;
#X msg 131 35 \; pd dsp 0;
#X text 67 71 ON;
#X text 153 70 OFF;
#X msg 36 35 \; pd dsp 1;
#X text 33 -10 Stompbox design workshop \, CCRMA (Stanford University)
2011;
#X obj 350 339 tgl 20 0 empty empty empty 17 7 0 10 -262144 -1 -1 0
1;
#X obj 352 382 == 0;
#X obj 324 457 +~;
#X obj 286 426 mull~;
#X obj 353 426 mull~;
#X obj 324 493 dac~;
#X msg 41 118 0;
#X msg 82 118 1;
#X obj 129 160 readsf~;
#X obj 65 159 t b b;
#X text 36 96 Read a file and play in a loop;
#X obj 228 34 dsp;
#X floatatom 228 58 3 0 0 0 - - -;
#X text 255 59 % cpu;
#X obj 499 77 loadbang;
#X obj 523 147 hsl 128 15 200 1000 0 0 empty empty Delay_Time_(ms)
-2 -8 0 10 -261234 -1 -1 800 1;
#X text 301 340 Bypass;
#X obj 698 75 loadbang;
#X obj 734 153 hsl 128 15 60 100 0 0 empty empty Delay_Gain -2 -8 0
10 -204786 -1 -1 6050 1;
#X text 33 8 by Esteban Maestre;
#X obj 497 334 +~;
#X msg 499 103 200;
#X obj 298 208 delwrite~ my_delay 1000;
#X obj 520 209 delread~ my_delay;
#X obj 558 295 *~;
#X obj 731 208 dbtorms;
#X msg 709 104 80;
#X text 33 -27 SIMPLE DELAY;
#X msg 121 118 open guitar2.wav;
#X connect 5 0 8 1;
#X connect 5 0 6 0;
#X connect 6 0 9 1;
#X connect 7 0 10 0;
#X connect 7 0 10 1;
#X connect 8 0 7 0;
#X connect 9 0 7 1;
#X connect 11 0 13 0;
#X connect 12 0 13 0;
#X connect 13 0 8 0;
#X connect 13 0 27 0;
#X connect 13 0 25 0;
#X connect 13 1 14 0;
#X connect 14 0 12 0;
#X connect 14 1 33 0;
#X connect 16 0 17 0;
#X connect 19 0 26 0;
#X connect 20 0 28 0;
#X connect 22 0 31 0;
#X connect 23 0 30 0;
#X connect 25 0 9 0;
#X connect 26 0 20 0;
#X connect 28 0 29 0;
#X connect 29 0 25 1;
#X connect 30 0 29 1;
#X connect 31 0 23 0;
#X connect 33 0 13 0;
