#N canvas 229 94 1067 702 12;
#X msg 131 35 \; pd dsp 0;
#X text 67 71 ON;
#X text 153 70 OFF;
#X msg 36 35 \; pd dsp 1;
#X text 33 -10 Stompbox design workshop \, CCRMA (Stanford University)
2011;
#X obj 192 491 tgl 20 0 empty empty empty 17 7 0 10 -262144 -1 -1 0
1;
#X obj 194 534 == 0;
#X obj 166 609 +~;
#X obj 128 578 mull~;
#X obj 195 578 mull~;
#X obj 166 645 dac~;
#X msg 41 118 0;
#X msg 82 118 1;
#X obj 128 163 readsf~;
#X obj 65 159 t b b;
#X text 36 96 Read a file and play in a loop;
#X obj 228 34 dsp;
#X floatatom 228 58 3 0 0 0 - - -;
#X text 255 59 % cpu;
#X obj 497 60 loadbang;
#X obj 523 123 hsl 128 15 200 1000 0 0 empty empty Delay_Time_(ms)
-2 -8 0 10 -258113 -1 -1 3175 1;
#X text 143 492 Bypass;
#X obj 668 59 loadbang;
#X obj 689 123 hsl 128 15 60 100 0 0 empty empty Delay_Gain -2 -8 0
10 -261234 -1 -1 4762 1;
#X text 33 8 by Esteban Maestre;
#X obj 401 210 +~;
#X obj 172 308 delwrite~ my_delay 1000;
#X obj 520 149 delread~ my_delay;
#X obj 500 191 *~;
#X obj 686 149 dbtorms;
#X obj 498 229 loadbang;
#X obj 524 292 hsl 128 15 200 1000 0 0 empty empty Delay_Time_(ms)
-2 -8 0 10 -257985 -1 -1 7937 1;
#X obj 669 228 loadbang;
#X obj 690 292 hsl 128 15 60 100 0 0 empty empty Delay_Gain -2 -8 0
10 -262130 -1 -1 3175 1;
#X obj 521 318 delread~ my_delay;
#X obj 501 360 *~;
#X obj 687 318 dbtorms;
#X obj 400 380 +~;
#X obj 498 400 loadbang;
#X obj 524 463 hsl 128 15 200 1000 0 0 empty empty Delay_Time_(ms)
-2 -8 0 10 -4034 -1 -1 11112 1;
#X obj 669 399 loadbang;
#X obj 690 463 hsl 128 15 60 100 0 0 empty empty Delay_Gain -2 -8 0
10 -204786 -1 -1 1587 1;
#X obj 521 489 delread~ my_delay;
#X obj 501 531 *~;
#X obj 687 489 dbtorms;
#X obj 400 551 +~;
#X text 33 -27 SIMPLE 3-TAP DELAY;
#X msg 668 86 75;
#X msg 669 255 70;
#X msg 497 86 400;
#X msg 498 255 700;
#X msg 498 426 900;
#X msg 669 426 65;
#X msg 121 118 open guitar2.wav;
#X connect 5 0 8 1;
#X connect 5 0 6 0;
#X connect 6 0 9 1;
#X connect 7 0 10 0;
#X connect 7 0 10 1;
#X connect 8 0 7 0;
#X connect 9 0 7 1;
#X connect 11 0 13 0;
#X connect 12 0 13 0;
#X connect 13 0 8 0;
#X connect 13 0 26 0;
#X connect 13 0 25 0;
#X connect 13 1 14 0;
#X connect 14 0 12 0;
#X connect 14 1 53 0;
#X connect 16 0 17 0;
#X connect 19 0 49 0;
#X connect 20 0 27 0;
#X connect 22 0 47 0;
#X connect 23 0 29 0;
#X connect 25 0 37 0;
#X connect 27 0 28 0;
#X connect 28 0 25 1;
#X connect 29 0 28 1;
#X connect 30 0 50 0;
#X connect 31 0 34 0;
#X connect 32 0 48 0;
#X connect 33 0 36 0;
#X connect 34 0 35 0;
#X connect 35 0 37 1;
#X connect 36 0 35 1;
#X connect 37 0 45 0;
#X connect 38 0 51 0;
#X connect 39 0 42 0;
#X connect 40 0 52 0;
#X connect 41 0 44 0;
#X connect 42 0 43 0;
#X connect 43 0 45 1;
#X connect 44 0 43 1;
#X connect 45 0 9 0;
#X connect 47 0 23 0;
#X connect 48 0 33 0;
#X connect 49 0 20 0;
#X connect 50 0 31 0;
#X connect 51 0 39 0;
#X connect 52 0 41 0;
#X connect 53 0 13 0;
