#N canvas 77 61 1211 702 12;
#X msg 131 35 \; pd dsp 0;
#X text 67 71 ON;
#X text 153 70 OFF;
#X msg 36 35 \; pd dsp 1;
#X text 33 -10 Stompbox design workshop \, CCRMA (Stanford University)
2011;
#X obj 210 303 tgl 20 0 empty empty empty 17 7 0 10 -262144 -1 -1 0
1;
#X obj 210 344 == 0;
#X obj 165 414 +~;
#X obj 122 384 mull~;
#X obj 194 383 mull~;
#X obj 165 450 dac~;
#X msg 41 118 0;
#X msg 82 118 1;
#X obj 121 160 readsf~;
#X obj 65 159 t b b;
#X text 36 96 Read a file and play in a loop;
#X obj 228 34 dsp;
#X floatatom 228 58 3 0 0 0 - - -;
#X text 255 59 % cpu;
#X obj 661 76 loadbang;
#X obj 678 147 hsl 128 15 0.03 20 1 0 empty empty Frequency -2 -8 0
10 -4034 -1 -1 2000 1;
#X text 160 303 Bypass;
#X obj 476 80 loadbang;
#X obj 497 144 hsl 128 15 80 100 0 0 empty empty Gain -2 -8 0 10 -261234
-1 -1 6350 1;
#X text 33 8 by Esteban Maestre;
#X obj 329 342 +~;
#X obj 476 327 *~;
#X obj 494 170 dbtorms;
#X msg 476 107 90;
#X obj 676 184 osc~;
#X obj 534 413 vd~ my_delay;
#X obj 839 76 loadbang;
#X obj 856 145 hsl 128 15 0 100 0 0 empty empty Depth -2 -8 0 10 -258113
-1 -1 2900 1;
#X msg 661 106 3;
#X obj 296 80 loadbang;
#X obj 317 143 hsl 128 15 60 120 0 0 empty empty Pre_Gain -2 -8 0 10
-262130 -1 -1 9497 1;
#X obj 314 169 dbtorms;
#X obj 165 234 *~;
#X obj 193 194 *~;
#X msg 296 106 95;
#X text 33 -27 SIMPLE FLANGER;
#X obj 226 230 delwrite~ my_delay 1000;
#X obj 676 217 +~ 1;
#X obj 677 259 *~;
#X msg 839 106 20;
#X obj 693 343 +~ 1.46;
#X msg 121 117 open solo_man.wav;
#X connect 5 0 8 1;
#X connect 5 0 6 0;
#X connect 6 0 9 1;
#X connect 7 0 10 0;
#X connect 7 0 10 1;
#X connect 8 0 7 0;
#X connect 9 0 7 1;
#X connect 11 0 13 0;
#X connect 12 0 13 0;
#X connect 13 0 8 0;
#X connect 13 0 37 0;
#X connect 13 0 38 0;
#X connect 13 1 14 0;
#X connect 14 0 12 0;
#X connect 14 1 46 0;
#X connect 16 0 17 0;
#X connect 19 0 33 0;
#X connect 20 0 29 0;
#X connect 22 0 28 0;
#X connect 23 0 27 0;
#X connect 25 0 9 0;
#X connect 26 0 25 1;
#X connect 27 0 26 1;
#X connect 28 0 23 0;
#X connect 29 0 42 0;
#X connect 30 0 26 0;
#X connect 31 0 44 0;
#X connect 32 0 43 1;
#X connect 33 0 20 0;
#X connect 34 0 39 0;
#X connect 35 0 36 0;
#X connect 36 0 38 1;
#X connect 36 0 37 1;
#X connect 37 0 25 0;
#X connect 38 0 41 0;
#X connect 39 0 35 0;
#X connect 42 0 43 0;
#X connect 43 0 45 0;
#X connect 44 0 32 0;
#X connect 45 0 30 0;
#X connect 46 0 13 0;
