#N canvas 122 0 944 687 16;
#X obj 418 206 filtercoeff.mmb peaking;
#X obj 418 124 mtof;
#X obj 421 103 hsl 128 15 0 127 0 1 empty empty frequency 2 8 0 10
-262144 -1 -1 4936 1;
#X obj 481 127 hsl 128 15 0 20 0 1 empty empty Q 2 8 0 10 -262144 -1
-1 5971 1;
#X obj 478 154 t b f;
#X obj 545 173 t b f;
#X obj 548 150 hsl 128 15 0 24 0 1 empty empty gain 2 8 0 10 -262144
-1 -1 12700 1;
#X obj 210 475 dac~;
#X obj 286 255 biquadm.mmb~;
#X text 273 118 pre-attenuation;
#X obj -21 13 adc~ 1 2;
#X obj 208 178 mull~ 0.2 100;
#X floatatom 271 143 5 0 0 0 - - -;
#N canvas 311 64 830 588 user-interface 0;
#X obj 45 23 cnv 15 60 22 empty empty empty 20 12 0 14 -253938 -66577
0;
#X msg 53 24 open 4;
#N canvas 157 469 525 433 serin 0;
#X obj 180 61 cnv 15 15 15 empty \$0-number-canvas 4 4 8 0 14 -233017
-1 0;
#X obj 200 225 s \$0-number-canvas;
#X obj 60 61 hradio 15 1 1 8 empty empty empty 0 -6 0 8 -225271 -1
-1 4;
#X obj 60 13 inlet;
#X msg 200 202 label \$1;
#X obj 200 180 makefilename %d;
#X obj 59 108 int;
#X msg 59 206 open \$1;
#X obj 59 377 outlet;
#X msg 201 306 set \$1 \$2;
#X obj 59 266 trigger bang anything;
#X obj 201 286 list;
#X obj 383 383 outlet;
#X obj 384 22 netreceive 34567;
#X obj 477 43 tgl 15 0 empty empty empty 0 -6 0 10 -262144 -1 -1 0
1;
#X obj 384 41 bng 15 250 50 0 empty empty empty 0 -6 0 10 -262144 -1
-1;
#X obj 187 24 delay 15000;
#X text 345 379 close;
#X text 209 4 for open/close automation in Makefile;
#N canvas 698 22 318 215 reset 0;
#X obj 65 24 inlet;
#X obj 66 58 bang;
#X obj 66 150 send ARDUINO_TEST_RESET;
#X msg 66 129 0;
#X msg 111 99 1;
#X obj 111 120 send ARDUINO_PINMODE_RESET;
#X connect 0 0 1 0;
#X connect 1 0 3 0;
#X connect 1 0 4 0;
#X connect 3 0 2 0;
#X connect 4 0 5 0;
#X restore 172 111 pd reset guis;
#X connect 2 0 6 0;
#X connect 2 0 19 0;
#X connect 3 0 2 0;
#X connect 4 0 1 0;
#X connect 5 0 4 0;
#X connect 6 0 5 0;
#X connect 6 0 7 0;
#X connect 7 0 10 0;
#X connect 9 0 8 0;
#X connect 10 0 8 0;
#X connect 10 1 11 0;
#X connect 11 0 9 0;
#X connect 13 0 15 0;
#X connect 13 1 14 0;
#X connect 15 0 16 0;
#X connect 15 0 12 0;
#X connect 16 0 2 0;
#X coords 0 -1 1 1 136 17 1 60 60;
#X restore 53 -1 pd serin;
#X text 52 -19 serial port #;
#X msg 115 26 close;
#X floatatom 53 302 5 0 0 3 a0 - -;
#X floatatom 111 300 5 0 0 3 a1 - -;
#X floatatom 169 300 5 0 0 3 a2 - -;
#X floatatom 227 300 5 0 0 3 a3 - -;
#X floatatom 285 301 5 0 0 3 a4 - -;
#X floatatom 343 300 5 0 0 3 a5 - -;
#X text 216 101 <- argument sets port #;
#X floatatom 401 300 5 0 0 3 a6 - -;
#X floatatom 460 301 5 0 0 3 a7 - -;
#X obj 53 240 route 0 1 2 3 4 5 6 7;
#N canvas 623 40 499 396 display 0;
#X obj 6 7 inlet;
#X obj 6 50 outlet;
#X obj 54 50 inlet;
#X obj 54 93 outlet;
#X obj 103 93 inlet;
#X obj 103 136 outlet;
#X obj 151 136 inlet;
#X obj 151 179 outlet;
#X obj 200 179 inlet;
#X obj 200 222 outlet;
#X obj 247 222 inlet;
#X obj 247 265 outlet;
#X obj 295 265 inlet;
#X obj 295 308 outlet;
#X obj 345 308 inlet;
#X obj 345 351 outlet;
#X obj 60 290 receive ARDUINO_TEST_RESET;
#X obj 345 329 resample 100;
#X obj 295 286 resample 100;
#X obj 247 243 resample 100;
#X obj 200 199 resample 100;
#X obj 151 157 resample 100;
#X obj 103 114 resample 100;
#X obj 54 71 resample 100;
#X obj 6 28 resample 100;
#X connect 0 0 24 0;
#X connect 2 0 23 0;
#X connect 4 0 22 0;
#X connect 6 0 21 0;
#X connect 8 0 20 0;
#X connect 10 0 19 0;
#X connect 12 0 18 0;
#X connect 14 0 17 0;
#X connect 16 0 17 0;
#X connect 16 0 18 0;
#X connect 16 0 19 0;
#X connect 16 0 20 0;
#X connect 16 0 21 0;
#X connect 16 0 22 0;
#X connect 16 0 23 0;
#X connect 16 0 24 0;
#X connect 17 0 15 0;
#X connect 18 0 13 0;
#X connect 19 0 11 0;
#X connect 20 0 9 0;
#X connect 21 0 7 0;
#X connect 22 0 5 0;
#X connect 23 0 3 0;
#X connect 24 0 1 0;
#X restore 53 272 pd display values without pegging the CPU;
#N canvas 623 75 427 183 device 0;
#X obj 19 20 inlet;
#X obj 19 78 route open port ports;
#X obj 19 129 tgl 15 0 empty empty open -3 20 0 10 -262144 -1 -1 0
1;
#X floatatom 60 130 5 0 0 3 port - -;
#X obj 101 130 print comport_ports;
#X obj 236 130 outlet;
#X obj 219 34 receive ARDUINO_TEST_RESET;
#X obj 219 57 bang;
#X connect 0 0 1 0;
#X connect 1 0 2 0;
#X connect 1 1 3 0;
#X connect 1 2 4 0;
#X connect 1 3 5 0;
#X connect 6 0 7 0;
#X connect 7 0 5 0;
#X restore 210 132 pd device info;
#X text 356 132 <- open to see info;
#N canvas 0 22 892 538 (subpatch) 0;
#X coords 0 1 100 -1 200 70 1;
#X restore 32 -20 graph;
#N canvas 0 22 450 300 (subpatch) 0;
#X coords 0 1 100 -1 610 125 1;
#X restore 17 234 graph;
#X text 59 214 analog input readings;
#X text 480 261 Note this only comes every 100ms because;
#X text 480 278 we tapped off of pd display values w/o...;
#X obj 12 370 outlet;
#X obj 227 408 outlet;
#X text 23 -52 Arduino seems to always show up;
#X obj 265 32 inlet;
#X obj 571 440 outlet;
#X obj 53 102 arduino-custom 1;
#X obj 53 174 route analog digital;
#X text 278 -31 firmware is installed on Arduino.);
#X text 275 -48 (Assumes FirmataAllInputs_ExceptOnePWMOut;
#X text 276 -10 Modified from ArduinoLab by Edgar Berdahl \, 2011;
#X text 23 -40 on serial port 4 on Beagle;
#X obj 265 57 expr 255-$i1;
#X text 365 19 NOTE: DONT USE THE DIGITAL INPUTS;
#X text 415 36 WITH FirmataAllInputs!;
#N canvas 812 216 450 365 handle-flip-switch 0;
#X obj 8 6 inlet;
#X floatatom 8 307 5 0 0 0 - - -;
#X obj 8 81 change;
#X obj 68 175 sel 0;
#X text 50 307 Current mode of pedal;
#X obj 8 286 tgl 15 0 empty empty empty 17 7 0 10 -262144 -1 -1 0 1
;
#X obj 8 333 outlet;
#X text 51 7 Handle the input from the button;
#X obj 8 223 debounce 100;
#X obj 8 51 > 0.5;
#X obj 68 149 spigot;
#X obj 209 125 invert;
#X obj 107 88 tgl 15 0 empty empty empty 17 7 0 10 -262144 -1 -1 0
1;
#X obj 170 151 spigot;
#X obj 170 177 bng 15 250 50 0 empty empty empty 17 7 0 10 -262144
-1 -1;
#X obj 107 36 loadbang;
#X text 126 86 ON for momentary switch \, otherwise OFF;
#X text 101 221 Debounce the switch;
#X msg 107 62 0;
#X text 287 96 for flip switch;
#X connect 0 0 9 0;
#X connect 1 0 6 0;
#X connect 2 0 10 0;
#X connect 2 0 13 0;
#X connect 3 0 8 0;
#X connect 5 0 1 0;
#X connect 8 0 5 0;
#X connect 9 0 2 0;
#X connect 10 0 3 0;
#X connect 11 0 13 1;
#X connect 12 0 10 1;
#X connect 12 0 11 0;
#X connect 13 0 14 0;
#X connect 14 0 8 0;
#X connect 15 0 18 0;
#X connect 18 0 12 0;
#X restore 571 415 pd handle-flip-switch;
#X obj 401 498 outlet;
#N canvas 812 216 450 365 handle-momentary-switch 0;
#X obj 8 6 inlet;
#X floatatom 8 307 5 0 0 0 - - -;
#X obj 8 81 change;
#X obj 68 175 sel 0;
#X text 50 307 Current mode of pedal;
#X obj 8 286 tgl 15 0 empty empty empty 17 7 0 10 -262144 -1 -1 1 1
;
#X obj 8 333 outlet;
#X text 51 7 Handle the input from the button;
#X obj 8 223 debounce 100;
#X obj 8 51 > 0.5;
#X obj 68 149 spigot;
#X obj 209 125 invert;
#X obj 107 88 tgl 15 0 empty empty empty 17 7 0 10 -262144 -1 -1 1
1;
#X obj 170 151 spigot;
#X obj 170 177 bng 15 250 50 0 empty empty empty 17 7 0 10 -262144
-1 -1;
#X obj 107 36 loadbang;
#X text 126 86 ON for momentary switch \, otherwise OFF;
#X text 101 221 Debounce the switch;
#X msg 107 62 1;
#X text 287 97 for flip switch;
#X connect 0 0 9 0;
#X connect 1 0 6 0;
#X connect 2 0 10 0;
#X connect 2 0 13 0;
#X connect 3 0 8 0;
#X connect 5 0 1 0;
#X connect 8 0 5 0;
#X connect 9 0 2 0;
#X connect 10 0 3 0;
#X connect 11 0 13 1;
#X connect 12 0 10 1;
#X connect 12 0 11 0;
#X connect 13 0 14 0;
#X connect 14 0 8 0;
#X connect 15 0 18 0;
#X connect 18 0 12 0;
#X restore 401 473 pd handle-momentary-switch;
#X obj 544 87 loadbang;
#X obj 544 114 delay 6000;
#X msg 544 141 dsp 1;
#X obj 544 169 send pd;
#X connect 1 0 28 0;
#X connect 2 0 1 0;
#X connect 2 1 4 0;
#X connect 4 0 28 0;
#X connect 5 0 23 0;
#X connect 8 0 24 0;
#X connect 12 0 39 0;
#X connect 13 0 37 0;
#X connect 14 0 15 0;
#X connect 14 1 15 1;
#X connect 14 2 15 2;
#X connect 14 3 15 3;
#X connect 14 4 15 4;
#X connect 14 5 15 5;
#X connect 14 6 15 6;
#X connect 14 7 15 7;
#X connect 15 0 5 0;
#X connect 15 1 6 0;
#X connect 15 2 7 0;
#X connect 15 3 8 0;
#X connect 15 4 9 0;
#X connect 15 5 10 0;
#X connect 15 6 12 0;
#X connect 15 7 13 0;
#X connect 26 0 34 0;
#X connect 28 0 29 0;
#X connect 28 1 16 0;
#X connect 29 0 14 0;
#X connect 34 0 28 0;
#X connect 37 0 27 0;
#X connect 39 0 38 0;
#X connect 40 0 41 0;
#X connect 41 0 42 0;
#X connect 42 0 43 0;
#X restore 579 -39 pd user-interface;
#X obj 582 -63 hsl 128 15 1 255 0 0 empty empty empty -2 -8 0 10 -262144
-1 -1 6300 1;
#X obj 747 162 tgl 40 0 empty empty empty 17 7 0 10 -262144 -1 -1 0
1;
#X text 756 -44 with Arduino.;
#N canvas 957 8 475 248 control-led 0;
#X obj 70 133 + 1;
#X obj 70 159 * 127;
#X obj 70 185 outlet;
#X obj 70 80 snapshot~;
#X obj 70 33 tgl 15 0 empty empty empty 17 7 0 10 -262144 -1 -1 1 1
;
#X floatatom 70 106 5 0 0 0 - - -;
#X obj 70 54 metro 40;
#X obj 70 7 loadbang;
#X obj 12 53 inlet~;
#X connect 0 0 1 0;
#X connect 1 0 2 0;
#X connect 3 0 5 0;
#X connect 4 0 6 0;
#X connect 5 0 0 0;
#X connect 6 0 3 0;
#X connect 7 0 4 0;
#X connect 8 0 3 0;
#X restore 579 -92 pd control-led;
#X text 758 -58 Subpatch for comm.;
#X obj 390 -70 tgl 15 0 empty empty empty 17 7 0 10 -262144 -1 -1 0
1;
#X text 328 -74 Looping;
#X obj 53 -85 bng 30 250 50 0 empty empty empty 17 7 0 10 -262144 -1
-1;
#X text 87 -74 Play!;
#X obj 53 -47 play-wav-file jumpingjackflash.wav;
#X floatatom 418 9 5 0 0 0 - - -;
#X floatatom 634 39 5 0 0 0 - - -;
#X obj 634 69 * 20;
#X text 690 40 Pot 2;
#X obj 418 38 * 100;
#X text 475 7 Pot 1;
#X obj 85 307 mull~ 1 100;
#X obj 485 363 tgl 15 0 empty empty empty 17 7 0 10 -262144 -1 -1 1
1;
#X obj 432 385 mull~ 1 100;
#X obj 77 56 +~;
#X obj 747 210 s bypass;
#X obj 485 307 r bypass;
#X obj 138 279 r bypass;
#X text 790 171 Bypass;
#X text 157 -164 A wah-wah pedal interfaced with input sensors and
with a bypass control via a foot-switch;
#X obj 485 336 == 0;
#X connect 0 0 8 1;
#X connect 1 0 0 0;
#X connect 2 0 1 0;
#X connect 3 0 4 0;
#X connect 4 0 0 0;
#X connect 4 1 0 1;
#X connect 5 0 0 0;
#X connect 5 1 0 2;
#X connect 6 0 5 0;
#X connect 8 0 32 0;
#X connect 10 0 33 0;
#X connect 11 0 8 0;
#X connect 12 0 11 1;
#X connect 13 0 24 0;
#X connect 13 1 25 0;
#X connect 13 3 15 0;
#X connect 14 0 13 0;
#X connect 15 0 34 0;
#X connect 17 0 14 0;
#X connect 19 0 23 1;
#X connect 21 0 23 0;
#X connect 23 0 33 1;
#X connect 24 0 28 0;
#X connect 25 0 26 0;
#X connect 26 0 3 0;
#X connect 28 0 2 0;
#X connect 30 0 7 1;
#X connect 30 0 7 0;
#X connect 31 0 32 1;
#X connect 32 0 7 1;
#X connect 32 0 7 0;
#X connect 33 0 11 0;
#X connect 33 0 30 0;
#X connect 35 0 39 0;
#X connect 36 0 30 1;
#X connect 39 0 31 0;
