#N canvas 102 87 849 673 10;
#X msg -296 132 open 2;
#N canvas 123 312 525 433 serin 0;
#X obj 180 61 cnv 15 15 15 empty \$0-number-canvas 2 4 8 0 14 -233017
-1 0;
#X obj 200 225 s \$0-number-canvas;
#X obj 60 61 hradio 15 1 1 8 empty empty empty 0 -6 0 8 -225271 -1
-1 2;
#X obj 60 13 inlet;
#X msg 200 202 label \$1;
#X obj 200 180 makefilename %d;
#X obj 59 108 int;
#X msg 59 206 open \$1;
#X obj 59 377 outlet;
#X msg 201 306 set \$1 \$2;
#X obj 59 266 trigger bang anything;
#X obj 201 286 list;
#X obj 383 383 outlet;
#X obj 384 22 netreceive 34567;
#X obj 477 43 tgl 15 0 empty empty empty 0 -6 0 10 -262144 -1 -1 0
1;
#X obj 384 41 bng 15 250 50 0 empty empty empty 0 -6 0 10 -262144 -1
-1;
#X obj 187 24 delay 15000;
#X text 345 379 close;
#X text 209 4 for open/close automation in Makefile;
#N canvas 698 22 318 215 reset 0;
#X obj 65 24 inlet;
#X obj 66 58 bang;
#X obj 66 150 send ARDUINO_TEST_RESET;
#X msg 66 129 0;
#X msg 111 99 1;
#X obj 111 120 send ARDUINO_PINMODE_RESET;
#X connect 0 0 1 0;
#X connect 1 0 3 0;
#X connect 1 0 4 0;
#X connect 3 0 2 0;
#X connect 4 0 5 0;
#X restore 172 111 pd reset guis;
#X connect 2 0 6 0;
#X connect 2 0 19 0;
#X connect 3 0 2 0;
#X connect 4 0 1 0;
#X connect 5 0 4 0;
#X connect 6 0 5 0;
#X connect 6 0 7 0;
#X connect 7 0 10 0;
#X connect 9 0 8 0;
#X connect 10 0 8 0;
#X connect 10 1 11 0;
#X connect 11 0 9 0;
#X connect 13 0 15 0;
#X connect 13 1 14 0;
#X connect 15 0 16 0;
#X connect 15 0 12 0;
#X connect 16 0 2 0;
#X coords 0 -1 1 1 136 17 1 60 60;
#X restore -296 108 pd serin;
#X text -298 89 serial port #;
#X msg -217 133 close;
#X text -298 74 select serial port;
#X obj -297 183 comport \$1 9600;
#X text -427 20 created by Wendy Ju 10/7/2009;
#X text -427 -63 GRAPH PD for Music250a 2009;
#X obj -264 213 tgl 15 0 empty empty empty 0 -6 0 8 -262144 -1 -1 0
1;
#X text -247 211 [[on/off button]];
#X obj -297 371 sel 10 13;
#X symbolatom -297 489 10 0 0 0 - - -;
#X obj -297 457 l2s;
#X msg -154 429 symbol;
#X obj -297 516 atoi;
#X obj -294 545 hsl 128 15 0 1024 0 0 empty empty empty -2 -8 0 10
-262144 -1 -1 0 1;
#N canvas 213 131 595 571 dataplotter 0;
#N canvas 205 344 450 300 (subpatch) 0;
#X array a 100 float 0;
#X coords 0 0 99 255 100 25 1;
#X restore 100 101 graph;
#X obj 340 274 bng 15 250 50 0 empty empty empty 17 7 0 10 -262144
-1 -1;
#X obj 340 334 list split 99;
#X floatatom 108 250 5 0 0 0 newest_datapoint - -;
#X msg 165 283 0;
#X obj 364 405 bng 15 250 50 0 empty empty empty 17 7 0 10 -262144
-1 -1;
#X floatatom 397 475 10 0 0 0 - - -;
#X msg 489 404 min 1;
#X msg 455 404 up;
#X obj 456 106 loadbang;
#X obj 107 190 inlet;
#X floatatom 412 159 5 5 300 1 Datapoints/plot - -;
#X obj 108 307 tabwrite a;
#X obj 340 306 tabdump a;
#X obj 340 503 tabwrite a;
#X msg 337 197 \; a resize \$1;
#X obj 412 73 inlet;
#X msg 426 135 100;
#X obj 415 271 - 1;
#X obj 397 448 cyclone/counter;
#X obj 340 371 list-abs/list-drip;
#X connect 1 0 13 0;
#X connect 2 0 20 0;
#X connect 3 0 1 0;
#X connect 3 0 4 0;
#X connect 3 0 12 0;
#X connect 4 0 12 1;
#X connect 5 0 19 0;
#X connect 6 0 14 1;
#X connect 7 0 19 0;
#X connect 8 0 19 0;
#X connect 9 0 8 0;
#X connect 9 0 7 0;
#X connect 9 0 17 0;
#X connect 10 0 3 0;
#X connect 11 0 15 0;
#X connect 11 0 18 0;
#X connect 13 0 2 0;
#X connect 16 0 11 0;
#X connect 17 0 11 0;
#X connect 18 0 2 1;
#X connect 19 0 6 0;
#X connect 20 0 5 0;
#X connect 20 0 14 0;
#X connect 20 1 19 2;
#X coords 0 -1 1 1 100 100 1 100 100;
#X restore -103 401 pd dataplotter;
#X obj -297 257 spigot;
#X text -427 -44 This patch maps serial input \, both ascii and binary.
It could \, for instance \, plot data from the graph.pde Arduino firmware.
;
#X obj -158 333 spigot;
#X obj -125 310 expr 1-$f1;
#X obj -296 311 spigot;
#X obj -232 259 tgl 15 0 empty empty convert_from_ascii? 17 7 0 10
-262144 -1 -1 0 1;
#X obj -247 398 hcs/float2ascii;
#X obj -297 431 cyclone/zl group 4;
#X connect 0 0 5 0;
#X connect 1 0 0 0;
#X connect 1 1 3 0;
#X connect 3 0 5 0;
#X connect 5 0 17 0;
#X connect 8 0 13 0;
#X connect 8 0 17 1;
#X connect 10 0 24 0;
#X connect 10 2 23 0;
#X connect 11 0 14 0;
#X connect 12 0 11 0;
#X connect 13 0 12 1;
#X connect 14 0 15 0;
#X connect 15 0 16 0;
#X connect 17 0 19 0;
#X connect 17 0 21 0;
#X connect 19 0 15 0;
#X connect 20 0 19 1;
#X connect 21 0 10 0;
#X connect 22 0 20 0;
#X connect 22 0 21 1;
#X connect 23 0 24 0;
#X connect 24 0 12 0;
