#N canvas 570 91 589 489 10;
#X obj 238 303 select 0 1;
#X obj 238 248 tgl 15 0 empty empty empty 17 7 0 10 -262144 -1 -1 0
1;
#X msg 238 338 L;
#X msg 273 338 H;
#X obj 31 271 cnv 15 60 22 empty empty empty 20 12 0 14 -253938 -66577
0;
#X msg 39 272 open 2;
#N canvas 123 312 525 433 serin 0;
#X obj 180 61 cnv 15 15 15 empty \$0-number-canvas 2 4 8 0 14 -233017
-1 0;
#X obj 200 225 s \$0-number-canvas;
#X obj 60 61 hradio 15 1 1 8 empty empty empty 0 -6 0 8 -225271 -1
-1 2;
#X obj 60 13 inlet;
#X msg 200 202 label \$1;
#X obj 200 180 makefilename %d;
#X obj 59 108 int;
#X msg 59 206 open \$1;
#X obj 59 377 outlet;
#X msg 201 306 set \$1 \$2;
#X obj 59 266 trigger bang anything;
#X obj 201 286 list;
#X obj 383 383 outlet;
#X obj 384 22 netreceive 34567;
#X obj 477 43 tgl 15 0 empty empty empty 0 -6 0 10 -262144 -1 -1 0
1;
#X obj 384 41 bng 15 250 50 0 empty empty empty 0 -6 0 10 -262144 -1
-1;
#X obj 187 24 delay 15000;
#X text 345 379 close;
#X text 209 4 for open/close automation in Makefile;
#N canvas 698 22 318 215 reset 0;
#X obj 65 24 inlet;
#X obj 66 58 bang;
#X obj 66 150 send ARDUINO_TEST_RESET;
#X msg 66 129 0;
#X msg 111 99 1;
#X obj 111 120 send ARDUINO_PINMODE_RESET;
#X connect 0 0 1 0;
#X connect 1 0 3 0;
#X connect 1 0 4 0;
#X connect 3 0 2 0;
#X connect 4 0 5 0;
#X restore 172 111 pd reset guis;
#X connect 2 0 6 0;
#X connect 2 0 19 0;
#X connect 3 0 2 0;
#X connect 4 0 1 0;
#X connect 5 0 4 0;
#X connect 6 0 5 0;
#X connect 6 0 7 0;
#X connect 7 0 10 0;
#X connect 9 0 8 0;
#X connect 10 0 8 0;
#X connect 10 1 11 0;
#X connect 11 0 9 0;
#X connect 13 0 15 0;
#X connect 13 1 14 0;
#X connect 15 0 16 0;
#X connect 15 0 12 0;
#X connect 16 0 2 0;
#X coords 0 -1 1 1 136 17 1 60 60;
#X restore 39 248 pd serin;
#X text 37 229 serial port #;
#X msg 168 271 close;
#X text 37 214 select serial port;
#X text 260 247 toggle to light LED;
#X obj 401 247 tgl 15 0 empty empty empty 17 7 0 10 -262144 -1 -1 0
1;
#N canvas 0 22 450 300 blink 0;
#X obj 98 241 outlet;
#X obj 98 96 inlet;
#X obj 98 156 metro 1000;
#X obj 155 132 * 1000;
#X obj 155 96 inlet;
#X obj 98 191 tgl 15 0 empty empty empty 17 7 0 10 -262144 -1 -1 0
1;
#X connect 1 0 2 0;
#X connect 2 0 5 0;
#X connect 3 0 2 1;
#X connect 4 0 3 0;
#X connect 5 0 0 0;
#X restore 401 273 pd blink;
#X text 423 246 toggle to set LED to blink;
#X text 35 -3 PHYSICAL PIXEL PD for Music250a 2009;
#X text 35 16 This patch sends an ASCII H or L out to the serial port
to turn on an LED attached to an Arduino Board. It can also send alternating
H and L characters once every second to make the LED blink.;
#X text 35 80 created by Wendy Ju 10/7/2009;
#X text 35 100 based off of David A. Mellis' Physical Pixel maxpatch
;
#X obj 238 390 cxc/ascseq;
#X obj 238 421 comport \$1 9600;
#X connect 0 0 2 0;
#X connect 0 1 3 0;
#X connect 1 0 0 0;
#X connect 2 0 18 0;
#X connect 3 0 18 0;
#X connect 5 0 19 0;
#X connect 6 0 5 0;
#X connect 6 1 8 0;
#X connect 8 0 19 0;
#X connect 11 0 12 0;
#X connect 12 0 0 0;
#X connect 18 0 19 0;
