#N canvas 110 41 1162 770 24;
#X obj 15 16 cnv 15 500 400 empty empty empty 20 12 0 14 -114208 -66577
0;
#X text 33 29 Pd is based on events. It has a;
#X text 33 58 precise scheduler that controls;
#X text 33 87 the timing between events.;
#X text 33 116 First \, lets worry about events;
#X text 33 145 that happen "NOW".;
#X obj 42 279 print;
#X msg 42 242 hello;
#X text 144 249 'bang' means 'do it' \, or;
#X text 152 276 'execute now'.;
#X msg 86 197 bang;
#X text 23 339 the print object prints incoming;
#X text 27 367 messages to the terminal;
#X obj 534 40 cnv 15 620 250 empty empty empty 20 12 0 14 -232223 -66577
0;
#X text 537 47 The leftmost inlet of an object is 'hot' \,;
#X text 535 74 meaning it causes the object to execute.;
#X text 741 187 Other inlets set arguments.;
#X msg 573 143 4;
#X obj 573 200 +;
#X msg 732 119 1;
#X floatatom 788 122 5 0 0 0 - - -;
#X floatatom 573 254 5 0 0 0 - - -;
#X msg 548 109 2.1;
#X obj 13 454 cnv 15 620 250 empty empty empty 20 12 0 14 -236026 -66577
0;
#X msg 84 524 4;
#X floatatom 31 641 5 0 0 0 - - -;
#X text 38 463 Many objects take arguments \, usually a;
#X text 37 487 default value for one of the inputs.;
#X text 130 596 arguments can often be overridden;
#X text 134 621 by values from the inlet;
#X obj 31 587 * 1.5;
#X msg 241 527 6.6;
#X msg 31 523 2;
#X floatatom 161 521 5 0 0 0 - - -;
#X obj 648 357 cnv 15 500 250 empty empty empty 20 12 0 14 -61242 -66577
0;
#X obj 666 490 * 10;
#X floatatom 666 577 5 0 0 0 - - -;
#X msg 666 447 3;
#X msg 762 445 5;
#X text 752 389 What will the result be?;
#X obj 666 392 bng 40 250 50 0 empty empty empty 0 -6 0 8 -262144 -1
-1;
#N canvas 363 247 660 480 better 0;
#X obj 26 263 sel 23 24;
#X msg 26 157 10;
#X msg 140 158 12;
#X obj 26 216 +;
#X obj 26 393 print first;
#X obj 218 395 print second;
#X msg 26 315 lanny;
#X msg 218 313 macdonald;
#X obj 26 55 bng 40 250 50 0 empty empty empty 0 -6 0 8 -262144 -1
-1;
#X obj 26 107 t b b b b;
#X msg 197 158 11;
#X msg 86 157 14;
#X text 215 18 Calculations are executed;
#X text 215 47 in right-to-left order;
#X text 215 76 according to how the objects;
#X text 215 105 are laid out on the screen.;
#X text 272 176 To avoid confusion \, use;
#X text 271 206 the trigger object for;
#X text 271 230 explicit ordering.;
#X connect 0 0 6 0;
#X connect 0 1 7 0;
#X connect 1 0 3 0;
#X connect 2 0 3 0;
#X connect 3 0 0 0;
#X connect 6 0 4 0;
#X connect 7 0 5 0;
#X connect 8 0 9 0;
#X connect 9 0 1 0;
#X connect 9 1 11 0;
#X connect 9 2 2 0;
#X connect 9 3 10 0;
#X connect 10 0 3 1;
#X connect 11 0 3 1;
#X restore 1003 560 pd better;
#X obj 42 187 bng 40 250 50 0 empty empty empty 0 -6 0 8 -262144 -1
-1;
#X text 772 559 double click ->;
#X obj 666 539 + 2;
#X connect 7 0 6 0;
#X connect 10 0 7 0;
#X connect 17 0 18 0;
#X connect 18 0 21 0;
#X connect 19 0 18 1;
#X connect 20 0 18 1;
#X connect 22 0 18 0;
#X connect 24 0 30 0;
#X connect 30 0 25 0;
#X connect 31 0 30 1;
#X connect 32 0 30 0;
#X connect 33 0 30 1;
#X connect 35 0 44 0;
#X connect 37 0 35 0;
#X connect 38 0 44 1;
#X connect 40 0 37 0;
#X connect 40 0 38 0;
#X connect 42 0 7 0;
#X connect 44 0 36 0;
