#N canvas 161 165 810 674 24;
#X obj 693 94 vsl 30 128 0 127 0 0 empty empty empty 0 -8 0 8 -262144
-1 -1 0 1;
#X obj 256 152 metro 1000;
#X obj 256 190 t b b b;
#X obj 256 81 tgl 30 0 empty empty empty 0 -6 0 8 -262144 -1 -1 0 1
;
#X obj 469 85 hsl 128 30 0 1000 0 0 empty empty empty -2 -6 0 8 -62784
-1 -1 4200 1;
#X obj 306 310 t b b;
#X obj 472 351 random 100;
#X obj 472 397 / 400;
#X obj 472 437 + 0.75;
#X obj 356 229 random 1000;
#X obj 466 142 / 2;
#X obj 306 266 delay 1000;
#N canvas 0 0 833 720 audio_out 0;
#X obj 146 348 dac~;
#X obj 187 254 line~;
#X msg 187 213 \$1 50;
#X obj 146 294 *~;
#X obj 187 176 / 127;
#X obj 145 85 inlet~;
#X obj 258 82 inlet;
#X connect 1 0 3 1;
#X connect 2 0 1 0;
#X connect 3 0 0 0;
#X connect 3 0 0 1;
#X connect 4 0 2 0;
#X connect 5 0 3 0;
#X connect 6 0 4 0;
#X restore 256 601 pd audio_out;
#X obj 256 493 kastro~;
#X msg 25 137 \; pd dsp \$1;
#X text 297 81 start/stop;
#X text 480 52 speed;
#X text 675 64 level;
#X text 26 495 karplus strong;
#X text 89 518 synth;
#X text 576 436 <-damping (0-1);
#X obj 306 352 random 100;
#X obj 306 457 + 10;
#X obj 306 424 / 5;
#X obj 548 150 hsl 128 30 0 100 0 0 empty empty empty -2 -6 0 8 -250685
-1 -1 4800 1;
#X text 562 124 width;
#X obj 306 389 - 200;
#X obj 405 309 / 2;
#X connect 0 0 12 1;
#X connect 1 0 2 0;
#X connect 2 0 13 0;
#X connect 2 1 11 0;
#X connect 2 2 9 0;
#X connect 3 0 1 0;
#X connect 3 0 14 0;
#X connect 4 0 1 1;
#X connect 4 0 10 0;
#X connect 5 0 21 0;
#X connect 5 1 6 0;
#X connect 6 0 7 0;
#X connect 7 0 8 0;
#X connect 8 0 13 2;
#X connect 9 0 11 1;
#X connect 10 0 9 1;
#X connect 11 0 5 0;
#X connect 13 0 12 0;
#X connect 21 0 26 0;
#X connect 22 0 13 1;
#X connect 23 0 22 0;
#X connect 24 0 21 1;
#X connect 24 0 27 0;
#X connect 26 0 23 0;
#X connect 27 0 26 1;
