#N canvas 0 0 1251 896 24;
#X obj 39 682 dac~;
#X msg 29 825 \; pd dsp 0;
#X msg 30 769 \; pd dsp 1;
#X obj 40 631 *~;
#X obj 79 593 line~;
#X msg 79 557 \$1 50;
#X obj 133 263 cnv 15 550 75 empty empty empty 20 12 0 14 -101905 -66577
0;
#X obj 471 794 s modfreq;
#X msg 345 704 1;
#X msg 404 703 2;
#X msg 464 704 4;
#X msg 524 704 8;
#X msg 657 705 16;
#X msg 783 707 32;
#X msg 843 707 64;
#X msg 902 707 100;
#X msg 963 708 200;
#X floatatom 39 148 5 0 0 0 - - -;
#X obj 39 186 osc~;
#X floatatom 171 115 5 0 0 0 - - -;
#X obj 171 153 osc~;
#X obj 171 28 r modfreq;
#X obj 40 271 *~;
#X obj 171 209 *~;
#X text 143 264 Modulate the amplitude of one;
#X text 142 286 oscillator by multiplying it with;
#X text 143 310 the output of another oscillator.;
#X floatatom 430 133 5 0 0 0 - - -;
#X text 182 59 Modulation;
#X text 183 85 Frequency;
#X text 425 76 Modulation;
#X text 424 100 Amplitude;
#X text 20 107 Frequency;
#X obj 79 374 vsl 25 128 0 127 0 0 empty empty empty 0 -8 0 8 -262144
-1 -1 0 1;
#X obj 79 522 / 127;
#X text 111 451 Level;
#X connect 3 0 0 0;
#X connect 3 0 0 1;
#X connect 4 0 3 1;
#X connect 5 0 4 0;
#X connect 8 0 7 0;
#X connect 9 0 7 0;
#X connect 10 0 7 0;
#X connect 11 0 7 0;
#X connect 12 0 7 0;
#X connect 13 0 7 0;
#X connect 14 0 7 0;
#X connect 15 0 7 0;
#X connect 16 0 7 0;
#X connect 17 0 18 0;
#X connect 18 0 22 0;
#X connect 19 0 20 0;
#X connect 20 0 23 0;
#X connect 21 0 19 0;
#X connect 22 0 3 0;
#X connect 23 0 22 1;
#X connect 27 0 23 1;
#X connect 33 0 34 0;
#X connect 34 0 5 0;
