#N canvas 0 0 844 767 24;
#X obj 39 682 dac~;
#X msg 243 612 \; pd dsp 0;
#X msg 244 556 \; pd dsp 1;
#X obj 40 631 *~;
#X obj 79 593 line~;
#X msg 79 557 \$1 50;
#X obj 133 263 cnv 15 550 75 empty empty empty 20 12 0 14 -101905 -66577
0;
#X floatatom 39 148 5 0 0 0 - - -;
#X floatatom 171 115 5 0 0 0 - - -;
#X obj 171 153 osc~;
#X obj 171 209 *~;
#X floatatom 430 133 5 0 0 0 - - -;
#X text 183 85 Frequency;
#X text 421 58 Modulation;
#X text 420 82 Amplitude;
#X text 20 107 Frequency;
#X obj 79 374 vsl 25 128 0 127 0 0 empty empty empty 0 -8 0 8 -262144
-1 -1 0 1;
#X obj 79 522 / 127;
#X text 111 451 Level;
#X text 23 84 Carrier;
#X obj 39 306 osc~;
#X obj 39 260 +~;
#X text 182 59 Modulation;
#X text 143 264 oscillate at a frequency of;
#X text 147 294 f_c + modulator signal;
#X text 419 105 (Index);
#X obj 39 195 sig~;
#X connect 3 0 0 0;
#X connect 3 0 0 1;
#X connect 4 0 3 1;
#X connect 5 0 4 0;
#X connect 7 0 26 0;
#X connect 8 0 9 0;
#X connect 9 0 10 0;
#X connect 10 0 21 1;
#X connect 11 0 10 1;
#X connect 16 0 17 0;
#X connect 17 0 5 0;
#X connect 20 0 3 0;
#X connect 21 0 20 0;
#X connect 26 0 21 0;
