#N canvas 314 50 844 767 24;
#X obj 39 682 dac~;
#X msg 243 612 \; pd dsp 0;
#X msg 244 556 \; pd dsp 1;
#X obj 42 631 *~;
#X obj 81 593 line~;
#X msg 81 557 \$1 50;
#X obj 81 372 vsl 25 128 0 127 0 0 empty empty empty 0 -8 0 8 -262144
-1 -1 8100 1;
#X obj 81 520 / 127;
#X text 113 449 Level;
#X obj 42 336 *~;
#X obj 215 339 line~;
#X obj 42 233 phasor~;
#X obj 42 61 t b b b b;
#X obj 42 118 random 60;
#X obj 42 157 + 30;
#X obj 42 196 mtof;
#X obj 215 151 random 10;
#X obj 215 187 * 10;
#X obj 436 127 random 500;
#X obj 643 128 random 10;
#X obj 643 164 * 10;
#X obj 42 13 bng 30 250 50 0 empty empty empty 0 -6 0 8 -262144 -1
-1;
#X obj 436 184 pipe;
#X msg 643 214 0.5 \$1;
#X msg 436 225 0.5 \$1;
#X obj 215 232 pipe;
#X obj 291 225 +;
#X msg 215 272 0 \$1;
#X text 639 93 attack time;
#X text 430 87 sustain time;
#X text 198 125 release time;
#X connect 3 0 0 0;
#X connect 3 0 0 1;
#X connect 4 0 3 1;
#X connect 5 0 4 0;
#X connect 6 0 7 0;
#X connect 7 0 5 0;
#X connect 9 0 3 0;
#X connect 10 0 9 1;
#X connect 11 0 9 0;
#X connect 12 0 13 0;
#X connect 12 1 16 0;
#X connect 12 2 18 0;
#X connect 12 3 19 0;
#X connect 13 0 14 0;
#X connect 14 0 15 0;
#X connect 15 0 11 0;
#X connect 16 0 17 0;
#X connect 17 0 25 0;
#X connect 18 0 22 0;
#X connect 18 0 26 0;
#X connect 19 0 20 0;
#X connect 20 0 22 1;
#X connect 20 0 23 0;
#X connect 20 0 26 1;
#X connect 21 0 12 0;
#X connect 22 0 24 0;
#X connect 23 0 10 0;
#X connect 24 0 10 0;
#X connect 25 0 27 0;
#X connect 26 0 25 1;
#X connect 27 0 10 0;
