#N canvas 235 145 877 685 12;
#X floatatom 86 36 0 0 0 0 - - -;
#X text 133 35 <-- frequency (Hz.);
#X floatatom 116 91 0 0 0 0 - - -;
#X obj 116 120 * 441;
#X obj 87 143 *~ 0;
#X obj 87 166 +~ 1;
#X text 151 91 <-- chunk size (100ths of a second);
#X obj 27 341 *~;
#X obj 110 261 line~;
#X obj 110 213 * 441;
#X floatatom 110 190 0 0 0 0 - - -;
#X obj 110 237 pack 0 100;
#X obj 88 295 +~;
#X obj 26 88 -~ 0.5;
#X obj 86 61 phasor~;
#X obj 26 112 *~ 0.5;
#X obj 26 135 cos~;
#X text 181 191 <-- read point (100ths of a second);
#X text 81 13 ENVELOPING THE LOOPING SAMPLER;
#X obj 88 322 tabread4~ vox;
#X obj 189 165 hsl 128 15 0 360 0 0 empty empty empty -2 -6 0 8 -262144
-1 -1 0 1;
#N canvas 0 0 925 816 samples 0;
#N canvas 0 0 450 300 graph6 0;
#X array vox 166916 float 2;
#X coords 0 1 166915 -1 200 140 1;
#X restore 63 214 graph;
#N canvas 0 0 450 300 graph7 0;
#X array drum 132766 float 2;
#X coords 0 1 132765 -1 200 140 1;
#X restore 70 54 graph;
#X restore 370 628 pd samples;
#X obj 268 626 soundfiler;
#X msg 316 568 read -resize acr1.aiff vox;
#N canvas 0 0 571 515 mixer 0;
#X obj 35 34 inlet~;
#X obj 160 32 inlet~;
#X obj 294 33 inlet;
#X obj 294 156 expr $f1 - 0.25;
#X obj 218 225 osc~ 0;
#X obj 75 222 osc~ 0;
#X obj 35 268 *~;
#X obj 160 269 *~;
#X obj 35 358 outlet~;
#X obj 294 101 / 512;
#X connect 0 0 6 0;
#X connect 1 0 7 0;
#X connect 2 0 9 0;
#X connect 3 0 4 1;
#X connect 4 0 7 1;
#X connect 5 0 6 1;
#X connect 6 0 8 0;
#X connect 7 0 8 0;
#X connect 9 0 3 0;
#X connect 9 0 5 1;
#X restore 27 375 pd mixer;
#X obj 25 640 dac~;
#X obj 28 589 *~;
#X obj 58 562 line~;
#X msg 58 534 \$1 50;
#X obj 110 379 vsl 25 128 0 127 0 0 empty empty empty 0 -8 0 8 -262144
-1 -1 0 1;
#X obj 58 508 / 127;
#X text 146 487 Level;
#X obj 332 346 hsl 128 15 1 127 0 0 empty empty empty -2 -6 0 8 -262144
-1 -1 0 1;
#X floatatom 624 49 0 0 0 0 - - -;
#X text 671 48 <-- frequency (Hz.);
#X obj 624 74 phasor~;
#X obj 624 157 tabread4~ drum;
#X obj 623 123 *~ 132765;
#X text 361 366 MIXER;
#X text 630 185 DRUMS;
#X obj 269 536 loadbang;
#X msg 269 594 read -resize drum1.aiff drum;
#X connect 0 0 14 0;
#X connect 2 0 3 0;
#X connect 3 0 4 1;
#X connect 4 0 5 0;
#X connect 5 0 12 0;
#X connect 7 0 24 0;
#X connect 8 0 12 1;
#X connect 9 0 11 0;
#X connect 10 0 9 0;
#X connect 11 0 8 0;
#X connect 12 0 19 0;
#X connect 13 0 15 0;
#X connect 14 0 4 0;
#X connect 14 0 13 0;
#X connect 15 0 16 0;
#X connect 16 0 7 0;
#X connect 19 0 7 1;
#X connect 20 0 10 0;
#X connect 23 0 22 0;
#X connect 24 0 26 0;
#X connect 26 0 25 0;
#X connect 26 0 25 1;
#X connect 27 0 26 1;
#X connect 28 0 27 0;
#X connect 29 0 30 0;
#X connect 30 0 28 0;
#X connect 32 0 24 2;
#X connect 33 0 35 0;
#X connect 35 0 37 0;
#X connect 36 0 24 1;
#X connect 37 0 36 0;
#X connect 40 0 23 0;
#X connect 40 0 41 0;
#X connect 41 0 22 0;
