#N canvas 452 71 569 635 12;
#X obj 110 529 delwrite~ buffer 1000;
#X obj 68 162 noise~;
#X obj 68 214 *~;
#X msg 174 161 0;
#X msg 140 161 1;
#X obj 17 74 bng 15 250 50 0 empty empty empty 0 -6 0 8 -262144 -1
-1;
#X floatatom 173 97 5 0 0 0 - - -;
#X obj 61 489 *~ 0.99;
#X floatatom 119 468 5 0 0 0 - - -;
#X obj 90 330 biquad~ 0 0 0 0 1;
#X obj 91 364 *~ 0.5;
#X obj 30 364 *~ 0.5;
#X obj 50 402 +~;
#X obj 174 134 del 3;
#X obj 91 268 vd~ buffer 100;
#X text 260 330 delay one sample;
#X text 103 405 0.5 * f[n] + 0.5 * f[n-1];
#X text 106 429 (average betwen current and last sample);
#X text 312 532 write back into buffer;
#X text 231 255 read out buffer;
#X text 212 164 fill buffer with random values;
#X text 184 471 damping (set between 0 and 1);
#X text 228 269 delay time translates into pitch;
#X text 36 69 play sound;
#X text 233 97 delay time translates into pitch;
#X obj 345 37 loadbang;
#X msg 345 60 14;
#X text 39 17 PD implementation of the karplus strong algorithm;
#X obj 17 42 inlet;
#X obj 173 45 inlet;
#X obj 173 70 clip 1.5 20;
#X obj 431 37 inlet;
#X obj 431 62 clip 0 1;
#X obj 63 591 outlet~;
#X connect 1 0 2 0;
#X connect 2 0 0 0;
#X connect 3 0 2 1;
#X connect 4 0 2 1;
#X connect 5 0 4 0;
#X connect 5 0 13 0;
#X connect 6 0 13 1;
#X connect 6 0 14 0;
#X connect 7 0 0 0;
#X connect 7 0 33 0;
#X connect 8 0 7 1;
#X connect 9 0 10 0;
#X connect 10 0 12 1;
#X connect 11 0 12 0;
#X connect 12 0 7 0;
#X connect 13 0 3 0;
#X connect 14 0 11 0;
#X connect 14 0 9 0;
#X connect 25 0 26 0;
#X connect 26 0 6 0;
#X connect 28 0 5 0;
#X connect 29 0 30 0;
#X connect 30 0 6 0;
#X connect 31 0 32 0;
#X connect 32 0 8 0;
