#N canvas 439 89 369 299 10;
#X obj 16 17 loadbang;
#X msg 16 69 \; pd dsp 1;
#X text 79 15 After loading patch;
#X text 83 78 Then turn on DSP;
#X obj 266 263 dac~;
#X obj 279 160 osc~ 300;
#X obj 16 43 delay 2000;
#X text 93 42 Wait two seconds;
#X floatatom 326 94 3 0 0 0 - - -;
#X obj 281 42 notein;
#X obj 281 68 stripnote;
#X floatatom 281 93 3 0 0 0 - - -;
#X obj 276 131 mtof;
#X obj 294 209 *~ 0.9;
#X connect 0 0 6 0;
#X connect 5 0 13 0;
#X connect 6 0 1 0;
#X connect 9 0 10 0;
#X connect 9 1 10 1;
#X connect 10 0 11 0;
#X connect 10 1 8 0;
#X connect 11 0 12 0;
#X connect 12 0 5 0;
#X connect 13 0 4 0;
#X connect 13 0 4 1;
