#N canvas 191 35 1079 648 24;
#X floatatom 197 143 3 15 133 0 - - -;
#X obj 197 183 mtof;
#X floatatom 197 226 9 0 22000 0 - - -;
#X text 328 226 Hz;
#X obj 270 379 bpq2~ 440 10 20;
#X text 432 350 interpolation time [ms];
#X floatatom 465 256 9 0 22000 0 - - -;
#X obj 436 17 loadbang;
#X text 246 144 MIDI note number;
#X obj 197 100 float \$1;
#X obj 36 548 outlet~;
#X obj 438 549 outlet~;
#X obj 36 507 *~ \$2;
#X text 117 508 Left channel gain;
#X text 519 508 Right channel gain;
#X obj 438 508 *~ \$3;
#X text 320 99 arg 1;
#X text 180 534 (arg 2);
#X text 582 532 (arg 3);
#X text 36 613 Edgar Berdahl \, 9/2010;
#X obj 5 289 inlet~;
#X text 630 101 arg1: MIDI note number;
#X text 590 74 Implements a resonator;
#X text 630 129 arg2: Left channel gain;
#X text 630 158 arg3: Right channel gain;
#X text 598 259 filter quality factor Q;
#X obj 953 304 inlet;
#X obj 953 387 line~;
#X msg 953 346 \$1 100;
#X obj 475 458 *~;
#X text 797 434 Additional gain inlet;
#X text 798 459 for real-time control;
#X msg 465 214 90;
#X connect 0 0 1 0;
#X connect 1 0 2 0;
#X connect 2 0 4 1;
#X connect 4 0 29 0;
#X connect 6 0 4 2;
#X connect 7 0 32 0;
#X connect 7 0 9 0;
#X connect 9 0 0 0;
#X connect 12 0 10 0;
#X connect 15 0 11 0;
#X connect 20 0 4 0;
#X connect 26 0 28 0;
#X connect 27 0 29 1;
#X connect 28 0 27 0;
#X connect 29 0 15 0;
#X connect 29 0 12 0;
#X connect 32 0 6 0;
