#N canvas 273 45 1255 738 10;
#X obj 827 522 cnv 15 85 22 empty empty empty 20 12 0 14 -253938 -66577
0;
#X obj 110 137 cnv 15 60 22 empty empty empty 20 12 0 14 -253938 -66577
0;
#X msg 118 138 open 2;
#N canvas 157 469 525 433 serin 0;
#X obj 180 61 cnv 15 15 15 empty \$0-number-canvas 2 4 8 0 14 -233017
-1 0;
#X obj 200 225 s \$0-number-canvas;
#X obj 60 61 hradio 15 1 1 8 empty empty empty 0 -6 0 8 -225271 -1
-1 2;
#X obj 60 13 inlet;
#X msg 200 202 label \$1;
#X obj 200 180 makefilename %d;
#X obj 59 108 int;
#X msg 59 206 open \$1;
#X obj 59 377 outlet;
#X msg 201 306 set \$1 \$2;
#X obj 59 266 trigger bang anything;
#X obj 201 286 list;
#X obj 383 383 outlet;
#X obj 384 22 netreceive 34567;
#X obj 477 43 tgl 15 0 empty empty empty 0 -6 0 10 -262144 -1 -1 0
1;
#X obj 384 41 bng 15 250 50 0 empty empty empty 0 -6 0 10 -262144 -1
-1;
#X obj 187 24 delay 15000;
#X text 345 379 close;
#X text 209 4 for open/close automation in Makefile;
#N canvas 698 22 318 215 reset 0;
#X obj 65 24 inlet;
#X obj 66 58 bang;
#X obj 66 150 send ARDUINO_TEST_RESET;
#X msg 66 129 0;
#X msg 111 99 1;
#X obj 111 120 send ARDUINO_PINMODE_RESET;
#X connect 0 0 1 0;
#X connect 1 0 3 0;
#X connect 1 0 4 0;
#X connect 3 0 2 0;
#X connect 4 0 5 0;
#X restore 172 111 pd reset guis;
#X connect 2 0 6 0;
#X connect 2 0 19 0;
#X connect 3 0 2 0;
#X connect 4 0 1 0;
#X connect 5 0 4 0;
#X connect 6 0 5 0;
#X connect 6 0 7 0;
#X connect 7 0 10 0;
#X connect 9 0 8 0;
#X connect 10 0 8 0;
#X connect 10 1 11 0;
#X connect 11 0 9 0;
#X connect 13 0 15 0;
#X connect 13 1 14 0;
#X connect 15 0 16 0;
#X connect 15 0 12 0;
#X connect 16 0 2 0;
#X coords 0 -1 1 1 136 17 1 60 60;
#X restore 111 114 pd serin;
#X text 109 95 serial port #;
#X msg 180 140 close;
#X obj 887 481 hsl 150 17 0 1 0 0 empty ARDUINO_TEST_RESET analog_output_(0-1)
20 9 1 10 -225271 -1 -1 0 0;
#X obj 487 122 tgl 15 1 empty empty empty 0 -6 0 8 -225271 -1 -1 1
1;
#X msg 102 231 digitalIns 0 0;
#X msg 100 480 analogIns 0 0;
#N canvas 162 133 610 460 serin 0;
#X obj 59 337 outlet;
#X obj 59 266 trigger bang anything;
#X obj 201 286 list;
#X obj 60 61 tgl 15 0 junk_to_hide_inlet ARDUINO_TEST_RESET 0 5 9 1
12 -262130 -1 -1 0 1;
#X obj 75 61 tgl 15 0 junk_to_hide_inlet ARDUINO_TEST_RESET 1 5 9 1
12 -262130 -1 -1 0 1;
#X obj 90 61 tgl 15 0 junk_to_hide_inlet ARDUINO_TEST_RESET 2 5 9 1
12 -262130 -1 -1 0 1;
#X obj 105 61 tgl 15 0 junk_to_hide_inlet ARDUINO_TEST_RESET 3 5 9
1 12 -262130 -1 -1 0 1;
#X obj 120 61 tgl 15 0 junk_to_hide_inlet ARDUINO_TEST_RESET 4 5 9
1 12 -262130 -1 -1 0 1;
#X obj 135 61 tgl 15 0 junk_to_hide_inlet ARDUINO_TEST_RESET 5 5 9
1 12 -262130 -1 -1 0 1;
#X obj 150 61 tgl 15 0 junk_to_hide_inlet ARDUINO_TEST_RESET 6 5 9
1 12 -262130 -1 -1 0 1;
#X obj 165 61 tgl 15 0 junk_to_hide_inlet ARDUINO_TEST_RESET 7 5 9
1 12 -262130 -1 -1 0 1;
#X msg 59 210 analogIns \$1 \$2;
#X msg 35 106 0 \$1;
#X msg 70 106 1 \$1;
#X msg 105 106 2 \$1;
#X msg 140 106 3 \$1;
#X msg 175 106 4 \$1;
#X msg 210 106 5 \$1;
#X msg 245 106 6 \$1;
#X msg 280 106 7 \$1;
#X msg 202 307 set \$1 \$2 \$3;
#X connect 1 0 0 0;
#X connect 1 1 2 0;
#X connect 2 0 20 0;
#X connect 3 0 12 0;
#X connect 4 0 13 0;
#X connect 5 0 14 0;
#X connect 6 0 15 0;
#X connect 7 0 16 0;
#X connect 8 0 17 0;
#X connect 9 0 18 0;
#X connect 10 0 19 0;
#X connect 11 0 1 0;
#X connect 12 0 11 0;
#X connect 13 0 11 0;
#X connect 14 0 11 0;
#X connect 15 0 11 0;
#X connect 16 0 11 0;
#X connect 17 0 11 0;
#X connect 18 0 11 0;
#X connect 19 0 11 0;
#X connect 20 0 0 0;
#X coords 0 -1 1 1 120 16 1 60 60;
#X restore 100 460 pd serin;
#X floatatom 446 413 5 0 0 3 a0 - -;
#X floatatom 484 413 5 0 0 3 a1 - -;
#X floatatom 522 413 5 0 0 3 a2 - -;
#X floatatom 561 413 5 0 0 3 a3 - -;
#X floatatom 599 413 5 0 0 3 a4 - -;
#X floatatom 637 414 5 0 0 3 a5 - -;
#X text 159 620 <- argument sets port #;
#X obj 832 443 hradio 15 1 0 14 empty empty empty 0 -6 0 8 -176124
-1 -1 0;
#X text 941 429 7;
#X text 835 429 0;
#X text 982 429 10;
#X text 1028 429 13;
#X text 893 429 4;
#X text 863 429 2;
#X text 909 429 5;
#X text 924 429 6;
#X text 879 429 3;
#X text 955 429 8;
#X text 972 429 9;
#X text 998 429 11;
#X text 1013 429 12;
#X text 849 429 1;
#X msg 833 524 analog 0 0;
#X msg -13 547 info;
#X msg -7 628 version;
#X obj 440 122 spigot;
#X msg 140 384 pinMode 4 0;
#N canvas 67 22 475 478 sending 0;
#X obj 69 228 cnv 15 100 22 empty empty empty 20 12 0 14 -253938 -66577
0;
#X obj 78 434 outlet;
#X msg 78 231 digital 2 1;
#X obj 127 148 tgl 15 0 empty empty 7 4 -6 1 12 -233017 -1 -1 0 1;
#X obj 144 148 tgl 15 0 empty empty 8 4 -6 1 12 -233017 -1 -1 0 1;
#X obj 161 148 tgl 15 0 empty empty 9 4 -6 1 12 -233017 -1 -1 0 1;
#X obj 178 148 tgl 15 0 empty empty 10 0 -6 1 12 -233017 -1 -1 0 1
;
#X obj 195 148 tgl 15 0 empty empty 11 0 -6 1 12 -233017 -1 -1 0 1
;
#X obj 212 148 tgl 15 0 empty empty 12 0 -6 1 12 -233017 -1 -1 0 1
;
#X obj 229 148 tgl 15 0 empty empty 13 0 -6 1 12 -233017 -1 -1 0 1
;
#X obj 42 148 tgl 15 0 empty empty 2 4 -6 1 12 -233017 -1 -1 1 1;
#X obj 59 148 tgl 15 0 empty empty 3 4 -6 1 12 -233017 -1 -1 0 1;
#X obj 76 148 tgl 15 0 empty empty 4 4 -6 1 12 -233017 -1 -1 0 1;
#X obj 93 148 tgl 15 0 empty empty 5 4 -6 1 12 -233017 -1 -1 0 1;
#X obj 110 148 tgl 15 0 empty empty 6 4 -6 1 12 -233017 -1 -1 0 1;
#X obj 418 123 tgl 25 0 empty ARDUINO_TEST_RESET ALL 2 12 0 12 -262144
-1 -1 0 1;
#X obj 388 72 tgl 15 0 empty empty empty 0 -6 0 8 -262144 -1 -1 0 16383
;
#X obj 388 92 metro 100;
#X obj 301 9 inlet;
#X obj 8 148 tgl 15 0 empty empty 0 3 -6 1 12 -260818 -1 -1 0 1;
#X obj 25 148 tgl 15 0 empty empty 1 3 -6 1 12 -260818 -1 -1 0 1;
#X obj 8 148 cnv 15 15 15 empty empty Rx 1 10 0 11 -128992 -86277 0
;
#X obj 25 148 cnv 15 15 15 empty empty Tx 1 10 0 11 -128992 -13381
0;
#X obj 301 43 trigger 0 float;
#X obj 301 64 select 0;
#X msg 301 84 0;
#X msg 405 389 port 1 0;
#X msg 263 389 port 0 0;
#X msg 189 389 port 0 255;
#X msg 331 389 port 1 255;
#X text 95 291 or send 8-bit ports in one message:;
#X msg 159 338 port 1 \$1;
#X msg 91 338 port 0 \$1;
#X msg 230 338 port 2 \$1;
#X obj 362 297 tgl 25 0 empty ARDUINO_TEST_RESET ALL 2 12 0 12 -262144
-1 -1 0 255;
#X obj 362 246 tgl 15 0 empty empty empty 0 -6 0 8 -262144 -1 -1 0
16383;
#X obj 362 266 metro 100;
#X floatatom 362 329 5 0 0 0 - - -;
#X obj 246 148 tgl 15 0 empty empty 14 0 -6 1 12 -233017 -1 -1 0 1
;
#X obj 263 148 tgl 15 0 empty empty 15 0 -6 1 12 -233017 -1 -1 0 1
;
#X obj 280 148 tgl 15 0 empty empty 16 0 -6 1 12 -233017 -1 -1 0 1
;
#X obj 297 148 tgl 15 0 empty empty 17 0 -6 1 12 -233017 -1 -1 0 1
;
#X obj 314 148 tgl 15 0 empty empty 18 0 -6 1 12 -233017 -1 -1 0 1
;
#X obj 331 148 tgl 15 0 empty empty 19 0 -6 1 12 -233017 -1 -1 0 1
;
#X obj 348 148 tgl 15 0 empty empty 20 0 -6 1 12 -233017 -1 -1 0 1
;
#X obj 365 148 tgl 15 0 empty empty 21 0 -6 1 12 -233017 -1 -1 0 1
;
#N canvas 314 233 1035 340 generate 0;
#X obj 12 24 inlet;
#X obj 52 24 inlet;
#X obj 91 24 inlet;
#X obj 131 24 inlet;
#X obj 171 24 inlet;
#X obj 211 24 inlet;
#X obj 250 24 inlet;
#X obj 290 24 inlet;
#X obj 331 23 inlet;
#X obj 371 23 inlet;
#X obj 410 23 inlet;
#X obj 450 23 inlet;
#X obj 490 23 inlet;
#X msg 12 66 digital 0 \$1;
#X msg 52 88 digital 1 \$1;
#X msg 91 110 digital 2 \$1;
#X msg 131 130 digital 3 \$1;
#X msg 171 62 digital 4 \$1;
#X msg 211 84 digital 5 \$1;
#X msg 250 106 digital 6 \$1;
#X msg 290 126 digital 7 \$1;
#X msg 331 58 digital 8 \$1;
#X msg 371 80 digital 9 \$1;
#X msg 410 102 digital 10 \$1;
#X msg 450 122 digital 11 \$1;
#X msg 490 50 digital 12 \$1;
#X obj 529 23 inlet;
#X msg 529 70 digital 13 \$1;
#X obj 513 302 outlet;
#X obj 513 263 trigger bang anything;
#X obj 513 214 list prepend set;
#X obj 513 238 list trim;
#X obj 570 23 inlet;
#X obj 610 23 inlet;
#X obj 650 23 inlet;
#X obj 689 23 inlet;
#X msg 570 102 digital 14 \$1;
#X msg 610 122 digital 15 \$1;
#X msg 650 50 digital 16 \$1;
#X msg 689 70 digital 17 \$1;
#X obj 730 23 inlet;
#X obj 770 23 inlet;
#X obj 810 23 inlet;
#X obj 849 23 inlet;
#X msg 730 102 digital 18 \$1;
#X msg 770 122 digital 19 \$1;
#X msg 810 50 digital 20 \$1;
#X msg 849 70 digital 21 \$1;
#X obj 890 23 inlet;
#X obj 930 23 inlet;
#X msg 890 102 digital 22 \$1;
#X msg 930 122 digital 23 \$1;
#X connect 0 0 13 0;
#X connect 1 0 14 0;
#X connect 2 0 15 0;
#X connect 3 0 16 0;
#X connect 4 0 17 0;
#X connect 5 0 18 0;
#X connect 6 0 19 0;
#X connect 7 0 20 0;
#X connect 8 0 21 0;
#X connect 9 0 22 0;
#X connect 10 0 23 0;
#X connect 11 0 24 0;
#X connect 12 0 25 0;
#X connect 13 0 30 0;
#X connect 14 0 30 0;
#X connect 15 0 30 0;
#X connect 16 0 30 0;
#X connect 17 0 30 0;
#X connect 18 0 30 0;
#X connect 19 0 30 0;
#X connect 20 0 30 0;
#X connect 21 0 30 0;
#X connect 22 0 30 0;
#X connect 23 0 30 0;
#X connect 24 0 30 0;
#X connect 25 0 30 0;
#X connect 26 0 27 0;
#X connect 27 0 30 0;
#X connect 29 0 28 0;
#X connect 29 1 28 0;
#X connect 30 0 31 0;
#X connect 31 0 29 0;
#X connect 32 0 36 0;
#X connect 33 0 37 0;
#X connect 34 0 38 0;
#X connect 35 0 39 0;
#X connect 36 0 30 0;
#X connect 37 0 30 0;
#X connect 38 0 30 0;
#X connect 39 0 30 0;
#X connect 40 0 44 0;
#X connect 41 0 45 0;
#X connect 42 0 46 0;
#X connect 43 0 47 0;
#X connect 44 0 30 0;
#X connect 45 0 30 0;
#X connect 46 0 30 0;
#X connect 47 0 30 0;
#X connect 48 0 50 0;
#X connect 49 0 51 0;
#X connect 50 0 30 0;
#X connect 51 0 30 0;
#X restore 78 201 pd generate digital out messages ------------------
;
#X obj 382 148 tgl 15 0 empty empty 22 0 -6 1 12 -233017 -1 -1 0 1
;
#X obj 399 148 tgl 15 0 empty empty 23 0 -6 1 12 -233017 -1 -1 0 1
;
#X connect 2 0 1 0;
#X connect 3 0 46 7;
#X connect 4 0 46 8;
#X connect 5 0 46 9;
#X connect 6 0 46 10;
#X connect 7 0 46 11;
#X connect 8 0 46 12;
#X connect 9 0 46 13;
#X connect 10 0 46 2;
#X connect 11 0 46 3;
#X connect 12 0 46 4;
#X connect 13 0 46 5;
#X connect 14 0 46 6;
#X connect 15 0 9 0;
#X connect 15 0 8 0;
#X connect 15 0 7 0;
#X connect 15 0 6 0;
#X connect 15 0 5 0;
#X connect 15 0 4 0;
#X connect 15 0 3 0;
#X connect 15 0 14 0;
#X connect 15 0 13 0;
#X connect 15 0 12 0;
#X connect 15 0 11 0;
#X connect 15 0 10 0;
#X connect 15 0 43 0;
#X connect 15 0 44 0;
#X connect 15 0 45 0;
#X connect 15 0 42 0;
#X connect 15 0 41 0;
#X connect 15 0 40 0;
#X connect 15 0 39 0;
#X connect 15 0 38 0;
#X connect 15 0 48 0;
#X connect 15 0 47 0;
#X connect 16 0 17 0;
#X connect 17 0 15 0;
#X connect 18 0 23 0;
#X connect 23 0 24 0;
#X connect 23 1 16 0;
#X connect 24 0 25 0;
#X connect 25 0 15 0;
#X connect 26 0 1 0;
#X connect 27 0 1 0;
#X connect 28 0 1 0;
#X connect 29 0 1 0;
#X connect 31 0 1 0;
#X connect 32 0 1 0;
#X connect 33 0 1 0;
#X connect 34 0 37 0;
#X connect 34 0 33 0;
#X connect 34 0 31 0;
#X connect 34 0 32 0;
#X connect 35 0 36 0;
#X connect 36 0 34 0;
#X connect 38 0 46 14;
#X connect 39 0 46 15;
#X connect 40 0 46 16;
#X connect 41 0 46 17;
#X connect 42 0 46 18;
#X connect 43 0 46 19;
#X connect 44 0 46 20;
#X connect 45 0 46 21;
#X connect 46 0 2 0;
#X connect 47 0 46 22;
#X connect 48 0 46 23;
#X restore 1041 317 pd sending digital outs;
#X obj 1041 294 tgl 15 0 empty empty empty 0 -6 0 8 -225271 -1 -1 0
16383;
#X text 1058 293 pulse all outputs;
#X floatatom 675 415 5 0 0 3 a6 - -;
#X floatatom 714 416 5 0 0 3 a7 - -;
#X obj 440 144 route analog;
#X obj 446 353 route 0 1 2 3 4 5 6 7;
#N canvas 978 22 499 396 display 0;
#X obj 6 7 inlet;
#X obj 6 28 mapping/resample 100;
#X obj 6 50 outlet;
#X obj 54 50 inlet;
#X obj 54 71 mapping/resample 100;
#X obj 54 93 outlet;
#X obj 103 93 inlet;
#X obj 103 114 mapping/resample 100;
#X obj 103 136 outlet;
#X obj 151 136 inlet;
#X obj 151 157 mapping/resample 100;
#X obj 151 179 outlet;
#X obj 200 179 inlet;
#X obj 200 200 mapping/resample 100;
#X obj 200 222 outlet;
#X obj 247 222 inlet;
#X obj 247 243 mapping/resample 100;
#X obj 247 265 outlet;
#X obj 295 265 inlet;
#X obj 295 286 mapping/resample 100;
#X obj 295 308 outlet;
#X obj 345 308 inlet;
#X obj 345 329 mapping/resample 100;
#X obj 345 351 outlet;
#X obj 60 290 receive ARDUINO_TEST_RESET;
#X connect 0 0 1 0;
#X connect 1 0 2 0;
#X connect 3 0 4 0;
#X connect 4 0 5 0;
#X connect 6 0 7 0;
#X connect 7 0 8 0;
#X connect 9 0 10 0;
#X connect 10 0 11 0;
#X connect 12 0 13 0;
#X connect 13 0 14 0;
#X connect 15 0 16 0;
#X connect 16 0 17 0;
#X connect 18 0 19 0;
#X connect 19 0 20 0;
#X connect 21 0 22 0;
#X connect 22 0 23 0;
#X connect 24 0 22 0;
#X connect 24 0 19 0;
#X connect 24 0 16 0;
#X connect 24 0 13 0;
#X connect 24 0 10 0;
#X connect 24 0 7 0;
#X connect 24 0 4 0;
#X connect 24 0 1 0;
#X restore 445 381 pd display values without pegging the CPU;
#X obj 444 257 route 0 1 2 3 4 5 6 7 8 9 10 11 12 13;
#X obj 475 279 tgl 15 0 empty ARDUINO_TEST_RESET 2 4 23 1 12 -232448
-1 -1 0 1;
#X obj 492 279 tgl 15 0 empty ARDUINO_TEST_RESET 3 4 23 1 12 -232448
-1 -1 0 1;
#X obj 509 279 tgl 15 0 empty ARDUINO_TEST_RESET 4 4 23 1 12 -232448
-1 -1 0 1;
#X obj 526 279 tgl 15 0 empty ARDUINO_TEST_RESET 5 4 23 1 12 -232448
-1 -1 0 1;
#X obj 543 279 tgl 15 0 empty ARDUINO_TEST_RESET 6 4 23 1 12 -232448
-1 -1 0 1;
#X obj 560 279 tgl 15 0 empty ARDUINO_TEST_RESET 7 4 23 1 12 -232448
-1 -1 0 1;
#X obj 577 279 tgl 15 0 empty ARDUINO_TEST_RESET 8 4 23 1 12 -232448
-1 -1 0 1;
#X obj 594 279 tgl 15 0 empty ARDUINO_TEST_RESET 9 4 23 1 12 -232448
-1 -1 0 1;
#X obj 611 279 tgl 15 0 empty ARDUINO_TEST_RESET 10 0 23 1 12 -232448
-1 -1 0 1;
#X obj 628 279 tgl 15 0 empty ARDUINO_TEST_RESET 11 0 23 1 12 -232448
-1 -1 0 1;
#X obj 645 279 tgl 15 0 empty ARDUINO_TEST_RESET 12 0 23 1 12 -232448
-1 -1 0 1;
#X obj 662 279 tgl 15 0 empty ARDUINO_TEST_RESET 13 0 23 1 12 -232448
-1 -1 0 1;
#X text 732 657 (C) Copyright 2006 Free Software Foundation;
#N canvas 0 22 451 224 ver 0;
#X obj 23 7 inlet;
#X obj 250 100 cnv 15 145 17 empty \$0-version_cnv Firmata-2.1 4 10
0 12 -203904 -1 0;
#X obj 23 157 send \$0-version_cnv;
#X msg 23 132 label \$1;
#X obj 48 103 symbol;
#X obj 38 77 loadbang;
#X msg 96 78 bang;
#X obj 309 163 outlet;
#X obj 23 52 zexy/makesymbol Firmata-%s.%s;
#X obj 23 29 route version bang;
#X connect 0 0 9 0;
#X connect 3 0 2 0;
#X connect 4 0 3 0;
#X connect 5 0 4 0;
#X connect 6 0 4 0;
#X connect 8 0 3 0;
#X connect 9 0 8 0;
#X connect 9 1 7 0;
#X connect 9 1 6 0;
#X connect 9 2 7 0;
#X coords 0 -1 1 1 145 17 1 250 100;
#X restore 143 667 pd ver;
#X obj 461 217 unpack 0 0;
#X floatatom 461 237 5 0 0 0 - - -;
#X floatatom 518 237 5 0 0 0 - - -;
#X obj 441 279 tgl 15 0 empty empty 0 4 23 1 12 -232448 -1 -1 0 1;
#X obj 458 279 tgl 15 0 empty empty 1 4 23 1 12 -232448 -1 -1 0 1;
#X obj 441 279 cnv 15 15 15 empty empty Rx 1 10 0 11 -128992 -86277
0;
#X obj 458 279 cnv 15 15 15 empty empty Tx 1 10 0 11 -128992 -13381
0;
#X obj 93 621 arduino 1;
#N canvas 649 518 411 212 firmware 0;
#X obj 123 2 inlet;
#X obj 250 100 cnv 15 145 17 empty \$0-firmware_cnv empty 4 10 0 12
-232576 -66577 0;
#X msg 123 156 label \$1;
#X obj 148 127 symbol;
#X obj 138 101 loadbang;
#X msg 196 102 bang;
#X obj 123 181 send \$0-firmware_cnv;
#X obj 123 24 route firmware;
#X obj 18 181 print Firmware;
#X obj 123 49 list;
#X obj 123 80 zexy/makesymbol %s-%s.%s;
#X obj 18 151 list trim;
#X obj 204 45 route bang;
#X connect 0 0 7 0;
#X connect 2 0 6 0;
#X connect 3 0 2 0;
#X connect 4 0 3 0;
#X connect 5 0 3 0;
#X connect 7 0 9 0;
#X connect 7 1 12 0;
#X connect 9 0 10 0;
#X connect 10 0 2 0;
#X connect 10 0 11 0;
#X connect 11 0 8 0;
#X connect 12 0 5 0;
#X coords 0 -1 1 1 145 17 1 250 100;
#X restore 143 687 pd firmware;
#X msg -7 668 devices;
#X msg -7 648 firmware;
#N canvas 0 22 450 300 STRING 0;
#X obj 48 13 inlet;
#X obj 51 93 moocow/string2any 32 -1;
#X obj 51 154 print STRING;
#X connect 0 0 1 0;
#X connect 1 0 2 0;
#X restore 529 217 pd STRING;
#N canvas 205 22 593 390 strings 0;
#X obj -178 287 outlet;
#X obj -142 101 moocow/any2string;
#X symbolatom -92 48 10 0 0 0 - - -;
#X obj -119 179 pddp/print;
#X obj -92 68 list trim;
#X msg -175 39 test;
#X msg -139 40 TEST;
#X obj -142 130 cyclone/prepend string;
#X obj -313 102 moocow/any2string;
#X symbolatom -263 49 10 0 0 0 - - -;
#X obj -314 202 pddp/print;
#X obj -263 69 list trim;
#X msg -346 40 test;
#X msg -310 41 TEST;
#X obj -313 153 cyclone/prepend sysex;
#X obj -313 131 cyclone/prepend 40;
#X msg 66 117 samplingInterval \$1;
#X obj 69 93 hsl 128 15 0 127 0 0 empty empty empty -2 -8 0 10 -262144
-1 -1 0 1;
#X floatatom 27 117 5 0 0 0 - - -;
#X connect 1 0 7 0;
#X connect 2 0 4 0;
#X connect 4 0 1 0;
#X connect 5 0 1 0;
#X connect 6 0 1 0;
#X connect 7 0 3 0;
#X connect 7 0 0 0;
#X connect 8 0 15 0;
#X connect 9 0 11 0;
#X connect 11 0 8 0;
#X connect 12 0 8 0;
#X connect 13 0 8 0;
#X connect 14 0 0 0;
#X connect 14 0 10 0;
#X connect 15 0 14 0;
#X connect 16 0 0 0;
#X connect 17 0 16 0;
#X connect 17 0 18 0;
#X restore -9 580 pd strings and special messages;
#X obj 444 193 route digital version string sysex;
#X text 738 671 released under the GNU GPL v2 or later;
#X text 101 194 which digital ports to enable:;
#N canvas 162 133 610 460 seri 0;
#X obj 59 337 outlet;
#X obj 59 266 trigger bang anything;
#X obj 201 286 list;
#X obj 60 61 tgl 15 0 junk_to_hide_inlet ARDUINO_TEST_RESET 0 5 9 1
12 -260736 -1 -1 0 1;
#X obj 75 61 tgl 15 0 junk_to_hide_inlet ARDUINO_TEST_RESET 1 5 9 1
12 -260736 -1 -1 0 1;
#X obj 90 61 tgl 15 0 junk_to_hide_inlet ARDUINO_TEST_RESET 2 5 9 1
12 -260736 -1 -1 0 1;
#X msg 35 106 0 \$1;
#X msg 70 106 1 \$1;
#X msg 105 106 2 \$1;
#X msg 202 307 set \$1 \$2 \$3;
#X msg 59 210 digitalIns \$1 \$2;
#X connect 1 0 0 0;
#X connect 1 1 2 0;
#X connect 2 0 9 0;
#X connect 3 0 6 0;
#X connect 4 0 7 0;
#X connect 5 0 8 0;
#X connect 6 0 10 0;
#X connect 7 0 10 0;
#X connect 8 0 10 0;
#X connect 9 0 0 0;
#X connect 10 0 1 0;
#X coords 0 -1 1 1 45 16 1 60 60;
#X restore 102 211 pd seri;
#X text 239 -3 The [arduino] object works with the Firmata firmware
for Arduino (also known as Pduino firmware).;
#N canvas 623 75 404 287 device 0;
#X obj 35 60 inlet;
#X obj 35 118 route open port ports;
#X obj 35 169 tgl 15 0 empty empty open -3 20 0 10 -262144 -1 -1 1
1;
#X floatatom 76 170 5 0 0 3 port - -;
#X obj 117 170 print comport_ports;
#X obj 252 170 outlet;
#X obj 235 74 receive ARDUINO_TEST_RESET;
#X obj 235 97 bang;
#X connect 0 0 1 0;
#X connect 1 0 2 0;
#X connect 1 1 3 0;
#X connect 1 2 4 0;
#X connect 1 3 5 0;
#X connect 6 0 7 0;
#X connect 7 0 5 0;
#X restore 143 645 pd device info;
#N canvas 0 22 450 300 sysex 0;
#X obj 139 19 inlet;
#X obj 127 109 moocow/string2any 32 -1;
#X obj 127 170 print STRING;
#X obj 97 55 list split 1;
#X obj 40 109 print COMMAND;
#X obj 210 54 print sysex;
#X connect 0 0 3 0;
#X connect 0 0 5 0;
#X connect 1 0 2 0;
#X connect 3 0 4 0;
#X connect 3 1 1 0;
#X restore 594 217 pd sysex;
#X text 235 645 <- open to see info;
#X text 166 294 turn on output mode for each pin:;
#N canvas 227 262 446 317 pinMode 0;
#X obj 92 267 outlet;
#X obj 101 100 vradio 10 1 0 5 THIS_HIDES_THE_OUTLET THIS_HIDES_THE_INLET
2 2 -8 0 10 -261682 -1 -1 0;
#X obj 111 100 vradio 10 1 0 5 THIS_HIDES_THE_OUTLET THIS_HIDES_THE_INLET
3 2 -8 0 10 -261682 -1 -1 0;
#X obj 121 100 vradio 10 1 0 5 THIS_HIDES_THE_OUTLET THIS_HIDES_THE_INLET
4 2 -8 0 10 -261682 -1 -1 0;
#X obj 131 100 vradio 10 1 0 5 THIS_HIDES_THE_OUTLET THIS_HIDES_THE_INLET
5 2 -8 0 10 -261682 -1 -1 0;
#X obj 141 100 vradio 10 1 0 5 THIS_HIDES_THE_OUTLET THIS_HIDES_THE_INLET
6 2 -8 0 10 -261682 -1 -1 0;
#X obj 151 100 vradio 10 1 0 5 THIS_HIDES_THE_OUTLET THIS_HIDES_THE_INLET
7 2 -8 0 10 -261682 -1 -1 0;
#X obj 161 100 vradio 10 1 0 5 THIS_HIDES_THE_OUTLET THIS_HIDES_THE_INLET
8 2 -8 0 10 -261682 -1 -1 0;
#X obj 171 100 vradio 10 1 0 5 THIS_HIDES_THE_OUTLET THIS_HIDES_THE_INLET
9 2 -8 0 10 -261682 -1 -1 0;
#X obj 181 100 vradio 10 1 0 5 THIS_HIDES_THE_OUTLET THIS_HIDES_THE_INLET
10 0 -8 0 8 -261682 -1 -1 0;
#X obj 191 100 vradio 10 1 0 5 THIS_HIDES_THE_OUTLET THIS_HIDES_THE_INLET
11 0 -8 0 8 -261682 -1 -1 0;
#X obj 201 100 vradio 10 1 0 5 THIS_HIDES_THE_OUTLET THIS_HIDES_THE_INLET
12 0 -8 0 8 -261682 -1 -1 0;
#X obj 211 100 vradio 10 1 0 5 THIS_HIDES_THE_OUTLET THIS_HIDES_THE_INLET
13 0 -8 0 8 -261682 -1 -1 0;
#X obj 221 100 vradio 10 1 0 5 THIS_HIDES_THE_OUTLET THIS_HIDES_THE_INLET
14 0 -8 0 8 -261682 -1 -1 0;
#X obj 231 100 vradio 10 1 0 5 THIS_HIDES_THE_OUTLET THIS_HIDES_THE_INLET
15 0 -8 0 8 -261682 -1 -1 0;
#X obj 241 100 vradio 10 1 0 5 THIS_HIDES_THE_OUTLET THIS_HIDES_THE_INLET
16 0 -8 0 8 -261682 -1 -1 0;
#X obj 251 100 vradio 10 1 0 5 THIS_HIDES_THE_OUTLET THIS_HIDES_THE_INLET
17 0 -8 0 8 -261682 -1 -1 0;
#X obj 261 100 vradio 10 1 0 5 THIS_HIDES_THE_OUTLET THIS_HIDES_THE_INLET
18 0 -8 0 8 -261682 -1 -1 0;
#X obj 271 100 vradio 10 1 0 5 THIS_HIDES_THE_OUTLET THIS_HIDES_THE_INLET
19 0 -8 0 8 -261682 -1 -1 0;
#X obj 281 100 vradio 10 1 0 5 THIS_HIDES_THE_OUTLET THIS_HIDES_THE_INLET
20 0 -8 0 8 -261682 -1 -1 0;
#X obj 291 100 vradio 10 1 0 5 THIS_HIDES_THE_OUTLET THIS_HIDES_THE_INLET
21 0 -8 0 8 -261682 -1 -1 0;
#N canvas 59 587 1064 355 send-to-arduino---------------------- 0;
#X obj 49 24 inlet;
#X obj 89 24 inlet;
#X obj 128 24 inlet;
#X obj 168 24 inlet;
#X obj 208 24 inlet;
#X obj 248 24 inlet;
#X obj 287 24 inlet;
#X obj 327 24 inlet;
#X obj 368 23 inlet;
#X obj 408 23 inlet;
#X obj 447 23 inlet;
#X obj 487 23 inlet;
#X obj 527 23 inlet;
#X msg 49 66 pinMode 0 \$1;
#X msg 89 88 pinMode 1 \$1;
#X msg 128 110 pinMode 2 \$1;
#X msg 168 130 pinMode 3 \$1;
#X msg 208 62 pinMode 4 \$1;
#X msg 248 84 pinMode 5 \$1;
#X msg 287 106 pinMode 6 \$1;
#X msg 327 126 pinMode 7 \$1;
#X msg 368 58 pinMode 8 \$1;
#X msg 408 80 pinMode 9 \$1;
#X msg 447 102 pinMode 10 \$1;
#X msg 487 122 pinMode 11 \$1;
#X msg 527 50 pinMode 12 \$1;
#X obj 566 23 inlet;
#X msg 566 70 pinMode 13 \$1;
#X obj 481 295 outlet;
#X obj 481 256 trigger bang anything;
#X obj 481 209 list prepend set;
#X obj 481 233 list trim;
#X obj 607 23 inlet;
#X obj 647 23 inlet;
#X obj 687 23 inlet;
#X obj 726 23 inlet;
#X obj 767 23 inlet;
#X obj 807 23 inlet;
#X obj 847 23 inlet;
#X obj 886 23 inlet;
#X msg 607 102 pinMode 14 \$1;
#X msg 647 122 pinMode 15 \$1;
#X msg 687 50 pinMode 16 \$1;
#X msg 726 70 pinMode 17 \$1;
#X msg 767 102 pinMode 18 \$1;
#X msg 807 122 pinMode 19 \$1;
#X msg 847 50 pinMode 20 \$1;
#X msg 886 70 pinMode 21 \$1;
#X obj 927 23 inlet;
#X obj 967 23 inlet;
#X msg 927 102 pinMode 22 \$1;
#X msg 967 122 pinMode 23 \$1;
#X connect 0 0 13 0;
#X connect 1 0 14 0;
#X connect 2 0 15 0;
#X connect 3 0 16 0;
#X connect 4 0 17 0;
#X connect 5 0 18 0;
#X connect 6 0 19 0;
#X connect 7 0 20 0;
#X connect 8 0 21 0;
#X connect 9 0 22 0;
#X connect 10 0 23 0;
#X connect 11 0 24 0;
#X connect 12 0 25 0;
#X connect 13 0 30 0;
#X connect 14 0 30 0;
#X connect 15 0 30 0;
#X connect 16 0 30 0;
#X connect 17 0 30 0;
#X connect 18 0 30 0;
#X connect 19 0 30 0;
#X connect 20 0 30 0;
#X connect 21 0 30 0;
#X connect 22 0 30 0;
#X connect 23 0 30 0;
#X connect 24 0 30 0;
#X connect 25 0 30 0;
#X connect 26 0 27 0;
#X connect 27 0 30 0;
#X connect 29 0 28 0;
#X connect 29 1 28 0;
#X connect 30 0 31 0;
#X connect 31 0 29 0;
#X connect 32 0 40 0;
#X connect 33 0 41 0;
#X connect 34 0 42 0;
#X connect 35 0 43 0;
#X connect 36 0 44 0;
#X connect 37 0 45 0;
#X connect 38 0 46 0;
#X connect 39 0 47 0;
#X connect 40 0 30 0;
#X connect 41 0 30 0;
#X connect 42 0 30 0;
#X connect 43 0 30 0;
#X connect 44 0 30 0;
#X connect 45 0 30 0;
#X connect 46 0 30 0;
#X connect 47 0 30 0;
#X connect 48 0 50 0;
#X connect 49 0 51 0;
#X connect 50 0 30 0;
#X connect 51 0 30 0;
#X restore 94 179 pd send-to-arduino----------------------;
#X obj 301 100 vradio 10 1 0 5 THIS_HIDES_THE_OUTLET THIS_HIDES_THE_INLET
22 0 -8 0 8 -261682 -1 -1 0;
#X obj 311 100 vradio 10 1 0 5 THIS_HIDES_THE_OUTLET THIS_HIDES_THE_INLET
23 0 -8 0 8 -261682 -1 -1 0;
#X connect 1 0 21 2;
#X connect 2 0 21 3;
#X connect 3 0 21 4;
#X connect 4 0 21 5;
#X connect 5 0 21 6;
#X connect 6 0 21 7;
#X connect 7 0 21 8;
#X connect 8 0 21 9;
#X connect 9 0 21 10;
#X connect 10 0 21 11;
#X connect 11 0 21 12;
#X connect 12 0 21 13;
#X connect 13 0 21 14;
#X connect 14 0 21 15;
#X connect 15 0 21 16;
#X connect 16 0 21 17;
#X connect 17 0 21 18;
#X connect 18 0 21 19;
#X connect 19 0 21 20;
#X connect 20 0 21 21;
#X connect 21 0 0 0;
#X connect 22 0 21 22;
#X connect 23 0 21 23;
#X coords 0 -1 1 1 222 50 2 100 100;
#X restore 140 323 pd pinMode;
#X text 100 356 servo;
#X text 101 346 pwm;
#X text 100 318 input;
#X text 100 327 output;
#X text 100 337 analog;
#N canvas 617 49 423 503 analog 0;
#X obj 38 10 inlet;
#X obj 131 10 inlet;
#X obj 38 259 pack float float;
#X obj 192 113 route float symbol;
#X obj 188 259 pack float symbol;
#X text 78 11 pin#;
#X text 179 10 PWM value or "off";
#X obj 39 217 cyclone/gate 2;
#X msg 191 153 1;
#X msg 252 153 2;
#X obj 131 34 list;
#X obj 131 113 float;
#X obj 131 67 trigger bang anything;
#X obj 37 427 outlet;
#X obj 37 356 trigger bang anything;
#X obj 179 376 list;
#X msg 179 396 set \$1 \$2 \$3;
#X msg 37 308 analog \$1 \$2;
#X connect 0 0 11 0;
#X connect 1 0 10 0;
#X connect 2 0 17 0;
#X connect 3 0 8 0;
#X connect 3 0 2 1;
#X connect 3 1 9 0;
#X connect 3 1 4 1;
#X connect 4 0 17 0;
#X connect 7 0 2 0;
#X connect 7 1 4 0;
#X connect 8 0 7 0;
#X connect 9 0 7 0;
#X connect 10 0 12 0;
#X connect 11 0 7 1;
#X connect 12 0 11 0;
#X connect 12 1 3 0;
#X connect 14 0 13 0;
#X connect 14 1 15 0;
#X connect 15 0 16 0;
#X connect 16 0 13 0;
#X connect 17 0 14 0;
#X restore 833 502 pd analog;
#X text 836 461 (switch pin to PWM or servo first);
#X obj 820 55 vradio 15 1 0 4 empty empty empty 0 -8 0 10 -262144 -1
-1 3;
#X text 818 37 Exercise presets;
#N canvas 88 34 450 300 toggling_LED_with_software 0;
#X obj 102 47 inlet;
#X obj 101 228 outlet;
#X msg 127 148 pinMode 2 1;
#X connect 0 0 2 0;
#X connect 2 0 1 0;
#X restore 853 54 pd toggling_LED_with_software;
#N canvas 791 466 450 300 sensing_buttons_in_software 0;
#X obj 112 57 inlet;
#X obj 111 238 outlet;
#X msg 125 117 pinMode 4 0;
#X msg 213 117 digitalIns 0 1;
#X connect 0 0 2 0;
#X connect 0 0 3 0;
#X connect 2 0 1 0;
#X connect 3 0 1 0;
#X restore 852 72 pd sensing_buttons_in_software;
#N canvas 681 407 450 300 fading_leds 0;
#X obj 122 67 inlet;
#X obj 121 248 outlet;
#X msg 140 136 pinMode 9 3;
#X msg 228 135 pinMode 10 3;
#X msg 320 133 pinMode 11 3;
#X connect 0 0 2 0;
#X connect 0 0 3 0;
#X connect 0 0 4 0;
#X connect 2 0 1 0;
#X connect 3 0 1 0;
#X connect 4 0 1 0;
#X restore 852 91 pd fading_leds;
#N canvas 661 409 450 300 light_dimmer 0;
#X obj 122 67 inlet;
#X obj 121 248 outlet;
#X msg 99 135 analogIns 0 1;
#X msg 209 133 pinMode 9 3;
#X connect 0 0 2 0;
#X connect 0 0 3 0;
#X connect 2 0 1 0;
#X connect 3 0 1 0;
#X restore 853 109 pd light_dimmer;
#X obj 820 155 sel 0 1 2 3;
#N canvas 0 22 450 300 (subpatch) 0;
#X coords 0 1 100 -1 200 70 1;
#X restore 97 94 graph;
#N canvas 0 22 450 300 (subpatch) 0;
#X coords 0 1 100 -1 200 70 1;
#X restore 95 190 graph;
#N canvas 0 22 450 300 (subpatch) 0;
#X coords 0 1 100 -1 275 125 1;
#X restore 95 284 graph;
#N canvas 0 22 450 300 (subpatch) 0;
#X coords 0 1 100 -1 200 70 1;
#X restore 94 441 graph;
#X text 43 -11 ARDUINO LAB for Music250a 2009;
#X text 94 175 enable digital input ports;
#X text 95 78 select serial port;
#X text 99 443 which analog inputs to enable:;
#X text 95 268 digital pin data direction;
#X text 93 425 analog pin enable;
#X text 97 52 SETUP PARAMETERS;
#X text 424 91 INPUT READINGS;
#N canvas 0 22 450 300 (subpatch) 0;
#X coords 0 1 100 -1 275 125 1;
#X restore 432 190 graph;
#N canvas 0 22 450 300 (subpatch) 0;
#X coords 0 1 100 -1 300 125 1;
#X restore 432 347 graph;
#X text 432 173 digital input readings;
#X text 431 328 analog input readings;
#N canvas 0 22 450 300 (subpatch) 0;
#X coords 0 1 100 -1 275 125 1;
#X restore 817 428 graph;
#X text 815 410 PWM/servo outputs;
#N canvas 0 22 450 300 (subpatch) 0;
#X coords 0 1 100 -1 325 125 1;
#X restore 817 277 graph;
#X obj 837 371 cnv 15 100 22 empty empty empty 20 12 0 14 -253938 -66577
0;
#X msg 846 374 digital 2 0;
#X obj 915 295 tgl 15 0 empty empty 7 4 -6 1 12 -233017 -1 -1 0 1;
#X obj 932 295 tgl 15 0 empty empty 8 4 -6 1 12 -233017 -1 -1 0 1;
#X obj 949 295 tgl 15 0 empty empty 9 4 -6 1 12 -233017 -1 -1 0 1;
#X obj 966 295 tgl 15 0 empty empty 10 0 -6 1 12 -233017 -1 -1 0 1
;
#X obj 983 295 tgl 15 0 empty empty 11 0 -6 1 12 -233017 -1 -1 0 1
;
#X obj 1000 295 tgl 15 0 empty empty 12 0 -6 1 12 -233017 -1 -1 0 1
;
#X obj 1017 295 tgl 15 0 empty empty 13 0 -6 1 12 -233017 -1 -1 0 1
;
#X obj 830 295 tgl 15 0 empty empty 2 4 -6 1 12 -233017 -1 -1 0 1;
#X obj 847 295 tgl 15 0 empty empty 3 4 -6 1 12 -233017 -1 -1 0 1;
#X obj 864 295 tgl 15 0 empty empty 4 4 -6 1 12 -233017 -1 -1 0 1;
#X obj 881 295 tgl 15 0 empty empty 5 4 -6 1 12 -233017 -1 -1 0 1;
#X obj 898 295 tgl 15 0 empty empty 6 4 -6 1 12 -233017 -1 -1 0 1;
#N canvas 314 233 1035 340 generate 0;
#X obj 12 24 inlet;
#X obj 52 24 inlet;
#X obj 91 24 inlet;
#X obj 131 24 inlet;
#X obj 171 24 inlet;
#X obj 211 24 inlet;
#X obj 250 24 inlet;
#X obj 290 24 inlet;
#X obj 331 23 inlet;
#X obj 371 23 inlet;
#X obj 410 23 inlet;
#X obj 450 23 inlet;
#X obj 490 23 inlet;
#X msg 12 66 digital 0 \$1;
#X msg 52 88 digital 1 \$1;
#X msg 91 110 digital 2 \$1;
#X msg 131 130 digital 3 \$1;
#X msg 171 62 digital 4 \$1;
#X msg 211 84 digital 5 \$1;
#X msg 250 106 digital 6 \$1;
#X msg 290 126 digital 7 \$1;
#X msg 331 58 digital 8 \$1;
#X msg 371 80 digital 9 \$1;
#X msg 410 102 digital 10 \$1;
#X msg 450 122 digital 11 \$1;
#X msg 490 50 digital 12 \$1;
#X obj 529 23 inlet;
#X msg 529 70 digital 13 \$1;
#X obj 513 302 outlet;
#X obj 513 263 trigger bang anything;
#X obj 513 214 list prepend set;
#X obj 513 238 list trim;
#X obj 570 23 inlet;
#X obj 610 23 inlet;
#X obj 650 23 inlet;
#X obj 689 23 inlet;
#X msg 570 102 digital 14 \$1;
#X msg 610 122 digital 15 \$1;
#X msg 650 50 digital 16 \$1;
#X msg 689 70 digital 17 \$1;
#X obj 730 23 inlet;
#X obj 770 23 inlet;
#X obj 810 23 inlet;
#X obj 849 23 inlet;
#X msg 730 102 digital 18 \$1;
#X msg 770 122 digital 19 \$1;
#X msg 810 50 digital 20 \$1;
#X msg 849 70 digital 21 \$1;
#X obj 890 23 inlet;
#X obj 930 23 inlet;
#X msg 890 102 digital 22 \$1;
#X msg 930 122 digital 23 \$1;
#X connect 0 0 13 0;
#X connect 1 0 14 0;
#X connect 2 0 15 0;
#X connect 3 0 16 0;
#X connect 4 0 17 0;
#X connect 5 0 18 0;
#X connect 6 0 19 0;
#X connect 7 0 20 0;
#X connect 8 0 21 0;
#X connect 9 0 22 0;
#X connect 10 0 23 0;
#X connect 11 0 24 0;
#X connect 12 0 25 0;
#X connect 13 0 30 0;
#X connect 14 0 30 0;
#X connect 15 0 30 0;
#X connect 16 0 30 0;
#X connect 17 0 30 0;
#X connect 18 0 30 0;
#X connect 19 0 30 0;
#X connect 20 0 30 0;
#X connect 21 0 30 0;
#X connect 22 0 30 0;
#X connect 23 0 30 0;
#X connect 24 0 30 0;
#X connect 25 0 30 0;
#X connect 26 0 27 0;
#X connect 27 0 30 0;
#X connect 29 0 28 0;
#X connect 29 1 28 0;
#X connect 30 0 31 0;
#X connect 31 0 29 0;
#X connect 32 0 36 0;
#X connect 33 0 37 0;
#X connect 34 0 38 0;
#X connect 35 0 39 0;
#X connect 36 0 30 0;
#X connect 37 0 30 0;
#X connect 38 0 30 0;
#X connect 39 0 30 0;
#X connect 40 0 44 0;
#X connect 41 0 45 0;
#X connect 42 0 46 0;
#X connect 43 0 47 0;
#X connect 44 0 30 0;
#X connect 45 0 30 0;
#X connect 46 0 30 0;
#X connect 47 0 30 0;
#X connect 48 0 50 0;
#X connect 49 0 51 0;
#X connect 50 0 30 0;
#X connect 51 0 30 0;
#X restore 836 349 pd generate digital out messages ------------------
;
#X text 816 257 digital outputs;
#X text 813 210 OUTPUT CONTROLS;
#X text 504 122 turn reporting of input readings on/off;
#X connect 2 0 68 0;
#X connect 3 0 2 0;
#X connect 3 1 5 0;
#X connect 5 0 68 0;
#X connect 6 0 89 1;
#X connect 7 0 36 1;
#X connect 8 0 68 0;
#X connect 9 0 68 0;
#X connect 10 0 9 0;
#X connect 18 0 89 0;
#X connect 33 0 68 0;
#X connect 34 0 68 0;
#X connect 35 0 68 0;
#X connect 36 0 43 0;
#X connect 37 0 68 0;
#X connect 38 0 68 0;
#X connect 39 0 38 0;
#X connect 43 0 44 0;
#X connect 43 1 74 0;
#X connect 44 0 45 0;
#X connect 44 1 45 1;
#X connect 44 2 45 2;
#X connect 44 3 45 3;
#X connect 44 4 45 4;
#X connect 44 5 45 5;
#X connect 44 6 45 6;
#X connect 44 7 45 7;
#X connect 45 0 11 0;
#X connect 45 1 12 0;
#X connect 45 2 13 0;
#X connect 45 3 14 0;
#X connect 45 4 15 0;
#X connect 45 5 16 0;
#X connect 45 6 41 0;
#X connect 45 7 42 0;
#X connect 46 2 47 0;
#X connect 46 3 48 0;
#X connect 46 4 49 0;
#X connect 46 5 50 0;
#X connect 46 6 51 0;
#X connect 46 7 52 0;
#X connect 46 8 53 0;
#X connect 46 9 54 0;
#X connect 46 10 55 0;
#X connect 46 11 56 0;
#X connect 46 12 57 0;
#X connect 46 13 58 0;
#X connect 60 0 69 0;
#X connect 61 0 62 0;
#X connect 61 1 63 0;
#X connect 68 0 36 0;
#X connect 68 1 79 0;
#X connect 70 0 68 0;
#X connect 71 0 68 0;
#X connect 73 0 68 0;
#X connect 74 0 46 0;
#X connect 74 1 61 0;
#X connect 74 2 72 0;
#X connect 74 3 80 0;
#X connect 77 0 8 0;
#X connect 79 0 60 0;
#X connect 83 0 37 0;
#X connect 89 0 33 0;
#X connect 91 0 97 0;
#X connect 93 0 68 0;
#X connect 94 0 68 0;
#X connect 95 0 68 0;
#X connect 96 0 68 0;
#X connect 97 0 93 0;
#X connect 97 1 94 0;
#X connect 97 2 95 0;
#X connect 97 3 96 0;
#X connect 118 0 68 0;
#X connect 119 0 131 7;
#X connect 120 0 131 8;
#X connect 121 0 131 9;
#X connect 122 0 131 10;
#X connect 123 0 131 11;
#X connect 124 0 131 12;
#X connect 125 0 131 13;
#X connect 126 0 131 2;
#X connect 127 0 131 3;
#X connect 128 0 131 4;
#X connect 129 0 131 5;
#X connect 130 0 131 6;
#X connect 131 0 118 0;
