#N canvas 489 158 727 472 24;
#X obj -27 263 readsf~ 2;
#X text -122 5 Simplest way to play a WAV file;
#X text -125 24 (Make sure it matches the audio sampling rate \, e.g.
22kHz);
#X msg -53 147 open Satellite.wav;
#X msg -120 185 start;
#X obj -17 431 dac~;
#X text 347 213 dsp ON/OFF;
#X floatatom 328 284 5 0 0 0 - - -;
#X text 406 291 % cpu;
#X obj 328 243 dsp;
#X obj 328 220 tgl 15 0 empty empty empty 8 -8 0 10 -262144 -1 -1 1
1;
#X obj 328 179 loadbang;
#X obj 60 378 *~ 0.5;
#X obj -62 378 *~ 0.5;
#X text 156 379 Change the volume;
#X obj -120 69 bng 30 250 50 0 empty empty empty 17 7 0 10 -262144
-1 -1;
#X text -86 73 Play it!;
#X obj -120 106 t b b;
#X text 328 149 Automatically turn on audio;
#X connect 0 0 13 0;
#X connect 0 1 12 0;
#X connect 3 0 0 0;
#X connect 4 0 0 0;
#X connect 9 0 7 0;
#X connect 10 0 9 0;
#X connect 11 0 10 0;
#X connect 12 0 5 1;
#X connect 13 0 5 0;
#X connect 15 0 17 0;
#X connect 17 0 4 0;
#X connect 17 1 3 0;
