#N canvas 0 0 450 300 10;
#X obj 108 15 keyname;
#X symbolatom 121 121 10 0 0 0 - - -;
#X msg 152 39 set \$1;
#X obj 59 59 change;
#X obj 59 82 sel 1;
#X obj 121 157 outlet;
#X text 115 182 Name of key pressed;
#X text 110 198 but only once per press;
#X connect 0 0 3 0;
#X connect 0 1 2 0;
#X connect 1 0 5 0;
#X connect 2 0 1 0;
#X connect 3 0 4 0;
#X connect 4 0 1 0;
