#N canvas 564 485 375 153 10;
#X obj 26 26 noise~;
#X obj 188 71 hradio 15 1 0 8 empty empty empty 0 -6 0 8 -262144 -1
-1 7;
#X obj 27 70 signal-router~ 0;
#X floatatom 146 71 5 0 0 0 - - -;
#X obj 27 47 *~ 0.01;
#X obj 27 101 dac~ 1 2 3 4 5 6 7 8;
#X msg 99 27 0.05;
#X connect 0 0 4 0;
#X connect 1 0 3 0;
#X connect 2 0 5 0;
#X connect 2 1 5 1;
#X connect 2 2 5 2;
#X connect 2 3 5 3;
#X connect 2 4 5 4;
#X connect 2 5 5 5;
#X connect 2 6 5 6;
#X connect 2 7 5 7;
#X connect 3 0 2 1;
#X connect 4 0 2 0;
#X connect 6 0 4 1;
