#N canvas 0 0 369 234 10;
#X obj 47 39 inlet;
#X obj 91 39 inlet;
#X obj 135 39 inlet;
#X obj 210 40 inlet;
#X obj 47 79 <;
#X obj 91 79 <;
#X obj 135 78 <;
#X obj 72 130 &&;
#X obj 86 159 &&;
#X obj 86 181 outlet;
#X obj 91 100 t b f;
#X obj 135 100 t b f;
#X text 7 10 Are all three inputs below the given threshold?;
#X connect 0 0 4 0;
#X connect 1 0 5 0;
#X connect 2 0 6 0;
#X connect 3 0 4 1;
#X connect 3 0 5 1;
#X connect 3 0 6 1;
#X connect 4 0 7 0;
#X connect 5 0 10 0;
#X connect 6 0 11 0;
#X connect 7 0 8 0;
#X connect 8 0 9 0;
#X connect 10 0 7 0;
#X connect 10 1 7 1;
#X connect 11 0 8 0;
#X connect 11 1 8 1;
