#N canvas 27 137 1251 710 10;
#X floatatom 361 242 5 0 0 0 - - -;
#X floatatom 407 243 5 0 0 0 - - -;
#X floatatom 449 242 5 0 0 0 - - -;
#X obj 359 125 spigot;
#X obj 461 38 tgl 15 0 empty empty empty 17 7 0 10 -262144 -1 -1 0
1;
#X obj 361 288 s xlx;
#X obj -77 24 r xlx;
#X obj 404 288 s xly;
#X obj 449 288 s xlz;
#X obj -79 297 r xlz;
#N canvas 802 154 595 571 x 0;
#N canvas 205 344 450 300 (subpatch) 0;
#X array xaccel 100 float 0;
#X coords 0 255 99 0 100 25 1;
#X restore 100 100 graph;
#X obj 340 274 bng 15 250 50 0 empty empty empty 17 7 0 10 -262144
-1 -1;
#X obj 340 334 list split 99;
#X floatatom 108 250 5 0 0 0 newest_datapoint - -;
#X msg 165 283 0;
#X obj 397 448 counter;
#X obj 364 405 bng 15 250 50 0 empty empty empty 17 7 0 10 -262144
-1 -1;
#X floatatom 397 475 10 0 0 0 - - -;
#X msg 489 404 min 1;
#X msg 455 404 up;
#X obj 456 106 loadbang;
#X obj 111 207 inlet;
#X floatatom 412 159 5 5 300 1 Datapoints/plot - -;
#X obj 412 73 inlet;
#X msg 426 135 100;
#X obj 415 271 - 1;
#X obj 108 307 tabwrite xaccel;
#X msg 337 197 \; xaccel resize \$1;
#X obj 340 306 tabdump xaccel;
#X obj 340 503 tabwrite xaccel;
#X obj 340 371 list-drip;
#X connect 1 0 18 0;
#X connect 2 0 20 0;
#X connect 3 0 1 0;
#X connect 3 0 4 0;
#X connect 3 0 16 0;
#X connect 4 0 16 1;
#X connect 5 0 7 0;
#X connect 6 0 5 0;
#X connect 7 0 19 1;
#X connect 8 0 5 0;
#X connect 9 0 5 0;
#X connect 10 0 9 0;
#X connect 10 0 8 0;
#X connect 10 0 14 0;
#X connect 11 0 3 0;
#X connect 12 0 17 0;
#X connect 12 0 15 0;
#X connect 13 0 12 0;
#X connect 14 0 12 0;
#X connect 15 0 2 1;
#X connect 18 0 2 0;
#X connect 20 0 6 0;
#X connect 20 0 19 0;
#X connect 20 1 5 2;
#X coords 0 -1 1 1 100 100 1 100 100;
#X restore -37 24 pd x;
#N canvas 802 154 595 571 y 0;
#N canvas 205 344 450 300 (subpatch) 0;
#X array yaccel 100 float 0;
#X coords 0 255 99 0 100 25 1;
#X restore 100 101 graph;
#X obj 340 274 bng 15 250 50 0 empty empty empty 17 7 0 10 -262144
-1 -1;
#X obj 340 334 list split 99;
#X floatatom 108 250 5 0 0 0 newest_datapoint - -;
#X msg 165 283 0;
#X obj 397 448 counter;
#X obj 364 405 bng 15 250 50 0 empty empty empty 17 7 0 10 -262144
-1 -1;
#X floatatom 397 475 10 0 0 0 - - -;
#X msg 489 404 min 1;
#X msg 455 404 up;
#X obj 456 106 loadbang;
#X obj 107 190 inlet;
#X floatatom 412 159 5 5 300 1 Datapoints/plot - -;
#X obj 412 73 inlet;
#X msg 426 135 100;
#X obj 415 271 - 1;
#X obj 108 307 tabwrite yaccel;
#X msg 337 197 \; yaccel resize \$1;
#X obj 340 306 tabdump yaccel;
#X obj 340 503 tabwrite yaccel;
#X obj 340 371 list-drip;
#X connect 1 0 18 0;
#X connect 2 0 20 0;
#X connect 3 0 1 0;
#X connect 3 0 4 0;
#X connect 3 0 16 0;
#X connect 4 0 16 1;
#X connect 5 0 7 0;
#X connect 6 0 5 0;
#X connect 7 0 19 1;
#X connect 8 0 5 0;
#X connect 9 0 5 0;
#X connect 10 0 9 0;
#X connect 10 0 8 0;
#X connect 10 0 14 0;
#X connect 11 0 3 0;
#X connect 12 0 17 0;
#X connect 12 0 15 0;
#X connect 13 0 12 0;
#X connect 14 0 12 0;
#X connect 15 0 2 1;
#X connect 18 0 2 0;
#X connect 20 0 6 0;
#X connect 20 0 19 0;
#X connect 20 1 5 2;
#X coords 0 -1 1 1 100 100 1 100 100;
#X restore -38 159 pd y;
#X text 370 225 X;
#X text 451 225 Z;
#X text 407 223 Y;
#X floatatom 344 384 5 0 0 0 - - -;
#X floatatom 478 313 5 0 0 0 - - -;
#X msg 717 190 symbol oud-samples/trill3.wav;
#X msg 717 237 symbol oud-samples/short-glissdown.1.wav;
#X msg 717 326 symbol oud-samples/lowD1.wav;
#X msg 717 282 symbol oud-samples/harm-allstrings.1.wav;
#X obj 717 303 store-sample harm;
#X obj 717 211 store-sample trill;
#X obj 717 258 store-sample gliss;
#X obj 717 347 store-sample lowD;
#X text 769 154 Loading sound files into memory;
#X obj 695 149 loadbang;
#X msg 344 449 symbol trill;
#X obj 323 75 hsl 128 15 0 1 0 0 empty empty empty -2 -6 0 8 -262144
-1 -1 0 1;
#X floatatom 320 97 5 0 0 0 - - -;
#X obj 343 592 dac~;
#X obj 343 525 *~;
#X text 320 55 Volume;
#X obj 344 495 play-sample;
#X obj 344 471 t b s;
#X text 321 37 2) Adjust the volume;
#X msg 407 472 0.5;
#X obj 344 421 bng 15 250 50 0 empty empty empty 17 7 0 10 -262144
-1 -1;
#X msg 698 73 \; pd dsp 1;
#X msg 699 107 \; pd dsp 0;
#X obj 105 273 arduino 1;
#X obj 359 150 route analog;
#X obj 360 178 route 0 1 2;
#N canvas 0 22 560 567 display 0;
#X obj 16 17 inlet;
#X obj 16 60 outlet;
#X obj 64 60 inlet;
#X obj 64 103 outlet;
#X obj 113 103 inlet;
#X obj 113 146 outlet;
#X obj 70 300 receive ARDUINO_TEST_RESET;
#X obj 16 38 resample 100;
#X obj 64 80 resample 100;
#X obj 113 124 resample 100;
#X connect 0 0 7 0;
#X connect 2 0 8 0;
#X connect 4 0 9 0;
#X connect 6 0 7 0;
#X connect 6 0 8 0;
#X connect 6 0 9 0;
#X connect 7 0 1 0;
#X connect 8 0 3 0;
#X connect 9 0 5 0;
#X restore 359 205 pd display values without pegging the CPU;
#X msg 130 99 open 4;
#N canvas 157 469 525 433 serin 0;
#X obj 180 61 cnv 15 15 15 empty \$0-number-canvas 4 4 8 0 14 -233017
-1 0;
#X obj 200 225 s \$0-number-canvas;
#X obj 60 61 hradio 15 1 1 8 empty empty empty 0 -6 0 8 -225271 -1
-1 4;
#X obj 60 13 inlet;
#X msg 200 202 label \$1;
#X obj 200 180 makefilename %d;
#X obj 59 108 int;
#X msg 59 206 open \$1;
#X obj 59 377 outlet;
#X msg 201 306 set \$1 \$2;
#X obj 59 266 trigger bang anything;
#X obj 201 286 list;
#X obj 383 383 outlet;
#X obj 384 22 netreceive 34567;
#X obj 477 43 tgl 15 0 empty empty empty 0 -6 0 10 -262144 -1 -1 0
1;
#X obj 384 41 bng 15 250 50 0 empty empty empty 0 -6 0 10 -262144 -1
-1;
#X obj 187 24 delay 15000;
#X text 345 379 close;
#X text 209 4 for open/close automation in Makefile;
#N canvas 698 22 318 215 reset 0;
#X obj 65 24 inlet;
#X obj 66 58 bang;
#X obj 66 150 send ARDUINO_TEST_RESET;
#X msg 66 129 0;
#X msg 111 99 1;
#X obj 111 120 send ARDUINO_PINMODE_RESET;
#X connect 0 0 1 0;
#X connect 1 0 3 0;
#X connect 1 0 4 0;
#X connect 3 0 2 0;
#X connect 4 0 5 0;
#X restore 172 111 pd reset guis;
#X connect 2 0 6 0;
#X connect 2 0 19 0;
#X connect 3 0 2 0;
#X connect 4 0 1 0;
#X connect 5 0 4 0;
#X connect 6 0 5 0;
#X connect 6 0 7 0;
#X connect 7 0 10 0;
#X connect 9 0 8 0;
#X connect 10 0 8 0;
#X connect 10 1 11 0;
#X connect 11 0 9 0;
#X connect 13 0 15 0;
#X connect 13 1 14 0;
#X connect 15 0 16 0;
#X connect 15 0 12 0;
#X connect 16 0 2 0;
#X coords 0 -1 1 1 136 17 1 60 60;
#X restore 130 74 pd serin;
#X text 128 55 serial port #;
#X msg 231 99 close;
#N canvas 0 22 450 300 (subpatch) 0;
#X coords 0 1 100 -1 200 70 1;
#X restore 88 56 graph;
#X text 86 20 SETUP PARAMETERS;
#X obj 88 162 t b b;
#X msg 103 193 analogIns 0 1;
#X msg 103 239 analogIns 2 1;
#X msg 103 215 analogIns 1 1;
#X text 85 38 1) select serial port;
#X obj 88 132 loadbang;
#X obj 344 339 threshold;
#X text 477 37 3) turn input messages on/off;
#X obj 447 400 gemhead;
#X obj 824 402 gemhead;
#X obj 825 460 color 0 0 1;
#X obj 447 570 translateXYZ -2 0 0;
#X obj 447 607 rectangle 0.5 1;
#X obj 635 601 rectangle 0.5 1;
#X obj 824 602 rectangle 0.5 1;
#X obj 635 570 translateXYZ 0 0 0;
#X obj 824 572 translateXYZ 2 0 0;
#X obj 447 460 color 1 0 0;
#X obj 635 460 color 0 1 0;
#X text 527 461 comment;
#X text 715 456 comment;
#X obj 635 401 gemhead;
#X obj 775 38 cnv 15 220 70 empty empty empty 20 12 0 14 -195568 -66577
0;
#N canvas 0 22 454 304 gemwin 0;
#X obj 132 136 gemwin;
#X obj 67 89 outlet;
#X obj 67 10 inlet;
#X obj 67 41 route create;
#X msg 67 70 set destroy;
#X msg 182 68 set create;
#X msg 132 112 create \, 1;
#X msg 238 112 destroy;
#N canvas 87 154 247 179 Gem.init 0;
#X obj 59 46 loadbang;
#X msg 118 81 reset;
#X obj 118 113 outlet;
#X obj 59 65 t b b;
#X connect 0 0 3 0;
#X connect 1 0 2 0;
#X connect 3 1 1 0;
#X restore 289 80 pd Gem.init;
#X connect 2 0 3 0;
#X connect 3 0 4 0;
#X connect 3 0 6 0;
#X connect 3 1 5 0;
#X connect 3 1 7 0;
#X connect 4 0 1 0;
#X connect 5 0 1 0;
#X connect 6 0 0 0;
#X connect 7 0 0 0;
#X connect 8 0 0 0;
#X restore 780 82 pd gemwin;
#X msg 780 58 create;
#X text 776 38 4) Create window and render;
#X obj 521 537 r xlx;
#N canvas 802 154 595 571 z 0;
#N canvas 205 344 450 300 (subpatch) 0;
#X array zaccel 100 float 0;
#X coords 0 255 99 0 100 25 1;
#X restore 100 100 graph;
#X obj 340 274 bng 15 250 50 0 empty empty empty 17 7 0 10 -262144
-1 -1;
#X obj 340 334 list split 99;
#X floatatom 108 250 5 0 0 0 newest_datapoint - -;
#X msg 165 283 0;
#X obj 397 448 counter;
#X obj 364 405 bng 15 250 50 0 empty empty empty 17 7 0 10 -262144
-1 -1;
#X floatatom 397 475 10 0 0 0 - - -;
#X msg 489 404 min 1;
#X msg 455 404 up;
#X obj 456 106 loadbang;
#X obj 107 190 inlet;
#X floatatom 412 159 5 5 300 1 Datapoints/plot - -;
#X obj 412 73 inlet;
#X msg 426 135 100;
#X obj 415 271 - 1;
#X obj 108 307 tabwrite zaccel;
#X msg 337 197 \; zaccel resize \$1;
#X obj 340 306 tabdump zaccel;
#X obj 340 503 tabwrite zaccel;
#X obj 340 371 list-drip;
#X connect 1 0 18 0;
#X connect 2 0 20 0;
#X connect 3 0 1 0;
#X connect 3 0 4 0;
#X connect 3 0 16 0;
#X connect 4 0 16 1;
#X connect 5 0 7 0;
#X connect 6 0 5 0;
#X connect 7 0 19 1;
#X connect 8 0 5 0;
#X connect 9 0 5 0;
#X connect 10 0 9 0;
#X connect 10 0 8 0;
#X connect 10 0 14 0;
#X connect 11 0 3 0;
#X connect 12 0 17 0;
#X connect 12 0 15 0;
#X connect 13 0 12 0;
#X connect 14 0 12 0;
#X connect 15 0 2 1;
#X connect 18 0 2 0;
#X connect 20 0 6 0;
#X connect 20 0 19 0;
#X connect 20 1 5 2;
#X coords 0 -1 1 1 100 100 1 100 100;
#X restore -35 297 pd z;
#X obj -77 51 * 200;
#X obj -83 183 * 200;
#X obj -79 323 * 200;
#X obj -82 159 r xly;
#X obj 705 539 r xly;
#X obj 894 542 r xlz;
#X text -66 484 accel.pd Lab 5 Music 250a \, Autumn 2011 by Wendy Ju
10/26/11 modified from accel_osc.pd by Luke Dahl 10/13/09;
#X connect 0 0 5 0;
#X connect 0 0 56 0;
#X connect 1 0 7 0;
#X connect 2 0 8 0;
#X connect 3 0 41 0;
#X connect 4 0 3 1;
#X connect 6 0 78 0;
#X connect 9 0 80 0;
#X connect 15 0 37 0;
#X connect 17 0 22 0;
#X connect 18 0 23 0;
#X connect 19 0 24 0;
#X connect 20 0 21 0;
#X connect 26 0 17 0;
#X connect 26 0 18 0;
#X connect 26 0 20 0;
#X connect 26 0 19 0;
#X connect 27 0 34 0;
#X connect 28 0 29 0;
#X connect 29 0 31 1;
#X connect 31 0 30 0;
#X connect 31 0 30 1;
#X connect 33 0 31 0;
#X connect 34 0 33 0;
#X connect 34 1 33 1;
#X connect 36 0 33 2;
#X connect 37 0 27 0;
#X connect 40 0 3 0;
#X connect 41 0 42 0;
#X connect 42 0 43 0;
#X connect 42 1 43 1;
#X connect 42 2 43 2;
#X connect 43 0 0 0;
#X connect 43 1 1 0;
#X connect 43 2 2 0;
#X connect 44 0 40 0;
#X connect 45 0 44 0;
#X connect 45 1 47 0;
#X connect 47 0 40 0;
#X connect 50 0 45 0;
#X connect 50 1 51 0;
#X connect 50 1 53 0;
#X connect 50 1 52 0;
#X connect 51 0 40 0;
#X connect 52 0 40 0;
#X connect 53 0 40 0;
#X connect 55 0 50 0;
#X connect 56 0 15 0;
#X connect 58 0 67 0;
#X connect 59 0 60 0;
#X connect 60 0 66 0;
#X connect 61 0 62 0;
#X connect 65 0 63 0;
#X connect 66 0 64 0;
#X connect 67 0 61 0;
#X connect 68 0 65 0;
#X connect 71 0 68 0;
#X connect 73 0 74 0;
#X connect 74 0 73 0;
#X connect 76 0 61 2;
#X connect 76 0 62 2;
#X connect 78 0 10 0;
#X connect 79 0 11 0;
#X connect 80 0 77 0;
#X connect 81 0 79 0;
#X connect 82 0 65 2;
#X connect 82 0 63 2;
#X connect 83 0 66 2;
#X connect 83 0 64 2;
