#N canvas 293 92 697 504 10;
#X obj 154 37 dumpOSC 8000;
#X obj 327 144 print OSCmsg;
#X obj 153 119 OSCroute /accxyz;
#X obj 153 158 unpack f f f;
#X floatatom 145 213 5 0 0 0 - - -;
#X floatatom 188 212 5 0 0 0 - - -;
#X floatatom 233 212 5 0 0 0 - - -;
#X obj 155 93 spigot;
#X obj 237 37 tgl 15 0 empty empty empty 17 7 0 10 -262144 -1 -1 0
1;
#X obj 145 259 s xlx;
#X obj -77 24 r xlx;
#X obj 145 234 * 200;
#X obj 188 234 * 200;
#X obj 233 234 * 200;
#X obj 188 259 s xly;
#X obj 233 259 s xlz;
#X obj -82 159 r xly;
#X obj -79 297 r xlz;
#N canvas 802 154 595 571 x 0;
#N canvas 205 344 450 300 (subpatch) 0;
#X array xaccel 100 float 0;
#X coords 0 255 99 0 100 25 1;
#X restore 100 100 graph;
#X obj 340 274 bng 15 250 50 0 empty empty empty 17 7 0 10 -262144
-1 -1;
#X obj 340 334 list split 99;
#X floatatom 108 250 5 0 0 0 newest_datapoint - -;
#X msg 165 283 0;
#X obj 397 448 counter;
#X obj 364 405 bng 15 250 50 0 empty empty empty 17 7 0 10 -262144
-1 -1;
#X floatatom 397 475 10 0 0 0 - - -;
#X msg 489 404 min 1;
#X msg 455 404 up;
#X obj 456 106 loadbang;
#X obj 107 190 inlet;
#X floatatom 412 159 5 5 300 1 Datapoints/plot - -;
#X obj 412 73 inlet;
#X msg 426 135 100;
#X obj 415 271 - 1;
#X obj 108 307 tabwrite xaccel;
#X msg 337 197 \; xaccel resize \$1;
#X obj 340 306 tabdump xaccel;
#X obj 340 503 tabwrite xaccel;
#X obj 340 371 list-abs/list-drip;
#X connect 1 0 18 0;
#X connect 2 0 20 0;
#X connect 3 0 1 0;
#X connect 3 0 4 0;
#X connect 3 0 16 0;
#X connect 4 0 16 1;
#X connect 5 0 7 0;
#X connect 6 0 5 0;
#X connect 7 0 19 1;
#X connect 8 0 5 0;
#X connect 9 0 5 0;
#X connect 10 0 9 0;
#X connect 10 0 8 0;
#X connect 10 0 14 0;
#X connect 11 0 3 0;
#X connect 12 0 17 0;
#X connect 12 0 15 0;
#X connect 13 0 12 0;
#X connect 14 0 12 0;
#X connect 15 0 2 1;
#X connect 18 0 2 0;
#X connect 20 0 6 0;
#X connect 20 0 19 0;
#X connect 20 1 5 2;
#X coords 0 -1 1 1 100 100 1 100 100;
#X restore -37 24 pd x;
#N canvas 802 154 595 571 y 0;
#N canvas 205 344 450 300 (subpatch) 0;
#X array yaccel 100 float 0;
#X coords 0 255 99 0 100 25 1;
#X restore 100 101 graph;
#X obj 340 274 bng 15 250 50 0 empty empty empty 17 7 0 10 -262144
-1 -1;
#X obj 340 334 list split 99;
#X floatatom 108 250 5 0 0 0 newest_datapoint - -;
#X msg 165 283 0;
#X obj 397 448 counter;
#X obj 364 405 bng 15 250 50 0 empty empty empty 17 7 0 10 -262144
-1 -1;
#X floatatom 397 475 10 0 0 0 - - -;
#X msg 489 404 min 1;
#X msg 455 404 up;
#X obj 456 106 loadbang;
#X obj 107 190 inlet;
#X floatatom 412 159 5 5 300 1 Datapoints/plot - -;
#X obj 412 73 inlet;
#X msg 426 135 100;
#X obj 415 271 - 1;
#X obj 108 307 tabwrite yaccel;
#X msg 337 197 \; yaccel resize \$1;
#X obj 340 306 tabdump yaccel;
#X obj 340 503 tabwrite yaccel;
#X obj 340 371 list-abs/list-drip;
#X connect 1 0 18 0;
#X connect 2 0 20 0;
#X connect 3 0 1 0;
#X connect 3 0 4 0;
#X connect 3 0 16 0;
#X connect 4 0 16 1;
#X connect 5 0 7 0;
#X connect 6 0 5 0;
#X connect 7 0 19 1;
#X connect 8 0 5 0;
#X connect 9 0 5 0;
#X connect 10 0 9 0;
#X connect 10 0 8 0;
#X connect 10 0 14 0;
#X connect 11 0 3 0;
#X connect 12 0 17 0;
#X connect 12 0 15 0;
#X connect 13 0 12 0;
#X connect 14 0 12 0;
#X connect 15 0 2 1;
#X connect 18 0 2 0;
#X connect 20 0 6 0;
#X connect 20 0 19 0;
#X connect 20 1 5 2;
#X coords 0 -1 1 1 100 100 1 100 100;
#X restore -38 159 pd y;
#N canvas 802 154 595 571 z 0;
#N canvas 205 344 450 300 (subpatch) 0;
#X array zaccel 100 float 0;
#X coords 0 255 99 0 100 25 1;
#X restore 100 100 graph;
#X obj 340 274 bng 15 250 50 0 empty empty empty 17 7 0 10 -262144
-1 -1;
#X obj 340 334 list split 99;
#X floatatom 108 250 5 0 0 0 newest_datapoint - -;
#X msg 165 283 0;
#X obj 397 448 counter;
#X obj 364 405 bng 15 250 50 0 empty empty empty 17 7 0 10 -262144
-1 -1;
#X floatatom 397 475 10 0 0 0 - - -;
#X msg 489 404 min 1;
#X msg 455 404 up;
#X obj 456 106 loadbang;
#X obj 107 190 inlet;
#X floatatom 412 159 5 5 300 1 Datapoints/plot - -;
#X obj 412 73 inlet;
#X msg 426 135 100;
#X obj 415 271 - 1;
#X obj 108 307 tabwrite zaccel;
#X msg 337 197 \; zaccel resize \$1;
#X obj 340 306 tabdump zaccel;
#X obj 340 503 tabwrite zaccel;
#X obj 340 371 list-abs/list-drip;
#X connect 1 0 18 0;
#X connect 2 0 20 0;
#X connect 3 0 1 0;
#X connect 3 0 4 0;
#X connect 3 0 16 0;
#X connect 4 0 16 1;
#X connect 5 0 7 0;
#X connect 6 0 5 0;
#X connect 7 0 19 1;
#X connect 8 0 5 0;
#X connect 9 0 5 0;
#X connect 10 0 9 0;
#X connect 10 0 8 0;
#X connect 10 0 14 0;
#X connect 11 0 3 0;
#X connect 12 0 17 0;
#X connect 12 0 15 0;
#X connect 13 0 12 0;
#X connect 14 0 12 0;
#X connect 15 0 2 1;
#X connect 18 0 2 0;
#X connect 20 0 6 0;
#X connect 20 0 19 0;
#X connect 20 1 5 2;
#X coords 0 -1 1 1 100 100 1 100 100;
#X restore -35 297 pd z;
#X text 154 196 X;
#X text 249 193 Z;
#X text 200 194 Y;
#X obj 327 116 spigot;
#X obj 418 91 tgl 15 0 empty empty empty 17 7 0 10 -262144 -1 -1 0
1;
#X text 265 38 OSC on/off;
#X text 446 89 print on/off;
#X text -71 435 accel_osc.pd Lab 4 music 250a \, Autumn 2009 created
by Luke Dahl 10/13/09;
#X obj 368 369 threshold;
#X connect 0 0 7 0;
#X connect 0 0 24 0;
#X connect 2 0 3 0;
#X connect 3 0 4 0;
#X connect 3 1 5 0;
#X connect 3 2 6 0;
#X connect 4 0 11 0;
#X connect 5 0 12 0;
#X connect 6 0 13 0;
#X connect 7 0 2 0;
#X connect 8 0 7 1;
#X connect 10 0 18 0;
#X connect 11 0 9 0;
#X connect 12 0 14 0;
#X connect 13 0 15 0;
#X connect 16 0 19 0;
#X connect 17 0 20 0;
#X connect 24 0 1 0;
#X connect 25 0 24 1;
