#N canvas 617 175 255 294 10;
#X obj 53 80 inlet;
#X obj 97 158 float;
#X obj 75 206 -;
#X obj 53 112 t f f b;
#X obj 75 232 outlet;
#X text 26 15 Output the difference between;
#X text 25 29 the current input and the;
#X text 25 43 previous input.;
#X connect 0 0 3 0;
#X connect 1 0 2 1;
#X connect 2 0 4 0;
#X connect 3 0 1 1;
#X connect 3 1 2 0;
#X connect 3 2 1 0;
