#N canvas 0 0 450 300 10;
#X msg 55 84 1;
#X msg 89 84 2;
#X msg 124 84 3;
#X msg 157 84 4;
#X msg 190 84 5;
#X floatatom 92 117 5 0 0 0 - - -;
#X floatatom 92 161 5 0 0 0 - - -;
#X text 57 55 Input values;
#X text 56 178 Output is the difference between;
#X text 56 193 the current input and the;
#X text 56 207 previous input.;
#X obj 92 138 delta;
#X connect 0 0 5 0;
#X connect 1 0 5 0;
#X connect 2 0 5 0;
#X connect 3 0 5 0;
#X connect 4 0 5 0;
#X connect 5 0 11 0;
#X connect 11 0 6 0;
